<?xml version="1.0" standalone="no"?>
<!DOCTYPE svg PUBLIC "-//W3C//DTD SVG 1.1//EN" "http://www.w3.org/Graphics/SVG/1.1/DTD/svg11.dtd" >
<svg xmlns="http://www.w3.org/2000/svg" xmlns:xlink="http://www.w3.org/1999/xlink" version="1.1">
<metadata>
Created by FontForge 20170731 at Tue Dec  7 14:12:27 2021
 By Aleksey,,,
Copyright 2019 The Hanuman Project Authors (https://github.com/danhhong/Hanuman)
</metadata>
<defs>
<font id="Hanuman-Light" horiz-adv-x="0" >
  <font-face 
    font-family="Hanuman Light"
    font-weight="300"
    font-stretch="normal"
    units-per-em="2048"
    panose-1="0 0 0 0 0 0 0 0 0 0"
    ascent="1638"
    descent="-410"
    x-height="1082"
    cap-height="1456"
    bbox="-2260 -900 4210 2150"
    underline-thickness="50"
    underline-position="-175"
    unicode-range="U+0020-25CC"
  />
<missing-glyph horiz-adv-x="1024" 
d="M102 -900v3050h820v-3050h-820zM204 -798h616v2846h-616v-2846z" />
    <glyph glyph-name=".notdef" horiz-adv-x="1024" 
d="M102 -900v3050h820v-3050h-820zM204 -798h616v2846h-616v-2846z" />
    <glyph glyph-name=".null" 
 />
    <glyph glyph-name="nonmarkingreturn" horiz-adv-x="682" 
 />
    <glyph glyph-name="space" unicode=" " horiz-adv-x="700" 
 />
    <glyph glyph-name="exclam" unicode="!" horiz-adv-x="458" 
d="M274 1456v-978h-120v978h120zM285 166v-166h-142v166h142z" />
    <glyph glyph-name="quotedbl" unicode="&#x22;" horiz-adv-x="680" 
d="M277 1366l-39 -275h-72l8 283v186h103v-194zM518 1366l-39 -275h-72l8 283v186h103v-194z" />
    <glyph glyph-name="numbersign" unicode="#" horiz-adv-x="1246" 
d="M417 410l-77 -410h-99l76 410h-254v93h273l82 442h-279v95h298l78 416h100l-79 -416h314l79 416h100l-79 -416h229v-95h-247l-83 -442h255v-93h-273l-77 -410h-100l77 410h-314zM832 945h-314l-82 -442h313z" />
    <glyph glyph-name="dollar" unicode="$" horiz-adv-x="1097" 
d="M599 -19v-189h-102v189q-121 8 -215 57q-95 48 -148.5 141t-50.5 234l2 5h112q0 -118 47 -192t125 -108t173 -34q98 0 170 36q72 35 111 97.5t39 141.5q0 74 -30 129q-58 104 -296 187q-138 43 -229 99q-91 55 -135 132t-44 189q0 163 100 264.5t272 114.5v203h103v-203
q174 -17 271 -131.5t95 -311.5l-7 -2h-109q0 152 -80 247.5t-224 95.5q-148 0 -224.5 -77.5t-76.5 -196.5q0 -76 29 -132q29 -55 100 -99t200 -87q136 -46 228 -101q90 -55 133.5 -131t43.5 -187q0 -166 -103.5 -265.5t-279.5 -114.5z" />
    <glyph glyph-name="percent" unicode="%" horiz-adv-x="1458" 
d="M364 800q-86 0 -150 40t-100.5 107.5t-36.5 151.5v77q0 84 36 153q35 68 99.5 108t149.5 40q86 0 150 -40q65 -40 100 -108.5t35 -152.5v-77q0 -83 -35 -151q-36 -67 -100 -107.5t-148 -40.5zM364 886q89 0 137.5 62.5t48.5 150.5v77q0 88 -49 151.5t-139 63.5t-139 -64
t-49 -151v-77q0 -88 49 -150.5t141 -62.5zM1040 1307l75 -48l-711 -1138l-75 48zM1096 -21q-86 0 -150 40t-100.5 108t-36.5 152v78q0 84 36 151q36 68 100 108.5t149 40.5q86 0 150 -40q65 -40 100.5 -108t35.5 -152v-78q0 -84 -36 -152t-100 -108t-148 -40zM1096 65
q89 0 138 62.5t49 151.5v78q0 91 -49 152.5t-140 61.5q-90 0 -139 -61.5t-49 -152.5v-78q0 -89 49 -151.5t141 -62.5z" />
    <glyph glyph-name="ampersand" unicode="&#x26;" horiz-adv-x="1270" 
d="M526 -21q-141 0 -240 49q-101 48 -156.5 136t-55.5 206q0 117 67.5 211t195.5 191q4 4 8 7l8 6l16 12q-80 101 -118.5 182.5t-38.5 168.5q0 106 40 179q81 150 293 150q96 0 166 -37t108.5 -101t38.5 -146q0 -91 -45 -155.5t-130 -128.5l-159 -124l412 -480q48 71 75 159
t27 187h111q0 -128 -36.5 -235t-105.5 -194l185 -217l-2 -5h-138l-123 142q-78 -70 -177 -116.5t-226 -46.5zM460 860l176 134q59 44 83.5 93.5t24.5 105.5q0 79 -52.5 131t-146.5 52q-102 0 -157.5 -65t-55.5 -161q0 -136 128 -290zM526 79q191 0 336 143l-427 495l-46 -35
q-116 -95 -155.5 -170.5t-39.5 -141.5q0 -124 85.5 -207.5t246.5 -83.5z" />
    <glyph glyph-name="quotesingle" unicode="'" horiz-adv-x="439" 
d="M277 1366l-39 -275h-72l8 283v186h103v-194z" />
    <glyph glyph-name="parenleft" unicode="(" horiz-adv-x="637" 
d="M595 -394l-26 -69h-6q-87 50 -167.5 148t-143.5 234q-64 136 -101 302t-37 352v15q0 182 37.5 348t101.5 304q63 137 143.5 237t166.5 148h6l26 -73q-151 -111 -253 -367q-51 -127 -79.5 -277.5t-28.5 -316.5v-20q0 -166 28.5 -316.5t78.5 -277.5q103 -259 254 -371z" />
    <glyph glyph-name="parenright" unicode=")" horiz-adv-x="629" 
d="M43 -463h-6l-26 69q149 107 252 368q50 128 79.5 279.5t29.5 317.5v20q0 164 -30 315t-80 279t-115 223t-136 148l26 69h6q85 -48 165.5 -148t144.5 -237q64 -138 101.5 -304t37.5 -348v-15q0 -186 -37.5 -352t-100.5 -302q-64 -136 -144.5 -234t-166.5 -148z" />
    <glyph glyph-name="asterisk" unicode="*" horiz-adv-x="953" 
d="M546 995l223 -295l-85 -62l-214 306l-204 -304l-85 60l217 301l-332 108l32 100l332 -123l-4 370h104l-8 -373l325 127l33 -100z" />
    <glyph glyph-name="plus" unicode="+" horiz-adv-x="1145" 
d="M627 629v-483h-120v483h-434v110h434v467h120v-467h444v-110h-444z" />
    <glyph glyph-name="comma" unicode="," horiz-adv-x="393" 
d="M131 -281l-71 52q47 66 69.5 131t22.5 143v143h120v-140q0 -93 -37.5 -180t-103.5 -149z" />
    <glyph glyph-name="hyphen" unicode="-" horiz-adv-x="793" 
d="M633 671v-100h-479v100h479z" />
    <glyph glyph-name="period" unicode="." horiz-adv-x="467" 
d="M282 163v-163h-137v163h137z" />
    <glyph glyph-name="slash" unicode="/" horiz-adv-x="798" 
d="M716 1456l-607 -1581h-109l608 1581h108z" />
    <glyph glyph-name="zero" unicode="0" horiz-adv-x="1158" 
d="M575 -21q-213 0 -333.5 152.5t-120.5 433.5v325q0 282 119.5 434.5t332.5 152.5t333 -152.5t120 -434.5v-325q0 -282 -119 -434t-332 -152zM575 79q162 0 246.5 122.5t84.5 346.5v362q0 224 -85 345t-248 121q-162 0 -247 -121t-85 -345v-362q0 -223 86 -346t248 -123z
" />
    <glyph glyph-name="one" unicode="1" horiz-adv-x="832" 
d="M757 87v-87h-643v87l262 13v1232l-288 -43v84l408 87v-1360z" />
    <glyph glyph-name="two" unicode="2" horiz-adv-x="1116" 
d="M1006 306v-306h-904v91l477 541q44 50 79.5 95t61.5 83q53 77 76.5 140.5t23.5 125.5q0 136 -77.5 218t-225.5 82q-155 0 -241 -92t-86 -247h-112l-2 6q-3 122 51 221q53 98 154 155.5t239 57.5q130 0 224 -49q95 -49 146 -138t51 -210q0 -81 -33 -161q-34 -81 -98 -169
t-155 -190l-401 -455l2 -5h637l7 206h106z" />
    <glyph glyph-name="three" unicode="3" horiz-adv-x="1102" 
d="M535 -21q-129 0 -234 49q-106 49 -167.5 140.5t-58.5 220.5l2 6h112q0 -93 44 -164q44 -72 122 -112t180 -40q154 0 241 81.5t87 230.5q0 154 -91 227.5t-259 73.5h-139v101h139q107 0 178 37q144 73 144 247q0 137 -77 218t-228 81q-95 0 -166 -37q-72 -37 -113 -105
t-41 -159h-112l-2 6q-3 113 53 204q56 89 155 140.5t226 51.5q194 0 309.5 -107t115.5 -297q0 -103 -64 -193.5t-181 -133.5q137 -39 205 -131t68 -220q0 -130 -57 -223t-158.5 -143t-232.5 -50z" />
    <glyph glyph-name="four" unicode="4" horiz-adv-x="1178" 
d="M1028 87v-87h-446v87l163 13v269h-682v67l671 1020h131v-987h228v-100h-228v-269zM739 1287l-51 -94l-483 -724h540v816z" />
    <glyph glyph-name="five" unicode="5" horiz-adv-x="1070" 
d="M512 -21q-121 0 -216 45t-148.5 133.5t-50.5 219.5l2 6h107q0 -147 83.5 -225.5t222.5 -78.5q162 0 242.5 98.5t80.5 284.5q0 164 -81 262.5t-225 98.5q-140 0 -213.5 -45t-105.5 -135l-98 17l81 796h731v-236h-97l-9 127h-522l-54 -522q35 32 77 57q41 23 94 36t128 15
q124 1 218 -55q93 -57 145 -163.5t52 -250.5q0 -149 -49 -256q-49 -109 -148 -169t-247 -60z" />
    <glyph glyph-name="six" unicode="6" horiz-adv-x="1124" 
d="M582 -21q-135 0 -239 69q-104 68 -163 198t-59 316v267q0 212 64 356q63 144 175 218t256 74q75 0 148 -16.5t129 -48.5l-29 -96q-57 31 -113 45.5t-135 14.5q-165 0 -267 -125.5t-105 -380.5l2 -96q51 83 144 135.5t210 52.5q131 0 226 -61t146 -172t51 -255
q0 -145 -55 -255q-55 -112 -155 -176t-231 -64zM582 79q96 0 170 53q72 53 111.5 142.5t39.5 199.5q0 175 -85 283t-242 108q-87 0 -158 -34q-72 -34 -119 -92.5t-58 -130.5v-56q0 -226 95 -349.5t246 -123.5z" />
    <glyph glyph-name="seven" unicode="7" horiz-adv-x="1115" 
d="M503 121l-11 -121h-120l11 121q29 249 96 463q68 215 175 405.5t253 365.5h-717l-7 -205h-107v306h955v-101q-119 -139 -208.5 -277.5t-152.5 -285.5q-64 -148 -104.5 -313t-62.5 -358z" />
    <glyph glyph-name="eight" unicode="8" horiz-adv-x="1127" 
d="M561 -21q-139 0 -245 47t-165 138t-59 222q0 128 79.5 224.5t213.5 136.5q-116 39 -184 127.5t-68 206.5q0 127 54 215q54 89 150 135t222 46q123 0 222 -47q96 -47 151.5 -135.5t55.5 -213.5q0 -118 -70 -206.5t-185 -127.5q133 -41 214.5 -137t81.5 -224
q0 -130 -60 -222q-60 -91 -165.5 -138t-242.5 -47zM561 797q89 0 158 36q69 35 109 99t40 150q0 84 -41 152q-41 66 -111 104t-157 38q-135 0 -220.5 -80t-85.5 -214q0 -130 86 -207.5t222 -77.5zM561 79q102 0 180 37t123 105.5t45 163.5q0 93 -46 163q-46 71 -125 110
t-179 39q-101 0 -179 -39q-79 -40 -123.5 -110t-44.5 -163q0 -144 97 -225t252 -81z" />
    <glyph glyph-name="nine" unicode="9" horiz-adv-x="1138" 
d="M506 -21q-161 0 -306 61l22 100q69 -32 134.5 -46.5t149.5 -14.5q166 0 261 124.5t97 380.5l-2 69q-49 -90 -137.5 -140t-198.5 -50q-133 0 -232 63q-100 62 -155 174t-55 258q0 148 58 265t158.5 185.5t226.5 68.5q143 0 246 -61q104 -61 161.5 -186t57.5 -312v-306
q0 -212 -60 -352q-60 -141 -169 -211t-257 -70zM526 563q130 0 217.5 67.5t123.5 165.5v131q0 227 -89 338t-246 111q-93 0 -167 -56q-73 -57 -115 -151.5t-42 -210.5q0 -113 39 -202t110.5 -141t168.5 -52z" />
    <glyph glyph-name="colon" unicode=":" horiz-adv-x="389" 
d="M267 1080v-163h-137v163h137zM267 163v-163h-137v163h137z" />
    <glyph glyph-name="semicolon" unicode=";" horiz-adv-x="392" 
d="M272 1082v-163h-137v163h137zM136 -281l-71 52q47 66 69.5 131t22.5 143v143h120v-140q0 -93 -37.5 -180t-103.5 -149z" />
    <glyph glyph-name="less" unicode="&#x3c;" horiz-adv-x="1022" 
d="M289 516l614 -269v-124l-827 379v95l827 378v-124l-614 -273l-103 -28v-6z" />
    <glyph glyph-name="equal" unicode="=" horiz-adv-x="1127" 
d="M981 939v-105h-834v105h834zM981 527v-104h-834v104h834z" />
    <glyph glyph-name="greater" unicode="&#x3e;" horiz-adv-x="1056" 
d="M970 589v-96l-845 -379v122l631 275l103 28v6l-103 29l-631 271v122z" />
    <glyph glyph-name="question" unicode="?" horiz-adv-x="925" 
d="M481 405h-120q0 84 8.5 133.5t38 89.5t90.5 95q75 69 121 129q85 108 85 250q0 128 -68 199t-193 71q-119 0 -190 -68.5t-73 -187.5h-112l-3 6q-2 110 47 190q48 80 134 122.5t197 42.5q179 0 280 -101t101 -272q0 -92 -28 -164q-28 -73 -84.5 -143t-142.5 -151
q-39 -38 -58 -68q-19 -31 -24.5 -70t-5.5 -103zM497 153v-153h-139v153h139z" />
    <glyph glyph-name="at" unicode="@" horiz-adv-x="1809" 
d="M860 -453q-250 0 -428 113t-268 321.5t-78 496.5q12 284 123 495q110 212 299.5 329.5t439.5 117.5q258 0 433 -109t260 -312t74 -486q-6 -142 -56 -265q-50 -121 -143.5 -195t-230.5 -74q-78 0 -130.5 52t-68.5 145q-105 -197 -312 -197q-131 0 -199 119.5t-49 317.5
q15 169 74 296q59 126 150 195.5t203 69.5q93 0 150.5 -26.5t126.5 -81.5v-16l-49 -560q-6 -90 10 -138q16 -50 47 -70.5t68 -20.5q142 0 225 125t92 324q19 390 -151 606.5t-528 216.5q-219 0 -386 -107q-166 -108 -264 -301t-110 -450q-13 -251 64 -444q77 -191 233 -297
t384 -106q94 0 182 21.5t150 56.5l31 -73q-65 -41 -168 -65t-200 -24zM801 76q87 0 158 47.5t122 172.5q0 9 0.5 18.5t1.5 20.5l44 496q-64 56 -158 56q-134 0 -221.5 -118.5t-111.5 -352.5q-15 -155 27.5 -247.5t137.5 -92.5z" />
    <glyph glyph-name="A" unicode="A" horiz-adv-x="1500" 
d="M421 87v-87h-359v87l107 7l517 1362h114l513 -1362l107 -7v-87h-359v87l128 9l-121 329h-653l-122 -329zM740 1304l-21 -59l-265 -715h575l-263 715l-20 59h-6z" />
    <glyph glyph-name="B" unicode="B" horiz-adv-x="1282" 
d="M738 0h-662v87l163 13v1255l-163 13v88h583q227 0 354 -95.5t127 -287.5q0 -114 -64.5 -197.5t-177.5 -112.5q90 -15 159 -66q68 -51 106.5 -126.5t38.5 -164.5q0 -196 -126.5 -301t-337.5 -105zM659 1355h-300v-552h335q156 0 240.5 70t84.5 204q0 278 -360 278z
M757 702h-398v-602h379q161 0 252.5 80t91.5 224q0 88 -37 155q-37 68 -110 105.5t-178 37.5z" />
    <glyph glyph-name="C" unicode="C" horiz-adv-x="1321" 
d="M769 -21q-215 0 -363 95t-223.5 261.5t-75.5 382.5v19q0 220 79 385q78 167 222 261t338 94q150 0 258.5 -42t192.5 -115v-283h-102l-10 232q-44 34 -92 56q-49 23 -108.5 35.5t-138.5 12.5q-159 0 -275 -80q-117 -81 -180.5 -223.5t-63.5 -330.5v-21q0 -193 65 -337
q65 -143 186 -221t292 -78q92 0 177.5 23t144.5 61l10 220h101v-290q-89 -58 -200.5 -87.5t-233.5 -29.5z" />
    <glyph glyph-name="D" unicode="D" horiz-adv-x="1372" 
d="M644 0h-568v87l163 13v1255l-163 13v88h563q185 0 327 -92q141 -93 221.5 -254.5t80.5 -369.5v-24q0 -209 -79 -368q-79 -162 -219.5 -255t-325.5 -93zM639 1355h-280v-1255h280q153 0 266 82q114 81 178.5 220.5t64.5 313.5v26q0 177 -64 315t-178.5 218t-266.5 80z" />
    <glyph glyph-name="E" unicode="E" horiz-adv-x="1287" 
d="M1152 319v-319h-1076v87l163 13v1255l-163 13v88h1046v-319h-102l-10 220h-651v-551h587v-100h-587v-609h682l10 222h101z" />
    <glyph glyph-name="F" unicode="F" horiz-adv-x="1251" 
d="M522 87v-87h-446v87l163 13v1255l-163 13v88h1078v-319h-102l-10 219h-683v-572h593v-101h-593v-583z" />
    <glyph glyph-name="G" unicode="G" horiz-adv-x="1384" 
d="M755 -21q-200 0 -345 94q-145 93 -224 259.5t-79 385.5v32q0 217 81 380q80 164 221 255.5t320 91.5q161 0 273.5 -40.5t199.5 -108.5v-271h-103l-10 218q-63 46 -145.5 72t-205.5 26q-144 0 -260 -78q-115 -79 -183 -218.5t-68 -324.5v-34q0 -189 63 -332
q62 -144 179.5 -224t284.5 -80q118 0 208 26t156 62v386l-299 4v97h419v-534q-78 -57 -195 -100.5t-288 -43.5z" />
    <glyph glyph-name="H" unicode="H" horiz-adv-x="1539" 
d="M522 87v-87h-446v87l163 13v1255l-163 13v88h446v-88l-163 -13v-583h822v583l-163 13v88h446v-88l-163 -13v-1255l163 -13v-87h-446v87l163 13v571h-822v-571z" />
    <glyph glyph-name="I" unicode="I" horiz-adv-x="597" 
d="M522 87v-87h-446v87l163 13v1255l-163 13v88h446v-88l-163 -13v-1255z" />
    <glyph glyph-name="J" unicode="J" horiz-adv-x="1152" 
d="M486 -21q-127 0 -225 48q-97 47 -152 142t-57 235l2 6h112q2 -163 83.5 -246t234.5 -83q95 0 162 42q140 86 140 295v937l-189 12v89h472v-88l-163 -13v-937q0 -133 -50 -231q-51 -99 -145.5 -153.5t-224.5 -54.5z" />
    <glyph glyph-name="K" unicode="K" horiz-adv-x="1440" 
d="M716 820l532 -721l126 -12v-87h-419v87l143 7l1 3l-462 636l-278 -309v-324l163 -13v-87h-446v87l163 13v1255l-163 13v88h446v-88l-163 -13v-775l696 777l1 5l-141 6v88h410v-88l-125 -11z" />
    <glyph glyph-name="L" unicode="L" horiz-adv-x="1184" 
d="M1079 334v-334h-1003v87l163 13v1255l-163 13v88h446v-88l-163 -13v-1256h611l11 235h98z" />
    <glyph glyph-name="M" unicode="M" horiz-adv-x="1897" 
d="M528 87v-87h-446v87l163 13v1255l-163 13v88h325l538 -1248h6l531 1248h333v-88l-163 -13v-1255l163 -13v-87h-446v87l167 13v1181l-5 1l-540 -1258h-84l-546 1254l-6 -2l4 -541v-635z" />
    <glyph glyph-name="N" unicode="N" horiz-adv-x="1552" 
d="M523 87v-87h-446v87l163 13v1255l-163 13v88h284l832 -1252l6 2v1149l-170 13v88h446v-88l-163 -13v-1355h-112l-841 1257l-6 -2v-1155z" />
    <glyph glyph-name="O" unicode="O" horiz-adv-x="1425" 
d="M710 -21q-138 0 -250 53t-192 151t-123 233.5t-43 301.5v19q0 332 165 536q80 98 192 151t250 53q141 0 254 -53t192 -151q162 -202 162 -536v-19q0 -333 -162 -535q-79 -98 -191.5 -151t-253.5 -53zM710 84q158 0 267 79q108 79 164 222t56 333v21q0 188 -56 332
q-57 142 -166 221.5t-266 79.5q-151 0 -260 -79t-167.5 -222t-58.5 -332v-21q0 -189 59 -333q59 -143 168 -222t260 -79z" />
    <glyph glyph-name="P" unicode="P" horiz-adv-x="1274" 
d="M522 87v-87h-446v87l163 13v1255l-163 13v88h614q153 0 261 -53q219 -109 219 -372q0 -129 -56 -224q-56 -96 -163 -148.5t-261 -52.5h-331v-506zM690 1355h-331v-649h331q180 0 270 92.5t90 230.5q0 141 -89.5 233.5t-270.5 92.5z" />
    <glyph glyph-name="Q" unicode="Q" horiz-adv-x="1431" 
d="M1044 79l301 -213l-70 -90l-339 245q-106 -42 -226 -42q-138 0 -250 53t-192 152q-80 98 -123 233.5t-43 300.5v19q0 332 165 536q80 98 191.5 151t249.5 53q141 0 254 -53t192 -151q162 -202 162 -536v-19q0 -216 -66.5 -382t-205.5 -257zM710 84q156 0 265 79
q108 79 164.5 222t56.5 333v21q0 188 -56 332q-57 142 -166 221.5t-266 79.5q-150 0 -259 -79t-167.5 -222t-58.5 -332v-21q0 -189 59 -333q59 -143 167.5 -222t260.5 -79z" />
    <glyph glyph-name="R" unicode="R" horiz-adv-x="1374" 
d="M876 691l264 -595l119 -8v-89h-204l-292 674q-14 -1 -28.5 -1.5t-29.5 -0.5l-346 -3v-568l163 -13v-88h-446v88l163 13v1255l-163 13v87h614q157 0 264 -46q221 -94 221 -351q0 -126 -58 -211q-78 -116 -241 -156zM359 768h319q195 0 286 80t91 211q0 141 -91 218.5
t-274 77.5h-331v-587z" />
    <glyph glyph-name="S" unicode="S" horiz-adv-x="1194" 
d="M597 -21q-125 0 -249.5 38t-240.5 118v282h100l15 -227q88 -55 183 -82t192 -27q116 0 201 36q86 35 133 98.5t47 146.5q0 79 -38 141q-39 60 -125.5 106t-234.5 84q-158 40 -259 96q-196 107 -196 317q0 110 58 193t162.5 130.5t243.5 47.5q147 0 262.5 -44t195.5 -113
v-260h-99l-15 206q-63 51 -149 80t-195 29q-106 0 -184 -35q-160 -75 -160 -232q0 -72 33 -128q33 -55 114 -98t227 -82q237 -61 358 -164.5t121 -271.5q0 -116 -63 -202q-64 -87 -177 -135t-261 -48z" />
    <glyph glyph-name="T" unicode="T" horiz-adv-x="1337" 
d="M890 87v-87h-446v87l163 13v1258h-409l-13 -222h-98v320h1159v-320h-97l-14 222h-408v-1258z" />
    <glyph glyph-name="U" unicode="U" horiz-adv-x="1478" 
d="M737 -21q-151 0 -264 58q-115 57 -180 166.5t-65 265.5v886l-163 13v88h446v-88l-163 -13v-886q0 -124 50 -210q50 -87 137.5 -132.5t202.5 -45.5q116 0 204 45q89 45 139 131.5t50 211.5v886l-163 13v88h446v-88l-163 -13v-886q0 -159 -64 -268t-180.5 -165.5
t-269.5 -56.5z" />
    <glyph glyph-name="V" unicode="V" horiz-adv-x="1468" 
d="M1299 1361l-507 -1361h-114l-507 1361l-111 7v88h384v-88l-144 -9l403 -1106l30 -96h6l30 96l409 1106l-151 9v88h384v-88z" />
    <glyph glyph-name="W" unicode="W" horiz-adv-x="2060" 
d="M992 1119l-353 -1119h-114l-350 1361l-111 7v88h390v-88l-156 -10l233 -947l54 -210h6l61 209l331 1046h112l332 -1046l59 -214h6l59 214l230 948l-161 10v88h386v-88l-107 -7l-343 -1361h-119l-351 1119l-45 146h-6z" />
    <glyph glyph-name="X" unicode="X" horiz-adv-x="1451" 
d="M474 87v-87h-406v87l120 10l470 644l-444 617l-121 10v88h405v-88l-152 -6l381 -539l374 539l-153 6v88h406v-88l-123 -10l-433 -617l464 -644l121 -10v-87h-407v87l154 6l-404 567l-403 -567z" />
    <glyph glyph-name="Y" unicode="Y" horiz-adv-x="1444" 
d="M946 87v-87h-446v87l163 13v442l-484 818l-119 8v88h407v-88l-153 -8l385 -671l23 -45l1 2l24 43l392 671l-155 8v88h402v-88l-123 -8l-480 -811v-449z" />
    <glyph glyph-name="Z" unicode="Z" horiz-adv-x="1209" 
d="M1118 324v-324h-1027v92l850 1264h-711l-8 -216h-102v316h966v-87l-852 -1269h774l9 224h101z" />
    <glyph glyph-name="bracketleft" unicode="[" horiz-adv-x="548" 
d="M487 -211v-101h-330v1976h330v-101h-210v-1774h210z" />
    <glyph glyph-name="backslash" unicode="\" horiz-adv-x="810" 
d="M153 1456l608 -1581h-117l-608 1581h117z" />
    <glyph glyph-name="bracketright" unicode="]" horiz-adv-x="527" 
d="M353 1664v-1976h-330v101h210v1774h-210v101h330z" />
    <glyph glyph-name="asciicircum" unicode="^" horiz-adv-x="845" 
d="M380 1215l-193 -486h-116l299 727h90l298 -727h-116l-197 486l-29 93h-6z" />
    <glyph glyph-name="underscore" unicode="_" horiz-adv-x="1150" 
d="M1000 0v-100h-881v100h881z" />
    <glyph glyph-name="grave" unicode="`" horiz-adv-x="404" 
d="M42 1560h141l181 -250l-5 -3h-88l-231 248z" />
    <glyph glyph-name="a" unicode="a" horiz-adv-x="1123" 
d="M420 -21q-154 0 -241 82t-87 222q0 100 58 176q58 75 164.5 117t252.5 42h224v124q0 117 -69.5 188.5t-209.5 71.5q-79 0 -141.5 -25.5t-108.5 -64.5l-10 -165h-99v226q70 60 159 94.5t202 34.5q191 0 294 -96t103 -266v-522q0 -32 2 -63.5t7 -62.5l129 -5v-87h-236
q-12 59 -16.5 95t-5.5 81q-59 -87 -156 -142t-215 -55zM434 84q111 0 210.5 58.5t146.5 155.5v228h-225q-166 0 -260 -71.5t-94 -175.5q0 -87 60 -141t162 -54z" />
    <glyph glyph-name="b" unicode="b" horiz-adv-x="1114" 
d="M611 -21q-119 0 -205.5 47t-139.5 131l-12 -157h-103v1459l-163 13v88h283v-643q53 87 137.5 136t200.5 49q131 0 223 -70q192 -146 192 -500v-21q0 -164 -49 -281q-49 -119 -142 -185t-222 -66zM588 82q156 0 235.5 116.5t79.5 312.5v21q0 137 -35 244
q-36 105 -106.5 164t-175.5 59q-127 0 -202.5 -63.5t-112.5 -160.5v-488q38 -94 118 -149.5t199 -55.5z" />
    <glyph glyph-name="c" unicode="c" horiz-adv-x="1075" 
d="M551 -21q-134 0 -238 68q-103 68 -162 190t-59 283v42q0 159 57 280q56 122 159 191t242 69q126 0 224 -47.5t164 -122.5l2 -245h-100l-16 202q-50 53 -117 82.5t-154 29.5q-102 0 -179 -57t-119.5 -156.5t-42.5 -225.5v-42q0 -132 42 -231q42 -100 118 -155t180 -55
q121 0 202 63.5t98 187.5h107l2 -6q-9 -102 -60 -180q-52 -78 -140.5 -121.5t-209.5 -43.5z" />
    <glyph glyph-name="d" unicode="d" horiz-adv-x="1211" 
d="M505 -21q-129 0 -222 66q-191 136 -191 466v21q0 175 49 301q49 128 142.5 198.5t223.5 70.5q113 0 196.5 -48t137.5 -134v539l-163 13v88h283v-1460l163 -13v-87h-270l-9 153q-53 -82 -139 -128t-201 -46zM527 82q117 0 195 53t119 144v505q-39 94 -114 154.5t-198 60.5
q-104 0 -175 -59q-70 -59 -105.5 -164t-35.5 -244v-21q0 -196 78.5 -312.5t235.5 -116.5z" />
    <glyph glyph-name="e" unicode="e" horiz-adv-x="1072" 
d="M565 -21q-138 0 -245 68q-106 68 -166 187t-60 275v55q0 156 60 277q60 122 162.5 191.5t228.5 69.5q134 0 228 -57q195 -118 195 -404v-102h-750l-2 -44q1 -119 45 -214q44 -94 122 -148t182 -54q102 0 179.5 32.5t136.5 88.5l51 -82q-63 -60 -152.5 -99.5t-214.5 -39.5
zM224 645l2 -6h622v30q0 95 -36 171q-37 75 -104.5 118t-162.5 43q-87 0 -155 -46q-69 -46 -112.5 -127t-53.5 -183z" />
    <glyph glyph-name="f" unicode="f" horiz-adv-x="723" 
d="M550 87v-87h-456v87l163 13v885h-180v97h180v159q0 162 81.5 251t228.5 89q71 0 141 -19l-16 -97q-25 6 -52.5 9.5t-60.5 3.5q-98 0 -150 -62t-52 -175v-159h263v-97h-263v-885z" />
    <glyph glyph-name="g" unicode="g" horiz-adv-x="1156" 
d="M1102 1082v-87l-139 -14v-967q0 -138 -50 -240q-51 -101 -147 -156t-230 -55q-79 0 -167 19t-154 51l32 100q64 -31 135.5 -48t151.5 -17q154 0 231.5 91.5t77.5 254.5v132q-54 -79 -138.5 -123t-196.5 -44q-130 0 -223 66t-143 185.5t-50 280.5v21q0 172 50 301
q50 128 143.5 198.5t224.5 70.5q116 0 201 -50t138 -140l13 170h240zM843 284v495q-38 95 -112 157.5t-199 62.5q-105 0 -176 -59q-71 -60 -107 -165t-36 -243v-21q0 -196 79.5 -312.5t237.5 -116.5q118 0 195.5 54t117.5 148z" />
    <glyph glyph-name="h" unicode="h" horiz-adv-x="1295" 
d="M502 87v-87h-446v87l163 13v1359l-163 13v88h283v-667q53 99 142.5 154t210.5 55q171 0 262.5 -105.5t91.5 -329.5v-567l163 -13v-87h-446v87l163 13v569q0 177 -69 253.5t-192 76.5q-132 0 -212.5 -74t-113.5 -192v-633z" />
    <glyph glyph-name="i" unicode="i" horiz-adv-x="629" 
d="M362 1560v-173h-134v173h134zM525 87v-87h-446v87l163 13v881l-163 13v88h283v-982z" />
    <glyph glyph-name="j" unicode="j" horiz-adv-x="545" 
d="M384 1560v-173h-134v173h134zM84 -437q-31 0 -57 5t-55 14l13 97q16 -5 46.5 -10t52.5 -5q86 0 134.5 65t48.5 182v1070l-163 13v88h283v-1171q0 -167 -80 -257.5t-223 -90.5z" />
    <glyph glyph-name="k" unicode="k" horiz-adv-x="1215" 
d="M622 628l401 -530l135 -11v-87h-398v87l119 6l-1 5l-333 450l-199 -205v-243l163 -13v-87h-446v87l163 13v1359l-163 13v88h283v-1072l478 494l1 6l-118 6v88h388v-88l-130 -12z" />
    <glyph glyph-name="l" unicode="l" horiz-adv-x="614" 
d="M520 87v-87h-446v87l163 13v1359l-163 13v88h283v-1460z" />
    <glyph glyph-name="m" unicode="m" horiz-adv-x="1979" 
d="M529 87v-87h-447v87l163 13v881l-163 13v88h270l10 -185q50 97 137.5 151t208.5 54q256 0 327 -250q46 117 137.5 184t221.5 67q173 0 267.5 -115.5t94.5 -356.5v-530l163 -13v-87h-447v87l163 13v532q0 201 -70.5 284t-195.5 83q-141 0 -217 -89.5t-91 -226.5v-584
l163 -13v-87h-447v87l163 13v533q0 197 -71.5 281.5t-196.5 84.5q-132 0 -205.5 -70t-100.5 -186v-643z" />
    <glyph glyph-name="n" unicode="n" horiz-adv-x="1331" 
d="M528 87v-87h-446v87l163 13v881l-163 13v88h269l10 -194q52 102 140 158t210 56q176 0 268 -107.5t92 -336.5v-558l163 -13v-87h-446v87l163 13v557q0 188 -69 265t-197 77q-134 0 -212 -75t-108 -196v-628z" />
    <glyph glyph-name="o" unicode="o" horiz-adv-x="1141" 
d="M572 -21q-147 0 -253 70q-108 69 -167.5 192.5t-59.5 282.5v33q0 159 60 282q59 123 166.5 193t251.5 70q146 0 253 -70t166.5 -192.5t59.5 -282.5v-33q0 -159 -59 -283q-60 -123 -167.5 -192.5t-250.5 -69.5zM572 79q111 0 191 59t123 160t43 226v33q0 126 -43 225
q-43 101 -123.5 160t-192.5 59t-192 -59q-81 -59 -123.5 -160t-42.5 -225v-33q0 -127 43 -226q42 -100 122.5 -159.5t194.5 -59.5z" />
    <glyph glyph-name="p" unicode="p" horiz-adv-x="1178" 
d="M501 -328v-88h-446v88l159 13v1296l-163 13v88h263l15 -165q54 88 139.5 136.5t201.5 48.5q130 0 224 -70q192 -146 192 -500v-21q0 -164 -49 -281q-49 -119 -142 -185t-222 -66q-115 0 -200.5 43t-138.5 120v-457zM645 79q157 0 238.5 118t81.5 314v21q0 139 -37 243
q-37 105 -108.5 164.5t-176.5 59.5q-123 0 -197.5 -60t-111.5 -152v-516q38 -89 116 -140.5t195 -51.5z" />
    <glyph glyph-name="q" unicode="q" horiz-adv-x="1137" 
d="M1114 -328v-88h-441v88l163 13v454q-53 -76 -137 -118t-194 -42q-129 0 -222 66q-191 136 -191 466v21q0 175 49 301q49 128 142.5 198.5t223.5 70.5q112 0 196 -47.5t138 -132.5l10 160h105v-1397zM527 79q115 0 192 52t117 142v516q-39 90 -113 151t-194 61
q-104 0 -175 -59q-70 -60 -105.5 -165.5t-35.5 -244.5v-21q0 -196 78.5 -314t235.5 -118z" />
    <glyph glyph-name="r" unicode="r" horiz-adv-x="837" 
d="M527 87v-87h-446v87l163 13v881l-163 13v88h268l13 -165l1 -29q46 101 125 157.5t189 56.5q64 0 102 -14l-15 -110l-111 7q-115 3 -188 -66t-101 -183v-636z" />
    <glyph glyph-name="s" unicode="s" horiz-adv-x="1015" 
d="M499 -21q-114 0 -211.5 30.5t-183.5 88.5l-1 222h98l17 -159q58 -45 129 -65t152 -20q136 0 207 59t71 140q0 76 -63.5 134.5t-225.5 94.5q-194 42 -280.5 112t-86.5 195q0 83 46 148q46 66 130.5 104.5t198.5 38.5q119 0 207 -34.5t151 -92.5l5 -222h-98l-14 160
q-45 43 -105 66.5t-146 23.5q-122 0 -188 -56.5t-66 -131.5q0 -49 21 -85q23 -42 89.5 -70.5t159.5 -50.5q203 -46 294 -124.5t91 -203.5q0 -132 -102.5 -217t-295.5 -85z" />
    <glyph glyph-name="t" unicode="t" horiz-adv-x="724" 
d="M473 -19q-114 0 -177 70.5t-63 227.5v706h-187v97h187v278h120v-278h252v-97h-252v-706q0 -108 38.5 -155.5t102.5 -47.5q34 0 67 4.5t68 9.5l18 -86q-36 -11 -82 -17t-92 -6z" />
    <glyph glyph-name="u" unicode="u" horiz-adv-x="1222" 
d="M541 -21q-170 0 -264.5 116t-94.5 360v526l-134 13v88h254v-629q0 -198 65 -284.5t188 -86.5q139 0 217 64.5t107 173.5v661l-154 13v88h275v-982l145 -13v-87h-251l-10 178q-51 -95 -136.5 -147t-206.5 -52z" />
    <glyph glyph-name="v" unicode="v" horiz-adv-x="1184" 
d="M1039 987l-383 -987h-108l-393 987l-115 7v88h381v-88l-142 -9l280 -714l40 -119h6l43 119l271 714l-144 9v88h381v-88z" />
    <glyph glyph-name="w" unicode="w" horiz-adv-x="1804" 
d="M839 738l-255 -738h-108l-302 988l-122 6v88h385v-88l-141 -10l186 -634l50 -178h6l58 178l247 732h106l246 -731l62 -190l6 1l58 189l186 634l-142 9v88h381v-88l-122 -8l-301 -986h-116l-253 738l-55 178l-6 -1z" />
    <glyph glyph-name="x" unicode="x" horiz-adv-x="1197" 
d="M438 87v-87h-374v87l123 11l343 453l-329 433l-117 10v88h366v-88l-116 -5l268 -357l264 357l-120 5v88h363v-88l-118 -10l-319 -431l350 -455l119 -11v-87h-382v87l127 5l-286 378l-283 -378z" />
    <glyph glyph-name="y" unicode="y" horiz-adv-x="1188" 
d="M295 -437q-21 0 -50.5 4.5t-44.5 8.5l14 99q14 -2 39.5 -4.5t37.5 -2.5q78 0 124 51.5t84 146.5l56 147l-397 974l-117 7v88h381v-88l-137 -9l278 -698l45 -123h6l309 821l-141 9v88h378v-88l-115 -7l-444 -1161q-29 -73 -68 -136q-38 -60 -95 -93.5t-143 -33.5z" />
    <glyph glyph-name="z" unicode="z" horiz-adv-x="1056" 
d="M962 311v-311h-857v87l655 895h-539l-12 -212h-97v312h800v-88l-658 -896h599l12 213h97z" />
    <glyph glyph-name="braceleft" unicode="{" horiz-adv-x="697" 
d="M661 -326l-29 -79q-184 55 -261 173.5t-77 288.5v227q0 123 -56.5 191t-174.5 68v103q118 0 174.5 67.5t56.5 190.5v228q0 171 77 290.5t261 174.5l26 -78q-128 -41 -186 -142t-58 -245v-228q0 -113 -47.5 -194t-144.5 -116q97 -35 144.5 -116.5t47.5 -193.5v-227
q0 -143 59 -241.5t188 -141.5z" />
    <glyph glyph-name="bar" unicode="|" horiz-adv-x="426" 
d="M252 1456v-1726h-102v1726h102z" />
    <glyph glyph-name="braceright" unicode="}" horiz-adv-x="696" 
d="M56 -405l-29 79q127 43 186.5 141.5t59.5 241.5v227q0 113 48.5 195t150.5 115q-102 33 -150.5 114t-48.5 196v228q0 144 -58.5 245t-184.5 142l26 78q182 -55 259.5 -174.5t77.5 -290.5v-228q0 -123 56.5 -190.5t174.5 -67.5v-103q-118 0 -174.5 -68.5t-56.5 -190.5
v-227q0 -170 -77.5 -288.5t-259.5 -173.5z" />
    <glyph glyph-name="asciitilde" unicode="~" horiz-adv-x="1376" 
d="M952 424q-88 0 -160.5 35.5t-160.5 114.5q-64 54 -119 81t-110 27q-79 0 -131.5 -61t-52.5 -162l-97 15q0 89 36 159q36 71 99.5 112.5t145.5 41.5q87 0 160.5 -37t162.5 -113q63 -57 116.5 -82.5t110.5 -25.5q77 0 131 64t54 162l98 -15q0 -87 -37 -158
q-37 -72 -101 -115t-145 -43z" />
    <glyph glyph-name="uni00A0" unicode="&#xa0;" horiz-adv-x="700" 
 />
    <glyph glyph-name="guillemotleft" unicode="&#xab;" horiz-adv-x="919" 
d="M208 520l276 -387h-106l-295 378v19l295 379h106zM517 520l276 -387h-106l-295 378v19l295 379h106z" />
    <glyph glyph-name="guillemotright" unicode="&#xbb;" horiz-adv-x="916" 
d="M505 541l-294 -379h-106l275 388l-275 394h106l294 -384v-19zM820 541l-294 -379h-106l275 388l-275 394h106l294 -384v-19z" />
    <glyph glyph-name="uni1780" unicode="&#x1780;" horiz-adv-x="1300" 
d="M150 1067q0 21 32 59t78.5 78t90.5 68t68 28q48 0 124 -72q77 -72 104 -72q24 0 100 72q77 72 124 72q48 0 120 -82q72 -83 109 -83t50 34q-13 -130 -94 -130q-40 0 -106 71q-67 70 -98 70q-29 0 -114 -70q-86 -71 -116 -71t-110 71q-79 70 -113 70q-20 0 -51 -20
t-55.5 -46t-24.5 -45q0 -69 138 -74l-133 -51q-123 18 -123 123zM360 0h-120v650q0 300 410 300t410 -300v-650h-120v650q0 210 -290 210t-290 -210v-650z" />
    <glyph glyph-name="uni1781" unicode="&#x1781;" horiz-adv-x="1300" 
d="M240 910v43q0 347 410 347t410 -347q0 -295 -437 -417l-263 -74v-115q0 -257 290 -257t290 257v173h120v-173q0 -347 -410 -347t-410 347v175l350 98q350 98 350 333q0 257 -290 257q-236 0 -280 -171q7 1 20 1q130 0 130 -130t-130 -130q-150 0 -150 130zM390 950
q-40 0 -40 -40t40 -40t40 40t-40 40z" />
    <glyph glyph-name="uni1782" unicode="&#x1782;" horiz-adv-x="1300" 
d="M150 1067q0 21 32 59t78.5 78t90.5 68t68 28q48 0 124 -72q77 -72 104 -72q24 0 100 72q77 72 124 72q48 0 120 -82q72 -83 109 -83t50 34q-13 -130 -94 -130q-40 0 -106 71q-67 70 -98 70q-29 0 -114 -70q-86 -71 -116 -71t-110 71q-79 70 -113 70q-20 0 -51 -20
t-55.5 -46t-24.5 -45q0 -69 138 -74l-133 -51q-123 18 -123 123zM360 650v-402q85 172 230 172q140 0 140 -95q0 -80 -80 -80q0 75 -60 75q-131 0 -230 -253v-67h-120v650q0 300 410 300t410 -300v-650h-120v650q0 210 -290 210t-290 -210z" />
    <glyph glyph-name="uni1783" unicode="&#x1783;" horiz-adv-x="1950" 
d="M1040 860v-560q0 -210 275 -210t275 210v531q0 91 -190 119q3 59 24.5 120.5t53 113.5t65 84t60.5 32q33 0 121 -83q28 -28 74 -28q25 0 52 24q-5 -81 -24 -106q-19 -27 -53 -27q-54 0 -123 66q-22 22 -54 22q-37 0 -79 -148q193 -40 193 -160v-560q0 -300 -395 -300
q-242 0 -335 112q-94 -112 -340 -112q-400 0 -400 300v300q0 109 53 277h-23q-170 0 -170 206q0 217 165 217t165 -248q0 -127 -35 -243t-35 -209v-300q0 -210 280 -210t280 210v531q0 91 -190 119q3 59 24.5 120.5t53 113.5t65 84t60.5 32q33 0 121 -83q28 -28 74 -28
q25 0 52 24q-5 -81 -24 -106q-19 -27 -53 -27q-54 0 -123 66q-22 22 -54 22q-37 0 -79 -148q193 -40 193 -160zM320 1052q0 155 -60 155t-60 -124q0 -130 70 -130h45q5 18 5 99z" />
    <glyph glyph-name="uni1784" unicode="&#x1784;" horiz-adv-x="1300" 
d="M650 270l-320 -270h-90v520q-100 34 -100 104t40 113t110 43t70 -86v-537l290 235l290 -244v632q0 93 -28.5 126.5t-83.5 47.5q-142 -88 -298 -88q-158 0 -224 63t-66 197q0 67 25 129t25 131q0 88 -140 88q0 86 100 86q160 0 160 -174q0 -83 -25 -136t-25 -124
q0 -85 40 -129t130 -44q105 0 225 49q-115 76 -115 142q0 156 180 156q170 0 170 -156q0 -67 -78 -129q19 -7 43 -18q105 -58 105 -217v-780h-90zM890 1144q0 72 -70 72q-90 0 -90 -72q0 -29 93 -88q67 46 67 88z" />
    <glyph glyph-name="uni1785" unicode="&#x1785;" horiz-adv-x="1300" 
d="M940 300v350q-90 35 -90 104q0 70 40 113t110 43q60 0 60 -87v-523q0 -300 -410 -300t-410 300v620q-90 42 -90 147q0 21 32 59t78.5 78t90.5 68t68 28q48 0 124 -72q77 -72 104 -72q24 0 100 72q77 72 124 72q48 0 120 -82q72 -83 109 -83t50 34q-13 -130 -94 -130
q-40 0 -106 71q-67 70 -98 70q-29 0 -114 -70q-86 -71 -116 -71t-110 71q-79 70 -113 70q-20 0 -51 -20t-55.5 -46t-24.5 -45q0 -69 92 -114v-655q0 -210 290 -210t290 210z" />
    <glyph glyph-name="uni1786" unicode="&#x1786;" horiz-adv-x="1300" 
d="M360 955v-522q290 0 290 -216q0 -117 150 -117q140 0 140 117v320h-45q-67 0 -111 44t-44 121q0 78 50 143t130 65q140 0 140 -140v-553q0 -217 -260 -217q-280 0 -280 217q0 116 -160 116v-160q0 -173 -120 -173t-120 286q0 105 120 139v495q-90 42 -90 147q0 21 32 59
t78.5 78t90.5 68t68 28q48 0 124 -72q77 -72 104 -72q24 0 100 72q77 72 124 72q48 0 120 -82q72 -83 109 -83t50 34q-13 -130 -94 -130q-40 0 -106 71q-67 70 -98 70q-29 0 -114 -70q-86 -71 -116 -71t-110 71q-79 70 -113 70q-20 0 -51 -20t-55.5 -46t-24.5 -45
q0 -69 92 -114zM895 637h45v133q0 30 -35 30q-15 0 -40 -31t-25 -67q0 -35 18.5 -50t36.5 -15z" />
    <glyph glyph-name="uni1787" unicode="&#x1787;" horiz-adv-x="1300" 
d="M360 986v-829l290 235l290 -244v762h120v-910h-90l-320 270l-320 -270h-90v931q-120 69 -120 135q0 33 35.5 73.5t85 77t93.5 60t60 23.5q59 0 165 -67q181 -106 281 -106t100 122q0 142 -140 142q0 80 90 80q170 0 170 -222q0 -229 -220 -229q-151 0 -288 83
q-136 82 -157 82q-20 0 -60 -21.5t-72.5 -48.5t-32.5 -44q0 -24 130 -85z" />
    <glyph glyph-name="uni1788" unicode="&#x1788;" horiz-adv-x="2500" 
d="M1540 300v531q0 91 -190 119q3 59 24.5 120.5t53 113.5t65 84t60.5 32q33 0 121 -83q28 -28 74 -28q25 0 52 24q-5 -81 -24 -106q-19 -27 -53 -27q-54 0 -123 66q-22 22 -54 22q-37 0 -79 -148q193 -40 193 -160v-560q0 -210 240 -210t240 210v531q0 91 -190 119
q3 59 24.5 120.5t53 113.5t65 84t60.5 32q33 0 121 -83q28 -28 74 -28q25 0 52 24q-5 -81 -24 -106q-19 -27 -53 -27q-54 0 -123 66q-22 22 -54 22q-37 0 -79 -148q193 -40 193 -160v-560q0 -300 -360 -300q-213 0 -300 105q-87 -105 -300 -105q-360 0 -360 300v700
q0 210 -290 210t-290 -210v-500q230 0 230 -183q0 -317 -240 -317q-110 0 -110 87v913q0 300 410 300t410 -300v-700q0 -210 240 -210t240 210zM360 410v-320q140 0 140 227q0 93 -140 93z" />
    <glyph glyph-name="uni1789" unicode="&#x1789;" horiz-adv-x="1950" 
d="M1040 1157q125 143 326 143q344 0 344 -300v-1000h-120v1000q0 200 -225 200q-127 0 -196 -60q-64 -56 -109 -133v-1007h-120v1000q0 198 -83 198q-65 0 -148 -132q-27 -44 -59 -44t-59 44q-81 132 -146 132q-85 0 -85 -198v-500q230 0 230 -183q0 -317 -240 -317
q-110 0 -110 87v913q0 300 205 300q114 0 205 -154q91 154 207 154q139 0 183 -143zM360 410v-320q140 0 140 227q0 93 -140 93zM1404 -500q-305 0 -525 134t-411 134q-137 0 -228 -79q42 96 115.5 137t177.5 41q184 0 401 -136t442 -136q214 0 214 137q0 117 -167 117
q-44 0 -84 -25q7 106 163 106q208 0 208 -198q0 -232 -306 -232z" />
    <glyph glyph-name="uni178A" unicode="&#x178a;" horiz-adv-x="1300" 
d="M660 1049q290 0 290 166q0 133 -150 133q0 81 100 81q160 0 160 -214q0 -266 -400 -266q-420 0 -420 196q0 155 155 155t155 -147q0 -60 -32 -98q27 -6 142 -6zM377 1095h23q50 0 50 58q0 45 -55 45q-45 0 -45 -53q0 -35 27 -50zM350 0h-110v870h120v-723l290 245
l290 -254v732h120v-870h-110l-300 260z" />
    <glyph glyph-name="uni178B" unicode="&#x178b;" horiz-adv-x="1300" 
d="M1060 860v-560q0 -300 -410 -300t-410 300v300q0 109 53 277h-23q-170 0 -170 206q0 217 165 217t165 -248q0 -127 -35 -243t-35 -209v-300q0 -210 290 -210t290 210v531q0 90 -230 119q4 79 24 159.5t55.5 135.5t83.5 55q34 0 92 -45q58 -46 72 -46q13 0 13 41
q0 187 -187 187q0 73 80 73q220 0 220 -260q-7 -150 -120 -150q-54 0 -100 34t-67 34q-26 0 -49 -138q233 -51 233 -170zM320 1052q0 155 -60 155t-60 -124q0 -130 70 -130h45q5 18 5 99z" />
    <glyph glyph-name="uni178C" unicode="&#x178c;" horiz-adv-x="1300" 
d="M240 347v175l350 98q350 98 350 333v47q0 198 -83 198q-65 0 -148 -132q-27 -44 -59 -44t-59 44q-81 132 -146 132q-76 0 -84 -159q7 1 14.5 1h14.5q130 0 130 -130t-130 -130q-150 0 -150 130v90q0 300 205 300q114 0 205 -154q91 154 207 154q203 0 203 -300v-47
q0 -295 -437 -417l-263 -74v-115q0 -257 190 -257q63 0 130.5 26t126.5 66t96 84t37 80v174h120v-570h-120v234q-169 -184 -390 -184q-310 0 -310 347zM350 910q0 -40 40 -40t40 40t-40 40t-40 -40z" />
    <glyph glyph-name="uni178D" unicode="&#x178d;" horiz-adv-x="1950" 
d="M940 425v575q0 198 -83 198q-65 0 -148 -132q-27 -44 -59 -44t-59 44q-81 132 -146 132q-85 0 -85 -198v-500q230 0 230 -183q0 -317 -240 -317q-110 0 -110 87v913q0 300 205 300q114 0 205 -154q91 154 207 154q203 0 203 -300v-567q290 0 290 -216q0 -117 120 -117
t120 117v614q0 91 -190 119q3 59 24.5 120.5t53 113.5t65 84t60.5 32q33 0 121 -83q28 -28 74 -28q25 0 52 24q-5 -81 -24 -106q-19 -27 -53 -27q-54 0 -123 66q-22 22 -54 22q-37 0 -79 -148q193 -40 193 -160v-643q0 -217 -245 -217t-245 217q0 116 -160 116v-160
q0 -173 -120 -173t-120 286q0 105 120 139zM360 410v-320q140 0 140 227q0 93 -140 93z" />
    <glyph glyph-name="uni178E" unicode="&#x178e;" horiz-adv-x="2500" 
d="M1620 1000v-1000h-120l-250 210l-250 -210h-120v1000q0 210 -260 210t-260 -210v-500q240 0 240 -183q0 -317 -250 -317q-110 0 -110 87v913q0 300 380 300t380 -300v-878l250 210l250 -209v877q0 300 380 300t380 -300v-1000h-120v1000q0 210 -260 210t-260 -210z
M360 400v-300q140 0 140 217q0 83 -140 83z" />
    <glyph glyph-name="uni178F" unicode="&#x178f;" horiz-adv-x="1300" 
d="M150 1067q0 21 32 59t78.5 78t90.5 68t68 28q48 0 124 -72q77 -72 104 -72q24 0 100 72q77 72 124 72q48 0 120 -82q72 -83 109 -83t50 34q-13 -130 -94 -130q-40 0 -106 71q-67 70 -98 70q-29 0 -114 -70q-86 -71 -116 -71t-110 71q-79 70 -113 70q-20 0 -51 -20
t-55.5 -46t-24.5 -45q0 -69 138 -74l-133 -51q-123 18 -123 123zM240 130v520q0 300 410 300t410 -300v-650h-120v650q0 210 -290 210t-290 -210v-217h65q175 0 175 -173q0 -130 -55 -195t-140 -65q-165 0 -165 130zM425 343h-65v-213q0 -40 45 -40q41 0 73 38t32 132
q0 83 -85 83z" />
    <glyph glyph-name="uni1790" unicode="&#x1790;" horiz-adv-x="1300" 
d="M1060 1249q0 -229 -220 -229q-151 0 -288 83q-136 82 -157 82q-20 0 -60 -21.5t-72.5 -48.5t-32.5 -44q0 -24 130 -85v-686q0 -210 290 -210t290 210v350q-90 35 -90 104q0 70 40 113t110 43q60 0 60 -87v-523q0 -300 -410 -300t-410 300v631q-120 69 -120 135
q0 33 35.5 73.5t85 77t93.5 60t60 23.5q59 0 165 -67q181 -106 281 -106t100 122q0 142 -140 142q0 80 90 80q170 0 170 -222z" />
    <glyph glyph-name="uni1791" unicode="&#x1791;" horiz-adv-x="1300" 
d="M1060 970q0 -130 -150 -130q-130 0 -130 130t130 130h9q-66 110 -269 110q-290 0 -290 -257v-73q0 -313 410 -313q0 170 155 170q135 0 135 -126q0 -134 -170 -134v-217q0 -260 -280 -260q-290 0 -290 260v147h120v-147q0 -170 170 -170q160 0 160 170v217
q-530 0 -530 403v73q0 347 410 347t410 -330zM910 1010q-40 0 -40 -40t40 -40t40 40t-40 40zM890 567q70 0 70 44q0 32 -35 32t-35 -76z" />
    <glyph glyph-name="uni1792" unicode="&#x1792;" horiz-adv-x="1300" 
d="M650 392l290 -244v502q-90 35 -90 104q0 70 40 113t110 43q60 0 60 -87v-823h-90l-320 270l-320 -270h-90v920q-90 42 -90 147q0 21 32 59t78.5 78t90.5 68t68 28q48 0 124 -72q77 -72 104 -72q24 0 100 72q77 72 124 72q48 0 120 -82q72 -83 109 -83t50 34
q-13 -130 -94 -130q-40 0 -106 71q-67 70 -98 70q-29 0 -114 -70q-86 -71 -116 -71t-110 71q-79 70 -113 70q-20 0 -51 -20t-55.5 -46t-24.5 -45q0 -69 92 -114v-798z" />
    <glyph glyph-name="uni1793" unicode="&#x1793;" horiz-adv-x="1300" 
d="M240 953q0 347 410 347t410 -330q0 -130 -150 -130q-130 0 -130 130t130 130h9q-66 110 -269 110q-290 0 -290 -257q0 -169 380 -309l320 -118v-266q0 -260 -245 -260q-131 0 -235 129q-104 128 -220 128v-257h-120v520h120v-173q144 0 260 -128q114 -129 195 -129
q125 0 125 170v214l-284 104q-416 152 -416 375zM910 1010q-40 0 -40 -40t40 -40t40 40t-40 40z" />
    <glyph glyph-name="uni1794" unicode="&#x1794;" horiz-adv-x="1300" 
d="M940 300v531q0 91 -190 119q3 59 24.5 120.5t53 113.5t65 84t60.5 32q33 0 121 -83q28 -28 74 -28q25 0 52 24q-5 -81 -24 -106q-19 -27 -53 -27q-54 0 -123 66q-22 22 -54 22q-37 0 -79 -148q193 -40 193 -160v-560q0 -300 -410 -300t-410 300v531q0 90 -170 119
q3 59 24.5 120.5t53 113.5t65 84t60.5 32q33 0 121 -83q28 -28 74 -28q25 0 55 24q-8 -80 -27.5 -106.5t-62.5 -26.5q-44 0 -113 66q-22 22 -54 22q-37 0 -79 -148q173 -41 173 -160v-560q0 -210 290 -210t290 210z" />
    <glyph glyph-name="uni1795" unicode="&#x1795;" horiz-adv-x="1300" 
d="M1060 1249q0 -229 -220 -229q-151 0 -288 83q-136 82 -157 82q-20 0 -60 -21.5t-72.5 -48.5t-32.5 -44q0 -24 130 -85v-829l290 235l290 -244v389h-45q-67 0 -111 44t-44 121q0 78 50 143t130 65q140 0 140 -140v-770h-90l-320 270l-320 -270h-90v931q-120 69 -120 135
q0 33 35.5 73.5t85 77t93.5 60t60 23.5q59 0 165 -67q181 -106 281 -106t100 122q0 142 -140 142q0 80 90 80q170 0 170 -222zM895 637h45v133q0 30 -35 30q-15 0 -40 -31t-25 -67q0 -35 18.5 -50t36.5 -15z" />
    <glyph glyph-name="uni1796" unicode="&#x1796;" horiz-adv-x="1300" 
d="M240 87v913q0 300 205 300q114 0 205 -154q91 154 207 154q203 0 203 -300v-1000h-120v1000q0 198 -83 198q-65 0 -148 -132q-27 -44 -59 -44t-59 44q-81 132 -146 132q-85 0 -85 -198v-500q230 0 230 -183q0 -317 -240 -317q-110 0 -110 87zM360 410v-320q140 0 140 227
q0 93 -140 93z" />
    <glyph glyph-name="uni1797" unicode="&#x1797;" horiz-adv-x="1300" 
d="M150 1067q0 21 32 59t78.5 78t90.5 68t68 28q48 0 124 -72q77 -72 104 -72q24 0 100 72q77 72 124 72q48 0 120 -82q72 -83 109 -83t50 34q-13 -130 -94 -130q-40 0 -106 71q-67 70 -98 70q-29 0 -114 -70q-86 -71 -116 -71t-110 71q-79 70 -113 70q-20 0 -51 -20
t-55.5 -46t-24.5 -45q0 -69 138 -74l-133 -51q-123 18 -123 123zM360 650q0 -44 50 -159t50 -243q0 -248 -190 -248q-150 0 -150 217q0 216 180 216h11q-10 25 -21 43q-50 94 -50 174q0 300 410 300t410 -300v-650h-120v650q0 210 -290 210t-290 -210zM335 333h-35
q-80 0 -80 -116q0 -127 50 -127q70 0 70 158q0 23 -1.5 44t-3.5 41z" />
    <glyph glyph-name="uni1798" unicode="&#x1798;" horiz-adv-x="1300" 
d="M360 860v-213h580v184q0 91 -190 119q3 59 24.5 120.5t53 113.5t65 84t60.5 32q33 0 121 -83q28 -28 74 -28q25 0 52 24q-5 -81 -24 -106q-19 -27 -53 -27q-54 0 -123 66q-22 22 -54 22q-37 0 -79 -148q193 -40 193 -160v-560q0 -300 -410 -300t-410 300v531
q0 90 -170 119q3 59 24.5 120.5t53 113.5t65 84t60.5 32q33 0 121 -83q28 -28 74 -28q25 0 55 24q-8 -80 -27.5 -106.5t-62.5 -26.5q-44 0 -113 66q-22 22 -54 22q-37 0 -79 -148q173 -41 173 -160zM940 300v257h-580v-257q0 -210 290 -210t290 210z" />
    <glyph glyph-name="uni1799" unicode="&#x1799;" horiz-adv-x="1950" 
d="M240 300v822q0 178 150 178q180 0 180 -217q0 -216 -150 -216h-60v-567q0 -210 280 -210t280 210v531q0 91 -190 119q3 59 24.5 120.5t53 113.5t65 84t60.5 32q33 0 121 -83q28 -28 74 -28q25 0 52 24q-5 -81 -24 -106q-19 -27 -53 -27q-54 0 -123 66q-22 22 -54 22
q-37 0 -79 -148q193 -40 193 -160v-560q0 -210 275 -210t275 210v531q0 91 -190 119q3 59 24.5 120.5t53 113.5t65 84t60.5 32q33 0 121 -83q28 -28 74 -28q25 0 52 24q-5 -81 -24 -106q-19 -27 -53 -27q-54 0 -123 66q-22 22 -54 22q-37 0 -79 -148q193 -40 193 -160v-560
q0 -300 -395 -300q-242 0 -335 112q-94 -112 -340 -112q-400 0 -400 300zM360 1122v-159h60q50 0 50 120q0 117 -57 117q-53 0 -53 -78z" />
    <glyph glyph-name="uni179A" unicode="&#x179a;" horiz-adv-x="610" 
d="M360 860v-762q0 -98 -80 -98h-40q-190 0 -190 267q0 166 190 166v398q0 91 -190 119q3 59 24.5 120.5t53 113.5t65 84t60.5 32q33 0 121 -83q28 -28 74 -28q25 0 55 24q-8 -80 -27.5 -106.5t-62.5 -26.5q-44 0 -113 66q-22 22 -54 22q-37 0 -79 -148q193 -40 193 -160z
M240 113v220q-90 0 -90 -66q0 -154 90 -154z" />
    <glyph glyph-name="uni179B" unicode="&#x179b;" horiz-adv-x="1950" 
d="M1710 860v-560q0 -300 -385 -300t-385 300v700q0 210 -290 210t-290 -210v-500q230 0 230 -183q0 -317 -240 -317q-110 0 -110 87v913q0 300 410 300t410 -300v-700q0 -210 265 -210t265 210v531q0 91 -190 119q3 59 24.5 120.5t53 113.5t65 84t60.5 32q33 0 121 -83
q28 -28 74 -28q25 0 52 24q-5 -81 -24 -106q-19 -27 -53 -27q-54 0 -123 66q-22 22 -54 22q-37 0 -79 -148q193 -40 193 -160zM360 410v-320q140 0 140 227q0 93 -140 93z" />
    <glyph glyph-name="uni179C" unicode="&#x179c;" horiz-adv-x="610" 
d="M503 1250q-7 -150 -120 -150q-54 0 -100 34t-67 34q-27 0 -49 -148q193 -40 193 -160v-762q0 -98 -80 -98h-40q-190 0 -190 267q0 166 190 166v398q0 91 -190 119q4 79 24 159.5t55.5 135.5t83.5 55q34 0 92 -45q58 -46 72 -46q13 0 13 41q0 187 -187 187q0 73 80 73
q220 0 220 -260zM240 113v220q-90 0 -90 -66q0 -154 90 -154z" />
    <glyph glyph-name="uni179D" unicode="&#x179d;" horiz-adv-x="1300" 
d="M150 1067q0 21 32 59t78.5 78t90.5 68t68 28q48 0 124 -72q77 -72 104 -72q24 0 100 72q77 72 124 72q48 0 120 -82q72 -83 109 -83t50 34q-13 -130 -94 -130q-40 0 -106 71q-67 70 -98 70q-29 0 -114 -70q-86 -71 -116 -71t-110 71q-79 70 -113 70q-20 0 -51 -20
t-55.5 -46t-24.5 -45q0 -69 138 -74l-133 -51q-123 18 -123 123zM1060 650v-178h190v-90h-190v-382h-120v382h-190v90h190v178q0 210 -290 210t-290 -210v-402q85 172 230 172q140 0 140 -95q0 -80 -80 -80q0 75 -60 75q-131 0 -230 -253v-67h-120v650q0 300 410 300
t410 -300z" />
    <glyph glyph-name="uni179E" unicode="&#x179e;" horiz-adv-x="1300" 
d="M940 300v220h-190v90h190v221q0 91 -190 119q3 59 24.5 120.5t53 113.5t65 84t60.5 32q33 0 121 -83q28 -28 74 -28q25 0 52 24q-5 -81 -24 -106q-19 -27 -53 -27q-54 0 -123 66q-22 22 -54 22q-37 0 -79 -148q193 -40 193 -160v-250h190v-90h-190v-220q0 -300 -410 -300
t-410 300v531q0 90 -170 119q3 59 24.5 120.5t53 113.5t65 84t60.5 32q33 0 121 -83q28 -28 74 -28q25 0 55 24q-8 -80 -27.5 -106.5t-62.5 -26.5q-44 0 -113 66q-22 22 -54 22q-37 0 -79 -148q173 -41 173 -160v-560q0 -210 290 -210t290 210z" />
    <glyph glyph-name="uni179F" unicode="&#x179f;" horiz-adv-x="1950" 
d="M481 934q-59 37 -161 56q4 72 41.5 143.5t90 119t101.5 47.5q35 0 102 -55q68 -56 113 -56t72 24q-5 -80 -29.5 -106.5t-67.5 -26.5q-44 0 -110 54t-87 54q-47 0 -109 -128q137 -42 192 -110h21q410 0 410 -300v-350q0 -210 265 -210t265 210v531q0 91 -190 119
q3 59 24.5 120.5t53 113.5t65 84t60.5 32q33 0 121 -83q28 -28 74 -28q25 0 52 24q-5 -81 -24 -106q-19 -27 -53 -27q-54 0 -123 66q-22 22 -54 22q-37 0 -79 -148q193 -40 193 -160v-560q0 -300 -385 -300t-385 300v350q0 210 -290 210t-290 -210v-217h65q175 0 175 -173
q0 -130 -55 -195t-140 -65q-165 0 -165 130v520q0 230 241 284zM425 343h-65v-213q0 -40 45 -40q41 0 73 38t32 132q0 83 -85 83z" />
    <glyph glyph-name="uni17A0" unicode="&#x17a0;" horiz-adv-x="1950" 
d="M1060 1000v-700q0 -300 -410 -300t-410 300v531q0 90 -170 119q3 59 24.5 120.5t53 113.5t65 84t60.5 32q33 0 121 -83q28 -28 74 -28q25 0 55 24q-8 -80 -27.5 -106.5t-62.5 -26.5q-44 0 -113 66q-22 22 -54 22q-37 0 -79 -148q173 -41 173 -160v-560q0 -210 290 -210
t290 210v700q0 300 385 300t385 -300v-1000h-120v1000q0 210 -265 210t-265 -210z" />
    <glyph glyph-name="uni17A1" unicode="&#x17a1;" horiz-adv-x="1850" 
d="M1060 970q0 -130 -150 -130q-130 0 -130 130t130 130h9q-66 110 -269 110q-290 0 -290 -257v-73q0 -313 410 -313q0 170 155 170q135 0 135 -126q0 -134 -170 -134v-217q0 -260 -280 -260q-290 0 -290 260v147h120v-147q0 -170 170 -170q160 0 160 170v217
q-530 0 -530 403v73q0 347 410 347t410 -330zM1610 860v-1510h-90l-275 197l-275 -197h-90v250q-150 0 -150 150t150 150q120 0 120 -100v-312l245 178l245 -178v1343q0 91 -190 119q3 59 24.5 120.5t53 113.5t65 84t60.5 32q33 0 121 -83q28 -28 74 -28q25 0 52 24
q-5 -81 -24 -106q-19 -27 -53 -27q-54 0 -123 66q-22 22 -54 22q-37 0 -79 -148q193 -40 193 -160zM910 1010q-40 0 -40 -40t40 -40t40 40t-40 40zM890 567q70 0 70 44q0 32 -35 32t-35 -76zM880 -300v100q-50 0 -50 -50t50 -50z" />
    <glyph glyph-name="uni17A2" unicode="&#x17a2;" horiz-adv-x="1300" 
d="M360 860v-213h580v184q0 91 -190 119q3 59 24.5 120.5t53 113.5t65 84t60.5 32q33 0 121 -83q28 -28 74 -28q25 0 55 24q-8 -80 -27.5 -106.5t-62.5 -26.5q-44 0 -113 66q-22 22 -54 22q-37 0 -79 -148q193 -40 193 -160v-762q0 -98 -80 -98h-40q-190 0 -190 267
q0 166 190 166v124h-580v-459q0 -98 -80 -98h-40q-190 0 -190 267q0 166 190 166v398q0 91 -190 119q3 59 24.5 120.5t53 113.5t65 84t60.5 32q33 0 121 -83q28 -28 74 -28q25 0 55 24q-8 -80 -27.5 -106.5t-62.5 -26.5q-44 0 -113 66q-22 22 -54 22q-37 0 -79 -148
q193 -40 193 -160zM240 113v220q-90 0 -90 -66q0 -154 90 -154zM940 113v220q-90 0 -90 -66q0 -154 90 -154z" />
    <glyph glyph-name="uni17A3" unicode="&#x17a3;" horiz-adv-x="1300" 
d="M360 860v-213h580v184q0 91 -190 119q3 59 24.5 120.5t53 113.5t65 84t60.5 32q33 0 121 -83q28 -28 74 -28q25 0 55 24q-8 -80 -27.5 -106.5t-62.5 -26.5q-44 0 -113 66q-22 22 -54 22q-37 0 -79 -148q193 -40 193 -160v-762q0 -98 -80 -98h-40q-190 0 -190 267
q0 166 190 166v124h-580v-459q0 -98 -80 -98h-40q-190 0 -190 267q0 166 190 166v398q0 91 -190 119q3 59 24.5 120.5t53 113.5t65 84t60.5 32q33 0 121 -83q28 -28 74 -28q25 0 55 24q-8 -80 -27.5 -106.5t-62.5 -26.5q-44 0 -113 66q-22 22 -54 22q-37 0 -79 -148
q193 -40 193 -160zM240 113v220q-90 0 -90 -66q0 -154 90 -154zM940 113v220q-90 0 -90 -66q0 -154 90 -154z" />
    <glyph glyph-name="uni17A4" unicode="&#x17a4;" horiz-adv-x="1950" 
d="M360 647h580v184q0 106 -186 121q11 125 127 234q116 110 260 110q164 0 266 -47q303 -142 303 -346v-903h-120v903q0 144 -244 247q-80 34 -205 34q-174 0 -263 -167q182 -38 182 -157v-762q0 -98 -80 -98h-40q-190 0 -190 267q0 166 190 166v124h-580v-459
q0 -98 -80 -98h-40q-190 0 -190 267q0 166 190 166v398q0 91 -190 119q3 59 24.5 120.5t53 113.5t65 84t60.5 32q33 0 121 -83q28 -28 74 -28q25 0 55 24q-8 -80 -27.5 -106.5t-62.5 -26.5q-44 0 -113 66q-22 22 -54 22q-37 0 -79 -148q193 -40 193 -160v-213zM240 113v220
q-90 0 -90 -66q0 -154 90 -154zM940 113v220q-90 0 -90 -66q0 -154 90 -154z" />
    <glyph glyph-name="uni17A5" unicode="&#x17a5;" horiz-adv-x="1300" 
d="M1060 1249q0 -229 -220 -229q-151 0 -288 83q-136 82 -157 82q-20 0 -60 -21.5t-72.5 -48.5t-32.5 -44q0 -24 130 -85l-120 -55q-120 69 -120 135q0 33 35.5 73.5t85 77t93.5 60t60 23.5q59 0 165 -67q181 -106 281 -106t100 122q0 142 -140 142q0 80 90 80
q170 0 170 -222zM240 130v520q0 300 410 300t410 -300v-650h-120v650q0 210 -290 210t-290 -210v-217h65q175 0 175 -173q0 -130 -55 -195t-140 -65q-165 0 -165 130zM425 343h-65v-213q0 -40 45 -40q41 0 73 38t32 132q0 83 -85 83z" />
    <glyph glyph-name="uni17A6" unicode="&#x17a6;" horiz-adv-x="1850" 
d="M1610 1340v-1835q0 -155 -335 -155t-335 155v195q0 110 -290 110t-290 -110v-50h70q130 0 130 -130q0 -170 -200 -170q-110 0 -110 100v250q0 200 400 200t400 -200v-195q0 -75 225 -75q215 0 215 75v1835q0 210 -224 210h-116q-210 0 -210 141q0 32 20 83t20 101
q0 51 -124 51q0 74 100 74q144 0 144 -125q0 -62 -20 -105t-20 -79q0 -41 90 -41h116q344 0 344 -310zM240 130v870q0 300 410 300t410 -300v-1000h-120v1000q0 210 -290 210t-290 -210v-567h65q175 0 175 -173q0 -130 -55 -195t-140 -65q-165 0 -165 130zM425 343h-65v-213
q0 -40 45 -40q41 0 73 38t32 132q0 83 -85 83zM430 -440h-70v-120q110 0 110 79q0 41 -40 41z" />
    <glyph glyph-name="uni17A7" unicode="&#x17a7;" horiz-adv-x="1300" 
d="M240 347v175l350 98q350 98 350 333q0 257 -290 257q-236 0 -280 -171q7 1 20 1q130 0 130 -130t-130 -130q-150 0 -150 130v43q0 347 410 347t410 -347q0 -295 -437 -417l-263 -74v-115q0 -257 190 -257q63 0 130.5 26t126.5 66t96 84t37 80v174h120v-570h-120v234
q-169 -184 -390 -184q-310 0 -310 347zM390 950q-40 0 -40 -40t40 -40t40 40t-40 40z" />
    <glyph glyph-name="uni17A8" unicode="&#x17a8;" horiz-adv-x="1300" 
d="M150 1387q0 21 32 59t78.5 78t90.5 68t68 28q48 0 124 -72q77 -72 104 -72q24 0 100 72q77 72 124 72q48 0 120 -82q72 -83 109 -83t50 34q-13 -130 -94 -130q-40 0 -106 71q-67 70 -98 70q-29 0 -114 -70q-86 -71 -116 -71t-110 71q-79 70 -113 70q-20 0 -51 -20
t-55.5 -46t-24.5 -45q0 -69 138 -74l-133 -51q-123 18 -123 123zM240 347v175l350 98q350 98 350 333q0 257 -290 257q-236 0 -280 -171q7 1 20 1q130 0 130 -130t-130 -130q-150 0 -150 130v43q0 347 410 347t410 -347q0 -295 -437 -417l-263 -74v-115q0 -257 190 -257
q63 0 130.5 26t126.5 66t96 84t37 80v174h120v-570h-120v234q-169 -184 -390 -184q-310 0 -310 347zM390 950q-40 0 -40 -40t40 -40t40 40t-40 40z" />
    <glyph glyph-name="uni17A9" unicode="&#x17a9;" horiz-adv-x="1300" 
d="M240 347v175l350 98q350 98 350 333q0 257 -290 257q-236 0 -280 -171q7 1 20 1q130 0 130 -130t-130 -130q-150 0 -150 130v43q0 347 410 347t410 -347q0 -295 -437 -417l-263 -74v-115q0 -257 190 -257q63 0 130.5 26t126.5 66t96 84t37 80v174h120v-570h-120v234
q-169 -184 -390 -184q-310 0 -310 347zM390 950q-40 0 -40 -40t40 -40t40 40t-40 40zM1180 520h100v-570h-100v570z" />
    <glyph glyph-name="uni17AA" unicode="&#x17aa;" horiz-adv-x="1300" 
d="M1060 1609q0 -229 -220 -229q-151 0 -288 83q-136 82 -157 82q-20 0 -60 -21.5t-72.5 -48.5t-32.5 -44q0 -24 130 -85l-120 -55q-120 69 -120 135q0 33 35.5 73.5t85 77t93.5 60t60 23.5q59 0 165 -67q181 -106 281 -106t100 122q0 142 -140 142q0 80 90 80
q170 0 170 -222zM240 347v175l350 98q350 98 350 333q0 257 -290 257q-236 0 -280 -171q7 1 20 1q130 0 130 -130t-130 -130q-150 0 -150 130v43q0 347 410 347t410 -347q0 -295 -437 -417l-263 -74v-115q0 -257 190 -257q63 0 130.5 26t126.5 66t96 84t37 80v174h120v-570
h-120v234q-169 -184 -390 -184q-310 0 -310 347zM390 950q-40 0 -40 -40t40 -40t40 40t-40 40z" />
    <glyph glyph-name="uni17AB" unicode="&#x17ab;" horiz-adv-x="1300" 
d="M940 300v531q0 91 -190 119q3 59 24.5 120.5t53 113.5t65 84t60.5 32q33 0 121 -83q28 -28 74 -28q25 0 52 24q-5 -81 -24 -106q-19 -27 -53 -27q-54 0 -123 66q-22 22 -54 22q-37 0 -79 -148q193 -40 193 -160v-560q0 -300 -410 -300t-410 300v531q0 90 -170 119
q3 59 24.5 120.5t53 113.5t65 84t60.5 32q33 0 121 -83q28 -28 74 -28q25 0 55 24q-8 -80 -27.5 -106.5t-62.5 -26.5q-44 0 -113 66q-22 22 -54 22q-37 0 -79 -148q173 -41 173 -160v-560q0 -210 290 -210t290 210zM786 -149q0 49 60 49q214 0 214 -168q0 -385 -794 -385
q-200 0 -200 43q167 15 283.5 29t183.5 27q407 77 407 286q0 70 -94 70q-60 0 -60 49z" />
    <glyph glyph-name="uni17AC" unicode="&#x17ac;" horiz-adv-x="1300" 
d="M940 300v531q0 91 -190 119q3 59 24.5 120.5t53 113.5t65 84t60.5 32q33 0 121 -83q28 -28 74 -28q25 0 52 24q-5 -81 -24 -106q-19 -27 -53 -27q-54 0 -123 66q-22 22 -54 22q-37 0 -79 -148q193 -40 193 -160v-560q0 -300 -410 -300t-410 300v531q0 90 -170 119
q3 59 24.5 120.5t53 113.5t65 84t60.5 32q33 0 121 -83q28 -28 74 -28q25 0 55 24q-8 -80 -27.5 -106.5t-62.5 -26.5q-44 0 -113 66q-22 22 -54 22q-37 0 -79 -148q173 -41 173 -160v-560q0 -210 290 -210t290 210zM1014 -431q44 -117 126 -117q60 0 60 -50t-60 -50
q-147 0 -194 143q-187 -148 -680 -148q-200 0 -200 43q167 15 283.5 29t183.5 27q407 77 407 286q0 70 -94 70q-60 0 -60 49t60 49q214 0 214 -168q0 -93 -46 -163z" />
    <glyph glyph-name="uni17AD" unicode="&#x17ad;" horiz-adv-x="1300" 
d="M240 87v913q0 300 205 300q114 0 205 -154q91 154 207 154q203 0 203 -300v-1000h-120v1000q0 198 -83 198q-65 0 -148 -132q-27 -44 -59 -44t-59 44q-81 132 -146 132q-85 0 -85 -198v-500q230 0 230 -183q0 -317 -240 -317q-110 0 -110 87zM360 410v-320q140 0 140 227
q0 93 -140 93zM786 -149q0 49 60 49q214 0 214 -168q0 -385 -794 -385q-200 0 -200 43q167 15 283.5 29t183.5 27q407 77 407 286q0 70 -94 70q-60 0 -60 49z" />
    <glyph glyph-name="uni17AE" unicode="&#x17ae;" horiz-adv-x="1300" 
d="M240 87v913q0 300 205 300q114 0 205 -154q91 154 207 154q203 0 203 -300v-1000h-120v1000q0 198 -83 198q-65 0 -148 -132q-27 -44 -59 -44t-59 44q-81 132 -146 132q-85 0 -85 -198v-500q230 0 230 -183q0 -317 -240 -317q-110 0 -110 87zM360 410v-320q140 0 140 227
q0 93 -140 93zM1014 -431q44 -117 126 -117q60 0 60 -50t-60 -50q-147 0 -194 143q-187 -148 -680 -148q-200 0 -200 43q167 15 283.5 29t183.5 27q407 77 407 286q0 70 -94 70q-60 0 -60 49t60 49q214 0 214 -168q0 -93 -46 -163z" />
    <glyph glyph-name="uni17AF" unicode="&#x17af;" horiz-adv-x="1300" 
d="M650 392l290 -244v933q0 129 -260 129q-45 0 -100 -13t-105 -37t-82.5 -57t-32.5 -73v-90q-120 0 -120 90q0 160 25 223t25 137q0 90 -100 90q0 90 100 90q120 0 120 -180q0 -87 -25 -141q-3 -7 -6 -14.5t-5 -15.5q3 1 9 5q136 76 297 76q380 0 380 -219v-1081h-90
l-320 270l-320 -270h-90v540q-100 34 -100 104t40 113t110 43t70 -86v-557z" />
    <glyph glyph-name="uni17B0" unicode="&#x17b0;" horiz-adv-x="1300" 
d="M1060 1000v-1032q-51 -307 -138 -351q-44 -23 -91 -23q-57 0 -118 31q5 -17 5 -36q0 -28 -9 -66q-15 -68 -75.5 -119.5t-147.5 -51.5t-146 63q-100 64 -100 133q0 70 91 104q278 102 609 326v1022q0 198 -83 198q-65 0 -148 -132q-27 -44 -59 -44t-59 44
q-81 132 -146 132q-85 0 -85 -198v-500q230 0 230 -183q0 -317 -240 -317q-110 0 -110 87v913q0 300 205 300q114 0 205 -154q91 154 207 154q203 0 203 -300zM360 410v-320q140 0 140 227q0 93 -140 93zM732 -269q38 -44 89 -44q22 0 49 9q26 9 76 173
q-56 -37 -109.5 -71.5t-104.5 -66.5zM629 -376q0 10 -0.5 21t-1.5 23q-79 -40 -151.5 -69t-137.5 -46q81 -104 153 -104q51 0 89.5 42t48.5 133z" />
    <glyph glyph-name="uni17B1" unicode="&#x17b1;" horiz-adv-x="1300" 
d="M622 1650q498 -73 498 -270q0 -68 -45 -68q-75 0 -75 68q0 143 -281 173q-118 12 -200 12q-109 0 -150 -23q-69 -40 -69 -63q0 -58 172 -139l-105 -30q-187 64 -187 138v46q0 22 46.5 62t121.5 72.5t161 32.5q39 0 113 -11zM240 347v175l350 98q350 98 350 333
q0 257 -290 257q-236 0 -280 -171q7 1 20 1q130 0 130 -130t-130 -130q-150 0 -150 130v43q0 347 410 347t410 -347q0 -295 -437 -417l-263 -74v-115q0 -257 190 -257q63 0 130.5 26t126.5 66t96 84t37 80v174h120v-570h-120v234q-169 -184 -390 -184q-310 0 -310 347z
M390 950q-40 0 -40 -40t40 -40t40 40t-40 40z" />
    <glyph glyph-name="uni17B2" unicode="&#x17b2;" horiz-adv-x="1300" 
d="M940 300v68q0 34 -25.5 62t-82.5 37l-204 -159q-29 -23 -47 -23q-19 0 -43 24q-21 21 -21 44q0 22 30 43l253 199q140 110 140 185q0 93 -115 93q-145 0 -145 -93q0 -62 130 -62q-30 -68 -93 -68q-137 0 -137 130q0 183 245 183q235 0 235 -183q0 -135 -136 -240
q53 -18 94.5 -64.5t41.5 -107.5v-68q0 -300 -410 -300t-410 300v700q0 300 410 300t410 -250h-120q0 160 -290 160t-290 -210v-700q0 -210 290 -210t290 210z" />
    <glyph glyph-name="uni17B3" unicode="&#x17b3;" horiz-adv-x="1300" 
d="M1084 1313q-17 -11 -43 -11q-43 0 -72 4q-243 32 -243 245v1q-2 1 -7 1q-118 12 -200 12q-109 0 -150 -23q-69 -40 -69 -63q0 -58 172 -139l-105 -30q-187 64 -187 138v46q0 22 46.5 62t121.5 72.5t161 32.5q39 0 113 -11q31 -4 60 -9.5t57 -10.5q48 135 287 135
q90 0 90 -45q0 -44 -90 -44q-140 0 -182 -72q276 -78 276 -224q0 -61 -36 -67zM999 1396q-12 100 -173 139v-4q0 -112 173 -135zM240 347v175l350 98q350 98 350 333q0 257 -290 257q-236 0 -280 -171q7 1 20 1q130 0 130 -130t-130 -130q-150 0 -150 130v43q0 347 410 347
t410 -347q0 -295 -437 -417l-263 -74v-115q0 -257 190 -257q63 0 130.5 26t126.5 66t96 84t37 80v174h120v-570h-120v234q-169 -184 -390 -184q-310 0 -310 347zM390 950q-40 0 -40 -40t40 -40t40 40t-40 40z" />
    <glyph glyph-name="uni17B4" unicode="&#x17b4;" horiz-adv-x="1204" 
 />
    <glyph glyph-name="uni17B5" unicode="&#x17b5;" horiz-adv-x="1204" 
 />
    <glyph glyph-name="uni17B6" unicode="&#x17b6;" horiz-adv-x="610" 
d="M-242 1085q-23 29 -23 54q0 71 55 105q92 56 183 56q54 0 117.5 -32t120.5 -81.5t93 -105t36 -103.5v-978h-120v978q0 19 -24.5 55t-63.5 74.5t-83.5 65t-85.5 26.5q-77 0 -205 -114z" />
    <glyph glyph-name="uni17B7" unicode="&#x17b7;" 
d="M-1040 1750q0 200 240 200q210 0 385 -150l175 -150v-100h-580q-220 0 -220 200zM-940 1750q0 -100 120 -100h430q-200 200 -410 200q-140 0 -140 -100z" />
    <glyph glyph-name="uni17B8" unicode="&#x17b8;" 
d="M-415 1800l75 -64v244h100v-430h-580q-220 0 -220 200t240 200q210 0 385 -150zM-940 1750q0 -100 120 -100h430q-200 200 -410 200q-140 0 -140 -100z" />
    <glyph glyph-name="uni17B9" unicode="&#x17b9;" 
d="M-571 1901q32 99 161 99q170 0 170 -170q0 -94 -52 -136l52 -44v-100h-580q-220 0 -220 200t240 200q121 0 229 -49zM-410 1900q-70 0 -70 -70t70 -70t70 70t-70 70zM-940 1750q0 -100 120 -100h430q-200 200 -410 200q-140 0 -140 -100z" />
    <glyph glyph-name="uni17BA" unicode="&#x17ba;" 
d="M-550 2000h100v-172q9 -7 18 -13.5t17 -14.5l75 -64v244h100v-430h-580q-220 0 -220 200t240 200q130 0 250 -59v109zM-940 1750q0 -100 120 -100h430q-200 200 -410 200q-140 0 -140 -100z" />
    <glyph glyph-name="uni17BB" unicode="&#x17bb;" 
d="M-340 -100q100 0 100 -100v-450h-120v380q-80 0 -80 85t100 85z" />
    <glyph glyph-name="uni17BC" unicode="&#x17bc;" 
d="M-480 -650q-103 0 -156 57q-33 35 -33 80q0 30 13 62l74 201q-72 0 -72 75t100 75q111 0 111 -87q0 -37 -19 -88l-78 -204q-8 -22 -8 -36q0 -45 68 -45q103 0 180 230q78 230 103 230q24 0 24 -69q0 -35 -10 -93.5t-32.5 -125.5t-58 -126.5t-87 -97.5t-119.5 -38z" />
    <glyph glyph-name="uni17BD" unicode="&#x17bd;" 
d="M-461 -503q-127 -147 -192 -147q-146 0 -146 129q0 78 130 221q58 64 58 92q0 20 -31 20q-24 0 -68 -12q0 100 107 100q103 0 103 -67t-101 -188t-101 -154q0 -41 49 -41q71 0 223 212q71 -212 107 -212q43 0 77 225q35 225 74 225q19 0 19 -98q0 -95 -17 -200
q-37 -252 -153 -252q-82 0 -138 147z" />
    <glyph glyph-name="uni17BE" unicode="&#x17be;" 
d="M-415 1800l75 -64v244h100v-430h-580q-220 0 -220 200t240 200q210 0 385 -150zM-940 1750q0 -100 120 -100h430q-200 200 -410 200q-140 0 -140 -100z" />
    <glyph glyph-name="uni17BF" unicode="&#x17bf;" horiz-adv-x="610" 
d="M140 1980h100v-343q100 -112 100 -287v-1750q0 -250 -350 -250t-350 250v250h120v-250q0 -160 230 -160t230 160v1750q0 121 -40 200h-520q-220 0 -220 200t240 200q130 0 250 -59v109h100v-172q9 -7 18 -13.5t17 -14.5l75 -64v244zM-460 1750q0 -100 120 -100h430
q-200 200 -410 200q-140 0 -140 -100z" />
    <glyph glyph-name="uni17C0" unicode="&#x17c0;" horiz-adv-x="610" 
d="M220 -400v1740q0 220 -224 220h-116q-230 0 -230 131q0 32 20 83t20 101q0 51 -94 51q0 74 117 74q97 0 97 -125q0 -62 -20 -105t-20 -79q0 -41 110 -41h116q344 0 344 -310v-1740q0 -250 -350 -250t-350 250v250h120v-250q0 -160 230 -160t230 160z" />
    <glyph glyph-name="uni17C1" unicode="&#x17c1;" horiz-adv-x="610" 
d="M240 98v733q0 91 -190 119q3 59 24.5 120.5t53 113.5t65 84t60.5 32q33 0 121 -83q28 -28 74 -28q25 0 55 24q-8 -80 -27.5 -106.5t-62.5 -26.5q-44 0 -113 66q-22 22 -54 22q-37 0 -79 -148q193 -40 193 -160v-427q160 0 160 -166q0 -267 -160 -267h-40q-80 0 -80 98z
M420 267q0 66 -60 66v-220q60 0 60 154z" />
    <glyph glyph-name="uni17C2" unicode="&#x17c2;" horiz-adv-x="610" 
d="M220 1556q-75 0 -75 -42q0 -43 105 -43q170 0 170 174q0 159 -150 159q-70 0 -70 48t70 48q240 0 240 -255q0 -245 -260 -245q-210 0 -210 124q0 103 90 103t90 -71zM240 98v733q0 91 -190 119q3 59 24.5 120.5t53 113.5t65 84t60.5 32q33 0 121 -83q28 -28 74 -28
q25 0 55 24q-8 -80 -27.5 -106.5t-62.5 -26.5q-44 0 -113 66q-22 22 -54 22q-37 0 -79 -148q193 -40 193 -160v-427q160 0 160 -166q0 -267 -160 -267h-40q-80 0 -80 98zM420 267q0 66 -60 66v-220q60 0 60 154z" />
    <glyph glyph-name="uni17C3" unicode="&#x17c3;" horiz-adv-x="610" 
d="M135 1602q45 0 45 -44q0 -86 90 -86q120 0 120 111q0 120 -140 120h-70q-90 0 -90 82q0 93 -100 93q0 72 80 72q110 0 110 -165h70q230 0 230 -202q0 -183 -210 -183q-180 0 -180 158q0 44 45 44zM240 98v733q0 91 -190 119q3 59 24.5 120.5t53 113.5t65 84t60.5 32
q33 0 121 -83q28 -28 74 -28q25 0 55 24q-8 -80 -27.5 -106.5t-62.5 -26.5q-44 0 -113 66q-22 22 -54 22q-37 0 -79 -148q193 -40 193 -160v-427q160 0 160 -166q0 -267 -160 -267h-40q-80 0 -80 98zM420 267q0 66 -60 66v-220q60 0 60 154z" />
    <glyph glyph-name="uni17C4" unicode="&#x17c4;" horiz-adv-x="610" 
d="M-242 1085q-23 29 -23 54q0 71 55 105q92 56 183 56q54 0 117.5 -32t120.5 -81.5t93 -105t36 -103.5v-978h-120v978q0 19 -29 55t-74 74.5t-94 65t-90 26.5q-77 0 -175 -114z" />
    <glyph glyph-name="uni17C5" unicode="&#x17c5;" horiz-adv-x="610" 
d="M270 1128v346q0 86 -100 86q0 87 105 87q115 0 115 -173v-260q0 -87 -65 -170q15 -34 15 -66v-978h-120v978q0 19 -29 55t-74 74.5t-94 65t-90 26.5q-77 0 -175 -114q-23 29 -23 54q0 71 55 105q92 56 183 56q108 0 238 -113q17 -15 31.5 -30t27.5 -29z" />
    <glyph glyph-name="uni17C6" unicode="&#x17c6;" 
d="M-650 1950q225 0 225 -225t-225 -225t-225 225t225 225zM-650 1850q-125 0 -125 -125t125 -125t125 125t-125 125z" />
    <glyph glyph-name="uni17C7" unicode="&#x17c7;" horiz-adv-x="900" 
d="M450 1290q62 0 123 -29q60 -29 93.5 -83t33.5 -113q0 -58 -33 -112t-92.5 -83.5t-124.5 -29.5t-124 30q-60 29 -93 83t-33 112q0 60 34 113q34 54 93.5 83t122.5 29zM450 1190q-55 0 -90 -33t-35 -92q0 -58 34.5 -91.5t90.5 -33.5q58 0 91.5 33t33.5 92t-35 92t-90 33z
M450 460q62 0 123 -29q60 -29 93.5 -83t33.5 -113q0 -58 -33 -112t-92.5 -83.5t-124.5 -29.5t-124 30q-60 29 -93 83t-33 112q0 60 34 113q34 54 93.5 83t122.5 29zM450 360q-55 0 -90 -33t-35 -92q0 -58 34.5 -91.5t90.5 -33.5q58 0 91.5 33t33.5 92t-35 92t-90 33z" />
    <glyph glyph-name="uni17C8" unicode="&#x17c8;" horiz-adv-x="625" 
d="M300 1220q41 0 70.5 -29.5t29.5 -70.5t-29.5 -70.5t-70.5 -29.5t-70.5 29.5t-29.5 70.5q0 42 29 71t71 29zM300 280q41 0 70.5 -29.5t29.5 -70.5t-29.5 -70.5t-70.5 -29.5t-70.5 29.5t-29.5 70.5q0 42 29 71t71 29z" />
    <glyph glyph-name="uni17C9" unicode="&#x17c9;" 
d="M-857 1600v300h90v-300q0 -80 -45 -100q-45 20 -45 100zM-532 1600v300h90v-300q0 -80 -45 -100q-45 20 -45 100z" />
    <glyph glyph-name="uni17CA" unicode="&#x17ca;" 
d="M-1001 1391l-105 -31q-119 36 -119 86q0 34 65 73l66 39q131 80 163 80q35 0 126 -63q92 -63 120 -63q25 0 118 63q95 63 130 63q36 0 127 -82t141 -82q33 0 94 31q-101 -107 -165 -107q-46 0 -119 67t-116 67t-122 -67q-77 -67 -118 -67q-28 0 -119 67t-134 67
q-22 0 -54.5 -14t-57.5 -33t-25 -35q0 -21 104 -59z" />
    <glyph glyph-name="uni17CB" unicode="&#x17cb;" 
d="M-700 1600v350h100v-350q0 -80 -50 -100q-50 20 -50 100z" />
    <glyph glyph-name="uni17CC" unicode="&#x17cc;" 
d="M-870 1444q-62 -44 -76 -44q-16 0 -35 22q-13 16 -13 31q0 34 64 70l94 53q95 53 158 123.5t94.5 136.5t31.5 102q0 62 46 62q56 0 56 -62q0 -79 -53.5 -171.5t-161.5 -182.5q64 14 118 14q36 0 74 -11q24 -7 64 -37.5t71.5 -62t31.5 -42.5q0 -17 -24.5 -31t-43.5 -14
t-61 51t-110 59q-61 3 -92 3q-102 0 -129 -10q-44 -17 -104 -59z" />
    <glyph glyph-name="uni17CD" unicode="&#x17cd;" 
d="M-900 1676q0 -86 105 -86q85 0 85 29q0 31 35 31q65 0 65 -31q0 -119 -180 -119q-210 0 -210 175q0 195 215 195q128 0 195 -69q76 25 130.5 73.5t96.5 110.5l11 2q19 0 38 -19.5t19 -33.5q0 -13 -12 -24q-46 -64 -105 -113q-59 -48 -136 -86q-38 -11 -70 -11
q-74 80 -167 80q-115 0 -115 -104z" />
    <glyph glyph-name="uni17CE" unicode="&#x17ce;" 
d="M-440 1659h-160v-159h-100v159h-160v101h160v159h100v-159h160v-101z" />
    <glyph glyph-name="uni17CF" unicode="&#x17cf;" 
d="M-400 2000q69 0 69 -48q0 -49 -69 -49q-65 0 -112 -105l-16 -42h-102q-260 0 -260 -137q0 -94 90 -94q40 0 150 125q110 -125 160 -125q80 0 80 52q0 62 -100 62q0 65 80 65q120 0 120 -127t-175 -127q-95 0 -165 85q-70 -85 -155 -85q-185 0 -185 169q0 212 360 212
q73 169 230 169z" />
    <glyph glyph-name="uni17D0" unicode="&#x17d0;" 
d="M-552 1838q122 0 122 -88q0 -80 -75 -80q0 70 -47 70q-48 0 -48 -28q0 -84 150 -84q320 0 320 179q0 102 -50 102t-50 42t50 42q150 0 150 -186q0 -264 -420 -264q-250 0 -250 169q0 126 148 126z" />
    <glyph glyph-name="uni17D1" unicode="&#x17d1;" 
d="M-275 1800v-100h-750v100h750z" />
    <glyph glyph-name="uni17D2" unicode="&#x17d2;" 
d="M-700 -200h100v-150h150v-100h-150v-150h-100v150h-150v100h150v150z" />
    <glyph glyph-name="uni17D3" unicode="&#x17d3;" 
d="M-400 1750q0 -100 -63 -150q-62 -50 -187 -50t-187 50q-63 50 -63 150q0 101 63 150q62 50 187 50t187 -50q63 -49 63 -150zM-800 1750q0 -50 37 -75t113 -25t113 25t37 75t-37 75t-113 25t-113 -25t-37 -75z" />
    <glyph glyph-name="uni17D4" unicode="&#x17d4;" horiz-adv-x="1250" 
d="M890 1206v94h120v-1122q0 -178 -150 -178q-110 0 -110 78q140 0 140 100v900q-178 -211 -390 -211q-260 0 -260 216q0 217 210 217q60 0 60 -45t-60 -45q-90 0 -90 -127q0 -126 140 -126q218 0 390 249z" />
    <glyph glyph-name="uni17D5" unicode="&#x17d5;" horiz-adv-x="1580" 
d="M890 1206v94h120v-1122q0 -178 -150 -178q-110 0 -110 78q140 0 140 100v900q-178 -211 -390 -211q-260 0 -260 216q0 217 210 217q60 0 60 -45t-60 -45q-90 0 -90 -127q0 -126 140 -126q218 0 390 249zM1220 130v1170h120v-1170q0 -130 -240 -130q120 53 120 130z" />
    <glyph glyph-name="uni17D6" unicode="&#x17d6;" horiz-adv-x="900" 
d="M450 1290q62 0 123 -29q60 -29 93.5 -83t33.5 -113q0 -58 -33 -112t-92.5 -83.5t-124.5 -29.5t-124 30q-60 29 -93 83t-33 112q0 60 34 113q34 54 93.5 83t122.5 29zM450 1190q-55 0 -90 -33t-35 -92q0 -58 34.5 -91.5t90.5 -33.5q58 0 91.5 33t33.5 92t-35 92t-90 33z
M50 600v100h800v-100h-800zM450 460q62 0 123 -29q60 -29 93.5 -83t33.5 -113q0 -58 -33 -112t-92.5 -83.5t-124.5 -29.5t-124 30q-60 29 -93 83t-33 112q0 60 34 113q34 54 93.5 83t122.5 29zM450 360q-55 0 -90 -33t-35 -92q0 -58 34.5 -91.5t90.5 -33.5q58 0 91.5 33
t33.5 92t-35 92t-90 33z" />
    <glyph glyph-name="uni17D7" unicode="&#x17d7;" horiz-adv-x="1350" 
d="M734 1118l289 181h87v-996q0 -303 -376 -303q-415 0 -415 152q0 100 99 100q0 -164 316 -164q256 0 256 215v870l-254 -163l-244 170l-137 -132q0 -71 83 -71q59 0 59 63q59 0 59 -75q0 -76 -118 -76q-198 0 -198 159q62 126 232 252z" />
    <glyph glyph-name="uni17D8" unicode="&#x17d8;" horiz-adv-x="4450" 
d="M890 1206v94h120v-1122q0 -178 -150 -178q-110 0 -110 78q140 0 140 100v900q-178 -211 -390 -211q-260 0 -260 216q0 217 210 217q60 0 60 -45t-60 -45q-90 0 -90 -127q0 -126 140 -126q218 0 390 249zM2960 860v-560q0 -300 -385 -300t-385 300v700q0 210 -290 210
t-290 -210v-500q230 0 230 -183q0 -317 -240 -317q-110 0 -110 87v913q0 300 410 300t410 -300v-700q0 -210 265 -210t265 210v531q0 91 -190 119q3 59 24.5 120.5t53 113.5t65 84t60.5 32q33 0 121 -83q28 -28 74 -28q25 0 52 24q-5 -81 -24 -106q-19 -27 -53 -27
q-54 0 -123 66q-22 22 -54 22q-37 0 -79 -148q193 -40 193 -160zM4090 1206v94h120v-1122q0 -178 -150 -178q-110 0 -110 78q140 0 140 100v900q-178 -211 -390 -211q-260 0 -260 216q0 217 210 217q60 0 60 -45t-60 -45q-90 0 -90 -127q0 -126 140 -126q218 0 390 249z
M1610 410v-320q140 0 140 227q0 93 -140 93z" />
    <glyph glyph-name="uni17D9" unicode="&#x17d9;" horiz-adv-x="1700" 
d="M850 0q-324 0 -487 163q-163 162 -163 487t163 488q164 162 487 162q325 0 488 -162q162 -163 162 -488t-162 -487q-163 -163 -488 -163zM850 1200q-550 0 -550 -550t550 -550t550 550t-550 550zM850 279q-187 0 -279 92q-92 94 -92 279t92 279q92 92 279 92t279 -92
q92 -94 92 -279t-92 -279q-92 -92 -279 -92zM850 921q-135 0 -203 -67q-68 -68 -68 -204q0 -135 68 -203q70 -68 203 -68t203 68q68 68 68 203q0 136 -68 204q-68 67 -203 67z" />
    <glyph glyph-name="uni17DA" unicode="&#x17da;" horiz-adv-x="3850" 
d="M3156 640q44 16 87 26q116 27 262 27q95 0 95 -65t-99 -65h-120q-87 0 -152 -28q21 -38 29 -66q7 -24 7 -46q0 -53 -47 -85q-56 -37 -108 -37q-11 0 -16 1q-60 6 -110 61q-39 44 -39 86q0 12 3 25q15 51 89 104q-7 10 -15.5 20t-16.5 20q-9 10 -17 19l-16 18
q-46 -36 -102 -75q-39 -28 -72 -52t-61 -44q20 -32 32 -61q16 -39 16 -71q0 -50 -42 -77q-59 -38 -110 -38q-12 0 -18 1q-60 7 -113 66q-23 26 -23 60q0 41 35 94q15 22 41 51q-35 40 -86 98l-69 74q-49 -47 -112 -103q-75 -61 -129 -111q45 -57 67 -103q23 -49 23 -84
q0 -52 -46 -82q-72 -48 -137 -48q-9 0 -13 1q-71 5 -134 69q-31 31 -31 76q0 43 32 101q11 20 25.5 40.5t32.5 42.5q-22 21 -46.5 44.5t-52.5 49.5q-19 17 -37.5 34.5t-35.5 34.5q-34 -41 -73.5 -86t-86.5 -94q-222 -231 -418 -347q-197 -116 -363 -116q-207 0 -311 162
q-104 164 -104 488t119 487q118 163 356 163t357 -86q118 -85 118 -257q0 -176 -86 -283q-88 -108 -260 -145q-21 -6 -38 -6q-51 0 -66 47q-4 11 -4 23q0 44 69 60q117 26 176 101q59 76 59 197q0 109 -81 164q-82 55 -244 55t-243 -130q-81 -127 -81 -384v-6
q0 -259 66 -390q66 -130 199 -130q131 0 294 101q162 100 355 301q60 62 109.5 116t87.5 100q-55 69 -80 123q-25 53 -25 99q0 57 42 99q72 72 148 74h2q72 0 145 -72q37 -36 37 -92q0 -54 -38 -132q-21 -44 -59 -99q21 -22 45 -44.5t50 -46.5q23 -22 45 -42.5t41 -40.5
q25 23 52.5 48.5t58.5 51.5q81 66 138 117q-32 52 -54 109q-16 39 -16 74q0 59 49 90q68 44 127 44h16q68 -8 124 -71q26 -29 26 -68q0 -48 -37 -109q-24 -40 -56 -79q17 -20 37.5 -42t43.5 -47q22 -24 42 -46.5t37 -44.5q47 39 105 81q37 26 68.5 48.5t56.5 41.5
q-11 20 -20 38t-14 34q-9 29 -9 51q0 51 46 82q56 36 108 36q12 0 18 -1q61 -8 114 -65q24 -25 24 -60q0 -38 -35 -90q-19 -27 -48 -57q11 -11 22.5 -24.5t24.5 -27.5zM1793 848q61 82 61 115q0 11 -7 17q-24 21 -47 21q-28 0 -54 -30q-7 -7 -7 -20q0 -31 42 -87
q6 -10 12 -16zM2411 882q40 43 40 60q0 4 -2 6q-15 17 -33 17q-14 0 -30 -10q-5 -3 -5 -11q0 -18 30 -62zM2982 848q25 22 25 27q0 1 -1 1q-5 5 -11 5q-8 0 -19 -8q-2 -2 -2 -5q0 -6 8 -20zM3121 466q-16 -13 -16 -22q0 -4 1 -5q4 -7 12 -7q6 0 13 6q1 1 1 3q0 5 -11 25z
M2638 406q-21 -19 -21 -26l1 -1q7 -7 16 -7t16 4q2 2 2 4q0 6 -14 26zM2071 380q-44 -49 -44 -70q0 -6 4 -9q19 -19 41 -19q18 0 37 13q6 3 6 11q0 21 -44 74z" />
    <glyph glyph-name="uni17DB" unicode="&#x17db;" horiz-adv-x="580" 
d="M360 860v-160h170v-100h-170v-502q0 -98 -80 -98h-40q-190 0 -190 267q0 166 190 166v167h-190v100h190v131q0 91 -190 119q3 59 24.5 120.5t53 113.5t65 84t60.5 32q33 0 121 -83q28 -28 74 -28q25 0 55 24q-8 -80 -27.5 -106.5t-62.5 -26.5q-44 0 -113 66
q-22 22 -54 22q-37 0 -79 -148q193 -40 193 -160zM240 113v220q-90 0 -90 -66q0 -154 90 -154z" />
    <glyph glyph-name="uni17DC" unicode="&#x17dc;" horiz-adv-x="1350" 
d="M675 -10q-237 0 -356 77.5t-119 225.5q0 70 26 108t75 52.5t128 14.5q60 0 60 -60q0 -58 -60 -58q-41 0 -41 -58q0 -146 287 -146q142 0 215 57t73 157q0 78 -34 118t-94 52.5t-160 12.5q-239 0 -357 72.5t-118 226.5q0 177 120 272.5t355 95.5q475 0 475 -300
q0 -71 -25 -108q-25 -39 -74.5 -53.5t-128.5 -14.5q-60 0 -60 59q0 58 60 58q41 0 41 59q0 69 -73 107t-215 38q-141 0 -214 -57t-73 -156q0 -78 34 -118q33 -40 93.5 -53t159.5 -13q239 0 357 -72.5t118 -226.5q0 -177 -120 -273t-355 -96z" />
    <glyph glyph-name="uni17DD" unicode="&#x17dd;" 
d="M-898 1470h-191q0 301 445 301t445 -301h-194q0 181 -252 181q-253 0 -253 -181z" />
    <glyph glyph-name="uni17E0" unicode="&#x17e0;" horiz-adv-x="1450" 
d="M1210 780v-260q0 -520 -485 -520t-485 520v260q0 520 485 520t485 -520zM1090 520v260q0 430 -365 430t-365 -430v-260q0 -430 365 -430t365 430z" />
    <glyph glyph-name="uni17E1" unicode="&#x17e1;" horiz-adv-x="1550" 
d="M1310 780q0 -780 -710 -780v90q590 0 590 690q0 430 -415 430t-415 -343q0 -281 233 -281q178 0 178 166q-24 -26 -63 -26q-93 0 -93 100q0 115 120 115q149 0 149 -189q0 -266 -291 -266q-353 0 -353 381q0 433 535 433t535 -520z" />
    <glyph glyph-name="uni17E2" unicode="&#x17e2;" horiz-adv-x="1550" 
d="M240 347v973q0 166 -150 166q0 84 120 84q150 0 150 -250v-973q0 -257 390 -257h50q390 0 390 257v693q0 37 -20 70t-41 54t-24 21q-35 0 -154 -158q-117 158 -153 158q-2 0 -24 -21t-43 -54t-21 -70v-368q176 0 176 -109q0 -130 -176 -130q-120 0 -120 87v520
q0 53 26 100t63 83t70.5 56.5t48.5 20.5q30 0 153 -136q123 136 152 136q15 0 48.5 -20.5t70 -56.5t62.5 -83t26 -100v-693q0 -347 -510 -347h-50q-510 0 -510 347zM710 595v-85q86 0 86 53q0 32 -86 32z" />
    <glyph glyph-name="uni17E3" unicode="&#x17e3;" horiz-adv-x="1750" 
d="M360 997v-722q176 0 176 -125q0 -150 -176 -150q-120 0 -120 100v897q0 303 348 303q214 0 287 -133q73 133 288 133q347 0 347 -303v-997h-120v997q0 213 -227 213q-228 0 -228 -213v-997h-120v997q0 213 -227 213q-228 0 -228 -213zM360 185v-95q86 0 86 60
q0 35 -86 35z" />
    <glyph glyph-name="uni17E4" unicode="&#x17e4;" horiz-adv-x="1450" 
d="M240 265v441q0 295 425 418t425 226q0 62 -128 62q0 88 100 88q148 0 148 -150q0 -165 -425 -284q-425 -120 -425 -360v-441q0 -175 290 -175h432q-172 236 -172 307v221q0 176 120 176q180 0 180 -172q0 -127 -180 -127v-98q0 -89 180 -307v-90h-560q-410 0 -410 265z
M1030 588q80 0 80 61q0 55 -80 55v-116z" />
    <glyph glyph-name="uni17E5" unicode="&#x17e5;" horiz-adv-x="1450" 
d="M745 1037l221 -33q8 -1 16 -1.5t15 -0.5q93 0 93 145v203q0 150 120 150q100 0 100 -88q-100 0 -100 -62v-203q0 -265 -185 -265l-386 58q-31 -18 -69 -36q-210 -87 -210 -278v-361q0 -175 290 -175h432q-162 194 -162 263v256q0 97 106 97q184 0 184 -148
q0 -151 -170 -151v-54q0 -88 170 -263v-90h-560q-410 0 -410 265v361q0 249 256 370q-120 38 -120 142q0 186 202 186t202 -196q0 -41 -35 -91zM622 1059q44 41 44 69q0 97 -88 97t-88 -87q0 -49 132 -79zM1040 500q70 0 70 58q0 57 -70 57v-115z" />
    <glyph glyph-name="uni17E6" unicode="&#x17e6;" horiz-adv-x="1450" 
d="M546 604q-186 0 -186 -197q0 -317 365 -317t365 508v95q0 517 -359 517q-289 0 -371 -256q0 -87 -60 -87t-60 57v376q0 141 -150 141q0 76 130 76q140 0 140 -217v-157q108 157 371 157q479 0 479 -607v-95q0 -598 -484 -598q-486 0 -486 407q0 293 304 293
q269 0 269 -199q0 -157 -87 -157q-95 0 -95 81q0 79 71 96q-11 83 -156 83z" />
    <glyph glyph-name="uni17E7" unicode="&#x17e7;" horiz-adv-x="1680" 
d="M1100 1000v-827q0 -83 110 -83t110 83v1167q0 156 -170 156q0 94 130 94q160 0 160 -250v-1167q0 -173 -230 -173t-230 173v827q0 198 -83 198q-85 0 -168 -132q-27 -44 -59 -44t-59 44q-81 132 -166 132t-85 -198v-500q230 0 230 -183q0 -317 -240 -317q-110 0 -110 87
v913q0 300 205 300q134 0 225 -154q91 154 227 154q203 0 203 -300zM360 410v-320q140 0 140 227q0 93 -140 93z" />
    <glyph glyph-name="uni17E8" unicode="&#x17e8;" horiz-adv-x="1450" 
d="M1090 260v140q-188 0 -188 144q0 149 184 149q124 0 124 -93v-340q0 -260 -250 -260q-164 0 -235 110q-71 -110 -235 -110q-250 0 -250 260v607q0 433 469 433q233 0 381 -207v207q0 217 150 217q120 0 120 -76q-150 0 -150 -141v-303q0 -87 -54 -87q-51 0 -74 44
q-126 256 -373 256q-349 0 -349 -343v-607q0 -170 130 -170q183 0 183 201q0 56 52 56t52 -56q0 -201 183 -201q130 0 130 170zM1090 491v114q-88 0 -88 -61q0 -53 88 -53z" />
    <glyph glyph-name="uni17E9" unicode="&#x17e9;" horiz-adv-x="1450" 
d="M936 155q-55 40 -55 80q0 131 140 131q139 0 139 -150q0 -60 -63 -109t-167.5 -78t-229.5 -29q-460 0 -460 390q0 147 74.5 239t223.5 148q-118 75 -118 220q0 303 359 303q163 0 311 -147v147q0 141 -178 141q0 76 130 76q168 0 168 -217v-260q0 -86 -54 -86
q-32 0 -54 43q-163 193 -323 193q-239 0 -239 -189q0 -203 290 -203q195 0 364 -118q56 -44 56 -91q0 -35 -23 -35q-28 0 -92 53q-115 96 -305 96q-450 0 -450 -313q0 -300 320 -300q145 0 236 65zM1002 184l59 30q0 67 -39 67q-40 0 -40 -37q0 -12 20 -60z" />
    <glyph glyph-name="uni25CC" unicode="&#x25cc;" horiz-adv-x="1216" 
d="M662 1053q0 -56 -54 -56q-53 0 -53 56q0 53 53 53q54 0 54 -53zM489 1016q0 -53 -55 -53q-53 0 -53 53q0 55 53 55q55 0 55 -55zM836 1016q0 -53 -52 -53q-57 0 -57 53q0 55 57 55q52 0 52 -55zM342 918q0 -54 -55 -54q-54 0 -54 51q0 58 54 58q55 0 55 -55zM983 918
q0 -54 -51 -54q-55 0 -55 54q0 55 55 55q51 0 51 -55zM242 770q0 -55 -52 -55q-57 0 -57 55q0 53 55 53q54 0 54 -53zM1083 770q0 -55 -55 -55q-53 0 -53 55q0 53 55 53q53 0 53 -53zM207 596q0 -53 -53 -53q-56 0 -56 53t56 53q53 0 53 -53zM1118 596q0 -53 -51 -53
q-55 0 -55 53t55 53q51 0 51 -53zM242 422q0 -53 -54 -53q-55 0 -55 53q0 55 55 55q54 0 54 -55zM1083 422q0 -53 -55 -53q-53 0 -53 53q0 55 53 55q55 0 55 -55zM342 272q0 -53 -55 -53q-54 0 -54 53q0 56 54 56q55 0 55 -56zM983 272q0 -53 -51 -53q-55 0 -55 53
q0 56 55 56q51 0 51 -56zM489 178q0 -55 -55 -55q-53 0 -53 51q0 55 53 55q55 0 55 -51zM836 174q0 -51 -52 -51q-57 0 -57 51q0 55 57 55q52 0 52 -55zM662 141q0 -55 -54 -55q-53 0 -53 55q0 54 53 54q54 0 54 -54z" />
    <glyph glyph-name="uni1789.a" horiz-adv-x="1950" 
d="M1040 1157q125 143 326 143q344 0 344 -300v-1000h-120v1000q0 200 -225 200q-127 0 -196 -60q-64 -56 -109 -133v-1007h-120v1000q0 198 -83 198q-65 0 -148 -132q-27 -44 -59 -44t-59 44q-81 132 -146 132q-85 0 -85 -198v-500q230 0 230 -183q0 -317 -240 -317
q-110 0 -110 87v913q0 300 205 300q114 0 205 -154q91 154 207 154q139 0 183 -143zM360 410v-320q140 0 140 227q0 93 -140 93z" />
    <glyph glyph-name="uni17BF.b" horiz-adv-x="610" 
d="M140 1980h100v-343q100 -112 100 -287v-2000q0 -250 -350 -250t-350 250v110h120v-110q0 -160 230 -160t230 160v2000q0 121 -40 200h-520q-220 0 -220 200t240 200q130 0 250 -59v109h100v-172q9 -7 18 -13.5t17 -14.5l75 -64v244zM-460 1750q0 -100 120 -100h430
q-200 200 -410 200q-140 0 -140 -100z" />
    <glyph glyph-name="uni17C0.b" horiz-adv-x="610" 
d="M220 -650v1990q0 220 -224 220h-116q-230 0 -230 131q0 32 20 83t20 101q0 51 -94 51q0 74 117 74q97 0 97 -125q0 -62 -20 -105t-20 -79q0 -41 110 -41h116q344 0 344 -310v-1990q0 -250 -350 -250t-350 250v110h120v-110q0 -160 230 -160t230 160z" />
    <glyph glyph-name="uni17B6.space" horiz-adv-x="650" 
 />
    <glyph glyph-name="uni1780_17B6" horiz-adv-x="1300" 
d="M150 1067q0 16 32.5 44.5t83 61t107 61.5t107 47.5t80.5 18.5q73 0 194 -77q119 -77 163 -77q35 0 151 77q115 77 189 77q30 0 84.5 -21.5t118 -59t120.5 -86t93.5 -102.5t36.5 -108v-923h-120v923q0 35 -30.5 73t-78 74t-99 65.5t-93.5 47t-62 17.5q-45 0 -173 -80
q-127 -81 -176 -81t-172 81q-125 80 -177 80q-24 0 -66 -15t-85.5 -37t-73.5 -43.5t-30 -35.5q0 -69 96 -74l-78 -51q-142 18 -142 123zM360 0h-120v650q0 300 410 300t410 -300v-650h-120v650q0 210 -290 210t-290 -210v-650z" />
    <glyph glyph-name="uni1780_17C5" horiz-adv-x="1300" 
d="M1674 1039q36 -55 36 -116v-923h-120v923q0 35 -30.5 73t-78 74t-99 65.5t-93.5 47t-62 17.5q-45 0 -173 -80q-127 -81 -176 -81t-172 81q-125 80 -177 80q-24 0 -66 -15t-85.5 -37t-73.5 -43.5t-30 -35.5q0 -69 96 -74l-78 -51q-142 18 -142 123q0 16 32.5 44.5t83 61
t107 61.5t107 47.5t80.5 18.5q73 0 194 -77q119 -77 163 -77q35 0 151 77q115 77 189 77q75 0 264 -120q57 -37 99 -77v371q0 86 -100 86q0 87 105 87q115 0 115 -173v-260q0 -92 -66 -175zM360 0h-120v650q0 300 410 300t410 -300v-650h-120v650q0 210 -290 210t-290 -210
v-650z" />
    <glyph glyph-name="uni1781_17B6" horiz-adv-x="1300" 
d="M1052 1045q8 -46 8 -92q0 -295 -437 -417l-263 -74v-115q0 -257 290 -257t290 257v173h120v-173q0 -347 -410 -347t-410 347v175l350 98q350 98 350 333q0 257 -290 257q-236 0 -280 -171q7 1 20 1q130 0 130 -130t-130 -130q-150 0 -150 130v43q0 347 410 347
q285 0 372 -168q28 46 107 93q123 75 214 75q54 0 117.5 -32t120.5 -81.5t93 -105t36 -103.5v-978h-120v978q0 19 -24.5 55t-63.5 74.5t-83.5 65t-85.5 26.5q-91 0 -281 -154zM390 950q-40 0 -40 -40t40 -40t40 40t-40 40z" />
    <glyph glyph-name="uni1781_17C5" horiz-adv-x="1300" 
d="M1688 1059q22 -41 22 -81v-978h-120v978q0 19 -24.5 55t-63.5 74.5t-83.5 65t-85.5 26.5q-91 0 -281 -154q8 -46 8 -92q0 -295 -437 -417l-263 -74v-115q0 -257 290 -257t290 257v173h120v-173q0 -347 -410 -347t-410 347v175l350 98q350 98 350 333q0 257 -290 257
q-236 0 -280 -171q7 1 20 1q130 0 130 -130t-130 -130q-150 0 -150 130v43q0 347 410 347q285 0 372 -168q28 46 107 93q123 75 214 75q108 0 238 -113q11 -10 20.5 -19t18.5 -18v324q0 86 -100 86q0 87 105 87q115 0 115 -173v-260q0 -82 -52 -155zM390 950q-40 0 -40 -40
t40 -40t40 40t-40 40z" />
    <glyph glyph-name="uni1782_17B6" horiz-adv-x="1300" 
d="M150 1067q0 16 32.5 44.5t83 61t107 61.5t107 47.5t80.5 18.5q73 0 194 -77q119 -77 163 -77q35 0 151 77q115 77 189 77q30 0 84.5 -21.5t118 -59t120.5 -86t93.5 -102.5t36.5 -108v-923h-120v923q0 35 -30.5 73t-78 74t-99 65.5t-93.5 47t-62 17.5q-45 0 -173 -80
q-127 -81 -176 -81t-172 81q-125 80 -177 80q-24 0 -66 -15t-85.5 -37t-73.5 -43.5t-30 -35.5q0 -69 96 -74l-78 -51q-142 18 -142 123zM360 650v-402q85 172 230 172q140 0 140 -95q0 -80 -80 -80q0 75 -60 75q-131 0 -230 -253v-67h-120v650q0 300 410 300t410 -300v-650
h-120v650q0 210 -290 210t-290 -210z" />
    <glyph glyph-name="uni1782_17C5" horiz-adv-x="1300" 
d="M1674 1039q36 -55 36 -116v-923h-120v923q0 35 -30.5 73t-78 74t-99 65.5t-93.5 47t-62 17.5q-45 0 -173 -80q-127 -81 -176 -81t-172 81q-125 80 -177 80q-24 0 -66 -15t-85.5 -37t-73.5 -43.5t-30 -35.5q0 -69 96 -74l-78 -51q-142 18 -142 123q0 16 32.5 44.5t83 61
t107 61.5t107 47.5t80.5 18.5q73 0 194 -77q119 -77 163 -77q35 0 151 77q115 77 189 77q75 0 264 -120q57 -37 99 -77v371q0 86 -100 86q0 87 105 87q115 0 115 -173v-260q0 -92 -66 -175zM360 650v-402q85 172 230 172q140 0 140 -95q0 -80 -80 -80q0 75 -60 75
q-131 0 -230 -253v-67h-120v650q0 300 410 300t410 -300v-650h-120v650q0 210 -290 210t-290 -210z" />
    <glyph glyph-name="uni1783_17B6" horiz-adv-x="1950" 
d="M1710 860v-560q0 -300 -395 -300q-242 0 -335 112q-94 -112 -340 -112q-400 0 -400 300v300q0 109 53 277h-23q-170 0 -170 206q0 217 165 217t165 -248q0 -127 -35 -243t-35 -209v-300q0 -210 280 -210t280 210v531q0 91 -190 119q3 59 24.5 120.5t53 113.5t65 84
t60.5 32q33 0 121 -83q28 -28 74 -28q25 0 52 24q-5 -81 -24 -106q-19 -27 -53 -27q-54 0 -123 66q-22 22 -54 22q-37 0 -79 -148q193 -40 193 -160v-560q0 -210 275 -210t275 210v531q0 106 -186 121q11 125 127 234q116 110 260 110q164 0 266 -47q303 -142 303 -346v-903
h-120v903q0 144 -244 247q-80 34 -205 34q-174 0 -263 -167q182 -38 182 -157zM320 1052q0 155 -60 155t-60 -124q0 -130 70 -130h45q5 18 5 99z" />
    <glyph glyph-name="uni1783_17C5" horiz-adv-x="1950" 
d="M2323 1038q37 -64 37 -135v-903h-120v903q0 144 -244 247q-80 34 -205 34q-174 0 -263 -167q182 -38 182 -157v-560q0 -300 -395 -300q-242 0 -335 112q-94 -112 -340 -112q-400 0 -400 300v300q0 109 53 277h-23q-170 0 -170 206q0 217 165 217t165 -248
q0 -127 -35 -243t-35 -209v-300q0 -210 280 -210t280 210v531q0 91 -190 119q3 59 24.5 120.5t53 113.5t65 84t60.5 32q33 0 121 -83q28 -28 74 -28q25 0 52 24q-5 -81 -24 -106q-19 -27 -53 -27q-54 0 -123 66q-22 22 -54 22q-37 0 -79 -148q193 -40 193 -160v-560
q0 -210 275 -210t275 210v531q0 106 -186 121q11 125 127 234q116 110 260 110q164 0 266 -47q136 -64 213 -142v367q0 86 -100 86q0 87 105 87q115 0 115 -173v-260q0 -94 -67 -176zM320 1052q0 155 -60 155t-60 -124q0 -130 70 -130h45q5 18 5 99z" />
    <glyph glyph-name="uni1784_17B6" horiz-adv-x="1300" 
d="M650 270l-320 -270h-90v520q-100 34 -100 104t40 113t110 43t70 -86v-537l290 235l290 -244v632q0 93 -28.5 126.5t-83.5 47.5q-142 -88 -298 -88q-158 0 -224 63t-66 197q0 67 25 129t25 131q0 88 -140 88q0 86 100 86q160 0 160 -174q0 -83 -25 -136t-25 -124
q0 -85 40 -129t130 -44q105 0 225 49q-115 76 -115 142q0 156 180 156q170 0 170 -156q0 -67 -78 -129q19 -7 43 -18q105 -58 105 -217v-780h-90zM1028 1025q-23 29 -23 54q0 36 35 74.5t88.5 71.5t111.5 54t103 21q54 0 117.5 -32t120.5 -81.5t93 -105t36 -103.5v-978h-120
v978q0 19 -24.5 55t-63.5 74.5t-83.5 65t-85.5 26.5q-96 0 -305 -174zM890 1144q0 72 -70 72q-90 0 -90 -72q0 -29 93 -88q67 46 67 88z" />
    <glyph glyph-name="uni1784_17C5" horiz-adv-x="1300" 
d="M1688 1059q22 -41 22 -81v-978h-120v978q0 19 -24.5 55t-63.5 74.5t-83.5 65t-85.5 26.5q-96 0 -305 -174q-23 29 -23 54q0 36 35 74.5t88.5 71.5t111.5 54t103 21q108 0 238 -113q11 -10 20.5 -19t18.5 -18v324q0 86 -100 86q0 87 105 87q115 0 115 -173v-260
q0 -82 -52 -155zM650 270l-320 -270h-90v520q-100 34 -100 104t40 113t110 43t70 -86v-537l290 235l290 -244v632q0 93 -28.5 126.5t-83.5 47.5q-142 -88 -298 -88q-158 0 -224 63t-66 197q0 67 25 129t25 131q0 88 -140 88q0 86 100 86q160 0 160 -174q0 -83 -25 -136
t-25 -124q0 -85 40 -129t130 -44q105 0 225 49q-115 76 -115 142q0 156 180 156q170 0 170 -156q0 -67 -78 -129q19 -7 43 -18q105 -58 105 -217v-780h-90zM890 1144q0 72 -70 72q-90 0 -90 -72q0 -29 93 -88q67 46 67 88z" />
    <glyph glyph-name="uni1785_17B6" horiz-adv-x="1300" 
d="M268 1067q0 -67 92 -112v-655q0 -210 290 -210t290 210v350q-90 35 -90 104q0 70 40 113t110 43q60 0 60 -87v-523q0 -300 -410 -300t-410 300v620q-90 42 -90 147q0 16 32.5 44.5t83 61t107 61.5t107 47.5t80.5 18.5q73 0 194 -77q119 -77 163 -77q35 0 151 77
q115 77 189 77q30 0 84.5 -21.5t118 -59t120.5 -86t93.5 -102.5t36.5 -108v-923h-120v923q0 35 -30.5 73t-78 74t-99 65.5t-93.5 47t-62 17.5q-45 0 -173 -80q-127 -81 -176 -81t-172 81q-125 80 -177 80q-24 0 -66.5 -15t-87.5 -36.5t-76 -44t-31 -37.5z" />
    <glyph glyph-name="uni1785_17C5" horiz-adv-x="1300" 
d="M1674 1039q36 -55 36 -116v-923h-120v923q0 35 -30.5 73t-78 74t-99 65.5t-93.5 47t-62 17.5q-45 0 -173 -80q-127 -81 -176 -81t-172 81q-125 80 -177 80q-24 0 -66.5 -15t-87.5 -36.5t-76 -44t-31 -37.5q0 -67 92 -112v-655q0 -210 290 -210t290 210v350
q-90 35 -90 104q0 70 40 113t110 43q60 0 60 -87v-523q0 -300 -410 -300t-410 300v620q-90 42 -90 147q0 16 32.5 44.5t83 61t107 61.5t107 47.5t80.5 18.5q73 0 194 -77q119 -77 163 -77q35 0 151 77q115 77 189 77q75 0 264 -120q57 -37 99 -77v371q0 86 -100 86
q0 87 105 87q115 0 115 -173v-260q0 -92 -66 -175z" />
    <glyph glyph-name="uni1786_17B6" horiz-adv-x="1300" 
d="M360 955v-522q290 0 290 -216q0 -117 150 -117q140 0 140 117v320h-45q-67 0 -111 44t-44 121q0 78 50 143t130 65q140 0 140 -140v-553q0 -217 -260 -217q-280 0 -280 217q0 116 -160 116v-160q0 -173 -120 -173t-120 286q0 105 120 139v495q-90 42 -90 147
q0 16 32.5 44.5t83 61t107 61.5t107 47.5t80.5 18.5q73 0 194 -77q119 -77 163 -77q35 0 151 77q115 77 189 77q30 0 84.5 -21.5t118 -59t120.5 -86t93.5 -102.5t36.5 -108v-923h-120v923q0 35 -30.5 73t-78 74t-99 65.5t-93.5 47t-62 17.5q-45 0 -173 -80
q-127 -81 -176 -81t-172 81q-125 80 -177 80q-24 0 -66.5 -15t-87.5 -36.5t-76 -44t-31 -37.5q0 -67 92 -112zM895 637h45v133q0 30 -35 30q-15 0 -40 -31t-25 -67q0 -35 18.5 -50t36.5 -15z" />
    <glyph glyph-name="uni1786_17C5" horiz-adv-x="1300" 
d="M1674 1039q36 -55 36 -116v-923h-120v923q0 35 -30.5 73t-78 74t-99 65.5t-93.5 47t-62 17.5q-45 0 -173 -80q-127 -81 -176 -81t-172 81q-125 80 -177 80q-24 0 -66.5 -15t-87.5 -36.5t-76 -44t-31 -37.5q0 -67 92 -112v-522q290 0 290 -216q0 -117 150 -117
q140 0 140 117v320h-45q-67 0 -111 44t-44 121q0 78 50 143t130 65q140 0 140 -140v-553q0 -217 -260 -217q-280 0 -280 217q0 116 -160 116v-160q0 -173 -120 -173t-120 286q0 105 120 139v495q-90 42 -90 147q0 16 32.5 44.5t83 61t107 61.5t107 47.5t80.5 18.5
q73 0 194 -77q119 -77 163 -77q35 0 151 77q115 77 189 77q75 0 264 -120q57 -37 99 -77v371q0 86 -100 86q0 87 105 87q115 0 115 -173v-260q0 -92 -66 -175zM895 637h45v133q0 30 -35 30q-15 0 -40 -31t-25 -67q0 -35 18.5 -50t36.5 -15z" />
    <glyph glyph-name="uni1787_17B6" horiz-adv-x="1300" 
d="M1060 1249q0 -26 -3 -50q20 12 41.5 23.5t43.5 22.5q109 55 201 55q54 0 117.5 -32t120.5 -81.5t93 -105t36 -103.5v-978h-120v978q0 19 -24.5 55t-63.5 74.5t-83.5 65t-85.5 26.5q-76 0 -336 -129q-55 -50 -157 -50q-151 0 -288 83q-136 82 -157 82q-20 0 -60 -21.5
t-72.5 -48.5t-32.5 -44q0 -24 130 -85v-829l290 235l290 -244v762h120v-910h-90l-320 270l-320 -270h-90v931q-120 69 -120 135q0 33 35.5 73.5t85 77t93.5 60t60 23.5q59 0 165 -67q181 -106 281 -106t100 122q0 142 -140 142q0 80 90 80q170 0 170 -222z" />
    <glyph glyph-name="uni1787_17C5" horiz-adv-x="1300" 
d="M1060 1249q0 -26 -3 -50q20 12 41.5 23.5t43.5 22.5q109 55 201 55q108 0 238 -113q11 -10 20.5 -19t18.5 -18v324q0 86 -100 86q0 87 105 87q115 0 115 -173v-260q0 -82 -52 -155q22 -41 22 -81v-978h-120v978q0 19 -24.5 55t-63.5 74.5t-83.5 65t-85.5 26.5
q-76 0 -336 -129q-55 -50 -157 -50q-151 0 -288 83q-136 82 -157 82q-20 0 -60 -21.5t-72.5 -48.5t-32.5 -44q0 -24 130 -85v-829l290 235l290 -244v762h120v-910h-90l-320 270l-320 -270h-90v931q-120 69 -120 135q0 33 35.5 73.5t85 77t93.5 60t60 23.5q59 0 165 -67
q181 -106 281 -106t100 122q0 142 -140 142q0 80 90 80q170 0 170 -222z" />
    <glyph glyph-name="uni1788_17B6" horiz-adv-x="2500" 
d="M2260 860v-560q0 -300 -360 -300q-213 0 -300 105q-87 -105 -300 -105q-360 0 -360 300v700q0 210 -290 210t-290 -210v-500q230 0 230 -183q0 -317 -240 -317q-110 0 -110 87v913q0 300 410 300t410 -300v-700q0 -210 240 -210t240 210v531q0 91 -190 119
q3 59 24.5 120.5t53 113.5t65 84t60.5 32q33 0 121 -83q28 -28 74 -28q25 0 52 24q-5 -81 -24 -106q-19 -27 -53 -27q-54 0 -123 66q-22 22 -54 22q-37 0 -79 -148q193 -40 193 -160v-560q0 -210 240 -210t240 210v531q0 106 -186 121q11 125 127 234q116 110 260 110
q164 0 266 -47q303 -142 303 -346v-903h-120v903q0 144 -244 247q-80 34 -205 34q-174 0 -263 -167q182 -38 182 -157zM360 410v-320q140 0 140 227q0 93 -140 93z" />
    <glyph glyph-name="uni1788_17C5" horiz-adv-x="2500" 
d="M2873 1038q37 -64 37 -135v-903h-120v903q0 144 -244 247q-80 34 -205 34q-174 0 -263 -167q182 -38 182 -157v-560q0 -300 -360 -300q-213 0 -300 105q-87 -105 -300 -105q-360 0 -360 300v700q0 210 -290 210t-290 -210v-500q230 0 230 -183q0 -317 -240 -317
q-110 0 -110 87v913q0 300 410 300t410 -300v-700q0 -210 240 -210t240 210v531q0 91 -190 119q3 59 24.5 120.5t53 113.5t65 84t60.5 32q33 0 121 -83q28 -28 74 -28q25 0 52 24q-5 -81 -24 -106q-19 -27 -53 -27q-54 0 -123 66q-22 22 -54 22q-37 0 -79 -148
q193 -40 193 -160v-560q0 -210 240 -210t240 210v531q0 106 -186 121q11 125 127 234q116 110 260 110q164 0 266 -47q136 -64 213 -142v367q0 86 -100 86q0 87 105 87q115 0 115 -173v-260q0 -94 -67 -176zM360 410v-320q140 0 140 227q0 93 -140 93z" />
    <glyph glyph-name="uni1789_17B6" horiz-adv-x="1950" 
d="M1707 1049q3 -22 3 -49v-1000h-120v1000q0 200 -225 200q-127 0 -196 -60q-64 -56 -109 -133v-1007h-120v1000q0 198 -83 198q-65 0 -148 -132q-27 -44 -59 -44t-59 44q-81 132 -146 132q-85 0 -85 -198v-500q230 0 230 -183q0 -317 -240 -317q-110 0 -110 87v913
q0 300 205 300q114 0 205 -154q91 154 207 154q139 0 183 -143q125 143 326 143q246 0 316 -154q31 39 97 79q123 75 214 75q54 0 117.5 -32t120.5 -81.5t93 -105t36 -103.5v-978h-120v978q0 19 -24.5 55t-63.5 74.5t-83.5 65t-85.5 26.5q-90 0 -276 -150zM360 410v-320
q140 0 140 227q0 93 -140 93zM1590 -266q0 53 -85 53q-62 0 -62 57q0 56 62 56q205 0 205 -166q0 -334 -621 -334q-240 0 -450.5 96t-357.5 279q-41 43 -41 84t32 41q30 0 62 -41q144 -153 332.5 -251t422.5 -98q501 0 501 224z" />
    <glyph glyph-name="uni1789_17C5" horiz-adv-x="1950" 
d="M2338 1059q22 -41 22 -81v-978h-120v978q0 19 -24.5 55t-63.5 74.5t-83.5 65t-85.5 26.5q-90 0 -276 -150q3 -22 3 -49v-1000h-120v1000q0 200 -225 200q-127 0 -196 -60q-64 -56 -109 -133v-1007h-120v1000q0 198 -83 198q-65 0 -148 -132q-27 -44 -59 -44t-59 44
q-81 132 -146 132q-85 0 -85 -198v-500q230 0 230 -183q0 -317 -240 -317q-110 0 -110 87v913q0 300 205 300q114 0 205 -154q91 154 207 154q139 0 183 -143q125 143 326 143q246 0 316 -154q31 39 97 79q123 75 214 75q108 0 238 -113q11 -10 20.5 -19t18.5 -18v324
q0 86 -100 86q0 87 105 87q115 0 115 -173v-260q0 -82 -52 -155zM360 410v-320q140 0 140 227q0 93 -140 93zM1590 -266q0 53 -85 53q-62 0 -62 57q0 56 62 56q205 0 205 -166q0 -334 -621 -334q-240 0 -450.5 96t-357.5 279q-41 43 -41 84t32 41q30 0 62 -41
q144 -153 332.5 -251t422.5 -98q501 0 501 224z" />
    <glyph glyph-name="uni178A_17B6" horiz-adv-x="1300" 
d="M1060 1215v-14q20 11 40.5 22.5t41.5 21.5q109 55 201 55q54 0 117.5 -32t120.5 -81.5t93 -105t36 -103.5v-978h-120v978q0 19 -24.5 55t-63.5 74.5t-83.5 65t-85.5 26.5q-73 0 -306 -114q-81 -136 -367 -136q-420 0 -420 196q0 155 155 155t155 -147q0 -60 -32 -98
q27 -6 142 -6q290 0 290 166q0 133 -150 133q0 81 100 81q160 0 160 -214zM377 1095h23q50 0 50 58q0 45 -55 45q-45 0 -45 -53q0 -35 27 -50zM350 0h-110v870h120v-723l290 245l290 -254v732h120v-870h-110l-300 260z" />
    <glyph glyph-name="uni178A_17C5" horiz-adv-x="1300" 
d="M1060 1215v-14q20 11 40.5 22.5t41.5 21.5q109 55 201 55q108 0 238 -113q11 -10 20.5 -19t18.5 -18v324q0 86 -100 86q0 87 105 87q115 0 115 -173v-260q0 -82 -52 -155q22 -41 22 -81v-978h-120v978q0 19 -24.5 55t-63.5 74.5t-83.5 65t-85.5 26.5q-73 0 -306 -114
q-81 -136 -367 -136q-420 0 -420 196q0 155 155 155t155 -147q0 -60 -32 -98q27 -6 142 -6q290 0 290 166q0 133 -150 133q0 81 100 81q160 0 160 -214zM377 1095h23q50 0 50 58q0 45 -55 45q-45 0 -45 -53q0 -35 27 -50zM350 0h-110v870h120v-723l290 245l290 -254v732h120
v-870h-110l-300 260z" />
    <glyph glyph-name="uni178B_17B6" horiz-adv-x="1300" 
d="M1163 1250v-6q103 56 180 56q54 0 117.5 -32t120.5 -81.5t93 -105t36 -103.5v-978h-120v978q0 19 -24.5 55t-63.5 74.5t-83.5 65t-85.5 26.5q-74 0 -217 -75q-28 -24 -73 -24q-54 0 -100 34t-67 34q-26 0 -49 -138q233 -51 233 -170v-560q0 -300 -410 -300t-410 300v300
q0 109 53 277h-23q-170 0 -170 206q0 217 165 217t165 -248q0 -127 -35 -243t-35 -209v-300q0 -210 290 -210t290 210v531q0 90 -230 119q4 79 24 159.5t55.5 135.5t83.5 55q34 0 92 -45q58 -46 72 -46q13 0 13 41q0 187 -187 187q0 73 80 73q220 0 220 -260zM320 1052
q0 155 -60 155t-60 -124q0 -130 70 -130h45q5 18 5 99z" />
    <glyph glyph-name="uni178B_17C5" horiz-adv-x="1300" 
d="M1688 1059q22 -41 22 -81v-978h-120v978q0 19 -24.5 55t-63.5 74.5t-83.5 65t-85.5 26.5q-74 0 -217 -75q-28 -24 -73 -24q-54 0 -100 34t-67 34q-26 0 -49 -138q233 -51 233 -170v-560q0 -300 -410 -300t-410 300v300q0 109 53 277h-23q-170 0 -170 206q0 217 165 217
t165 -248q0 -127 -35 -243t-35 -209v-300q0 -210 290 -210t290 210v531q0 90 -230 119q4 79 24 159.5t55.5 135.5t83.5 55q34 0 92 -45q58 -46 72 -46q13 0 13 41q0 187 -187 187q0 73 80 73q220 0 220 -260v-6q103 56 180 56q108 0 238 -113q11 -10 20.5 -19t18.5 -18v324
q0 86 -100 86q0 87 105 87q115 0 115 -173v-260q0 -82 -52 -155zM320 1052q0 155 -60 155t-60 -124q0 -130 70 -130h45q5 18 5 99z" />
    <glyph glyph-name="uni178C_17B6" horiz-adv-x="1300" 
d="M1058 1050q1 -12 1.5 -24.5t0.5 -25.5v-47q0 -295 -437 -417l-263 -74v-115q0 -257 190 -257q63 0 130.5 26t126.5 66t96 84t37 80v174h120v-570h-120v234q-169 -184 -390 -184q-310 0 -310 347v175l350 98q350 98 350 333v47q0 198 -83 198q-65 0 -148 -132
q-27 -44 -59 -44t-59 44q-81 132 -146 132q-76 0 -84 -159q7 1 14.5 1h14.5q130 0 130 -130t-130 -130q-150 0 -150 130v90q0 300 205 300q114 0 205 -154q91 154 207 154q141 0 184 -144q31 35 88 69q123 75 214 75q54 0 117.5 -32t120.5 -81.5t93 -105t36 -103.5v-978
h-120v978q0 19 -24.5 55t-63.5 74.5t-83.5 65t-85.5 26.5q-90 0 -275 -149zM350 910q0 -40 40 -40t40 40t-40 40t-40 -40z" />
    <glyph glyph-name="uni178C_17C5" horiz-adv-x="1300" 
d="M1688 1059q22 -41 22 -81v-978h-120v978q0 19 -24.5 55t-63.5 74.5t-83.5 65t-85.5 26.5q-90 0 -275 -149q1 -12 1.5 -24.5t0.5 -25.5v-47q0 -295 -437 -417l-263 -74v-115q0 -257 190 -257q63 0 130.5 26t126.5 66t96 84t37 80v174h120v-570h-120v234
q-169 -184 -390 -184q-310 0 -310 347v175l350 98q350 98 350 333v47q0 198 -83 198q-65 0 -148 -132q-27 -44 -59 -44t-59 44q-81 132 -146 132q-76 0 -84 -159q7 1 14.5 1h14.5q130 0 130 -130t-130 -130q-150 0 -150 130v90q0 300 205 300q114 0 205 -154q91 154 207 154
q141 0 184 -144q31 35 88 69q123 75 214 75q108 0 238 -113q11 -10 20.5 -19t18.5 -18v324q0 86 -100 86q0 87 105 87q115 0 115 -173v-260q0 -82 -52 -155zM350 910q0 -40 40 -40t40 40t-40 40t-40 -40z" />
    <glyph glyph-name="uni178D_17B6" horiz-adv-x="1950" 
d="M1710 860v-643q0 -217 -245 -217t-245 217q0 116 -160 116v-160q0 -173 -120 -173t-120 286q0 105 120 139v575q0 198 -83 198q-65 0 -148 -132q-27 -44 -59 -44t-59 44q-81 132 -146 132q-85 0 -85 -198v-500q230 0 230 -183q0 -317 -240 -317q-110 0 -110 87v913
q0 300 205 300q114 0 205 -154q91 154 207 154q203 0 203 -300v-567q290 0 290 -216q0 -117 120 -117t120 117v614q0 106 -186 121q11 125 127 234q116 110 260 110q164 0 266 -47q303 -142 303 -346v-903h-120v903q0 144 -244 247q-80 34 -205 34q-174 0 -263 -167
q182 -38 182 -157zM360 410v-320q140 0 140 227q0 93 -140 93z" />
    <glyph glyph-name="uni178D_17C5" horiz-adv-x="1950" 
d="M2323 1038q37 -64 37 -135v-903h-120v903q0 144 -244 247q-80 34 -205 34q-174 0 -263 -167q182 -38 182 -157v-643q0 -217 -245 -217t-245 217q0 116 -160 116v-160q0 -173 -120 -173t-120 286q0 105 120 139v575q0 198 -83 198q-65 0 -148 -132q-27 -44 -59 -44t-59 44
q-81 132 -146 132q-85 0 -85 -198v-500q230 0 230 -183q0 -317 -240 -317q-110 0 -110 87v913q0 300 205 300q114 0 205 -154q91 154 207 154q203 0 203 -300v-567q290 0 290 -216q0 -117 120 -117t120 117v614q0 106 -186 121q11 125 127 234q116 110 260 110
q164 0 266 -47q136 -64 213 -142v367q0 86 -100 86q0 87 105 87q115 0 115 -173v-260q0 -94 -67 -176zM360 410v-320q140 0 140 227q0 93 -140 93z" />
    <glyph glyph-name="uni178E_17B6" horiz-adv-x="2500" 
d="M2257 1049q3 -22 3 -49v-1000h-120v1000q0 210 -260 210t-260 -210v-1000h-120l-250 210l-250 -210h-120v1000q0 210 -260 210t-260 -210v-500q240 0 240 -183q0 -317 -250 -317q-110 0 -110 87v913q0 300 380 300t380 -300v-878l250 210l250 -209v877q0 300 380 300
q274 0 350 -156q32 41 99 81q123 75 214 75q54 0 117.5 -32t120.5 -81.5t93 -105t36 -103.5v-978h-120v978q0 19 -24.5 55t-63.5 74.5t-83.5 65t-85.5 26.5q-90 0 -276 -150zM360 400v-300q140 0 140 217q0 83 -140 83z" />
    <glyph glyph-name="uni178E_17C5" horiz-adv-x="2500" 
d="M2888 1059q22 -41 22 -81v-978h-120v978q0 19 -24.5 55t-63.5 74.5t-83.5 65t-85.5 26.5q-90 0 -276 -150q3 -22 3 -49v-1000h-120v1000q0 210 -260 210t-260 -210v-1000h-120l-250 210l-250 -210h-120v1000q0 210 -260 210t-260 -210v-500q240 0 240 -183
q0 -317 -250 -317q-110 0 -110 87v913q0 300 380 300t380 -300v-878l250 210l250 -209v877q0 300 380 300q274 0 350 -156q32 41 99 81q123 75 214 75q108 0 238 -113q11 -10 20.5 -19t18.5 -18v324q0 86 -100 86q0 87 105 87q115 0 115 -173v-260q0 -82 -52 -155zM360 400
v-300q140 0 140 217q0 83 -140 83z" />
    <glyph glyph-name="uni178F_17B6" horiz-adv-x="1300" 
d="M150 1067q0 16 32.5 44.5t83 61t107 61.5t107 47.5t80.5 18.5q73 0 194 -77q119 -77 163 -77q35 0 151 77q115 77 189 77q30 0 84.5 -21.5t118 -59t120.5 -86t93.5 -102.5t36.5 -108v-923h-120v923q0 35 -30.5 73t-78 74t-99 65.5t-93.5 47t-62 17.5q-45 0 -173 -80
q-127 -81 -176 -81t-172 81q-125 80 -177 80q-24 0 -66 -15t-85.5 -37t-73.5 -43.5t-30 -35.5q0 -69 96 -74l-78 -51q-142 18 -142 123zM240 130v520q0 300 410 300t410 -300v-650h-120v650q0 210 -290 210t-290 -210v-217h65q175 0 175 -173q0 -130 -55 -195t-140 -65
q-165 0 -165 130zM425 343h-65v-213q0 -40 45 -40q41 0 73 38t32 132q0 83 -85 83z" />
    <glyph glyph-name="uni178F_17C5" horiz-adv-x="1300" 
d="M1674 1039q36 -55 36 -116v-923h-120v923q0 35 -30.5 73t-78 74t-99 65.5t-93.5 47t-62 17.5q-45 0 -173 -80q-127 -81 -176 -81t-172 81q-125 80 -177 80q-24 0 -66 -15t-85.5 -37t-73.5 -43.5t-30 -35.5q0 -69 96 -74l-78 -51q-142 18 -142 123q0 16 32.5 44.5t83 61
t107 61.5t107 47.5t80.5 18.5q73 0 194 -77q119 -77 163 -77q35 0 151 77q115 77 189 77q75 0 264 -120q57 -37 99 -77v371q0 86 -100 86q0 87 105 87q115 0 115 -173v-260q0 -92 -66 -175zM240 130v520q0 300 410 300t410 -300v-650h-120v650q0 210 -290 210t-290 -210
v-217h65q175 0 175 -173q0 -130 -55 -195t-140 -65q-165 0 -165 130zM425 343h-65v-213q0 -40 45 -40q41 0 73 38t32 132q0 83 -85 83z" />
    <glyph glyph-name="uni1790_17B6" horiz-adv-x="1300" 
d="M1060 1249q0 -26 -3 -50q20 12 41.5 23.5t43.5 22.5q109 55 201 55q54 0 117.5 -32t120.5 -81.5t93 -105t36 -103.5v-978h-120v978q0 19 -24.5 55t-63.5 74.5t-83.5 65t-85.5 26.5q-76 0 -336 -129q-55 -50 -157 -50q-151 0 -288 83q-136 82 -157 82q-20 0 -60 -21.5
t-72.5 -48.5t-32.5 -44q0 -24 130 -85v-686q0 -210 290 -210t290 210v350q-90 35 -90 104q0 70 40 113t110 43q60 0 60 -87v-523q0 -300 -410 -300t-410 300v631q-120 69 -120 135q0 33 35.5 73.5t85 77t93.5 60t60 23.5q59 0 165 -67q181 -106 281 -106t100 122
q0 142 -140 142q0 80 90 80q170 0 170 -222z" />
    <glyph glyph-name="uni1790_17C5" horiz-adv-x="1300" 
d="M1060 1249q0 -26 -3 -50q20 12 41.5 23.5t43.5 22.5q109 55 201 55q108 0 238 -113q11 -10 20.5 -19t18.5 -18v324q0 86 -100 86q0 87 105 87q115 0 115 -173v-260q0 -82 -52 -155q22 -41 22 -81v-978h-120v978q0 19 -24.5 55t-63.5 74.5t-83.5 65t-85.5 26.5
q-76 0 -336 -129q-55 -50 -157 -50q-151 0 -288 83q-136 82 -157 82q-20 0 -60 -21.5t-72.5 -48.5t-32.5 -44q0 -24 130 -85v-686q0 -210 290 -210t290 210v350q-90 35 -90 104q0 70 40 113t110 43q60 0 60 -87v-523q0 -300 -410 -300t-410 300v631q-120 69 -120 135
q0 33 35.5 73.5t85 77t93.5 60t60 23.5q59 0 165 -67q181 -106 281 -106t100 122q0 142 -140 142q0 80 90 80q170 0 170 -222z" />
    <glyph glyph-name="uni1791_17B6" horiz-adv-x="1300" 
d="M1054 1046q6 -34 6 -76q0 -130 -150 -130q-130 0 -130 130t130 130h9q-66 110 -269 110q-290 0 -290 -257v-73q0 -313 410 -313q0 170 155 170q135 0 135 -126q0 -134 -170 -134v-217q0 -260 -280 -260q-290 0 -290 260v147h120v-147q0 -170 170 -170q160 0 160 170v217
q-530 0 -530 403v73q0 347 410 347q288 0 374 -164q31 44 105 89q123 75 214 75q54 0 117.5 -32t120.5 -81.5t93 -105t36 -103.5v-978h-120v978q0 19 -24.5 55t-63.5 74.5t-83.5 65t-85.5 26.5q-91 0 -279 -153zM910 1010q-40 0 -40 -40t40 -40t40 40t-40 40zM890 567
q70 0 70 44q0 32 -35 32t-35 -76z" />
    <glyph glyph-name="uni1791_17C5" horiz-adv-x="1300" 
d="M1688 1059q22 -41 22 -81v-978h-120v978q0 19 -24.5 55t-63.5 74.5t-83.5 65t-85.5 26.5q-91 0 -279 -153q6 -34 6 -76q0 -130 -150 -130q-130 0 -130 130t130 130h9q-66 110 -269 110q-290 0 -290 -257v-73q0 -313 410 -313q0 170 155 170q135 0 135 -126
q0 -134 -170 -134v-217q0 -260 -280 -260q-290 0 -290 260v147h120v-147q0 -170 170 -170q160 0 160 170v217q-530 0 -530 403v73q0 347 410 347q288 0 374 -164q31 44 105 89q123 75 214 75q108 0 238 -113q11 -10 20.5 -19t18.5 -18v324q0 86 -100 86q0 87 105 87
q115 0 115 -173v-260q0 -82 -52 -155zM910 1010q-40 0 -40 -40t40 -40t40 40t-40 40zM890 567q70 0 70 44q0 32 -35 32t-35 -76z" />
    <glyph glyph-name="uni1792_17B6" horiz-adv-x="1300" 
d="M360 955v-798l290 235l290 -244v502q-90 35 -90 104q0 70 40 113t110 43q60 0 60 -87v-823h-90l-320 270l-320 -270h-90v920q-90 42 -90 147q0 16 32.5 44.5t83 61t107 61.5t107 47.5t80.5 18.5q73 0 194 -77q119 -77 163 -77q35 0 151 77q115 77 189 77q30 0 84.5 -21.5
t118 -59t120.5 -86t93.5 -102.5t36.5 -108v-923h-120v923q0 35 -30.5 73t-78 74t-99 65.5t-93.5 47t-62 17.5q-45 0 -173 -80q-127 -81 -176 -81t-172 81q-125 80 -177 80q-24 0 -66.5 -15t-87.5 -36.5t-76 -44t-31 -37.5q0 -67 92 -112z" />
    <glyph glyph-name="uni1792_17C5" horiz-adv-x="1300" 
d="M1674 1039q36 -55 36 -116v-923h-120v923q0 35 -30.5 73t-78 74t-99 65.5t-93.5 47t-62 17.5q-45 0 -173 -80q-127 -81 -176 -81t-172 81q-125 80 -177 80q-24 0 -66.5 -15t-87.5 -36.5t-76 -44t-31 -37.5q0 -67 92 -112v-798l290 235l290 -244v502q-90 35 -90 104
q0 70 40 113t110 43q60 0 60 -87v-823h-90l-320 270l-320 -270h-90v920q-90 42 -90 147q0 16 32.5 44.5t83 61t107 61.5t107 47.5t80.5 18.5q73 0 194 -77q119 -77 163 -77q35 0 151 77q115 77 189 77q75 0 264 -120q57 -37 99 -77v371q0 86 -100 86q0 87 105 87
q115 0 115 -173v-260q0 -92 -66 -175z" />
    <glyph glyph-name="uni1793_17B6" horiz-adv-x="1300" 
d="M1054 1046q6 -34 6 -76q0 -130 -150 -130q-130 0 -130 130t130 130h9q-66 110 -269 110q-290 0 -290 -257q0 -169 380 -309l320 -118v-266q0 -260 -245 -260q-131 0 -235 129q-104 128 -220 128v-257h-120v520h120v-173q144 0 260 -128q114 -129 195 -129q125 0 125 170
v214l-284 104q-416 152 -416 375q0 347 410 347q288 0 374 -164q31 44 105 89q123 75 214 75q54 0 117.5 -32t120.5 -81.5t93 -105t36 -103.5v-978h-120v978q0 19 -24.5 55t-63.5 74.5t-83.5 65t-85.5 26.5q-91 0 -279 -153zM910 1010q-40 0 -40 -40t40 -40t40 40t-40 40z
" />
    <glyph glyph-name="uni1793_17C5" horiz-adv-x="1300" 
d="M1688 1059q22 -41 22 -81v-978h-120v978q0 19 -24.5 55t-63.5 74.5t-83.5 65t-85.5 26.5q-91 0 -279 -153q6 -34 6 -76q0 -130 -150 -130q-130 0 -130 130t130 130h9q-66 110 -269 110q-290 0 -290 -257q0 -169 380 -309l320 -118v-266q0 -260 -245 -260q-131 0 -235 129
q-104 128 -220 128v-257h-120v520h120v-173q144 0 260 -128q114 -129 195 -129q125 0 125 170v214l-284 104q-416 152 -416 375q0 347 410 347q288 0 374 -164q31 44 105 89q123 75 214 75q108 0 238 -113q11 -10 20.5 -19t18.5 -18v324q0 86 -100 86q0 87 105 87
q115 0 115 -173v-260q0 -82 -52 -155zM910 1010q-40 0 -40 -40t40 -40t40 40t-40 40z" />
    <glyph glyph-name="uni1794_17B6" horiz-adv-x="1300" 
d="M240 300v620q-90 42 -90 147q0 16 32.5 44.5t83 61t107 61.5t107 47.5t80.5 18.5q73 0 194 -77q119 -77 163 -77q35 0 151 77q115 77 189 77q30 0 84.5 -21.5t118 -59t120.5 -86t93.5 -102.5t36.5 -108v-923h-120v923q0 35 -30.5 73t-78 74t-99 65.5t-93.5 47t-62 17.5
q-45 0 -173 -80q-127 -81 -176 -81t-172 81q-125 80 -177 80q-24 0 -66.5 -15t-87.5 -36.5t-76 -44t-31 -37.5q0 -67 92 -112v-655q0 -210 290 -210t290 210v610h120v-980h-120v133q-102 -63 -290 -63q-410 0 -410 300z" />
    <glyph glyph-name="uni1794_17C5" horiz-adv-x="1300" 
d="M1674 1039q36 -55 36 -116v-923h-120v923q0 35 -30.5 73t-78 74t-99 65.5t-93.5 47t-62 17.5q-45 0 -173 -80q-127 -81 -176 -81t-172 81q-125 80 -177 80q-24 0 -66.5 -15t-87.5 -36.5t-76 -44t-31 -37.5q0 -67 92 -112v-655q0 -210 290 -210t290 210v610h120v-980h-120
v133q-102 -63 -290 -63q-410 0 -410 300v620q-90 42 -90 147q0 16 32.5 44.5t83 61t107 61.5t107 47.5t80.5 18.5q73 0 194 -77q119 -77 163 -77q35 0 151 77q115 77 189 77q75 0 264 -120q57 -37 99 -77v371q0 86 -100 86q0 87 105 87q115 0 115 -173v-260q0 -92 -66 -175z
" />
    <glyph glyph-name="uni1795_17B6" horiz-adv-x="1300" 
d="M1060 1249q0 -26 -3 -50q20 12 41.5 23.5t43.5 22.5q109 55 201 55q54 0 117.5 -32t120.5 -81.5t93 -105t36 -103.5v-978h-120v978q0 19 -24.5 55t-63.5 74.5t-83.5 65t-85.5 26.5q-76 0 -336 -129q-55 -50 -157 -50q-151 0 -288 83q-136 82 -157 82q-20 0 -60 -21.5
t-72.5 -48.5t-32.5 -44q0 -24 130 -85v-829l290 235l290 -244v389h-45q-67 0 -111 44t-44 121q0 78 50 143t130 65q140 0 140 -140v-770h-90l-320 270l-320 -270h-90v931q-120 69 -120 135q0 33 35.5 73.5t85 77t93.5 60t60 23.5q59 0 165 -67q181 -106 281 -106t100 122
q0 142 -140 142q0 80 90 80q170 0 170 -222zM895 637h45v133q0 30 -35 30q-15 0 -40 -31t-25 -67q0 -35 18.5 -50t36.5 -15z" />
    <glyph glyph-name="uni1795_17C5" horiz-adv-x="1300" 
d="M1060 1249q0 -26 -3 -50q20 12 41.5 23.5t43.5 22.5q109 55 201 55q108 0 238 -113q11 -10 20.5 -19t18.5 -18v324q0 86 -100 86q0 87 105 87q115 0 115 -173v-260q0 -82 -52 -155q22 -41 22 -81v-978h-120v978q0 19 -24.5 55t-63.5 74.5t-83.5 65t-85.5 26.5
q-76 0 -336 -129q-55 -50 -157 -50q-151 0 -288 83q-136 82 -157 82q-20 0 -60 -21.5t-72.5 -48.5t-32.5 -44q0 -24 130 -85v-829l290 235l290 -244v389h-45q-67 0 -111 44t-44 121q0 78 50 143t130 65q140 0 140 -140v-770h-90l-320 270l-320 -270h-90v931
q-120 69 -120 135q0 33 35.5 73.5t85 77t93.5 60t60 23.5q59 0 165 -67q181 -106 281 -106t100 122q0 142 -140 142q0 80 90 80q170 0 170 -222zM895 637h45v133q0 30 -35 30q-15 0 -40 -31t-25 -67q0 -35 18.5 -50t36.5 -15z" />
    <glyph glyph-name="uni1796_17B6" horiz-adv-x="1300" 
d="M1058 1050q1 -12 1.5 -24.5t0.5 -25.5v-1000h-120v1000q0 198 -83 198q-65 0 -148 -132q-27 -44 -59 -44t-59 44q-81 132 -146 132q-85 0 -85 -198v-500q230 0 230 -183q0 -317 -240 -317q-110 0 -110 87v913q0 300 205 300q114 0 205 -154q91 154 207 154
q141 0 184 -144q31 35 88 69q123 75 214 75q54 0 117.5 -32t120.5 -81.5t93 -105t36 -103.5v-978h-120v978q0 19 -24.5 55t-63.5 74.5t-83.5 65t-85.5 26.5q-90 0 -275 -149zM360 410v-320q140 0 140 227q0 93 -140 93z" />
    <glyph glyph-name="uni1796_17C5" horiz-adv-x="1300" 
d="M1688 1059q22 -41 22 -81v-978h-120v978q0 19 -24.5 55t-63.5 74.5t-83.5 65t-85.5 26.5q-90 0 -275 -149q1 -12 1.5 -24.5t0.5 -25.5v-1000h-120v1000q0 198 -83 198q-65 0 -148 -132q-27 -44 -59 -44t-59 44q-81 132 -146 132q-85 0 -85 -198v-500q230 0 230 -183
q0 -317 -240 -317q-110 0 -110 87v913q0 300 205 300q114 0 205 -154q91 154 207 154q141 0 184 -144q31 35 88 69q123 75 214 75q108 0 238 -113q11 -10 20.5 -19t18.5 -18v324q0 86 -100 86q0 87 105 87q115 0 115 -173v-260q0 -82 -52 -155zM360 410v-320q140 0 140 227
q0 93 -140 93z" />
    <glyph glyph-name="uni1797_17B6" horiz-adv-x="1300" 
d="M150 1067q0 16 32.5 44.5t83 61t107 61.5t107 47.5t80.5 18.5q73 0 194 -77q119 -77 163 -77q35 0 151 77q115 77 189 77q30 0 84.5 -21.5t118 -59t120.5 -86t93.5 -102.5t36.5 -108v-923h-120v923q0 35 -30.5 73t-78 74t-99 65.5t-93.5 47t-62 17.5q-45 0 -173 -80
q-127 -81 -176 -81t-172 81q-125 80 -177 80q-24 0 -66 -15t-85.5 -37t-73.5 -43.5t-30 -35.5q0 -69 96 -74l-78 -51q-142 18 -142 123zM360 650q0 -44 50 -159t50 -243q0 -248 -190 -248q-150 0 -150 217q0 216 180 216h11q-10 25 -21 43q-50 94 -50 174q0 300 410 300
t410 -300v-650h-120v650q0 210 -290 210t-290 -210zM335 333h-35q-80 0 -80 -116q0 -127 50 -127q70 0 70 158q0 23 -1.5 44t-3.5 41z" />
    <glyph glyph-name="uni1797_17C5" horiz-adv-x="1300" 
d="M1674 1039q36 -55 36 -116v-923h-120v923q0 35 -30.5 73t-78 74t-99 65.5t-93.5 47t-62 17.5q-45 0 -173 -80q-127 -81 -176 -81t-172 81q-125 80 -177 80q-24 0 -66 -15t-85.5 -37t-73.5 -43.5t-30 -35.5q0 -69 96 -74l-78 -51q-142 18 -142 123q0 16 32.5 44.5t83 61
t107 61.5t107 47.5t80.5 18.5q73 0 194 -77q119 -77 163 -77q35 0 151 77q115 77 189 77q75 0 264 -120q57 -37 99 -77v371q0 86 -100 86q0 87 105 87q115 0 115 -173v-260q0 -92 -66 -175zM360 650q0 -44 50 -159t50 -243q0 -248 -190 -248q-150 0 -150 217q0 216 180 216
h11q-10 25 -21 43q-50 94 -50 174q0 300 410 300t410 -300v-650h-120v650q0 210 -290 210t-290 -210zM335 333h-35q-80 0 -80 -116q0 -127 50 -127q70 0 70 158q0 23 -1.5 44t-3.5 41z" />
    <glyph glyph-name="uni1798_17B6" horiz-adv-x="1300" 
d="M1060 860v-560q0 -300 -410 -300t-410 300v531q0 90 -170 119q3 59 24.5 120.5t53 113.5t65 84t60.5 32q33 0 121 -83q28 -28 74 -28q25 0 55 24q-8 -80 -27.5 -106.5t-62.5 -26.5q-44 0 -113 66q-22 22 -54 22q-37 0 -79 -148q173 -41 173 -160v-213h580v184
q0 106 -186 121q11 125 127 234q116 110 260 110q164 0 266 -47q303 -142 303 -346v-903h-120v903q0 144 -244 247q-80 34 -205 34q-174 0 -263 -167q182 -38 182 -157zM940 300v257h-580v-257q0 -210 290 -210t290 210z" />
    <glyph glyph-name="uni1798_17C5" horiz-adv-x="1300" 
d="M1673 1038q37 -64 37 -135v-903h-120v903q0 144 -244 247q-80 34 -205 34q-174 0 -263 -167q182 -38 182 -157v-560q0 -300 -410 -300t-410 300v531q0 90 -170 119q3 59 24.5 120.5t53 113.5t65 84t60.5 32q33 0 121 -83q28 -28 74 -28q25 0 55 24q-8 -80 -27.5 -106.5
t-62.5 -26.5q-44 0 -113 66q-22 22 -54 22q-37 0 -79 -148q173 -41 173 -160v-213h580v184q0 106 -186 121q11 125 127 234q116 110 260 110q164 0 266 -47q136 -64 213 -142v367q0 86 -100 86q0 87 105 87q115 0 115 -173v-260q0 -94 -67 -176zM940 300v257h-580v-257
q0 -210 290 -210t290 210z" />
    <glyph glyph-name="uni1799_17B6" horiz-adv-x="1950" 
d="M1710 860v-560q0 -300 -395 -300q-242 0 -335 112q-94 -112 -340 -112q-400 0 -400 300v822q0 178 150 178q180 0 180 -217q0 -216 -150 -216h-60v-567q0 -210 280 -210t280 210v531q0 91 -190 119q3 59 24.5 120.5t53 113.5t65 84t60.5 32q33 0 121 -83q28 -28 74 -28
q25 0 52 24q-5 -81 -24 -106q-19 -27 -53 -27q-54 0 -123 66q-22 22 -54 22q-37 0 -79 -148q193 -40 193 -160v-560q0 -210 275 -210t275 210v531q0 106 -186 121q11 125 127 234q116 110 260 110q164 0 266 -47q303 -142 303 -346v-903h-120v903q0 144 -244 247
q-80 34 -205 34q-174 0 -263 -167q182 -38 182 -157zM360 1122v-159h60q50 0 50 120q0 117 -57 117q-53 0 -53 -78z" />
    <glyph glyph-name="uni1799_17C5" horiz-adv-x="1950" 
d="M2323 1038q37 -64 37 -135v-903h-120v903q0 144 -244 247q-80 34 -205 34q-174 0 -263 -167q182 -38 182 -157v-560q0 -300 -395 -300q-242 0 -335 112q-94 -112 -340 -112q-400 0 -400 300v822q0 178 150 178q180 0 180 -217q0 -216 -150 -216h-60v-567q0 -210 280 -210
t280 210v531q0 91 -190 119q3 59 24.5 120.5t53 113.5t65 84t60.5 32q33 0 121 -83q28 -28 74 -28q25 0 52 24q-5 -81 -24 -106q-19 -27 -53 -27q-54 0 -123 66q-22 22 -54 22q-37 0 -79 -148q193 -40 193 -160v-560q0 -210 275 -210t275 210v531q0 106 -186 121
q11 125 127 234q116 110 260 110q164 0 266 -47q136 -64 213 -142v367q0 86 -100 86q0 87 105 87q115 0 115 -173v-260q0 -94 -67 -176zM360 1122v-159h60q50 0 50 120q0 117 -57 117q-53 0 -53 -78z" />
    <glyph glyph-name="uni179A_17B6" horiz-adv-x="580" 
d="M450 1087l-2 -2v1q-15 -6 -35 -6q-44 0 -113 66q-22 22 -54 22q-37 0 -79 -148q193 -40 193 -160v-762q0 -98 -80 -98h-40q-190 0 -190 267q0 166 190 166v398q0 91 -190 119q3 59 24.5 120.5t53 113.5t65 84t60.5 32q33 0 121 -83q28 -28 74 -28q18 0 41 14
q103 97 184 97q50 0 105 -30.5t103 -78t78.5 -101.5t30.5 -102v-988h-120v988q0 19 -18.5 53.5t-49 71t-67 61.5t-72.5 25q-54 0 -191 -97q-9 -11 -22 -15zM240 113v220q-90 0 -90 -66q0 -154 90 -154z" />
    <glyph glyph-name="uni179A_17C5" horiz-adv-x="580" 
d="M973 1065q17 -40 17 -77v-988h-120v988q0 19 -18.5 53.5t-49 71t-67 61.5t-72.5 25q-54 0 -191 -97q-9 -11 -22 -15l-2 -2v1q-15 -6 -35 -6q-44 0 -113 66q-22 22 -54 22q-37 0 -79 -148q193 -40 193 -160v-762q0 -98 -80 -98h-40q-190 0 -190 267q0 166 190 166v398
q0 91 -190 119q3 59 24.5 120.5t53 113.5t65 84t60.5 32q33 0 121 -83q28 -28 74 -28q18 0 41 14q103 97 184 97q99 0 208 -108q13 -13 19 -20v302q0 86 -100 86q0 87 105 87q115 0 115 -173v-260q0 -78 -47 -149zM240 113v220q-90 0 -90 -66q0 -154 90 -154z" />
    <glyph glyph-name="uni179B_17B6" horiz-adv-x="1950" 
d="M1710 860v-560q0 -300 -385 -300t-385 300v700q0 210 -290 210t-290 -210v-500q230 0 230 -183q0 -317 -240 -317q-110 0 -110 87v913q0 300 410 300t410 -300v-700q0 -210 265 -210t265 210v531q0 106 -186 121q11 125 127 234q116 110 260 110q164 0 266 -47
q303 -142 303 -346v-903h-120v903q0 144 -244 247q-80 34 -205 34q-174 0 -263 -167q182 -38 182 -157zM360 410v-320q140 0 140 227q0 93 -140 93z" />
    <glyph glyph-name="uni179B_17C5" horiz-adv-x="1950" 
d="M2323 1038q37 -64 37 -135v-903h-120v903q0 144 -244 247q-80 34 -205 34q-174 0 -263 -167q182 -38 182 -157v-560q0 -300 -385 -300t-385 300v700q0 210 -290 210t-290 -210v-500q230 0 230 -183q0 -317 -240 -317q-110 0 -110 87v913q0 300 410 300t410 -300v-700
q0 -210 265 -210t265 210v531q0 106 -186 121q11 125 127 234q116 110 260 110q164 0 266 -47q136 -64 213 -142v367q0 86 -100 86q0 87 105 87q115 0 115 -173v-260q0 -94 -67 -176zM360 410v-320q140 0 140 227q0 93 -140 93z" />
    <glyph glyph-name="uni179C_17B6" horiz-adv-x="580" 
d="M502 1276q62 24 121 24q54 0 117.5 -32t120.5 -81.5t93 -105t36 -103.5v-978h-120v978q0 19 -24.5 55t-63.5 74.5t-83.5 65t-85.5 26.5q-59 0 -151 -69q-28 -30 -79 -30q-54 0 -100 34t-67 34q-27 0 -49 -148q193 -40 193 -160v-762q0 -98 -80 -98h-40q-190 0 -190 267
q0 166 190 166v398q0 91 -190 119q4 79 24 159.5t55.5 135.5t83.5 55q34 0 92 -45q58 -46 72 -46q13 0 13 41q0 187 -187 187q0 73 80 73q209 0 219 -234zM240 113v220q-90 0 -90 -66q0 -154 90 -154z" />
    <glyph glyph-name="uni179C_17C5" horiz-adv-x="580" 
d="M968 1059q22 -41 22 -81v-978h-120v978q0 19 -24.5 55t-63.5 74.5t-83.5 65t-85.5 26.5q-59 0 -151 -69q-28 -30 -79 -30q-54 0 -100 34t-67 34q-27 0 -49 -148q193 -40 193 -160v-762q0 -98 -80 -98h-40q-190 0 -190 267q0 166 190 166v398q0 91 -190 119q4 79 24 159.5
t55.5 135.5t83.5 55q34 0 92 -45q58 -46 72 -46q13 0 13 41q0 187 -187 187q0 73 80 73q209 0 219 -234q62 24 121 24q108 0 238 -113q11 -10 20.5 -19t18.5 -18v324q0 86 -100 86q0 87 105 87q115 0 115 -173v-260q0 -82 -52 -155zM240 113v220q-90 0 -90 -66
q0 -154 90 -154z" />
    <glyph glyph-name="uni179F_17B6" horiz-adv-x="1950" 
d="M1710 860v-560q0 -300 -385 -300t-385 300v350q0 210 -290 210t-290 -210v-217h65q175 0 175 -173q0 -130 -55 -195t-140 -65q-165 0 -165 130v520q0 230 241 284q-59 37 -161 56q4 72 41.5 143.5t90 119t101.5 47.5q35 0 102 -55q68 -56 113 -56t72 24
q-5 -80 -29.5 -106.5t-67.5 -26.5q-44 0 -110 54t-87 54q-47 0 -109 -128q137 -42 192 -110h21q410 0 410 -300v-350q0 -210 265 -210t265 210v531q0 106 -186 121q11 125 127 234q116 110 260 110q164 0 266 -47q303 -142 303 -346v-903h-120v903q0 144 -244 247
q-80 34 -205 34q-174 0 -263 -167q182 -38 182 -157zM425 343h-65v-213q0 -40 45 -40q41 0 73 38t32 132q0 83 -85 83z" />
    <glyph glyph-name="uni179F_17C5" horiz-adv-x="1950" 
d="M2323 1038q37 -64 37 -135v-903h-120v903q0 144 -244 247q-80 34 -205 34q-174 0 -263 -167q182 -38 182 -157v-560q0 -300 -385 -300t-385 300v350q0 210 -290 210t-290 -210v-217h65q175 0 175 -173q0 -130 -55 -195t-140 -65q-165 0 -165 130v520q0 230 241 284
q-59 37 -161 56q4 72 41.5 143.5t90 119t101.5 47.5q35 0 102 -55q68 -56 113 -56t72 24q-5 -80 -29.5 -106.5t-67.5 -26.5q-44 0 -110 54t-87 54q-47 0 -109 -128q137 -42 192 -110h21q410 0 410 -300v-350q0 -210 265 -210t265 210v531q0 106 -186 121q11 125 127 234
q116 110 260 110q164 0 266 -47q136 -64 213 -142v367q0 86 -100 86q0 87 105 87q115 0 115 -173v-260q0 -94 -67 -176zM425 343h-65v-213q0 -40 45 -40q41 0 73 38t32 132q0 83 -85 83z" />
    <glyph glyph-name="uni17A0_17B6" horiz-adv-x="1950" 
d="M1707 1049q3 -22 3 -49v-1000h-120v1000q0 210 -265 210t-265 -210v-700q0 -300 -410 -300t-410 300v531q0 90 -170 119q3 59 24.5 120.5t53 113.5t65 84t60.5 32q33 0 121 -83q28 -28 74 -28q25 0 55 24q-8 -80 -27.5 -106.5t-62.5 -26.5q-44 0 -113 66q-22 22 -54 22
q-37 0 -79 -148q173 -41 173 -160v-560q0 -210 290 -210t290 210v700q0 300 385 300q279 0 355 -156q32 41 99 81q123 75 214 75q54 0 117.5 -32t120.5 -81.5t93 -105t36 -103.5v-978h-120v978q0 19 -24.5 55t-63.5 74.5t-83.5 65t-85.5 26.5q-90 0 -276 -150z" />
    <glyph glyph-name="uni17A0_17C5" horiz-adv-x="1950" 
d="M2338 1059q22 -41 22 -81v-978h-120v978q0 19 -24.5 55t-63.5 74.5t-83.5 65t-85.5 26.5q-90 0 -276 -150q3 -22 3 -49v-1000h-120v1000q0 210 -265 210t-265 -210v-700q0 -300 -410 -300t-410 300v531q0 90 -170 119q3 59 24.5 120.5t53 113.5t65 84t60.5 32
q33 0 121 -83q28 -28 74 -28q25 0 55 24q-8 -80 -27.5 -106.5t-62.5 -26.5q-44 0 -113 66q-22 22 -54 22q-37 0 -79 -148q173 -41 173 -160v-560q0 -210 290 -210t290 210v700q0 300 385 300q279 0 355 -156q32 41 99 81q123 75 214 75q108 0 238 -113q11 -10 20.5 -19
t18.5 -18v324q0 86 -100 86q0 87 105 87q115 0 115 -173v-260q0 -82 -52 -155z" />
    <glyph glyph-name="uni17A1_17B6" horiz-adv-x="1850" 
d="M1060 970q0 -130 -150 -130q-130 0 -130 130t130 130h9q-66 110 -269 110q-290 0 -290 -257v-73q0 -313 410 -313q0 170 155 170q135 0 135 -126q0 -134 -170 -134v-217q0 -260 -280 -260q-290 0 -290 260v147h120v-147q0 -170 170 -170q160 0 160 170v217
q-530 0 -530 403v73q0 347 410 347t410 -330zM1610 860v-1510h-90l-275 197l-275 -197h-90v250q-150 0 -150 150t150 150q120 0 120 -100v-312l245 178l245 -178v1343q0 106 -186 121q11 125 127 234q116 110 260 110q164 0 266 -47q303 -142 303 -346v-903h-120v903
q0 144 -244 247q-80 34 -205 34q-174 0 -263 -167q182 -38 182 -157zM910 1010q-40 0 -40 -40t40 -40t40 40t-40 40zM890 567q70 0 70 44q0 32 -35 32t-35 -76zM880 -300v100q-50 0 -50 -50t50 -50z" />
    <glyph glyph-name="uni17A1_17C5" horiz-adv-x="1850" 
d="M2223 1038q37 -64 37 -135v-903h-120v903q0 144 -244 247q-80 34 -205 34q-174 0 -263 -167q182 -38 182 -157v-1510h-90l-275 197l-275 -197h-90v250q-150 0 -150 150t150 150q120 0 120 -100v-312l245 178l245 -178v1343q0 106 -186 121q11 125 127 234
q116 110 260 110q164 0 266 -47q136 -64 213 -142v367q0 86 -100 86q0 87 105 87q115 0 115 -173v-260q0 -94 -67 -176zM1060 970q0 -130 -150 -130q-130 0 -130 130t130 130h9q-66 110 -269 110q-290 0 -290 -257v-73q0 -313 410 -313q0 170 155 170q135 0 135 -126
q0 -134 -170 -134v-217q0 -260 -280 -260q-290 0 -290 260v147h120v-147q0 -170 170 -170q160 0 160 170v217q-530 0 -530 403v73q0 347 410 347t410 -330zM910 1010q-40 0 -40 -40t40 -40t40 40t-40 40zM890 567q70 0 70 44q0 32 -35 32t-35 -76zM880 -300v100
q-50 0 -50 -50t50 -50z" />
    <glyph glyph-name="uni17A2_17B6" horiz-adv-x="1300" 
d="M1060 860v-762q0 -98 -80 -98h-40q-190 0 -190 267q0 166 190 166v124h-580v-459q0 -98 -80 -98h-40q-190 0 -190 267q0 166 190 166v398q0 91 -190 119q3 59 24.5 120.5t53 113.5t65 84t60.5 32q33 0 121 -83q28 -28 74 -28q25 0 55 24q-8 -80 -27.5 -106.5t-62.5 -26.5
q-44 0 -113 66q-22 22 -54 22q-37 0 -79 -148q193 -40 193 -160v-213h580v184q0 106 -186 121q11 125 127 234q116 110 260 110q164 0 266 -47q303 -142 303 -346v-903h-120v903q0 144 -244 247q-80 34 -205 34q-174 0 -263 -167q182 -38 182 -157zM240 113v220
q-90 0 -90 -66q0 -154 90 -154zM940 113v220q-90 0 -90 -66q0 -154 90 -154z" />
    <glyph glyph-name="uni17A2_17C5" horiz-adv-x="1300" 
d="M1673 1038q37 -64 37 -135v-903h-120v903q0 144 -244 247q-80 34 -205 34q-174 0 -263 -167q182 -38 182 -157v-762q0 -98 -80 -98h-40q-190 0 -190 267q0 166 190 166v124h-580v-459q0 -98 -80 -98h-40q-190 0 -190 267q0 166 190 166v398q0 91 -190 119
q3 59 24.5 120.5t53 113.5t65 84t60.5 32q33 0 121 -83q28 -28 74 -28q25 0 55 24q-8 -80 -27.5 -106.5t-62.5 -26.5q-44 0 -113 66q-22 22 -54 22q-37 0 -79 -148q193 -40 193 -160v-213h580v184q0 106 -186 121q11 125 127 234q116 110 260 110q164 0 266 -47
q136 -64 213 -142v367q0 86 -100 86q0 87 105 87q115 0 115 -173v-260q0 -94 -67 -176zM240 113v220q-90 0 -90 -66q0 -154 90 -154zM940 113v220q-90 0 -90 -66q0 -154 90 -154z" />
    <glyph glyph-name="uni17D2_1783_17B6" horiz-adv-x="1250" 
d="M360 860v-1128q0 -232 -260 -232q-111 0 -199 80q-78 -80 -191 -80q-250 0 -250 232v49q0 69 -80 69q0 80 105 80q95 0 95 -99v-99q0 -140 130 -140t130 140v198h120v-198q0 -140 140 -140t140 140v1099q0 106 -186 121q11 125 127 234q116 110 260 110q164 0 266 -47
q303 -142 303 -346v-903h-120v903q0 144 -244 247q-80 34 -205 34q-174 0 -263 -167q182 -38 182 -157z" />
    <glyph glyph-name="uni17D2_1788_17B6" horiz-adv-x="1250" 
d="M360 860v-1128q0 -232 -260 -232q-102 0 -179 60q-78 -60 -171 -60q-210 0 -210 232q0 119 -120 119q-110 0 -110 -119v-86q0 -56 110 -56q0 -90 -130 -90q-90 0 -90 116v116q0 198 220 198q230 0 230 -198q0 -139 105 -139t105 139v198h120v-198q0 -139 125 -139
q135 0 135 139v1099q0 106 -186 121q11 125 127 234q116 110 260 110q164 0 266 -47q303 -142 303 -346v-903h-120v903q0 144 -244 247q-80 34 -205 34q-174 0 -263 -167q182 -38 182 -157z" />
    <glyph glyph-name="uni17D2_178D_17B6" horiz-adv-x="1250" 
d="M360 860v-1360h-120q0 25 -32.5 43.5t-84 30t-108 17.5t-104.5 6h-156v-97h-109v222q-50 92 -118 92q-64 0 -189 -112q-118 112 -172 112q-57 0 -112 -53v-121q0 -48 38 -48t38 48q0 38 -36 38v82q135 0 135 -130t-137 -130q-147 0 -147 140v104q0 43 40.5 85.5t94 71.5
t90.5 29q58 0 182 -90q122 90 194 90q45 0 93 -27t81.5 -74t33.5 -107v-36h156q149 0 329 -55v1200q0 106 -186 121q11 125 127 234q116 110 260 110q164 0 266 -47q303 -142 303 -346v-903h-120v903q0 144 -244 247q-80 34 -205 34q-174 0 -263 -167q182 -38 182 -157z" />
    <glyph glyph-name="uni17D2_1794_17B6" horiz-adv-x="1250" 
d="M360 860v-1360h-129l-230 222l-236 -222h-124v327q0 103 81 103h132v-46l-94 -60v-192l201 184h86l193 -175v1190q0 106 -186 121q11 125 127 234q116 110 260 110q164 0 266 -47q303 -142 303 -346v-903h-120v903q0 144 -244 247q-80 34 -205 34q-174 0 -263 -167
q182 -38 182 -157z" />
    <glyph glyph-name="uni17D2_1799_17B6" horiz-adv-x="1250" 
d="M360 860v-1113q0 -247 -360 -247q-359 0 -359 247v183h119v-183q0 -155 240 -155t240 155v1084q0 106 -186 121q11 125 127 234q116 110 260 110q164 0 266 -47q303 -142 303 -346v-903h-120v903q0 144 -244 247q-80 34 -205 34q-174 0 -263 -167q182 -38 182 -157z" />
    <glyph glyph-name="uni17D2_179F_17B6" horiz-adv-x="1250" 
d="M360 860v-770h159v-90h-159v-253q0 -247 -360 -247q-359 0 -359 247v93h-131v90h250v-183q0 -155 240 -155t240 155v253h-198v90h198v741q0 106 -186 121q11 125 127 234q116 110 260 110q164 0 266 -47q303 -142 303 -346v-903h-120v903q0 144 -244 247q-80 34 -205 34
q-174 0 -263 -167q182 -38 182 -157z" />
    <glyph glyph-name="uni17D2_1783_17C5" horiz-adv-x="1250" 
d="M973 1038q37 -64 37 -135v-903h-120v903q0 144 -244 247q-80 34 -205 34q-174 0 -263 -167q182 -38 182 -157v-1128q0 -232 -260 -232q-111 0 -199 80q-78 -80 -191 -80q-250 0 -250 232v49q0 69 -80 69q0 80 105 80q95 0 95 -99v-99q0 -140 130 -140t130 140v198h120
v-198q0 -140 140 -140t140 140v1099q0 106 -186 121q11 125 127 234q116 110 260 110q164 0 266 -47q136 -64 213 -142v367q0 86 -100 86q0 87 105 87q115 0 115 -173v-260q0 -94 -67 -176z" />
    <glyph glyph-name="uni17D2_1788_17C5" horiz-adv-x="1250" 
d="M973 1038q37 -64 37 -135v-903h-120v903q0 144 -244 247q-80 34 -205 34q-174 0 -263 -167q182 -38 182 -157v-1128q0 -232 -260 -232q-102 0 -179 60q-78 -60 -171 -60q-210 0 -210 232q0 119 -120 119q-110 0 -110 -119v-86q0 -56 110 -56q0 -90 -130 -90
q-90 0 -90 116v116q0 198 220 198q230 0 230 -198q0 -139 105 -139t105 139v198h120v-198q0 -139 125 -139q135 0 135 139v1099q0 106 -186 121q11 125 127 234q116 110 260 110q164 0 266 -47q136 -64 213 -142v367q0 86 -100 86q0 87 105 87q115 0 115 -173v-260
q0 -94 -67 -176z" />
    <glyph glyph-name="uni17D2_178D_17C5" horiz-adv-x="1250" 
d="M973 1038q37 -64 37 -135v-903h-120v903q0 144 -244 247q-80 34 -205 34q-174 0 -263 -167q182 -38 182 -157v-1360h-120q0 25 -32.5 43.5t-84 30t-108 17.5t-104.5 6h-156v-97h-109v222q-50 92 -118 92q-64 0 -189 -112q-118 112 -172 112q-57 0 -112 -53v-121
q0 -48 38 -48t38 48q0 38 -36 38v82q135 0 135 -130t-137 -130q-147 0 -147 140v104q0 43 40.5 85.5t94 71.5t90.5 29q58 0 182 -90q122 90 194 90q45 0 93 -27t81.5 -74t33.5 -107v-36h156q149 0 329 -55v1200q0 106 -186 121q11 125 127 234q116 110 260 110
q164 0 266 -47q136 -64 213 -142v367q0 86 -100 86q0 87 105 87q115 0 115 -173v-260q0 -94 -67 -176z" />
    <glyph glyph-name="uni17D2_1794_17C5" horiz-adv-x="1250" 
d="M973 1038q37 -64 37 -135v-903h-120v903q0 144 -244 247q-80 34 -205 34q-174 0 -263 -167q182 -38 182 -157v-1360h-129l-230 222l-236 -222h-124v327q0 103 81 103h132v-46l-94 -60v-192l201 184h86l193 -175v1190q0 106 -186 121q11 125 127 234q116 110 260 110
q164 0 266 -47q136 -64 213 -142v367q0 86 -100 86q0 87 105 87q115 0 115 -173v-260q0 -94 -67 -176z" />
    <glyph glyph-name="uni17D2_1799_17C5" horiz-adv-x="1250" 
d="M973 1038q37 -64 37 -135v-903h-120v903q0 144 -244 247q-80 34 -205 34q-174 0 -263 -167q182 -38 182 -157v-1113q0 -247 -360 -247q-359 0 -359 247v183h119v-183q0 -155 240 -155t240 155v1084q0 106 -186 121q11 125 127 234q116 110 260 110q164 0 266 -47
q136 -64 213 -142v367q0 86 -100 86q0 87 105 87q115 0 115 -173v-260q0 -94 -67 -176z" />
    <glyph glyph-name="uni17D2_179F_17C5" horiz-adv-x="1250" 
d="M973 1038q37 -64 37 -135v-903h-120v903q0 144 -244 247q-80 34 -205 34q-174 0 -263 -167q182 -38 182 -157v-770h159v-90h-159v-253q0 -247 -360 -247q-359 0 -359 247v93h-131v90h250v-183q0 -155 240 -155t240 155v253h-198v90h198v741q0 106 -186 121
q11 125 127 234q116 110 260 110q164 0 266 -47q136 -64 213 -142v367q0 86 -100 86q0 87 105 87q115 0 115 -173v-260q0 -94 -67 -176z" />
    <glyph glyph-name="uni17D21783" horiz-adv-x="610" 
d="M-160 -268v198h120v-198q0 -140 140 -140t140 140v1099q0 91 -190 119q3 59 24.5 120.5t53 113.5t65 84t60.5 32q33 0 121 -83q28 -28 74 -28q25 0 55 24q-8 -80 -27.5 -106.5t-62.5 -26.5q-44 0 -113 66q-22 22 -54 22q-37 0 -79 -148q193 -40 193 -160v-1128
q0 -232 -260 -232q-111 0 -199 80q-78 -80 -191 -80q-250 0 -250 232v49q0 69 -80 69q0 80 105 80q95 0 95 -99v-99q0 -140 130 -140t130 140z" />
    <glyph glyph-name="uni17D21788" horiz-adv-x="610" 
d="M360 860v-1128q0 -232 -260 -232q-102 0 -179 60q-78 -60 -171 -60q-210 0 -210 232q0 119 -120 119q-110 0 -110 -119v-86q0 -56 110 -56q0 -90 -130 -90q-90 0 -90 116v116q0 198 220 198q230 0 230 -198q0 -139 105 -139t105 139v198h120v-198q0 -139 125 -139
q135 0 135 139v1099q0 91 -190 119q3 59 24.5 120.5t53 113.5t65 84t60.5 32q33 0 121 -83q28 -28 74 -28q25 0 55 24q-8 -80 -27.5 -106.5t-62.5 -26.5q-44 0 -113 66q-22 22 -54 22q-37 0 -79 -148q193 -40 193 -160z" />
    <glyph glyph-name="uni17D2178D" horiz-adv-x="610" 
d="M-89 -403h-156v-97h-109v222q-50 92 -118 92q-64 0 -189 -112q-118 112 -172 112q-57 0 -112 -53v-121q0 -48 38 -48t38 48q0 38 -36 38v82q135 0 135 -130t-137 -130q-147 0 -147 140v104q0 43 40.5 85.5t94 71.5t90.5 29q58 0 182 -90q122 90 194 90q45 0 93 -27
t81.5 -74t33.5 -107v-36h156q149 0 329 -55v1200q0 91 -190 119q3 59 24.5 120.5t53 113.5t65 84t60.5 32q33 0 121 -83q28 -28 74 -28q25 0 55 24q-8 -80 -27.5 -106.5t-62.5 -26.5q-44 0 -113 66q-22 22 -54 22q-37 0 -79 -148q193 -40 193 -160v-1360h-120
q0 25 -32.5 43.5t-84 30t-108 17.5t-104.5 6z" />
    <glyph glyph-name="uni17D21794" horiz-adv-x="610" 
d="M360 860v-1360h-129l-230 222l-236 -222h-124v327q0 103 81 103h132v-46l-94 -60v-192l201 184h86l193 -175v1190q0 91 -190 119q3 59 24.5 120.5t53 113.5t65 84t60.5 32q33 0 121 -83q28 -28 74 -28q25 0 55 24q-8 -80 -27.5 -106.5t-62.5 -26.5q-44 0 -113 66
q-22 22 -54 22q-37 0 -79 -148q193 -40 193 -160z" />
    <glyph glyph-name="uni17D21799" horiz-adv-x="610" 
d="M360 860v-1113q0 -247 -360 -247q-359 0 -359 247v183h119v-183q0 -155 240 -155t240 155v1084q0 91 -190 119q3 59 24.5 120.5t53 113.5t65 84t60.5 32q33 0 121 -83q28 -28 74 -28q25 0 55 24q-8 -80 -27.5 -106.5t-62.5 -26.5q-44 0 -113 66q-22 22 -54 22
q-37 0 -79 -148q193 -40 193 -160z" />
    <glyph glyph-name="uni17D2179A" horiz-adv-x="610" 
d="M360 860v-338l-1 -775q0 -155 240 -155t240 155v183h109v-183q0 -247 -349 -247q-359 0 -359 247v1084q0 91 -190 119q3 59 24.5 120.5t53 113.5t65 84t60.5 32q33 0 121 -83q28 -28 74 -28q25 0 55 24q-8 -80 -27.5 -106.5t-62.5 -26.5q-44 0 -113 66q-22 22 -54 22
q-37 0 -79 -148q193 -40 193 -160z" />
    <glyph glyph-name="uni17D2179F" horiz-adv-x="610" 
d="M360 860v-770h159v-90h-159v-253q0 -247 -360 -247q-359 0 -359 247v93h-131v90h250v-183q0 -155 240 -155t240 155v253h-198v90h198v741q0 91 -190 119q3 59 24.5 120.5t53 113.5t65 84t60.5 32q33 0 121 -83q28 -28 74 -28q25 0 55 24q-8 -80 -27.5 -106.5t-62.5 -26.5
q-44 0 -113 66q-22 22 -54 22q-37 0 -79 -148q193 -40 193 -160z" />
    <glyph glyph-name="uni17D2179A.b" horiz-adv-x="610" 
d="M360 860v-338l-1 -1175q0 -155 240 -155t240 155v103h109v-103q0 -247 -349 -247q-359 0 -359 247v1484q0 91 -190 119q3 59 24.5 120.5t53 113.5t65 84t60.5 32q33 0 121 -83q28 -28 74 -28q25 0 55 24q-8 -80 -27.5 -106.5t-62.5 -26.5q-44 0 -113 66q-22 22 -54 22
q-37 0 -79 -148q193 -40 193 -160z" />
    <glyph glyph-name="nyo_17B6khmer.a" horiz-adv-x="1950" 
d="M1707 1049q3 -22 3 -49v-1000h-120v1000q0 200 -225 200q-127 0 -196 -60q-64 -56 -109 -133v-1007h-120v1000q0 198 -83 198q-65 0 -148 -132q-27 -44 -59 -44t-59 44q-81 132 -146 132q-85 0 -85 -198v-500q230 0 230 -183q0 -317 -240 -317q-110 0 -110 87v913
q0 300 205 300q114 0 205 -154q91 154 207 154q139 0 183 -143q125 143 326 143q246 0 316 -154q31 39 97 79q123 75 214 75q54 0 117.5 -32t120.5 -81.5t93 -105t36 -103.5v-978h-120v978q0 19 -24.5 55t-63.5 74.5t-83.5 65t-85.5 26.5q-90 0 -276 -150zM360 410v-320
q140 0 140 227q0 93 -140 93z" />
    <glyph glyph-name="nyo_17C5khmer.a" horiz-adv-x="1950" 
d="M2338 1059q22 -41 22 -81v-978h-120v978q0 19 -24.5 55t-63.5 74.5t-83.5 65t-85.5 26.5q-90 0 -276 -150q3 -22 3 -49v-1000h-120v1000q0 200 -225 200q-127 0 -196 -60q-64 -56 -109 -133v-1007h-120v1000q0 198 -83 198q-65 0 -148 -132q-27 -44 -59 -44t-59 44
q-81 132 -146 132q-85 0 -85 -198v-500q230 0 230 -183q0 -317 -240 -317q-110 0 -110 87v913q0 300 205 300q114 0 205 -154q91 154 207 154q139 0 183 -143q125 143 326 143q246 0 316 -154q31 39 97 79q123 75 214 75q108 0 238 -113q11 -10 20.5 -19t18.5 -18v324
q0 86 -100 86q0 87 105 87q115 0 115 -173v-260q0 -82 -52 -155zM360 410v-320q140 0 140 227q0 93 -140 93z" />
    <glyph glyph-name="uni17B7_17CD" 
d="M-240 1643v-93h-580q-220 0 -220 200t240 200q122 0 236 -53q50 83 189 83q128 0 195 -69q76 25 130.5 73.5t96.5 110.5l11 2q19 0 38 -19.5t19 -33.5q0 -13 -12 -24q-46 -64 -105 -113q-59 -48 -136 -86q-38 -11 -70 -11q-74 80 -167 80q-74 0 -101 -43q16 -10 31 -22
t30 -25l103 -89q12 8 12 18q0 31 35 31q65 0 65 -31q0 -56 -40 -86zM-940 1750q0 -100 120 -100h430q-200 200 -410 200q-140 0 -140 -100z" />
    <glyph glyph-name="uni17D2_1780" 
d="M-945 -500h-109v178q0 252 404 252q405 0 405 -252v-178h-109v178q0 163 -296 163q-295 0 -295 -163v-178z" />
    <glyph glyph-name="uni17D2_1781" 
d="M-945 -219h-109q0 149 404 149q405 0 405 -119q0 -86 -350 -125t-350 -66q0 -39 295 -39q296 0 296 70h109q0 -151 -405 -151q-404 0 -404 120q0 85 350 117t350 74q0 38 -296 38q-295 0 -295 -68z" />
    <glyph glyph-name="uni17D2_1782" 
d="M-945 -322v-38q77 84 269 84v-100q-224 0 -269 -113v-11h-109v178q0 252 404 252q405 0 405 -252v-178h-109v178q0 163 -296 163q-295 0 -295 -163z" />
    <glyph glyph-name="uni17D2_1784" 
d="M-699 -500q-355 0 -355 236q0 194 233 194q131 0 131 -117q0 -100 -85 -100q-109 0 -115 89q-52 -27 -52 -66q0 -134 224 -134q366 0 366 328h107q0 -430 -454 -430z" />
    <glyph glyph-name="uni17D2_1785" 
d="M-202 -415l-80 -78l-131 146q-214 -153 -443 -153q-202 0 -202 164v73q220 52 220 95q0 31 -100 38v40q60 20 99 20q119 0 119 -98q0 -108 -220 -168q0 -72 84 -72q198 0 370 132q-34 35 -34 79q0 127 153 127q108 0 108 -89q0 -60 -71 -126z" />
    <glyph glyph-name="uni17D2_1786" 
d="M-1048 -253v183h119v-193q124 0 257 -70q134 -69 201 -69q113 2 113 82v102q0 50 -74 50q-23 0 -55 -9q0 107 124 107t124 -125v-125q0 -180 -215 -180q-82 0 -210 66q-127 66 -265 66q0 -132 -98 -132q-125 0 -125 119q0 128 104 128z" />
    <glyph glyph-name="uni17D2_1787" 
d="M-229 -197h142v-96h-151q-13 -98 -50 -151.5t-126 -53.5q-116 0 -228 94q-85 -96 -194 -96q-225 0 -225 230q0 200 283 200v-94q-171 0 -171 -106q0 -138 113 -138q69 0 198 152q128 -152 224 -152q63 0 70 124q-76 6 -111 19.5t-44 38.5t-9 62v3q0 91 121 91
q152 0 158 -127z" />
    <glyph glyph-name="uni17D2_1789" 
d="M-546 -500q-156 0 -290 129q-133 129 -236 129q-58 0 -97 -19q51 80 94.5 99t87.5 19q72 0 205 -131q134 -131 316 -131q117 0 117 137q0 117 -188 117q-17 0 -35.5 -1.5t-38.5 -3.5q59 86 193 86q178 0 178 -198q0 -232 -306 -232z" />
    <glyph glyph-name="uni17D2_178A" 
d="M-770 -370q0 -130 -137 -130q-147 0 -147 140v52q0 238 405 238q404 0 404 -238v-192h-109v192q0 149 -295 149q-296 0 -296 -149v-52q0 -48 38 -48t38 48q0 38 -36 38v82q135 0 135 -130z" />
    <glyph glyph-name="uni17D2_178B" 
d="M-1058 -384v147q0 110 99 110h611v77h109v-77h102v-90h-102v-177q0 -106 -109 -106l-296 126l-295 -126q-119 0 -119 116zM-939 -217v-177l295 114l296 -114v177h-591z" />
    <glyph glyph-name="uni17D2_178C" 
d="M-1054 -211q0 49 38 80t89 46t88 15q58 0 202 -70q121 70 184 70q45 0 93 -14.5t81.5 -42t33.5 -67.5q0 -120 -350 -152t-350 -55q0 -32 95 -32q347 0 496 58h109v-125h-109v57q-189 -57 -496 -57q-204 0 -204 99q0 71 350 97t350 107q0 40 -98 48q-82 0 -179 -68
q-147 67 -202 67q-112 0 -112 -30q0 -31 107 -31q0 -74 -78 -74q-138 0 -138 74z" />
    <glyph glyph-name="uni17D2_178E" 
d="M-1512 -500h-107v211q0 132 -262 132q-270 0 -270 -132v-71q0 -48 38 -48t38 48q0 38 -36 38v82q135 0 135 -130t-137 -130q-147 0 -147 140v71q0 219 379 219q369 0 369 -212v-111l262 160l262 -160v111q0 212 369 212q379 0 379 -219v-211h-107v211q0 132 -272 132
q-262 0 -262 -132v-211h-107l-262 165z" />
    <glyph glyph-name="uni17D2_178F" 
d="M-770 -370q0 -130 -137 -130q-147 0 -147 140v52q0 238 405 238q404 0 404 -238v-192h-109v192q0 149 -295 149q-296 0 -296 -149v-52q0 -48 38 -48t38 48q0 38 -36 38v82q135 0 135 -130z" />
    <glyph glyph-name="uni17D2_1790" 
d="M-739 -70q265 0 494 -370l-97 -60q-210 338 -436 338q-184 0 -184 -144q0 -39 42 -66q6 79 115 79q95 0 95 -100q0 -107 -131 -107q-213 0 -213 194q0 236 315 236z" />
    <glyph glyph-name="uni17D2_1791" 
d="M-1055 -327v61q315 35 315 82q0 32 -44 32q-19 0 -46 -6q0 88 119 88q89 0 89 -88q0 -118 -325 -169q0 -84 149 -84q194 0 449 300h104v-262q0 -127 -189 -127q80 85 80 166v82q-210 -248 -444 -248q-257 0 -257 173z" />
    <glyph glyph-name="uni17D2_1792" 
d="M-935 -231l581 129v32h109v-177q0 -153 -196 -153q-55 0 -155 31q-44 -131 -232 -131q-226 0 -226 154q0 85 119 115zM-354 -247v58l-276 -58q115 -58 189 -58q87 0 87 58zM-702 -265l-243 -58v-19q0 -68 120 -68q123 0 123 81v64z" />
    <glyph glyph-name="uni17D2_1793" 
d="M-429 -394l-421 -51q-210 0 -210 160t190 160h441v55h109v-55h140v-87h-140v-106q100 0 100 -91t-105 -91q-104 0 -104 106zM-951 -286q0 -73 101 -73l421 41v106h-411q-111 0 -111 -74z" />
    <glyph glyph-name="uni17D2_1795" 
d="M-588 -184l234 -175v173l-128 60v56h136q101 0 101 -103v-327h-113l-293 232l-290 -232h-113v430h109v-298l242 184h115z" />
    <glyph glyph-name="uni17D2_1796" 
d="M-1054 -360v104q0 43 40.5 85.5t94 71.5t90.5 29q58 0 192 -100q110 100 184 100q45 0 93 -27t81.5 -74t33.5 -107v-222h-109v222q0 63 -118 112q-62 0 -169 -122q-140 122 -192 122q-78 0 -112 -73v-121q0 -48 38 -48t38 48q0 38 -36 38v82q135 0 135 -130t-137 -130
q-147 0 -147 140z" />
    <glyph glyph-name="uni17D2_1797" 
d="M-945 -322v-178h-228v106h119v72q0 252 404 252q405 0 405 -252v-178h-109v178q0 163 -296 163q-295 0 -295 -163z" />
    <glyph glyph-name="uni17D2_1798" 
d="M-1120 -330v92h738v168h109v-168q163 0 163 -132q0 -130 -126 -130q-146 0 -146 170h-738zM-273 -330q0 -80 37 -80q36 0 36 40t-73 40z" />
    <glyph glyph-name="uni17D2_179B" 
d="M-522 -500q-130 348 -296 348q-134 0 -134 -154q0 -39 42 -66q6 79 115 79q95 0 95 -100q0 -107 -131 -107q-233 0 -233 194q0 236 265 236q211 0 345 -326q100 100 100 326h109q0 -430 -277 -430z" />
    <glyph glyph-name="uni17D2_179C" 
d="M-743 -500q-311 0 -311 189q0 61 86 84l614 157h109v-106q0 -324 -498 -324zM-354 -166l-591 -150q0 -92 202 -92q389 0 389 242z" />
    <glyph glyph-name="uni17D2_17A0" 
d="M-825 -418q125 0 125 97v72q0 179 225 179q230 0 230 -179v-251h-109v251q0 97 -121 97q-125 0 -125 -97v-72q0 -179 -225 -179q-229 0 -229 179v251h109v-251q0 -97 120 -97z" />
    <glyph glyph-name="uni17D2_17A2" 
d="M-460 -405h110v115h-590v-210h-220v95h111v335h109v-125h590v125h110v-430h-220v95z" />
    <glyph glyph-name="uni17B7.a" 
d="M-1040 1890q0 200 240 200q210 0 385 -150l175 -150v-100h-580q-220 0 -220 200zM-940 1890q0 -100 120 -100h430q-200 200 -410 200q-140 0 -140 -100z" />
    <glyph glyph-name="uni17B8.a" 
d="M-415 1940l75 -64v244h100v-430h-580q-220 0 -220 200t240 200q210 0 385 -150zM-940 1890q0 -100 120 -100h430q-200 200 -410 200q-140 0 -140 -100z" />
    <glyph glyph-name="uni17B9.a" 
d="M-571 2015q32 92 161 92q170 0 170 -158q0 -87 -52 -126l52 -40v-93h-580q-220 0 -220 185q0 186 240 186q121 0 229 -46zM-410 2014q-70 0 -70 -65q0 -64 70 -64t70 64q0 65 -70 65zM-940 1875q0 -92 120 -92h430q-200 185 -410 185q-140 0 -140 -93z" />
    <glyph glyph-name="uni17BA.a" 
d="M-550 2122h100v-165q9 -7 18 -13.5t17 -13.5l75 -61v234h100v-413h-580q-220 0 -220 192t240 192q132 0 250 -57v105zM-940 1882q0 -96 120 -96h430q-199 192 -410 192q-140 0 -140 -96z" />
    <glyph glyph-name="uni17C6.a" 
d="M-650 2100q225 0 225 -206t-225 -206t-225 206t225 206zM-650 2008q-125 0 -125 -114t125 -114t125 114t-125 114z" />
    <glyph glyph-name="uni17CE.a" 
d="M-440 1839h-160v-159h-100v159h-160v101h160v159h100v-159h160v-101z" />
    <glyph glyph-name="uni17D0.a" 
d="M-552 1959q122 0 122 -80q0 -73 -75 -73q0 63 -47 63q-48 0 -48 -25q0 -77 150 -77q320 0 320 164q0 92 -50 92t-50 39q0 38 50 38q150 0 150 -169q0 -241 -420 -241q-250 0 -250 154q0 115 148 115z" />
    <glyph glyph-name="uni17BB.b" 
d="M-330 -552q90 0 90 -87v-261h-120v194q-60 0 -60 77t90 77z" />
    <glyph glyph-name="uni17BC.b" 
d="M-460 -900q-112 0 -158 41q-32 29 -32 58q0 12 6 25l50 94q-80 0 -80 62t120 62q93 0 93 -78q0 -32 -21 -77l-41 -81q-7 -10 -7 -20q0 -24 70 -24q82 0 165 140t107 140q25 0 25 -43q0 -27 -16.5 -76t-51.5 -100.5t-91.5 -87t-137.5 -35.5z" />
    <glyph glyph-name="uni17BD.b" 
d="M-431 -807q-136 -93 -272 -93q-66 0 -66 82q0 47 110 139q21 17 21 30q0 20 -62 34q0 63 107 63q93 0 93 -42t-63 -110q-79 -85 -79 -107q0 -7 9 -7q93 0 233 115q40 -115 107 -115q44 0 78 133t73 133q29 0 29 -62q0 -61 -17 -127q-37 -159 -163 -159q-82 0 -138 93z
" />
    <glyph glyph-name="uni17BB.n" 
d="M-970 -100q100 0 100 -100v-450h-120v380q-80 0 -80 85t100 85z" />
    <glyph glyph-name="uni17BC.n" 
d="M-1181 -650q-103 0 -156 57q-33 35 -33 80q0 30 13 62l74 201q-72 0 -72 75t100 75q111 0 111 -87q0 -37 -19 -88l-78 -204q-8 -22 -8 -36q0 -45 68 -45q103 0 180 230q78 230 103 230q24 0 24 -69q0 -35 -10 -93.5t-32.5 -125.5t-58 -126.5t-87 -97.5t-119.5 -38z" />
    <glyph glyph-name="uni17BD.n" 
d="M-1192 -503q-127 -147 -192 -147q-146 0 -146 129q0 78 130 221q58 64 58 92q0 20 -31 20q-24 0 -68 -12q0 100 107 100q103 0 103 -67t-101 -188t-101 -154q0 -41 49 -41q71 0 223 212q71 -212 107 -212q43 0 77 225q35 225 74 225q19 0 19 -98q0 -95 -17 -200
q-37 -252 -153 -252q-82 0 -138 147z" />
    <glyph glyph-name="uni17BB.n2" 
d="M-990 -552q90 0 90 -87v-261h-120v194q-60 0 -60 77t90 77z" />
    <glyph glyph-name="uni17BC.n2" 
d="M-1176 -900q-112 0 -158 41q-32 29 -32 58q0 12 6 25l50 94q-80 0 -80 62t120 62q93 0 93 -78q0 -32 -21 -77l-41 -81q-7 -10 -7 -20q0 -24 70 -24q82 0 165 140t107 140q25 0 25 -43q0 -27 -16.5 -76t-51.5 -100.5t-91.5 -87t-137.5 -35.5z" />
    <glyph glyph-name="uni17BD.n2" 
d="M-1182 -807q-136 -93 -272 -93q-66 0 -66 82q0 47 110 139q21 17 21 30q0 20 -62 34q0 63 107 63q93 0 93 -42t-63 -110q-79 -85 -79 -107q0 -7 9 -7q93 0 233 115q40 -115 107 -115q44 0 78 133t73 133q29 0 29 -62q0 -61 -17 -127q-37 -159 -163 -159q-82 0 -138 93z
" />
    <glyph glyph-name="uni17B7.r" 
d="M-790 1750q0 200 240 200q210 0 385 -150l175 -150v-100h-580q-220 0 -220 200zM-690 1750q0 -100 120 -100h430q-200 200 -410 200q-140 0 -140 -100z" />
    <glyph glyph-name="uni17B8.r" 
d="M-165 1800l75 -64v244h100v-430h-580q-220 0 -220 200t240 200q210 0 385 -150zM-690 1750q0 -100 120 -100h430q-200 200 -410 200q-140 0 -140 -100z" />
    <glyph glyph-name="uni17B9.r" 
d="M-321 1901q32 99 161 99q170 0 170 -170q0 -94 -52 -136l52 -44v-100h-580q-220 0 -220 200t240 200q121 0 229 -49zM-160 1900q-70 0 -70 -70t70 -70t70 70t-70 70zM-690 1750q0 -100 120 -100h430q-200 200 -410 200q-140 0 -140 -100z" />
    <glyph glyph-name="uni17BA.r" 
d="M-300 2000h100v-172q9 -7 18 -13.5t17 -14.5l75 -64v244h100v-430h-580q-220 0 -220 200t240 200q130 0 250 -59v109zM-690 1750q0 -100 120 -100h430q-200 200 -410 200q-140 0 -140 -100z" />
    <glyph glyph-name="uni17C6.r" 
d="M-350 1950q225 0 225 -225t-225 -225t-225 225t225 225zM-350 1850q-125 0 -125 -125t125 -125t125 125t-125 125z" />
    <glyph glyph-name="uni17C9.r" 
d="M-557 1600v300h90v-300q0 -80 -45 -100q-45 20 -45 100zM-232 1600v300h90v-300q0 -80 -45 -100q-45 20 -45 100z" />
    <glyph glyph-name="uni17CD.r" 
d="M-540 1676q0 -86 105 -86q85 0 85 29q0 31 35 31q65 0 65 -31q0 -119 -180 -119q-210 0 -210 175q0 195 215 195q128 0 195 -69q76 25 130.5 73.5t96.5 110.5l11 2q19 0 38 -19.5t19 -33.5q0 -13 -12 -24q-46 -64 -105 -113q-59 -48 -136 -86q-38 -11 -70 -11
q-74 80 -167 80q-115 0 -115 -104z" />
    <glyph glyph-name="coeng_1789khmer.a" 
d="M-240 -231v-36h-120v36q0 77 -225 77q-127 0 -192.5 -20.5t-112.5 -53.5v-39h-120v36q0 76 -83 76q-65 0 -148 -71q-27 -24 -59 -24t-59 24q-82 71 -146 71q-85 0 -85 -76v-36h-120v36q0 161 205 161q113 0 205 -83q92 83 207 83q139 0 183 -77q125 77 326 77
q344 0 344 -161zM-666 -500q-214 0 -500 62t-476 62q-55 0 -97 -11q89 90 272 90q124 0 410 -63q288 -63 471 -63q217 0 217 40t-252 40q58 52 193 52q188 0 188 -104q0 -105 -426 -105z" />
    <glyph glyph-name="iMark_17CDkhmer.r" 
d="M10 1643v-93h-580q-220 0 -220 200t240 200q122 0 236 -53q50 83 189 83q128 0 195 -69q76 25 130.5 73.5t96.5 110.5l11 2q19 0 38 -19.5t19 -33.5q0 -13 -12 -24q-46 -64 -105 -113q-59 -48 -136 -86q-38 -11 -70 -11q-74 80 -167 80q-74 0 -101 -43q16 -10 31 -22
t30 -25l103 -89q12 8 12 18q0 31 35 31q65 0 65 -31q0 -56 -40 -86zM-690 1750q0 -100 120 -100h430q-200 200 -410 200q-140 0 -140 -100z" />
    <glyph glyph-name="coeng_178Akhmer.n" 
d="M-1364 -370q0 -130 -137 -130q-147 0 -147 140v52q0 238 405 238q404 0 404 -238v-192h-109v192q0 149 -295 149q-296 0 -296 -149v-52q0 -48 38 -48t38 48q0 38 -36 38v82q135 0 135 -130z" />
    <glyph glyph-name="coeng_178Bkhmer.n" 
d="M-1638 -384v147q0 110 99 110h611v77h109v-77h102v-90h-102v-177q0 -106 -109 -106l-296 126l-295 -126q-119 0 -119 116zM-1519 -217v-177l295 114l296 -114v177h-591z" />
    <glyph glyph-name="coeng_178Ckhmer.n" 
d="M-1648 -211q0 49 38 80t89 46t88 15q58 0 202 -70q121 70 184 70q45 0 93 -14.5t81.5 -42t33.5 -67.5q0 -120 -350 -152t-350 -55q0 -32 95 -32q347 0 496 58h109v-125h-109v57q-189 -57 -496 -57q-204 0 -204 99q0 71 350 97t350 107q0 40 -98 48q-82 0 -179 -68
q-147 67 -202 67q-112 0 -112 -30q0 -31 107 -31q0 -74 -78 -74q-138 0 -138 74z" />
    <glyph glyph-name="coeng_17A0khmer.n" 
d="M-1439 -418q125 0 125 97v72q0 179 225 179q230 0 230 -179v-251h-109v251q0 97 -121 97q-125 0 -125 -97v-72q0 -179 -225 -179q-229 0 -229 179v251h109v-251q0 -97 120 -97z" />
    <glyph glyph-name="coeng_178Akhmer.r" 
d="M-514 -370q0 -130 -137 -130q-147 0 -147 140v52q0 238 405 238q404 0 404 -238v-192h-109v192q0 149 -295 149q-296 0 -296 -149v-52q0 -48 38 -48t38 48q0 38 -36 38v82q135 0 135 -130z" />
    <glyph glyph-name="coeng_1797khmer.r" 
d="M-699 -322v-178h-228v106h119v72q0 252 404 252q405 0 405 -252v-178h-109v178q0 163 -296 163q-295 0 -295 -163z" />
    <glyph glyph-name="coeng_1798khmer.r" 
d="M-880 -330v92h738v168h109v-168q163 0 163 -132q0 -130 -126 -130q-146 0 -146 170h-738zM-33 -330q0 -80 37 -80q36 0 36 40t-73 40z" />
    <glyph glyph-name="coeng_1798khmer.b" 
d="M-1120 -736v88h738v162h109v-162q163 0 163 -127q0 -125 -126 -125q-146 0 -146 164h-738zM-273 -736q0 -77 37 -77q36 0 36 38q0 39 -73 39z" />
    <glyph glyph-name="coeng_17A0khmer.b" 
d="M-825 -818q125 0 125 77v52q0 159 225 159q230 0 230 -159v-211h-109v211q0 77 -121 77q-125 0 -125 -77v-52q0 -159 -225 -159q-229 0 -229 159v211h109v-211q0 -77 120 -77z" />
    </font>
</defs>
</svg>
