<?xml version="1.0" standalone="no"?>
<!DOCTYPE svg PUBLIC "-//W3C//DTD SVG 1.1//EN" "http://www.w3.org/Graphics/SVG/1.1/DTD/svg11.dtd" >
<svg xmlns="http://www.w3.org/2000/svg" xmlns:xlink="http://www.w3.org/1999/xlink" version="1.1">
<metadata>
Created by FontForge 20170731 at Tue Dec  7 14:12:26 2021
 By Aleksey,,,
Copyright 2019 The Hanuman Project Authors (https://github.com/danhhong/Hanuman)
</metadata>
<defs>
<font id="Hanuman-Regular" horiz-adv-x="0" >
  <font-face 
    font-family="Hanuman"
    font-weight="400"
    font-stretch="normal"
    units-per-em="2048"
    panose-1="0 0 0 0 0 0 0 0 0 0"
    ascent="1638"
    descent="-410"
    x-height="1082"
    cap-height="1456"
    bbox="-2299 -901 4250 2150"
    underline-thickness="50"
    underline-position="-175"
    unicode-range="U+0020-25CC"
  />
<missing-glyph horiz-adv-x="1024" 
d="M102 -900v3050h820v-3050h-820zM204 -798h616v2846h-616v-2846z" />
    <glyph glyph-name=".notdef" horiz-adv-x="1024" 
d="M102 -900v3050h820v-3050h-820zM204 -798h616v2846h-616v-2846z" />
    <glyph glyph-name=".null" 
 />
    <glyph glyph-name="nonmarkingreturn" horiz-adv-x="682" 
 />
    <glyph glyph-name="space" unicode=" " horiz-adv-x="700" 
 />
    <glyph glyph-name="exclam" unicode="!" horiz-adv-x="483" 
d="M143 478v978h197v-978h-197zM143 0v204h197v-204h-197z" />
    <glyph glyph-name="quotedbl" unicode="&#x22;" horiz-adv-x="770" 
d="M166 1560h158v-223l-61 -282h-97v505zM476 1560h158v-223l-61 -282h-97v505z" />
    <glyph glyph-name="numbersign" unicode="#" horiz-adv-x="1246" 
d="M625 0l80 410h-256l-80 -410h-151l80 410h-235v140h263l68 348h-255v142h283l82 416h151l-82 -416h255l82 416h151l-82 -416h200v-142h-227l-68 -348h220v-140h-248l-80 -410h-151zM477 550h256l68 348h-256z" />
    <glyph glyph-name="dollar" unicode="$" horiz-adv-x="1110" 
d="M626 -17v-191h-156v191q-116 12 -203 64q-89 51 -138 145t-47 232l2 5h190q0 -102 36 -165q35 -63 96 -91.5t136 -28.5q87 0 147 28q126 58 126 204q0 60 -27 108q-55 94 -247 159q-133 41 -225 99q-91 58 -137 140.5t-46 195.5q0 165 95 269t261 125v221h158v-222
q167 -24 259.5 -143.5t92.5 -320.5h-196q0 136 -62.5 220t-174.5 84q-118 0 -177 -61.5t-59 -168.5q0 -64 26 -111q49 -90 254 -160q135 -43 225 -101q89 -58 133 -138t44 -193q0 -172 -103 -274t-283 -121z" />
    <glyph glyph-name="percent" unicode="%" horiz-adv-x="1460" 
d="M379 800q-92 0 -159 40q-143 82 -143 259v77q0 86 37 153q37 68 104.5 108t158.5 40q93 0 160 -39q68 -40 105 -108.5t37 -153.5v-77q0 -85 -37 -152t-104.5 -107t-158.5 -40zM379 922q73 0 113.5 51t40.5 126v77q0 74 -41 126.5t-115 52.5t-114 -52.5t-40 -126.5v-77
q0 -74 40.5 -125.5t115.5 -51.5zM422 110l-109 67l711 1138l109 -67zM1084 -21q-93 0 -160 40q-68 39 -105 107t-37 153v78q0 85 37 152q37 68 104.5 108t158.5 40q92 0 159 -39q68 -40 105.5 -108t37.5 -153v-78q0 -86 -37 -153q-37 -68 -104.5 -107.5t-158.5 -39.5z
M1084 101q74 0 114 51.5t40 126.5v78q0 74 -41 126t-115 52t-114 -52t-40 -126v-78q0 -75 40.5 -126.5t115.5 -51.5z" />
    <glyph glyph-name="ampersand" unicode="&#x26;" horiz-adv-x="1289" 
d="M548 -21q-145 0 -250 53q-106 53 -165 145.5t-59 214.5q0 120 68 210t203 181q6 5 10 6q-78 99 -116 176.5t-38 159.5q0 112 44 192q91 160 322 160q107 0 186 -42q80 -42 125 -112t45 -156q0 -98 -52.5 -169.5t-155.5 -146.5l-109 -80l340 -409q41 65 64 144t23 167h176
q0 -261 -152 -444l185 -224l-2 -5h-229l-85 102q-165 -123 -378 -123zM506 891l138 95q57 38 77.5 82.5t20.5 98.5q0 61 -48.5 108t-126.5 47q-81 0 -125 -56.5t-44 -138.5q0 -53 27 -110.5t81 -125.5zM548 133q145 0 274 95l-361 435l-40 -29q-91 -68 -120.5 -130
t-29.5 -112q0 -113 71 -186t206 -73z" />
    <glyph glyph-name="quotesingle" unicode="'" horiz-adv-x="460" 
d="M166 1560h158v-223l-61 -282h-97v505z" />
    <glyph glyph-name="parenleft" unicode="(" horiz-adv-x="662" 
d="M650 -355l-37 -108h-6q-87 47 -174.5 141.5t-159.5 229.5q-72 136 -115.5 306t-43.5 368v9q0 197 43.5 367t115.5 306t159.5 231t174.5 141l6 -1l37 -116q-69 -54 -130 -140t-108 -203t-74 -263t-27 -320v-13q0 -174 27.5 -320t73.5 -264q47 -117 108 -205t130 -146z" />
    <glyph glyph-name="parenright" unicode=")" horiz-adv-x="654" 
d="M54 -463h-6l-37 108q68 53 129 140t108 205q47 119 74.5 267.5t27.5 322.5v13q0 171 -28.5 318t-76.5 266t-108.5 207.5t-125.5 143.5l37 108h6q87 -46 174 -141t160 -231q72 -136 115.5 -306t43.5 -367v-9q0 -198 -43.5 -368t-115.5 -306q-73 -135 -160 -229.5
t-174 -141.5z" />
    <glyph glyph-name="asterisk" unicode="*" horiz-adv-x="958" 
d="M845 1218l48 -156l-302 -89l193 -270l-131 -96l-181 287l-176 -279l-132 93l198 274l-296 89l49 154l296 -111l-10 342h161l-10 -348z" />
    <glyph glyph-name="plus" unicode="+" horiz-adv-x="1145" 
d="M1071 783v-178h-400v-459h-197v459h-401v178h401v423h197v-423h400z" />
    <glyph glyph-name="comma" unicode="," horiz-adv-x="404" 
d="M134 -311l-111 74q47 72 71 147t24 159v152h197v-149q0 -98 -49 -205t-132 -178z" />
    <glyph glyph-name="hyphen" unicode="-" horiz-adv-x="797" 
d="M154 538v154h489v-154h-489z" />
    <glyph glyph-name="period" unicode="." horiz-adv-x="493" 
d="M145 0v202h197v-202h-197z" />
    <glyph glyph-name="slash" unicode="/" horiz-adv-x="824" 
d="M0 -125l608 1581h166l-607 -1581h-167z" />
    <glyph glyph-name="zero" unicode="0" horiz-adv-x="1168" 
d="M585 -21q-214 0 -339 149t-125 427v345q0 278 124 427.5t338 149.5q215 0 340 -149.5t125 -427.5v-345q0 -279 -124 -427.5t-339 -148.5zM585 133q266 0 266 382v427q0 380 -268 380q-129 0 -197 -95.5t-68 -284.5v-427q0 -189 69 -285.5t198 -96.5z" />
    <glyph glyph-name="one" unicode="1" horiz-adv-x="844" 
d="M543 1456v-1302l224 -28v-126h-646v126l225 28v1091l-229 -4v123z" />
    <glyph glyph-name="two" unicode="2" horiz-adv-x="1131" 
d="M873 321h167v-321h-943v135l477 530q43 47 76 88t57 75q48 68 67 122.5t19 113.5q0 109 -66 183.5t-189 74.5q-128 0 -199.5 -77t-71.5 -218h-189l-2 6q-3 126 53 227t162.5 159t253.5 58q138 0 238 -52q99 -52 153 -143.5t54 -209.5q0 -81 -31 -159q-31 -79 -92 -162
t-146 -175l-383 -417l2 -5h517z" />
    <glyph glyph-name="three" unicode="3" horiz-adv-x="1106" 
d="M530 -21q-135 0 -237 49q-104 48 -162.5 137.5t-55.5 212.5l3 6h188q0 -77 32 -133q68 -118 232 -118q125 0 196 68t71 201q0 135 -63 199t-199 64h-172v154h172q88 0 140 30q53 29 76.5 84.5t23.5 133.5q0 255 -245 255q-77 0 -134 -30q-120 -65 -120 -217h-189l-2 6
q-3 109 53 200q56 90 157 143t235 53q202 0 322 -107.5t120 -306.5q0 -90 -54.5 -179.5t-163.5 -136.5q131 -43 185.5 -135t54.5 -206q0 -133 -59 -228q-60 -96 -165 -147.5t-240 -51.5z" />
    <glyph glyph-name="four" unicode="4" horiz-adv-x="1187" 
d="M913 336v-182l163 -28v-126h-522v126l163 28v182h-654v111l642 1009h208v-966h201v-154h-201zM717 490v685l-6 2l-20 -53l-418 -634h444z" />
    <glyph glyph-name="five" unicode="5" horiz-adv-x="1081" 
d="M522 -21q-122 0 -220 45q-97 45 -152.5 133.5t-52.5 219.5l2 6h178q0 -118 68.5 -184t176.5 -66q125 0 194 88t69 241q0 141 -69.5 230.5t-192.5 89.5q-116 0 -168.5 -35t-76.5 -107l-164 17l84 799h769v-288h-148l-19 113h-435l-47 -409q31 23 65 41q35 17 76.5 28
t90.5 12q132 1 231 -58q97 -60 149 -170.5t52 -260.5q0 -147 -52 -255q-52 -109 -155 -169.5t-253 -60.5z" />
    <glyph glyph-name="six" unicode="6" horiz-adv-x="1144" 
d="M614 -21q-143 0 -253 70q-112 69 -176 202t-64 322v196q0 233 70 389q69 158 191.5 238.5t281.5 80.5q74 0 147.5 -17t121.5 -43l-38 -147q-47 23 -103 37.5t-128 14.5q-153 0 -243.5 -115.5t-96.5 -348.5l4 -4q56 52 137 82.5t175 30.5q131 0 226 -61
q96 -61 148.5 -169.5t52.5 -246.5q0 -149 -56 -266q-56 -115 -158 -180t-239 -65zM614 133q80 0 138 47q57 47 87.5 128t30.5 182q0 144 -72.5 237t-200.5 93q-67 0 -121 -18q-107 -37 -159 -131v-117q0 -203 84.5 -312t212.5 -109z" />
    <glyph glyph-name="seven" unicode="7" horiz-adv-x="1128" 
d="M570 157l-16 -157h-197l16 157q29 233 91 425q63 195 163 371t240 348h-608l-15 -167h-168v322h984v-155q-132 -157 -217.5 -291t-138.5 -265q-52 -130 -82.5 -272.5t-51.5 -315.5z" />
    <glyph glyph-name="eight" unicode="8" horiz-adv-x="1131" 
d="M566 -21q-142 0 -249 48q-106 47 -165.5 139.5t-59.5 227.5q0 123 74 217t200 138q-109 42 -171 127.5t-62 199.5q0 128 54 218q54 89 151 136t226 47q127 0 226 -47q98 -47 153.5 -136.5t55.5 -217.5q0 -114 -64 -199.5t-173 -127.5q126 -44 201.5 -138t75.5 -217
q0 -135 -60 -227q-60 -93 -166.5 -140.5t-246.5 -47.5zM566 827q70 0 123 31q53 30 83 85t30 129q0 73 -31 129t-84.5 88.5t-122.5 32.5q-105 0 -169.5 -68.5t-64.5 -181.5q0 -111 65 -178t171 -67zM566 133q81 0 145 32q62 32 97 91.5t35 141.5q0 81 -36 142q-36 62 -99 97
t-144 35t-143 -35t-97 -96.5t-35 -142.5q0 -124 75.5 -194.5t201.5 -70.5z" />
    <glyph glyph-name="nine" unicode="9" horiz-adv-x="1154" 
d="M511 -21q-76 0 -155.5 14.5t-142.5 44.5l30 149q61 -29 124.5 -41.5t143.5 -12.5q142 0 224.5 108.5t85.5 349.5l-4 5q-40 -67 -112 -103t-162 -36q-141 0 -245 59q-103 59 -158.5 171t-55.5 271q0 153 61 269q60 117 162.5 183.5t227.5 66.5q153 0 262 -63
q110 -64 169.5 -189.5t59.5 -311.5v-263q0 -229 -64 -376q-64 -149 -179.5 -222t-271.5 -73zM543 612q109 0 181.5 47t104.5 120v154q0 389 -288 389q-74 0 -132 -46q-59 -46 -93.5 -128.5t-34.5 -189.5q0 -104 32 -182t90.5 -121t139.5 -43z" />
    <glyph glyph-name="colon" unicode=":" horiz-adv-x="419" 
d="M145 880v202h197v-202h-197zM145 0v202h197v-202h-197z" />
    <glyph glyph-name="semicolon" unicode=";" horiz-adv-x="424" 
d="M146 880v202h197v-202h-197zM164 -311l-111 74q47 72 71 147t24 159v152h197v-149q0 -98 -49 -205t-132 -178z" />
    <glyph glyph-name="less" unicode="&#x3c;" horiz-adv-x="1017" 
d="M248 561v-6l85 -19l559 -228v-201l-816 379v149l816 378v-201l-559 -233z" />
    <glyph glyph-name="equal" unicode="=" horiz-adv-x="1127" 
d="M147 823v164h834v-164h-834zM147 407v164h834v-164h-834z" />
    <glyph glyph-name="greater" unicode="&#x3e;" horiz-adv-x="1060" 
d="M125 798v195l855 -378v-149l-855 -379v196l598 238l84 17v6l-84 20z" />
    <glyph glyph-name="question" unicode="?" horiz-adv-x="953" 
d="M557 410h-197q0 73 5 120t20 81q14 34 44 68t81 80q73 67 111 119q39 55 55.5 107t16.5 106q0 106 -56.5 163t-161.5 57q-91 0 -154.5 -49.5t-63.5 -145.5h-188l-3 6q-2 107 51 187t145.5 124t212.5 44q197 0 306 -100.5t109 -280.5q0 -87 -28 -156q-28 -70 -85.5 -141
t-143.5 -158q-34 -35 -51 -65q-16 -30 -20.5 -67.5t-4.5 -98.5zM358 0v208h205v-208h-205z" />
    <glyph glyph-name="at" unicode="@" horiz-adv-x="1821" 
d="M863 -453q-252 0 -431 113q-178 113 -268.5 321.5t-77.5 496.5q14 284 121 497q108 215 295 335.5t435 120.5q253 0 429 -113t262.5 -321.5t75.5 -494.5q-6 -142 -57 -261q-51 -118 -149.5 -190t-245.5 -72q-73 0 -126.5 41.5t-76.5 116.5q-99 -158 -289 -158
q-125 0 -194 120.5t-51 316.5q15 174 73 302q57 128 145.5 199t197.5 71q70 0 120 -11.5t94 -35t95 -59.5l2 -4l-51 -585q-6 -73 6 -115q12 -43 37.5 -60.5t59.5 -17.5q123 0 196.5 113.5t81.5 288.5q17 382 -143.5 595.5t-495.5 213.5q-206 0 -359 -105t-241 -293t-98 -435
q-12 -251 60 -433t217.5 -281t354.5 -99q88 0 178 21.5t152 56.5l39 -107q-68 -42 -171.5 -65.5t-201.5 -23.5zM820 126q63 0 116.5 25t97.5 88q-1 12 -0.5 25t2.5 29l47 538q-26 12 -54.5 19t-59.5 7q-125 0 -191 -109t-87 -332q-11 -141 22 -215.5t107 -74.5z" />
    <glyph glyph-name="A" unicode="A" horiz-adv-x="1533" 
d="M476 413l-99 -268l110 -19v-126h-417v126l108 15l509 1315h169l500 -1315l107 -15v-126h-418v126l110 19l-96 268h-583zM785 1170l-12 33h-6l-12 -33l-218 -592h462z" />
    <glyph glyph-name="B" unicode="B" horiz-adv-x="1322" 
d="M771 0h-690v126l163 28v1147l-163 28v127h628q228 0 356.5 -98.5t128.5 -295.5q0 -97 -61.5 -173.5t-162.5 -113.5q89 -18 151 -70q132 -110 132 -294q0 -200 -130 -305.5t-352 -105.5zM709 1301h-268v-464h319q106 0 171.5 61.5t65.5 167.5q0 118 -74 176.5t-214 58.5z
M801 683h-360v-529h330q135 0 209.5 66.5t74.5 188.5q0 86 -27 147q-28 61 -84.5 94t-142.5 33z" />
    <glyph glyph-name="C" unicode="C" horiz-adv-x="1290" 
d="M739 -21q-219 0 -365 96q-147 96 -220.5 263t-73.5 379v21q0 213 77 381q77 167 221 262.5t344 95.5q141 0 258 -44t194 -112v-314h-157l-21 230q-30 25 -73 42q-85 35 -202 35q-144 0 -242 -73q-99 -73 -150 -202.5t-51 -298.5v-23q0 -184 55 -312q111 -266 413 -266
q70 0 137 17t111 44l22 203h154v-316q-82 -51 -196 -79.5t-235 -28.5z" />
    <glyph glyph-name="D" unicode="D" horiz-adv-x="1356" 
d="M661 0h-580v126l163 28v1147l-163 28v127h570q192 0 337 -92q143 -92 223 -253t80 -368v-31q0 -201 -77 -363t-218.5 -255.5t-334.5 -93.5zM651 1301h-210v-1147h210q139 0 237 76q99 75 152.5 201.5t53.5 280.5v33q0 158 -53 285q-54 125 -153 198t-237 73z" />
    <glyph glyph-name="E" unicode="E" horiz-adv-x="1306" 
d="M1011 148l22 201h157v-349h-1109v126l163 28v1147l-163 28v127h1078v-350h-158l-22 198h-538v-474h537v-155h-537v-527h570z" />
    <glyph glyph-name="F" unicode="F" horiz-adv-x="1256" 
d="M441 644v-490l163 -28v-126h-523v126l163 28v1147l-163 28v127h1095v-350h-158l-22 197h-555v-504h533v-155h-533z" />
    <glyph glyph-name="G" unicode="G" horiz-adv-x="1346" 
d="M738 -21q-202 0 -350 94q-148 93 -228 259t-80 384v24q0 220 81 386q80 165 220 258t318 93q170 0 288.5 -39t202.5 -105v-294h-162l-21 211q-98 65 -288 65q-124 0 -225 -72q-100 -72 -158 -200.5t-58 -300.5v-26q0 -174 54 -303q53 -130 156 -201.5t250 -71.5
q100 0 169 17.5t122 45.5v342l-279 10v145h476v-564q-63 -59 -180.5 -108t-307.5 -49z" />
    <glyph glyph-name="H" unicode="H" horiz-adv-x="1578" 
d="M441 643v-489l163 -28v-126h-523v126l163 28v1147l-163 28v127h523v-127l-163 -28v-503h696v503l-163 28v127h523v-127l-163 -28v-1147l163 -28v-126h-523v126l163 28v489h-696z" />
    <glyph glyph-name="I" unicode="I" horiz-adv-x="685" 
d="M441 1301v-1147l163 -28v-126h-523v126l163 28v1147l-163 28v127h523v-127z" />
    <glyph glyph-name="J" unicode="J" horiz-adv-x="1169" 
d="M503 -21q-121 0 -219 48q-99 48 -158.5 145t-65.5 243l2 6h189q4 -147 67.5 -216t181.5 -69q84 0 136 36q53 35 78.5 97.5t25.5 143.5v888l-194 26v129h554v-127l-163 -28v-888q0 -131 -49 -228q-49 -98 -146 -152t-239 -54z" />
    <glyph glyph-name="K" unicode="K" horiz-adv-x="1501" 
d="M1375 1329l-137 -25l-445 -484l500 -669l134 -25v-126h-486v126l120 14l-1 1l-391 543l-228 -248v-282l163 -28v-126h-523v126l163 28v1147l-163 28v127h523v-127l-163 -28v-626l572 635l4 5l-109 14v127h467v-127z" />
    <glyph glyph-name="L" unicode="L" horiz-adv-x="1210" 
d="M956 151l23 230h151v-381h-1049v126l163 28v1147l-163 28v127h523v-127l-163 -28v-1150h515z" />
    <glyph glyph-name="M" unicode="M" horiz-adv-x="1982" 
d="M441 576v-422l176 -28v-126h-523v126l163 28v1147l-163 28v127h426l469 -1105h6l454 1105h439v-127l-163 -28v-1147l163 -28v-126h-523v126l172 28v1033l-5 1l-473 -1136h-131l-489 1134l-5 -1z" />
    <glyph glyph-name="N" unicode="N" horiz-adv-x="1592" 
d="M427 1139v-985l179 -28v-126h-523v126l163 28v1147l-163 28v127h362l714 -1135l6 2v978l-179 28v127h523v-127l-163 -28v-1301h-180l-733 1141z" />
    <glyph glyph-name="O" unicode="O" horiz-adv-x="1351" 
d="M675 -21q-141 0 -253 54t-190 153q-162 202 -162 531v21q0 328 162 532q78 99 190 153t253 54q149 0 262.5 -54t189.5 -153q77 -99 115.5 -234.5t38.5 -297.5v-21q0 -163 -38.5 -298t-115.5 -233q-76 -99 -189.5 -153t-262.5 -54zM675 143q145 0 235 72q89 72 131 201.5
t42 300.5v23q0 170 -42 299q-43 128 -133 200.5t-233 72.5q-131 0 -222 -73t-138 -201.5t-47 -297.5v-23q0 -169 47 -299t138 -202.5t222 -72.5z" />
    <glyph glyph-name="P" unicode="P" horiz-adv-x="1297" 
d="M441 154l163 -28v-126h-523v126l163 28v1147l-163 28v127h669q157 0 266 -54q226 -112 226 -382q0 -133 -58 -230q-58 -98 -168 -152t-266 -54h-309v-430zM750 1301h-309v-563h309q148 0 221.5 79.5t73.5 200.5t-73.5 202t-221.5 81z" />
    <glyph glyph-name="Q" unicode="Q" horiz-adv-x="1376" 
d="M1056 105l292 -203l-111 -147l-352 258q-50 -16 -103 -25t-108 -9q-140 0 -252 54t-190 153q-162 204 -162 531v21q0 162 41.5 297t119.5 235q78 99 190 153t253 54q148 0 261.5 -54t189.5 -153q154 -201 154 -532v-21q0 -197 -47 -355.5t-176 -256.5zM674 143
q141 0 231 72t133.5 201.5t43.5 300.5v23q0 170 -42 299q-43 128 -133 200.5t-233 72.5q-130 0 -221 -73t-138.5 -201.5t-47.5 -297.5v-23q0 -169 47 -299t137.5 -202.5t222.5 -72.5z" />
    <glyph glyph-name="R" unicode="R" horiz-adv-x="1385" 
d="M938 679l246 -532l101 -18v-129h-243l-292 656l-309 -6v-496l163 -28v-126h-523v126l163 28v1147l-163 28v126h649q158 0 269 -47q223 -98 223 -358q0 -129 -55 -215q-73 -115 -229 -156zM441 1301v-496h269q165 0 240 63t75 184q0 115 -72 182t-223 67h-289z" />
    <glyph glyph-name="S" unicode="S" horiz-adv-x="1206" 
d="M606 -21q-133 0 -256 39t-235 120v311h153l33 -229q65 -40 141 -62t164 -22q101 0 170 31q143 62 143 210q0 66 -32 118q-32 51 -105.5 89.5t-200.5 67.5q-146 34 -253 94q-211 119 -211 333q0 115 61 204q60 90 168 142t252 52q153 0 270.5 -46.5t193.5 -112.5v-291
h-153l-33 208q-45 36 -112 60t-166 24q-82 0 -148 -29q-64 -30 -100 -83t-36 -125q0 -63 33 -110q60 -89 302 -149q467 -116 467 -444q0 -117 -63 -207q-63 -91 -177.5 -142t-269.5 -51z" />
    <glyph glyph-name="T" unicode="T" horiz-adv-x="1406" 
d="M800 1307v-1153l163 -28v-126h-523v126l163 28v1153h-330l-29 -202h-148v351h1210v-351h-146l-30 202h-330z" />
    <glyph glyph-name="U" unicode="U" horiz-adv-x="1522" 
d="M755 -21q-148 0 -268 59q-118 59 -186 168.5t-68 262.5v832l-163 28v127h523v-127l-163 -28v-832q0 -109 42 -183q41 -74 115 -111.5t171 -37.5q99 0 174 37t117.5 111t42.5 184v832l-163 28v127h523v-127l-163 -28v-832q0 -157 -66 -267q-67 -109 -187 -166t-281 -57z
" />
    <glyph glyph-name="V" unicode="V" horiz-adv-x="1508" 
d="M1443 1456v-127l-117 -16l-488 -1313h-169l-488 1313l-116 16v127h460v-127l-133 -21l326 -926l34 -115h6l36 115l338 927l-148 20v127h459z" />
    <glyph glyph-name="W" unicode="W" horiz-adv-x="2129" 
d="M1073 1155h-6l-39 -147l-317 -1008h-176l-340 1314l-123 15v127h472v-127l-151 -23l190 -801l44 -187l6 -1l58 187l293 952h173l296 -952l57 -198h6l52 198l188 802l-163 23v127h464v-127l-115 -15l-326 -1314h-187l-316 1008z" />
    <glyph glyph-name="X" unicode="X" horiz-adv-x="1529" 
d="M767 612l-344 -473l133 -13v-126h-476v126l126 22l451 591l-418 568l-127 22v127h472v-127l-137 -13l322 -449l306 449l-140 13v127h475v-127l-133 -22l-395 -568l438 -591l129 -22v-126h-478v126l141 13z" />
    <glyph glyph-name="Y" unicode="Y" horiz-adv-x="1461" 
d="M829 545v-391l163 -28v-126h-522v126l163 28v376l-448 780l-120 19v127h502v-127l-166 -19l330 -611l1 2l20 37l324 572l-172 19v127h492v-127l-127 -19z" />
    <glyph glyph-name="Z" unicode="Z" horiz-adv-x="1197" 
d="M932 153l18 207h157v-360h-1017v149l757 1153h-566l-18 -188h-158v342h969v-145l-761 -1158h619z" />
    <glyph glyph-name="bracketleft" unicode="[" horiz-adv-x="573" 
d="M354 1509v-1666h187v-155h-384v1976h384v-155h-187z" />
    <glyph glyph-name="backslash" unicode="\" horiz-adv-x="841" 
d="M644 -125l-608 1581h186l608 -1581h-186z" />
    <glyph glyph-name="bracketright" unicode="]" horiz-adv-x="552" 
d="M23 1509v155h385v-1976h-385v155h188v1666h-188z" />
    <glyph glyph-name="asciicircum" unicode="^" horiz-adv-x="864" 
d="M438 1218h-6l-16 -70l-163 -419h-182l299 727h134l298 -727h-182l-166 419z" />
    <glyph glyph-name="underscore" unicode="_" horiz-adv-x="1168" 
d="M119 -154v154h922v-154h-922z" />
    <glyph glyph-name="grave" unicode="`" horiz-adv-x="496" 
d="M309 1288l-269 266l2 6h230l184 -272h-147z" />
    <glyph glyph-name="a" unicode="a" horiz-adv-x="1132" 
d="M424 -21q-169 0 -257 82.5t-88 232.5q0 104 57 180q56 77 163 119t256 42h193v106q0 98 -59.5 152t-167.5 54q-68 0 -118 -16.5t-91 -45.5l-21 -151h-152v248q147 120 385 120q197 0 309 -94t112 -269v-521q0 -21 0.5 -41t2.5 -40l105 -11v-126h-283q-17 82 -21 149
q-57 -73 -142.5 -121.5t-182.5 -48.5zM453 144q98 0 179 47t116 113v196h-200q-136 0 -204 -65t-68 -145q0 -146 177 -146z" />
    <glyph glyph-name="b" unicode="b" horiz-adv-x="1145" 
d="M649 -21q-209 0 -314 160l-18 -139h-170v1405l-163 28v127h360v-606q51 72 126.5 110t176.5 38q135 0 229 -72q95 -73 145 -204t50 -305v-21q0 -155 -50 -273q-51 -117 -145.5 -182.5t-226.5 -65.5zM599 139q139 0 206.5 99t67.5 262v21q0 126 -30 220q-30 95 -91 148
t-155 53q-91 0 -153.5 -44t-99.5 -118v-478q37 -75 100.5 -119t154.5 -44z" />
    <glyph glyph-name="c" unicode="c" horiz-adv-x="1067" 
d="M563 -21q-146 0 -256 69q-109 68 -169 190t-60 282v42q0 156 58 276q58 122 167 193t260 71q131 0 229.5 -43t165.5 -118l5 -260h-154l-34 189q-34 35 -85 56t-120 21q-89 0 -154 -52q-67 -52 -104 -139t-37 -194v-42q0 -117 35 -205q35 -87 99 -134.5t153 -47.5
q100 0 166 55t81 151h177l2 -6q-4 -91 -55 -174q-50 -81 -142.5 -130.5t-227.5 -49.5z" />
    <glyph glyph-name="d" unicode="d" horiz-adv-x="1218" 
d="M499 -21q-131 0 -226 66q-94 65 -144.5 182t-50.5 273v21q0 173 50 305q50 131 145 203.5t228 72.5q96 0 169.5 -35.5t125.5 -102.5v441l-163 28v127h360v-1406l163 -28v-126h-334l-16 129q-108 -150 -307 -150zM549 139q88 0 148 40t99 113v502q-38 68 -99 108t-146 40
q-93 0 -155 -53q-61 -54 -91 -148.5t-30 -219.5v-21q0 -163 67 -262t207 -99z" />
    <glyph glyph-name="e" unicode="e" horiz-adv-x="1059" 
d="M567 -21q-150 0 -261 69q-111 68 -171.5 190t-60.5 282v44q0 155 64 276q63 122 168.5 192t230.5 70q146 0 245 -60q98 -60 148 -168.5t50 -255.5v-123h-702l-3 -5q1 -102 37 -184q35 -81 99.5 -127t155.5 -46q100 0 175.5 28.5t130.5 78.5l77 -128q-58 -56 -153.5 -94.5
t-229.5 -38.5zM282 654l2 -5h499v26q0 79 -27 140q-28 62 -82.5 97t-136.5 35q-65 0 -120 -38q-112 -81 -135 -255z" />
    <glyph glyph-name="f" unicode="f" horiz-adv-x="725" 
d="M430 154l186 -28v-126h-546v126l163 28v782h-169v146h169v137q0 173 90.5 267.5t252.5 94.5q34 0 73.5 -5.5t81.5 -15.5l-24 -150q-18 4 -48.5 7t-57.5 3q-171 0 -171 -201v-137h236v-146h-236v-782z" />
    <glyph glyph-name="g" unicode="g" horiz-adv-x="1157" 
d="M1133 1082v-126l-134 -29v-913q0 -141 -52 -241q-52 -101 -153 -155.5t-245 -54.5q-78 0 -169 21.5t-160 58.5l51 153q55 -29 130 -48t146 -19q132 0 193.5 74t61.5 211v103q-108 -138 -297 -138q-132 0 -228 66q-96 65 -147.5 182.5t-51.5 272.5v21q0 176 52 305
q51 131 147 203.5t230 72.5q201 0 308 -156l18 136h300zM802 294v498q-38 69 -99 109.5t-147 40.5q-94 0 -156 -54q-63 -54 -94 -148.5t-31 -218.5v-21q0 -163 69 -262t210 -99q89 0 149 40.5t99 114.5z" />
    <glyph glyph-name="h" unicode="h" horiz-adv-x="1315" 
d="M409 154l163 -28v-126h-523v126l163 28v1251l-163 28v127h360v-622q56 78 137 121t180 43q174 0 270 -104t96 -320v-524l163 -28v-126h-523v126l163 28v526q0 262 -229 262q-81 0 -147.5 -38.5t-109.5 -104.5v-645z" />
    <glyph glyph-name="i" unicode="i" horiz-adv-x="652" 
d="M220 1349v211h207v-211h-207zM427 1082v-928l163 -28v-126h-523v126l163 28v773l-163 28v127h360z" />
    <glyph glyph-name="j" unicode="j" horiz-adv-x="525" 
d="M174 1349v211h207v-211h-207zM56 -437q-32 0 -58 4.5t-54 13.5l13 150q14 -5 47.5 -9t51.5 -4q59 0 93.5 51.5t34.5 141.5v1016l-163 28v127h360v-1171q0 -167 -86 -257.5t-239 -90.5z" />
    <glyph glyph-name="k" unicode="k" horiz-adv-x="1287" 
d="M1162 955l-139 -26l-304 -306l373 -473l156 -24v-126h-489v126l110 13l-3 4l-274 353l-168 -169v-173l163 -28v-126h-523v126l163 28v1251l-163 28v127h360v-1005l383 381l5 6l-116 13v127h466v-127z" />
    <glyph glyph-name="l" unicode="l" horiz-adv-x="653" 
d="M424 1560v-1406l163 -28v-126h-523v126l163 28v1251l-163 28v127h360z" />
    <glyph glyph-name="m" unicode="m" horiz-adv-x="1977" 
d="M434 154l163 -28v-126h-523v126l163 28v773l-163 28v127h340l13 -141q52 77 134 119t190 42t185.5 -50t116.5 -150q51 92 135 146t196 54q166 0 262 -113.5t96 -341.5v-493l163 -28v-126h-524v126l163 28v495q0 160 -55 226.5t-163 66.5q-103 0 -165.5 -72.5
t-72.5 -182.5v-533l163 -28v-126h-523v126l163 28v495q0 152 -56.5 222.5t-163.5 70.5q-90 0 -148 -37t-89 -104v-647z" />
    <glyph glyph-name="n" unicode="n" horiz-adv-x="1343" 
d="M434 154l163 -28v-126h-523v126l163 28v773l-163 28v127h339l14 -161q54 86 135.5 133.5t185.5 47.5q175 0 271 -102.5t96 -316.5v-529l163 -28v-126h-523v126l163 28v525q0 143 -56.5 203t-172.5 60q-85 0 -150.5 -41t-104.5 -112v-635z" />
    <glyph glyph-name="o" unicode="o" horiz-adv-x="1124" 
d="M563 -21q-149 0 -258 71t-168 195t-59 284v22q0 159 59 285q59 125 167.5 195.5t256.5 70.5q149 0 259 -71q108 -71 167 -195t59 -285v-22q0 -159 -59 -285q-59 -124 -167 -194.5t-257 -70.5zM563 133q94 0 158 52q63 51 95.5 140.5t32.5 203.5v22q0 113 -32 204
q-33 89 -97 140.5t-159 51.5q-93 0 -158 -51q-64 -52 -96 -141.5t-32 -203.5v-22q0 -113 32 -203t96.5 -141.5t159.5 -51.5z" />
    <glyph glyph-name="p" unicode="p" horiz-adv-x="1197" 
d="M394 -261l172 -28v-127h-522v127l153 28v1188l-163 28v127h332l18 -132q111 152 311 152q135 0 229 -72q95 -73 145 -203.5t50 -305.5v-21q0 -155 -50 -273q-51 -117 -145 -182.5t-226 -65.5q-197 0 -304 133v-373zM637 133q140 0 212 102t72 265v21q0 123 -32 219
q-32 95 -95.5 148.5t-158.5 53.5q-84 0 -144 -38t-97 -104v-527q37 -67 96.5 -103.5t146.5 -36.5z" />
    <glyph glyph-name="q" unicode="q" horiz-adv-x="1139" 
d="M982 -261l153 -28v-127h-513v127l163 28v363q-105 -123 -286 -123q-131 0 -226 66q-94 65 -144.5 182t-50.5 273v21q0 173 50 305q50 131 145 203.5t228 72.5q190 0 295 -139l16 119h170v-1343zM549 133q82 0 139.5 36t96.5 102v543q-39 61 -97 97t-137 36
q-93 0 -155 -54q-61 -55 -91 -151t-30 -221v-21q0 -164 67 -265.5t207 -101.5z" />
    <glyph glyph-name="r" unicode="r" horiz-adv-x="854" 
d="M432 154l163 -28v-126h-523v126l163 28v773l-163 28v127h339l17 -138l2 -19q46 83 113.5 130t154.5 47q31 0 63.5 -5.5t46.5 -10.5l-26 -183l-137 8q-78 5 -131 -35.5t-82 -108.5v-613z" />
    <glyph glyph-name="s" unicode="s" horiz-adv-x="1022" 
d="M512 -21q-109 0 -204 22t-202 68l-2 257h149l37 -155q106 -44 222 -44q120 0 172 46t52 114q0 64 -52.5 108.5t-190.5 75.5q-196 45 -288.5 120.5t-92.5 201.5q0 88 51 158q51 69 142 110t212 41q123 0 210.5 -28t152.5 -75l10 -247h-148l-32 144q-73 54 -193 54
q-92 0 -149.5 -43t-57.5 -108q0 -37 17 -66q18 -31 72 -54t129 -41q226 -53 315.5 -135t89.5 -202q0 -137 -101.5 -229.5t-319.5 -92.5z" />
    <glyph glyph-name="t" unicode="t" horiz-adv-x="730" 
d="M456 -17q-120 0 -190.5 70.5t-70.5 225.5v657h-171v146h171v261h197v-261h235v-146h-235v-657q0 -78 31 -115t83 -37q35 0 78 6.5t67 11.5l27 -129q-43 -13 -105.5 -23t-116.5 -10z" />
    <glyph glyph-name="u" unicode="u" horiz-adv-x="1245" 
d="M550 -21q-176 0 -275 113t-99 352v483l-124 28v127h321v-640q0 -173 51 -238t159 -65q105 0 173.5 42.5t103.5 120.5v625l-145 28v127h342v-928l124 -28v-126h-301l-13 160q-51 -87 -131.5 -134t-185.5 -47z" />
    <glyph glyph-name="v" unicode="v" horiz-adv-x="1206" 
d="M1176 1082v-127l-114 -15l-366 -940h-173l-385 940l-112 15v127h454v-127l-141 -20l240 -616l28 -87h6l32 87l223 616l-145 20v127h453z" />
    <glyph glyph-name="w" unicode="w" horiz-adv-x="1823" 
d="M919 824l-6 -1l-51 -173l-235 -650h-169l-285 941l-121 14v127h447v-127l-133 -22l149 -539l34 -128h6l44 128l235 688h166l224 -686l48 -152h6l47 152l151 538l-136 21v127h437v-127l-120 -17l-280 -938h-187l-219 650z" />
    <glyph glyph-name="x" unicode="x" horiz-adv-x="1203" 
d="M597 426l-230 -289l117 -11v-126h-442v126l120 23l323 398l-316 385l-107 23v127h424v-127l-108 -12l222 -276l216 277l-116 11v127h417v-127l-110 -23l-293 -382l337 -401l112 -23v-126h-459v126l130 11z" />
    <glyph glyph-name="y" unicode="y" horiz-adv-x="1192" 
d="M309 -437q-23 0 -60 5.5t-57 10.5l20 155q17 -2 47 -3.5t41 -1.5q63 0 102.5 48t73.5 131l47 114l-383 917l-116 16v127h454v-127l-131 -20l211 -541l51 -141h6l250 682l-138 20v127h445v-127l-112 -16l-426 -1105q-30 -79 -72 -140q-43 -61 -104.5 -96t-148.5 -35z" />
    <glyph glyph-name="z" unicode="z" horiz-adv-x="1032" 
d="M787 150l26 183h147v-333h-872v138l589 792h-403l-25 -182h-148v334h820v-134l-595 -798h461z" />
    <glyph glyph-name="braceleft" unicode="{" horiz-adv-x="701" 
d="M671 -246l-40 -118q-195 55 -277.5 175t-82.5 290v205q0 112 -51 174.5t-157 62.5v147q106 0 157 61.5t51 174.5v206q0 171 82.5 290.5t277.5 174.5l40 -117q-110 -35 -156.5 -125.5t-46.5 -222.5v-206q0 -105 -42 -185t-127 -125q85 -46 127 -126.5t42 -183.5v-205
q0 -132 46.5 -221.5t156.5 -125.5z" />
    <glyph glyph-name="bar" unicode="|" horiz-adv-x="451" 
d="M150 -270v1726h157v-1726h-157z" />
    <glyph glyph-name="braceright" unicode="}" horiz-adv-x="701" 
d="M67 -364l-40 118q108 36 155 125.5t47 221.5v205q0 107 45 187t139 123q-94 41 -139 121t-45 189v206q0 132 -47 222.5t-155 125.5l40 117q194 -55 276.5 -174.5t82.5 -290.5v-206q0 -113 51 -174.5t158 -61.5v-147q-107 0 -158 -62.5t-51 -174.5v-205q0 -170 -82.5 -290
t-276.5 -175z" />
    <glyph glyph-name="asciitilde" unicode="~" horiz-adv-x="1386" 
d="M952 401q-89 0 -162.5 33t-158.5 107q-60 48 -109 72t-98 24q-67 0 -114.5 -53t-47.5 -128l-141 18q0 91 39 166q39 74 107.5 118.5t156.5 44.5t163 -34.5t160 -104.5q59 -51 106.5 -74t98.5 -23q66 0 114.5 57t48.5 134l142 -18q0 -92 -40 -168q-40 -78 -109 -124.5
t-156 -46.5z" />
    <glyph glyph-name="uni00A0" unicode="&#xa0;" horiz-adv-x="700" 
 />
    <glyph glyph-name="guillemotleft" unicode="&#xab;" horiz-adv-x="935" 
d="M353 914h148l-255 -399l255 -398h-148l-295 389v19zM687 914h148l-255 -399l255 -398h-148l-295 389v19z" />
    <glyph glyph-name="guillemotright" unicode="&#xbb;" horiz-adv-x="938" 
d="M253 949l295 -389v-19l-295 -389h-148l254 398l-254 399h148zM598 949l295 -389v-19l-295 -389h-148l254 398l-254 399h148z" />
    <glyph glyph-name="uni1780" unicode="&#x1780;" horiz-adv-x="1300" 
d="M150 1067q0 41 60 89l61 47q119 97 150 97q35 0 121 -62q88 -62 115 -62q22 0 105 62q82 62 114 62q34 0 131 -72q95 -73 113 -73q16 0 30 14q-33 -130 -114 -130q-40 0 -112 48q-70 48 -102 48q-38 0 -103 -48q-66 -48 -112 -48q-66 0 -135 48t-103 48q-40 0 -60.5 -19
t-20.5 -47q0 -38 128 -64l-143 -61q-123 18 -123 123zM380 650v-650h-180v650q0 150 100 225q101 75 350 75q250 0 350 -75t100 -225v-650h-180v650q0 100 -62 150q-64 50 -208 50q-145 0 -207 -50q-63 -49 -63 -150z" />
    <glyph glyph-name="uni1781" unicode="&#x1781;" horiz-adv-x="1300" 
d="M200 347v178l438 167q282 107 282 261q0 123 -62 185q-64 62 -208 62q-122 0 -184 -47q-59 -46 -79 -141q23 -3 44 -13q32 -15 50.5 -43.5t18.5 -58.5q0 -49 -40.5 -83t-94.5 -34q-66 0 -97 16q-32 15 -50 43t-18 58v56q0 175 100 260q101 87 350 87q250 0 350 -87
q100 -85 100 -260q0 -219 -405 -371l-315 -126v-109q0 -123 63 -185q62 -62 207 -62q144 0 208 62q62 62 62 185v173h180v-173q0 -173 -100 -260t-350 -87q-249 0 -350 87q-100 87 -100 260z" />
    <glyph glyph-name="uni1782" unicode="&#x1782;" horiz-adv-x="1300" 
d="M150 1067q0 41 60 89l61 47q119 97 150 97q35 0 121 -62q88 -62 115 -62q22 0 105 62q82 62 114 62q34 0 131 -72q95 -73 113 -73q16 0 30 14q-33 -130 -114 -130q-40 0 -112 48q-70 48 -102 48q-38 0 -103 -48q-66 -48 -112 -48q-66 0 -135 48t-103 48q-40 0 -60.5 -19
t-20.5 -47q0 -38 128 -64l-143 -61q-123 18 -123 123zM380 650v-322q96 105 200 105q150 0 150 -108q0 -80 -110 -80q0 28 -40 28q-100 0 -150 -98l-50 -88v-87h-180v650q0 150 100 225q101 75 350 75q250 0 350 -75t100 -225v-650h-180v650q0 100 -62 150q-64 50 -208 50
q-145 0 -207 -50q-63 -49 -63 -150z" />
    <glyph glyph-name="uni1783" unicode="&#x1783;" horiz-adv-x="1950" 
d="M885 300v531q0 91 -130 119q17 121 83 234q68 116 110 116q35 0 90 -37l55 -38q25 -16 58 -16q20 0 37 4q-7 -57 -37 -106q-31 -48 -69 -52q-3 -1 -10 -1q-38 0 -98 36q-31 18 -53 18q-27 0 -39 -78q183 -51 183 -120v-610q0 -100 63 -150q62 -50 190 -50q126 0 190 50
q62 50 62 150v531q0 91 -130 119q17 119 78 234q62 116 105 116q35 0 90 -37l55 -38q25 -16 45 -16t37 14q-10 -157 -93 -168q-3 -1 -10 -1q-38 0 -98 36q-31 18 -53 18q-27 0 -39 -78q193 -51 193 -120v-610q0 -150 -100 -225t-332 -75t-333 75q-2 2 -5 4t-5 4q-2 -2 -5 -4
t-5 -4q-100 -75 -332 -75t-333 75q-100 75 -100 225v300q0 130 50 224q12 23 19 43h-19q-150 0 -150 216q0 109 45 163t135 54q84 0 128 -62q42 -61 42 -186q0 -127 -35 -243t-35 -209v-300q0 -100 63 -150q62 -50 190 -50q126 0 190 50q62 50 62 150zM300 1052
q0 68 -12 101q-13 34 -38 34t-37 -26q-13 -25 -13 -78q0 -120 50 -120h42q8 50 8 89z" />
    <glyph glyph-name="uni1784" unicode="&#x1784;" horiz-adv-x="1300" 
d="M650 260l-300 -260h-150v520q-100 34 -100 104t40 113t110 43q130 0 130 -86v-527l270 225l270 -234v622q0 62 -13 92t-34 44t-45 28q-142 -78 -298 -78q-158 0 -241 60q-89 66 -89 200q0 67 25 129t25 131q0 88 -100 88q0 86 100 86q180 0 180 -174q0 -83 -25 -136
t-25 -124q0 -85 40 -119t110 -34q103 0 205 29q-105 77 -105 142q0 156 190 156q180 0 180 -156q0 -67 -68 -129q19 -7 43 -18q125 -59 125 -217v-780h-150zM870 1144q0 52 -50 52q-70 0 -70 -52q0 -28 83 -78q37 37 37 78z" />
    <glyph glyph-name="uni1785" unicode="&#x1785;" horiz-adv-x="1300" 
d="M920 300v350q-70 34 -70 104t40 113t110 43q100 0 100 -87v-523q0 -150 -100 -225t-350 -75q-249 0 -350 75q-100 75 -100 225v620q-100 55 -100 147q0 41 63 89l64 47q125 97 158 97q35 0 127 -62t120 -62q25 0 111 62t119 62q35 0 138 -72q100 -73 119 -73q15 0 31 14
q-34 -130 -120 -130q-42 0 -117 48t-107 48q-41 0 -109 -48q-69 -48 -117 -48q-68 0 -142 48q-72 48 -108 48q-42 0 -63.5 -19t-21.5 -47q0 -38 135 -94v-675q0 -100 63 -150q62 -50 207 -50q144 0 208 50q62 50 62 150z" />
    <glyph glyph-name="uni1786" unicode="&#x1786;" horiz-adv-x="1300" 
d="M380 975v-542q270 0 270 -216q0 -117 150 -117q120 0 120 117v320h-25q-67 0 -111 44t-44 121q0 78 50 143t130 65q81 0 130 -33q50 -32 50 -107v-553q0 -217 -300 -217t-300 217q0 116 -120 116v-160q0 -173 -140 -173t-140 286q0 105 100 139v495q-100 55 -100 147
q0 41 63 89l64 47q125 97 158 97q35 0 127 -62t120 -62q25 0 111 62t119 62q35 0 138 -72q100 -73 119 -73q15 0 31 14q-34 -130 -120 -130q-42 0 -117 48t-107 48q-41 0 -109 -48q-69 -48 -117 -48q-68 0 -142 48q-72 48 -108 48q-42 0 -63.5 -19t-21.5 -47q0 -38 135 -94z
M895 637h25v133q0 30 -15 30t-40 -31t-25 -67q0 -35 18.5 -50t36.5 -15z" />
    <glyph glyph-name="uni1787" unicode="&#x1787;" horiz-adv-x="1300" 
d="M380 996v-829l270 225l270 -234v752h180v-910h-150l-300 260l-300 -260h-150v941q-100 49 -100 125q0 67 65 109l66 40q130 85 163 85q59 0 165 -67q181 -106 281 -106q63 0 91 39q29 40 29 113q0 52 -80 52t-80 95q0 65 80 65q220 0 220 -212q0 -110 -80 -184
q-81 -75 -180 -75q-252 0 -363 63q-112 62 -142 62q-32 0 -58 -19q-27 -19 -27 -45q0 -24 130 -85z" />
    <glyph glyph-name="uni1788" unicode="&#x1788;" horiz-adv-x="2500" 
d="M200 87v913q0 150 100 225q101 75 320 75q220 0 320 -75t100 -225v-700q0 -100 63 -150q62 -50 160 -50q96 0 160 50q62 50 62 150v531q0 91 -130 119q17 121 83 234q68 116 110 116q35 0 90 -37l55 -38q25 -16 58 -16q20 0 37 4q-7 -57 -37 -106q-31 -48 -69 -52
q-3 -1 -10 -1q-38 0 -98 36q-31 18 -53 18q-27 0 -39 -78q183 -51 183 -120v-610q0 -100 63 -150q62 -50 165 -50q101 0 165 50q62 50 62 150v531q0 91 -130 119q17 119 78 234q62 116 105 116q35 0 90 -37l55 -38q25 -16 45 -16t37 14q-10 -157 -93 -168q-3 -1 -10 -1
q-38 0 -98 36q-31 18 -53 18q-27 0 -39 -78q193 -51 193 -120v-610q0 -150 -100 -225t-307 -75t-308 75q-2 2 -5 4t-5 4q-2 -2 -5 -4t-5 -4q-100 -75 -302 -75t-303 75q-100 75 -100 225v700q0 100 -62 150q-64 50 -178 50q-115 0 -177 -50q-63 -49 -63 -150v-500
q110 0 165 -46q55 -45 55 -137q0 -144 -62 -230q-63 -87 -188 -87q-150 0 -150 87zM380 400v-270q60 0 90 47t30 140q0 43 -30 62q-30 21 -90 21z" />
    <glyph glyph-name="uni1789" unicode="&#x1789;" horiz-adv-x="1950" 
d="M1100 1000v-1000h-180v1000q0 158 -80 158q-68 0 -136 -102q-22 -34 -54 -34t-54 34q-66 102 -135 102q-81 0 -81 -158v-500q110 0 165 -46q55 -45 55 -137q0 -144 -62 -230q-63 -87 -188 -87q-150 0 -150 87v913q0 123 75 211q75 89 170 89q94 0 205 -134
q113 134 207 134t169 -89q3 -3 4 -5v1q3 3 5 4q116 89 301 89q184 0 300 -89q114 -88 114 -211v-1000h-180v1000q0 80 -68 140q-69 60 -167 60q-97 0 -166 -60t-69 -140zM380 400v-270q60 0 90 47t30 140q0 43 -30 62q-30 21 -90 21zM1570 -213q0 46 -127 46v97h122
q185 0 185 -143q0 -119 -115 -189q-161 -98 -546 -98q-279 0 -494 84q-206 81 -354 239q-41 36 -41 107h52q50 0 82 -35q143 -131 332 -199q188 -67 423 -67q317 0 399 49t82 109z" />
    <glyph glyph-name="uni178A" unicode="&#x178a;" horiz-adv-x="1300" 
d="M576 1051q20 -1 41 -1.5t43 -0.5q203 0 246 51q44 50 44 115q0 83 -100 83h-50q0 151 110 151q80 0 135 -58t55 -176q0 -92 -100 -179t-340 -87q-25 0 -49 0.5t-47 1.5q-364 16 -364 174q0 90 47 134q44 41 128 41q95 0 139 -47q36 -37 36 -100q0 -60 -32 -98l28 -2
t30 -2zM377 1095h23q50 0 50 37q0 17 -11 26q-13 10 -39 10q-24 0 -38 -9q-12 -9 -12 -27q0 -22 27 -37zM350 0h-150v870h180v-703l270 225l270 -234v712h180v-870h-150l-300 260z" />
    <glyph glyph-name="uni178B" unicode="&#x178b;" horiz-adv-x="1300" 
d="M1200 1322v-49q-5 -140 -39 -179q-34 -40 -73 -40t-99 36q-31 18 -53 18q-27 0 -29 -78q193 -51 193 -120v-610q0 -150 -100 -225t-350 -75q-249 0 -350 75q-100 75 -100 225v300q0 130 50 224q12 23 19 43h-19q-150 0 -150 216q0 109 45 163t135 54q84 0 128 -62
q42 -61 42 -186q0 -127 -35 -243t-35 -209v-300q0 -100 63 -150q62 -50 207 -50q144 0 208 50q62 50 62 150v531q0 91 -130 119q6 120 58 234q53 116 95 116q35 0 90 -37l26 -18q6 -2 10 -2q31 0 31 79q0 64 -100 64t-100 82q0 81 100 81q200 0 200 -227zM300 1052
q0 68 -12 101q-13 34 -38 34t-37 -26q-13 -25 -13 -78q0 -120 50 -120h42q8 50 8 89z" />
    <glyph glyph-name="uni178C" unicode="&#x178c;" horiz-adv-x="1300" 
d="M380 1012q30 -3 51 -13q32 -15 50.5 -43.5t18.5 -58.5q0 -49 -40.5 -83t-94.5 -34q-66 0 -97 16q-32 15 -50 43t-18 58v103q0 123 75 211q75 89 170 89q94 0 205 -134q113 134 207 134t169 -89q74 -89 74 -211v-77q0 -219 -405 -371l-315 -126v-79q0 -123 42.5 -170
t127.5 -47q105 0 238 72q131 72 132 144v174h180v-570h-180v194q-9 -8 -19 -16t-21 -16q-149 -112 -330 -112q-190 0 -270 87t-80 260v148l438 167q282 107 282 261v77q0 158 -80 158q-68 0 -136 -102q-22 -34 -54 -34t-54 34q-66 102 -135 102q-78 0 -81 -146z" />
    <glyph glyph-name="uni178D" unicode="&#x178d;" horiz-adv-x="1950" 
d="M380 1000v-500q110 0 165 -46q55 -45 55 -137q0 -144 -62 -230q-63 -87 -188 -87q-150 0 -150 87v913q0 123 75 211q75 89 170 89q94 0 205 -134q113 134 207 134t169 -89q74 -89 74 -211v-567q240 0 240 -216q0 -117 115 -117t115 117v614q0 91 -130 119q17 119 78 234
q62 116 105 116q35 0 90 -37l55 -38q25 -16 45 -16t37 14q-10 -157 -93 -168q-3 -1 -10 -1q-38 0 -98 36q-31 18 -53 18q-27 0 -39 -78q193 -51 193 -120v-693q0 -217 -280 -217t-280 217q0 116 -90 116v-160q0 -173 -140 -173t-140 286q0 105 100 139v575q0 158 -80 158
q-68 0 -136 -102q-22 -34 -54 -34t-54 34q-66 102 -135 102q-81 0 -81 -158zM380 400v-270q60 0 90 47t30 140q0 43 -30 62q-30 21 -90 21z" />
    <glyph glyph-name="uni178E" unicode="&#x178e;" horiz-adv-x="2500" 
d="M1660 1000v-1000h-180l-230 200l-230 -200h-180v1000q0 100 -62 150q-64 50 -168 50q-105 0 -167 -50q-63 -49 -63 -150v-500q110 0 165 -46q55 -45 55 -137q0 -144 -62 -230q-63 -87 -188 -87q-150 0 -150 87v913q0 150 100 225q101 75 310 75q210 0 310 -75t100 -225
v-868l230 200l230 -199v867q0 150 100 225q101 75 310 75q210 0 310 -75t100 -225v-1000h-180v1000q0 100 -62 150q-64 50 -168 50q-105 0 -167 -50q-63 -49 -63 -150zM380 400v-270q60 0 90 47t30 140q0 43 -30 62q-30 21 -90 21z" />
    <glyph glyph-name="uni178F" unicode="&#x178f;" horiz-adv-x="1300" 
d="M150 1067q0 41 60 89l61 47q119 97 150 97q35 0 121 -62q88 -62 115 -62q22 0 105 62q82 62 114 62q34 0 131 -72q95 -73 113 -73q16 0 30 14q-33 -130 -114 -130q-40 0 -112 48q-70 48 -102 48q-38 0 -103 -48q-66 -48 -112 -48q-66 0 -135 48t-103 48q-40 0 -60.5 -19
t-20.5 -47q0 -38 128 -64l-143 -61q-123 18 -123 123zM380 650v-217h45q88 0 131 -43q44 -44 44 -130q0 -130 -50 -195t-150 -65t-150 33q-50 32 -50 97v520q0 150 100 225q101 75 350 75q250 0 350 -75t100 -225v-650h-180v650q0 100 -62 150q-64 50 -208 50
q-145 0 -207 -50q-63 -49 -63 -150zM425 333h-45v-203q0 -20 35 -20q34 0 60 32q25 31 25 118q0 43 -18.5 58t-56.5 15z" />
    <glyph glyph-name="uni1790" unicode="&#x1790;" horiz-adv-x="1300" 
d="M380 996v-696q0 -100 63 -150q62 -50 207 -50q144 0 208 50q62 50 62 150v350q-70 34 -70 104t40 113t110 43q100 0 100 -87v-523q0 -150 -100 -225t-350 -75q-249 0 -350 75q-100 75 -100 225v641q-100 49 -100 125q0 67 65 109l66 40q130 85 163 85q59 0 165 -67
q181 -106 281 -106q63 0 91 39q29 40 29 113q0 52 -80 52t-80 95q0 65 80 65q220 0 220 -212q0 -110 -80 -184q-81 -75 -180 -75q-252 0 -363 63q-112 62 -142 62q-32 0 -58 -19q-27 -19 -27 -45q0 -24 130 -85z" />
    <glyph glyph-name="uni1791" unicode="&#x1791;" horiz-adv-x="1300" 
d="M1100 993v-36q0 -29 -18 -58q-18 -28 -50 -43.5t-97 -15.5q-54 0 -94.5 34t-40.5 83q0 30 18.5 58.5t50.5 43.5q7 3 13.5 5.5t13.5 4.5q-23 54 -62 84q-62 47 -184 47q-144 0 -208 -62q-62 -62 -62 -185v-73q0 -150 98 -227q97 -76 292 -76q0 160 205 160q125 0 125 -126
q0 -134 -150 -134v-217q0 -130 -75 -195q-76 -65 -225 -65q-164 0 -247 65t-83 195v147h180v-147q0 -79 38 -120q37 -40 112 -40q60 0 90 40q30 41 30 120v217q-284 0 -427 101t-143 302v73q0 175 100 260q101 87 350 87q250 0 350 -87q100 -85 100 -220zM950 577
q50 0 50 34q0 22 -25 22t-25 -56z" />
    <glyph glyph-name="uni1792" unicode="&#x1792;" horiz-adv-x="1300" 
d="M650 260l-300 -260h-150v920q-100 55 -100 147q0 41 63 89l64 47q125 97 158 97q35 0 127 -62t120 -62q25 0 111 62t119 62q35 0 138 -72q100 -73 119 -73q15 0 31 14q-34 -130 -120 -130q-42 0 -117 48t-107 48q-41 0 -109 -48q-69 -48 -117 -48q-68 0 -142 48
q-72 48 -108 48q-42 0 -63.5 -19t-21.5 -47q0 -38 135 -94v-808l270 225l270 -234v492q-70 34 -70 104t40 113t110 43q100 0 100 -87v-823h-150z" />
    <glyph glyph-name="uni1793" unicode="&#x1793;" horiz-adv-x="1300" 
d="M380 953q0 -93 90 -171t270 -141l360 -126v-255q0 -260 -285 -260q-132 0 -235 124q-103 123 -200 123v-247h-180v520h180v-173q125 0 240 -123q114 -124 195 -124q105 0 105 160v194l-360 124q-180 62 -270 156q-90 95 -90 219q0 175 100 260q101 87 350 87
q250 0 350 -87q100 -85 100 -260v-56q0 -29 -18 -58q-18 -28 -50 -43.5t-97 -15.5q-54 0 -94.5 34t-40.5 83q0 30 18.5 58.5t50.5 43.5q21 10 44 13q-20 95 -79 141q-62 47 -184 47q-144 0 -208 -62q-62 -62 -62 -185z" />
    <glyph glyph-name="uni1794" unicode="&#x1794;" horiz-adv-x="1300" 
d="M920 300v531q0 91 -130 119q17 119 78 234q62 116 105 116q35 0 90 -37l55 -38q25 -16 45 -16t37 14q-10 -157 -93 -168q-3 -1 -10 -1q-38 0 -98 36q-31 18 -53 18q-27 0 -39 -78q193 -51 193 -120v-610q0 -150 -100 -225t-350 -75q-249 0 -350 75q-100 75 -100 225v531
q0 91 -130 119q17 121 83 234q68 116 110 116q35 0 90 -37l55 -38q25 -16 58 -16q20 0 37 4q-7 -57 -37 -106q-31 -48 -69 -52q-3 -1 -10 -1q-38 0 -98 36q-31 18 -53 18q-27 0 -39 -78q183 -51 183 -120v-610q0 -100 63 -150q62 -50 207 -50q144 0 208 50q62 50 62 150z
" />
    <glyph glyph-name="uni1795" unicode="&#x1795;" horiz-adv-x="1300" 
d="M1100 770v-770h-150l-300 260l-300 -260h-150v941q-100 49 -100 125q0 67 65 109l66 40q130 85 163 85q59 0 165 -67q181 -106 281 -106q63 0 91 39q29 40 29 113q0 52 -80 52t-80 95q0 65 80 65q220 0 220 -212q0 -110 -80 -184q-81 -75 -180 -75q-252 0 -363 63
q-112 62 -142 62q-32 0 -58 -19q-27 -19 -27 -45q0 -24 130 -85v-829l270 225l270 -234v379h-25q-67 0 -111 44t-44 121q0 78 50 143t130 65q81 0 130 -33q50 -32 50 -107zM895 637h25v133q0 30 -15 30t-40 -31t-25 -67q0 -35 18.5 -50t36.5 -15z" />
    <glyph glyph-name="uni1796" unicode="&#x1796;" horiz-adv-x="1300" 
d="M650 1022q-32 0 -54 34q-66 102 -135 102q-81 0 -81 -158v-500q110 0 165 -46q55 -45 55 -137q0 -144 -62 -230q-63 -87 -188 -87q-150 0 -150 87v913q0 123 75 211q75 89 170 89q94 0 205 -134q113 134 207 134t169 -89q74 -89 74 -211v-1000h-180v1000q0 158 -80 158
q-68 0 -136 -102q-22 -34 -54 -34zM380 400v-270q60 0 90 47t30 140q0 43 -30 62q-30 21 -90 21z" />
    <glyph glyph-name="uni1797" unicode="&#x1797;" horiz-adv-x="1300" 
d="M150 1067q0 41 60 89l61 47q119 97 150 97q35 0 121 -62q88 -62 115 -62q22 0 105 62q82 62 114 62q34 0 131 -72q95 -73 113 -73q16 0 30 14q-33 -130 -114 -130q-40 0 -112 48q-70 48 -102 48q-38 0 -103 -48q-66 -48 -112 -48q-66 0 -135 48t-103 48q-40 0 -60.5 -19
t-20.5 -47q0 -38 128 -64l-143 -61q-123 18 -123 123zM200 650q0 150 100 225q101 75 350 75q250 0 350 -75t100 -225v-650h-180v650q0 100 -62 150q-64 50 -208 50q-145 0 -207 -50q-63 -49 -63 -150q0 -44 50 -159t50 -243q0 -248 -200 -248q-180 0 -180 217
q0 216 150 216h19q-7 20 -19 43q-50 94 -50 174zM292 333h-42q-50 0 -50 -116q0 -104 50 -104t50 135q0 51 -8 85z" />
    <glyph glyph-name="uni1798" unicode="&#x1798;" horiz-adv-x="1300" 
d="M380 910v-258h540v179q0 91 -130 119q17 119 78 234q62 116 105 116q35 0 90 -37l55 -38q25 -16 45 -16t37 14q-10 -157 -93 -168q-3 -1 -10 -1q-38 0 -98 36q-31 18 -53 18q-27 0 -39 -78q193 -51 193 -120v-610q0 -150 -100 -225t-350 -75q-249 0 -350 75
q-100 75 -100 225v531q0 91 -130 119q17 121 83 234q68 116 110 116q35 0 90 -37l55 -38q25 -16 58 -16q20 0 37 4q-7 -57 -37 -106q-31 -48 -69 -52q-3 -1 -10 -1q-38 0 -98 36q-31 18 -53 18q-27 0 -39 -78q183 -51 183 -120zM920 300v252h-540v-252q0 -100 63 -150
q62 -50 207 -50q144 0 208 50q62 50 62 150z" />
    <glyph glyph-name="uni1799" unicode="&#x1799;" horiz-adv-x="1950" 
d="M200 300v822q0 55 42 116q44 62 148 62q90 0 135 -54t45 -163q0 -216 -150 -216h-40v-567q0 -100 63 -150q62 -50 190 -50q126 0 190 50q62 50 62 150v531q0 91 -130 119q17 121 83 234q68 116 110 116q35 0 90 -37l55 -38q25 -16 58 -16q20 0 37 4q-7 -57 -37 -106
q-31 -48 -69 -52q-3 -1 -10 -1q-38 0 -98 36q-31 18 -53 18q-27 0 -39 -78q183 -51 183 -120v-610q0 -100 63 -150q62 -50 190 -50q126 0 190 50q62 50 62 150v531q0 91 -130 119q17 119 78 234q62 116 105 116q35 0 90 -37l55 -38q25 -16 45 -16t37 14q-10 -157 -93 -168
q-3 -1 -10 -1q-38 0 -98 36q-31 18 -53 18q-27 0 -39 -78q193 -51 193 -120v-610q0 -150 -100 -225t-332 -75t-333 75q-2 2 -5 4t-5 4q-2 -2 -5 -4t-5 -4q-100 -75 -332 -75t-333 75q-100 75 -100 225zM380 1122v-159h40q50 0 50 120q0 53 -13 78q-12 26 -44 26
q-33 0 -33 -65z" />
    <glyph glyph-name="uni179A" unicode="&#x179a;" horiz-adv-x="610" 
d="M380 910v-812q0 -98 -100 -98h-80q-150 0 -150 267q0 166 150 166v398q0 91 -150 119q16 116 82 234q65 116 110 116q36 0 94 -37l58 -38q25 -16 47 -16q20 0 39 14q-10 -157 -98 -168q-3 -1 -10 -1q-40 0 -103 36q-33 18 -55 18q-29 0 -41 -78q207 -51 207 -120z
M200 113v220q-50 0 -50 -66q0 -154 50 -154z" />
    <glyph glyph-name="uni179B" unicode="&#x179b;" horiz-adv-x="1950" 
d="M200 87v913q0 150 100 225q101 75 345 75q245 0 345 -75t100 -225v-700q0 -100 63 -150q62 -50 177 -50q114 0 178 50q62 50 62 150v531q0 91 -130 119q17 119 78 234q62 116 105 116q35 0 90 -37l55 -38q25 -16 45 -16t37 14q-10 -157 -93 -168q-3 -1 -10 -1
q-38 0 -98 36q-31 18 -53 18q-27 0 -39 -78q193 -51 193 -120v-610q0 -150 -100 -225t-320 -75q-219 0 -320 75q-100 75 -100 225v700q0 100 -62 150q-64 50 -203 50q-140 0 -202 -50q-63 -49 -63 -150v-500q110 0 165 -46q55 -45 55 -137q0 -144 -62 -230q-63 -87 -188 -87
q-150 0 -150 87zM380 400v-270q60 0 90 47t30 140q0 43 -30 62q-30 21 -90 21z" />
    <glyph glyph-name="uni179C" unicode="&#x179c;" horiz-adv-x="610" 
d="M380 910v-812q0 -98 -100 -98h-80q-150 0 -150 267q0 166 150 166v398q0 91 -150 119q3 59 22 120.5t46 113.5t55.5 84t49.5 32q35 0 90 -37l26 -18q6 -2 10 -2q31 0 31 79q0 64 -100 64t-100 82q0 81 100 81q200 0 200 -227v-49q-5 -140 -39 -179q-34 -40 -73 -40
t-99 36q-31 18 -53 18q-37 0 -49 -78q213 -51 213 -120zM200 113v220q-50 0 -50 -66q0 -154 50 -154z" />
    <glyph glyph-name="uni179D" unicode="&#x179d;" horiz-adv-x="1300" 
d="M150 1067q0 41 60 89l61 47q119 97 150 97q35 0 121 -62q88 -62 115 -62q22 0 105 62q82 62 114 62q34 0 131 -72q95 -73 113 -73q16 0 30 14q-33 -130 -114 -130q-40 0 -112 48q-70 48 -102 48q-38 0 -103 -48q-66 -48 -112 -48q-66 0 -135 48t-103 48q-40 0 -60.5 -19
t-20.5 -47q0 -38 128 -64l-143 -61q-123 18 -123 123zM1100 650v-173h150v-100h-150v-377h-180v377h-170v100h170v173q0 100 -62 150q-64 50 -208 50q-145 0 -207 -50q-63 -49 -63 -150v-322q96 105 200 105q150 0 150 -108q0 -80 -110 -80q0 28 -40 28q-100 0 -150 -98
l-50 -88v-87h-180v650q0 150 100 225q101 75 350 75q250 0 350 -75t100 -225z" />
    <glyph glyph-name="uni179E" unicode="&#x179e;" horiz-adv-x="1300" 
d="M920 300v215h-170v100h170v216q0 91 -130 119q17 119 78 234q62 116 105 116q35 0 90 -37l55 -38q25 -16 45 -16t37 14q-10 -157 -93 -168q-3 -1 -10 -1q-38 0 -98 36q-31 18 -53 18q-27 0 -39 -78q193 -51 193 -120v-295h150v-100h-150v-215q0 -150 -100 -225t-350 -75
q-249 0 -350 75q-100 75 -100 225v531q0 91 -130 119q17 121 83 234q68 116 110 116q35 0 90 -37l55 -38q25 -16 58 -16q20 0 37 4q-7 -57 -37 -106q-31 -48 -69 -52q-3 -1 -10 -1q-38 0 -98 36q-31 18 -53 18q-27 0 -39 -78q183 -51 183 -120v-610q0 -100 63 -150
q62 -50 207 -50q144 0 208 50q62 50 62 150z" />
    <glyph glyph-name="uni179F" unicode="&#x179f;" horiz-adv-x="1950" 
d="M625 950h20q245 0 345 -75t100 -225v-350q0 -100 63 -150q62 -50 177 -50q114 0 178 50q62 50 62 150v531q0 91 -130 119q17 119 78 234q62 116 105 116q35 0 90 -37l55 -38q25 -16 45 -16t37 14q-10 -157 -93 -168q-3 -1 -10 -1q-38 0 -98 36q-31 18 -53 18
q-27 0 -39 -78q193 -51 193 -120v-610q0 -150 -100 -225t-320 -75q-219 0 -320 75q-100 75 -100 225v350q0 100 -62 150q-64 50 -203 50q-140 0 -202 -50q-63 -49 -63 -150v-217h45q88 0 131 -43q44 -44 44 -130q0 -130 -50 -195t-150 -65t-150 33q-50 32 -50 97v520
q0 150 100 225q41 30 102 48q-32 42 -123 77q42 112 142 211q91 89 143 89q8 0 11 -1q42 -7 120 -56q77 -49 102 -54q5 -1 15 -1q18 0 34 6q-43 -157 -134 -157q-44 0 -108 44q-62 43 -98 43q-34 0 -75 -74q140 -56 194 -100zM425 333h-45v-203q0 -20 35 -20q34 0 60 32
q25 31 25 118q0 43 -18.5 58t-56.5 15z" />
    <glyph glyph-name="uni17A0" unicode="&#x17a0;" horiz-adv-x="1950" 
d="M200 300v531q0 91 -130 119q17 121 83 234q68 116 110 116q35 0 90 -37l55 -38q25 -16 58 -16q20 0 37 4q-7 -57 -37 -106q-31 -48 -69 -52q-3 -1 -10 -1q-38 0 -98 36q-31 18 -53 18q-27 0 -39 -78q183 -51 183 -120v-610q0 -100 63 -150q62 -50 190 -50q126 0 190 50
q62 50 62 150v700q0 150 100 225q101 75 333 75t332 -75t100 -225v-1000h-180v1000q0 100 -62 150q-64 50 -190 50q-128 0 -190 -50q-63 -49 -63 -150v-700q0 -150 -100 -225t-332 -75t-333 75q-100 75 -100 225z" />
    <glyph glyph-name="uni17A1" unicode="&#x17a1;" horiz-adv-x="1850" 
d="M1100 993v-36q0 -29 -18 -58q-18 -28 -50 -43.5t-97 -15.5q-54 0 -94.5 34t-40.5 83q0 30 18.5 58.5t50.5 43.5q7 3 13.5 5.5t13.5 4.5q-23 54 -62 84q-62 47 -184 47q-144 0 -208 -62q-62 -62 -62 -185v-73q0 -150 98 -227q97 -76 292 -76q0 160 205 160q125 0 125 -126
q0 -134 -150 -134v-217q0 -130 -75 -195q-76 -65 -225 -65q-164 0 -247 65t-83 195v147h180v-147q0 -79 38 -120q37 -40 112 -40q60 0 90 40q30 41 30 120v217q-284 0 -427 101t-143 302v73q0 175 100 260q101 87 350 87q250 0 350 -87q100 -85 100 -220zM1225 -203
l245 -156v1190q0 91 -130 119q17 119 78 234q62 116 105 116q35 0 90 -37l55 -38q25 -16 45 -16t37 14q-10 -157 -93 -168q-3 -1 -10 -1q-38 0 -98 36q-31 18 -53 18q-27 0 -39 -78q193 -51 193 -120v-1410h-150l-275 172l-275 -172h-150v161q-150 0 -150 119q0 120 150 120
q180 0 180 -80v-179zM950 577q50 0 50 34q0 22 -25 22t-25 -56zM800 -260v80q-50 0 -50 -40t50 -40z" />
    <glyph glyph-name="uni17A2" unicode="&#x17a2;" horiz-adv-x="1300" 
d="M1100 910v-812q0 -98 -100 -98h-80q-150 0 -150 267q0 166 150 166v119h-540v-454q0 -98 -100 -98h-80q-150 0 -150 267q0 166 150 166v398q0 91 -130 119q17 121 83 234q68 116 110 116q35 0 90 -37l55 -38q25 -16 58 -16q20 0 37 4q-7 -57 -37 -106q-31 -48 -69 -52
q-3 -1 -10 -1q-38 0 -98 36q-31 18 -53 18q-27 0 -39 -78q183 -51 183 -120v-258h540v179q0 91 -130 119q17 119 78 234q62 116 105 116q35 0 90 -37l55 -38q25 -16 45 -16t37 14q-10 -157 -93 -168q-3 -1 -10 -1q-38 0 -98 36q-31 18 -53 18q-27 0 -39 -78
q193 -51 193 -120zM200 113v220q-50 0 -50 -66q0 -154 50 -154zM920 113v220q-50 0 -50 -66q0 -154 50 -154z" />
    <glyph glyph-name="uni17A3" unicode="&#x17a3;" horiz-adv-x="1300" 
d="M1100 910v-812q0 -98 -100 -98h-80q-150 0 -150 267q0 166 150 166v119h-540v-454q0 -98 -100 -98h-80q-150 0 -150 267q0 166 150 166v398q0 91 -130 119q17 121 83 234q68 116 110 116q35 0 90 -37l55 -38q25 -16 58 -16q20 0 37 4q-7 -57 -37 -106q-31 -48 -69 -52
q-3 -1 -10 -1q-38 0 -98 36q-31 18 -53 18q-27 0 -39 -78q183 -51 183 -120v-258h540v179q0 91 -130 119q17 119 78 234q62 116 105 116q35 0 90 -37l55 -38q25 -16 45 -16t37 14q-10 -157 -93 -168q-3 -1 -10 -1q-38 0 -98 36q-31 18 -53 18q-27 0 -39 -78
q193 -51 193 -120zM200 113v220q-50 0 -50 -66q0 -154 50 -154zM920 113v220q-50 0 -50 -66q0 -154 50 -154z" />
    <glyph glyph-name="uni17A4" unicode="&#x17a4;" horiz-adv-x="1950" 
d="M1100 893v-795q0 -98 -100 -98h-80q-150 0 -150 267q0 166 150 166v119h-540v-454q0 -98 -100 -98h-80q-150 0 -150 267q0 166 150 166v398q0 91 -130 119q17 121 83 234q68 116 110 116q35 0 90 -37l55 -38q25 -16 58 -16q20 0 37 4q-7 -57 -37 -106q-31 -48 -69 -52
q-3 -1 -10 -1q-38 0 -98 36q-31 18 -53 18q-27 0 -39 -78q183 -51 183 -120v-258h540v190q0 95 -136 110q11 125 127 234q116 110 227 110q167 0 279 -47q333 -142 333 -336v-913h-180v863q0 144 -259 232q-87 29 -220 29q-104 0 -163 -107q172 -52 172 -124zM200 113v220
q-50 0 -50 -66q0 -154 50 -154zM920 113v220q-50 0 -50 -66q0 -154 50 -154z" />
    <glyph glyph-name="uni17A5" unicode="&#x17a5;" horiz-adv-x="1300" 
d="M380 996l-180 -55q-100 49 -100 125q0 67 65 109l66 40q130 85 163 85q59 0 165 -67q181 -106 281 -106q120 0 120 152q0 52 -80 52t-80 95q0 65 80 65q220 0 220 -212q0 -73 -37.5 -132t-97 -93t-125.5 -34q-252 0 -363 63q-112 62 -142 62q-32 0 -58 -19
q-27 -19 -27 -45q0 -24 130 -85zM380 650v-217h45q88 0 131 -43q44 -44 44 -130q0 -130 -50 -195t-150 -65t-150 33q-50 32 -50 97v520q0 150 100 225q101 75 350 75q250 0 350 -75t100 -225v-650h-180v650q0 100 -62 150q-64 50 -208 50q-145 0 -207 -50q-63 -49 -63 -150z
M425 333h-45v-203q0 -20 35 -20q34 0 60 32q25 31 25 118q0 43 -18.5 58t-56.5 15z" />
    <glyph glyph-name="uni17A6" unicode="&#x17a6;" horiz-adv-x="1850" 
d="M1650 1340v-1835q0 -155 -375 -155t-375 155v195q0 50 -63 75q-60 25 -187 25t-187 -25q-63 -25 -63 -75v-50h50q140 0 140 -130q0 -170 -190 -170q-150 0 -150 100v250q0 101 100 150q102 50 300 50t300 -50q100 -49 100 -150v-195q0 -75 225 -75q195 0 195 75v1835
q0 210 -204 210h-116q-250 0 -250 141q0 32 20 83t20 101q0 51 -124 51q0 74 100 74q204 0 204 -125q0 -62 -20 -105t-20 -79q0 -41 70 -41h116q384 0 384 -310zM380 1000v-500q110 0 165 -46q55 -45 55 -137q0 -144 -62 -230q-63 -87 -188 -87q-150 0 -150 87v913
q0 150 100 225q101 75 350 75q250 0 350 -75t100 -225v-1000h-180v1000q0 100 -62 150q-64 50 -208 50q-145 0 -207 -50q-63 -49 -63 -150zM380 400v-270q60 0 90 47t30 140q0 43 -30 62q-30 21 -90 21zM450 -450h-50v-100q90 0 90 69q0 31 -40 31z" />
    <glyph glyph-name="uni17A7" unicode="&#x17a7;" horiz-adv-x="1300" 
d="M920 346v174h180v-570h-180v194q-9 -8 -19 -16t-21 -16q-149 -112 -330 -112q-190 0 -270 87t-80 260v178l438 167q282 107 282 261q0 123 -62 185q-64 62 -208 62q-122 0 -184 -47q-59 -46 -79 -141q23 -3 44 -13q32 -15 50.5 -43.5t18.5 -58.5q0 -49 -40.5 -83
t-94.5 -34q-66 0 -97 16q-32 15 -50 43t-18 58v56q0 175 100 260q101 87 350 87q250 0 350 -87q100 -85 100 -260q0 -219 -405 -371l-315 -126v-109q0 -123 42.5 -170t127.5 -47q105 0 238 72q131 72 132 144z" />
    <glyph glyph-name="uni17A8" unicode="&#x17a8;" horiz-adv-x="1300" 
d="M150 1387q0 41 60 89l61 47q119 97 150 97q35 0 121 -62q88 -62 115 -62q22 0 105 62q82 62 114 62q34 0 131 -72q95 -73 113 -73q16 0 30 14q-33 -130 -114 -130q-40 0 -112 48q-70 48 -102 48q-38 0 -103 -48q-66 -48 -112 -48q-66 0 -135 48t-103 48q-40 0 -60.5 -19
t-20.5 -47q0 -38 128 -64l-143 -61q-123 18 -123 123zM920 346v174h180v-570h-180v194q-9 -8 -19 -16t-21 -16q-149 -112 -330 -112q-190 0 -270 87t-80 260v178l438 167q282 107 282 261q0 123 -62 185q-64 62 -208 62q-122 0 -184 -47q-59 -46 -79 -141q23 -3 44 -13
q32 -15 50.5 -43.5t18.5 -58.5q0 -49 -40.5 -83t-94.5 -34q-66 0 -97 16q-32 15 -50 43t-18 58v56q0 175 100 260q101 87 350 87q250 0 350 -87q100 -85 100 -260q0 -219 -405 -371l-315 -126v-109q0 -123 42.5 -170t127.5 -47q105 0 238 72q131 72 132 144z" />
    <glyph glyph-name="uni17A9" unicode="&#x17a9;" horiz-adv-x="1300" 
d="M920 346v174h180v-570h-180v194q-9 -8 -19 -16t-21 -16q-149 -112 -330 -112q-190 0 -270 87t-80 260v178l438 167q282 107 282 261q0 123 -62 185q-64 62 -208 62q-122 0 -184 -47q-59 -46 -79 -141q23 -3 44 -13q32 -15 50.5 -43.5t18.5 -58.5q0 -49 -40.5 -83
t-94.5 -34q-66 0 -97 16q-32 15 -50 43t-18 58v56q0 175 100 260q101 87 350 87q250 0 350 -87q100 -85 100 -260q0 -219 -405 -371l-315 -126v-109q0 -123 42.5 -170t127.5 -47q105 0 238 72q131 72 132 144zM1200 520h150v-570h-150v570z" />
    <glyph glyph-name="uni17AA" unicode="&#x17aa;" horiz-adv-x="1300" 
d="M380 1336l-180 -55q-100 49 -100 125q0 67 65 109l66 40q130 85 163 85q59 0 165 -67q181 -106 281 -106q120 0 120 152q0 52 -80 52t-80 95q0 65 80 65q220 0 220 -212q0 -73 -37.5 -132t-97 -93t-125.5 -34q-252 0 -363 63q-112 62 -142 62q-32 0 -58 -19
q-27 -19 -27 -45q0 -24 130 -85zM920 346v174h180v-570h-180v194q-9 -8 -19 -16t-21 -16q-149 -112 -330 -112q-190 0 -270 87t-80 260v178l438 167q282 107 282 261q0 123 -62 185q-64 62 -208 62q-122 0 -184 -47q-59 -46 -79 -141q23 -3 44 -13q32 -15 50.5 -43.5
t18.5 -58.5q0 -49 -40.5 -83t-94.5 -34q-66 0 -97 16q-32 15 -50 43t-18 58v56q0 175 100 260q101 87 350 87q250 0 350 -87q100 -85 100 -260q0 -219 -405 -371l-315 -126v-109q0 -123 42.5 -170t127.5 -47q105 0 238 72q131 72 132 144z" />
    <glyph glyph-name="uni17AB" unicode="&#x17ab;" horiz-adv-x="1300" 
d="M920 300v531q0 91 -130 119q17 119 78 234q62 116 105 116q35 0 90 -37l55 -38q25 -16 45 -16t37 14q-10 -157 -93 -168q-3 -1 -10 -1q-38 0 -98 36q-31 18 -53 18q-27 0 -39 -78q193 -51 193 -120v-610q0 -150 -100 -225t-350 -75q-249 0 -350 75q-100 75 -100 225v531
q0 91 -130 119q17 121 83 234q68 116 110 116q35 0 90 -37l55 -38q25 -16 58 -16q20 0 37 4q-7 -57 -37 -106q-31 -48 -69 -52q-3 -1 -10 -1q-38 0 -98 36q-31 18 -53 18q-27 0 -39 -78q183 -51 183 -120v-610q0 -100 63 -150q62 -50 207 -50q144 0 208 50q62 50 62 150z
M786 -164q0 64 90 64q140 0 191 -54q33 -37 33 -95q0 -31 -9 -67q-34 -139 -246 -237q-210 -100 -579 -100q-200 0 -200 43q167 15 283.5 29t183.5 27q134 26 246 103q110 76 133 153q4 15 4 30q0 40 -40 40q-90 0 -90 64z" />
    <glyph glyph-name="uni17AC" unicode="&#x17ac;" horiz-adv-x="1300" 
d="M920 300v531q0 91 -130 119q17 119 78 234q62 116 105 116q35 0 90 -37l55 -38q25 -16 45 -16t37 14q-10 -157 -93 -168q-3 -1 -10 -1q-38 0 -98 36q-31 18 -53 18q-27 0 -39 -78q193 -51 193 -120v-610q0 -150 -100 -225t-350 -75q-249 0 -350 75q-100 75 -100 225v531
q0 91 -130 119q17 121 83 234q68 116 110 116q35 0 90 -37l55 -38q25 -16 58 -16q20 0 37 4q-7 -57 -37 -106q-31 -48 -69 -52q-3 -1 -10 -1q-38 0 -98 36q-31 18 -53 18q-27 0 -39 -78q183 -51 183 -120v-610q0 -100 63 -150q62 -50 207 -50q144 0 208 50q62 50 62 150z
M916 -511q-33 -21 -71 -38q-211 -99 -579 -99q-200 0 -200 42q167 16 283.5 29.5t183.5 26.5q134 26 246 102q110 76 133 152q4 15 4 30q0 40 -40 40q-90 0 -90 63t90 63q140 0 191 -54q33 -36 33 -94q0 -30 -9 -66q-17 -64 -67 -115q23 -93 76 -93q100 0 100 -63t-100 -63
q-143 0 -184 137z" />
    <glyph glyph-name="uni17AD" unicode="&#x17ad;" horiz-adv-x="1300" 
d="M650 1022q-32 0 -54 34q-66 102 -135 102q-81 0 -81 -158v-500q110 0 165 -46q55 -45 55 -137q0 -144 -62 -230q-63 -87 -188 -87q-150 0 -150 87v913q0 123 75 211q75 89 170 89q94 0 205 -134q113 134 207 134t169 -89q74 -89 74 -211v-1000h-180v1000q0 158 -80 158
q-68 0 -136 -102q-22 -34 -54 -34zM380 400v-270q60 0 90 47t30 140q0 43 -30 62q-30 21 -90 21zM786 -164q0 64 90 64q140 0 191 -54q33 -37 33 -95q0 -31 -9 -67q-34 -139 -246 -237q-210 -100 -579 -100q-200 0 -200 43q167 15 283.5 29t183.5 27q134 26 246 103
q110 76 133 153q4 15 4 30q0 40 -40 40q-90 0 -90 64z" />
    <glyph glyph-name="uni17AE" unicode="&#x17ae;" horiz-adv-x="1300" 
d="M650 1022q-32 0 -54 34q-66 102 -135 102q-81 0 -81 -158v-500q110 0 165 -46q55 -45 55 -137q0 -144 -62 -230q-63 -87 -188 -87q-150 0 -150 87v913q0 123 75 211q75 89 170 89q94 0 205 -134q113 134 207 134t169 -89q74 -89 74 -211v-1000h-180v1000q0 158 -80 158
q-68 0 -136 -102q-22 -34 -54 -34zM380 400v-270q60 0 90 47t30 140q0 43 -30 62q-30 21 -90 21zM916 -511q-33 -21 -71 -38q-211 -99 -579 -99q-200 0 -200 42q167 16 283.5 29.5t183.5 26.5q134 26 246 102q110 76 133 152q4 15 4 30q0 40 -40 40q-90 0 -90 63t90 63
q140 0 191 -54q33 -36 33 -94q0 -30 -9 -66q-17 -64 -67 -115q23 -93 76 -93q100 0 100 -63t-100 -63q-143 0 -184 137z" />
    <glyph glyph-name="uni17AF" unicode="&#x17af;" horiz-adv-x="1300" 
d="M380 710v-543l270 225l270 -234v923q-15 72 -92 96q-80 23 -148 23q-91 0 -195 -55q-105 -55 -105 -115v-90q-180 0 -180 90q0 160 25 223t25 137q0 90 -100 90q0 90 100 90q180 0 180 -180q0 -87 -25 -141q-3 -7 -6 -14.5t-5 -15.5q3 1 9 5q116 76 277 76q172 0 283 -49
t137 -170v-1081h-150l-300 260l-300 -260h-150v530q-100 36 -100 108t40 117t110 45q130 0 130 -90z" />
    <glyph glyph-name="uni17B0" unicode="&#x17b0;" horiz-adv-x="1300" 
d="M1100 1000v-1032q-10 -23 -20 -53t-20 -67q-51 -187 -138 -231q-44 -23 -91 -23q-57 0 -118 31q11 -36 11 -66q0 -73 -62 -129q-88 -78 -176 -78t-186 63q-100 64 -100 133q0 70 109 106q296 98 611 324v1022q0 158 -80 158q-68 0 -136 -102q-22 -34 -54 -34t-54 34
q-66 102 -135 102q-81 0 -81 -158v-500q110 0 165 -46q55 -45 55 -137q0 -144 -62 -230q-63 -87 -188 -87q-150 0 -150 87v913q0 123 75 211q75 89 170 89q94 0 205 -134q113 134 207 134t169 -89q74 -89 74 -211zM380 400v-270q60 0 90 47t30 140q0 43 -30 62
q-30 21 -90 21zM742 -279q48 -14 79 -14q23 0 38 7q26 10 67 125q-95 -67 -184 -118zM569 -493q30 26 30 97q0 10 -0.5 21t-1.5 23q-132 -61 -259 -95q81 -84 133 -84q51 0 98 38z" />
    <glyph glyph-name="uni17B1" unicode="&#x17b1;" horiz-adv-x="1300" 
d="M597 1655q553 -79 553 -255q0 -88 -75 -88t-75 88q0 122 -410 139q-67 3 -119 3q-132 0 -149 -17q-22 -22 -22 -46q0 -39 172 -139l-105 -30q-217 64 -217 138v46q0 33 65 71l66 38q98 58 228 58q42 0 88 -6zM920 346v174h180v-570h-180v194q-9 -8 -19 -16t-21 -16
q-149 -112 -330 -112q-190 0 -270 87t-80 260v178l438 167q282 107 282 261q0 123 -62 185q-64 62 -208 62q-122 0 -184 -47q-59 -46 -79 -141q23 -3 44 -13q32 -15 50.5 -43.5t18.5 -58.5q0 -49 -40.5 -83t-94.5 -34q-66 0 -97 16q-32 15 -50 43t-18 58v56q0 175 100 260
q101 87 350 87q250 0 350 -87q100 -85 100 -260q0 -219 -405 -371l-315 -126v-109q0 -123 42.5 -170t127.5 -47q105 0 238 72q131 72 132 144z" />
    <glyph glyph-name="uni17B2" unicode="&#x17b2;" horiz-adv-x="1300" 
d="M920 300v68q0 34 -15.5 62t-42.5 35q-4 -4 -9 -7t-10 -7l-193 -143q-32 -23 -60 -23t-52 24q-21 21 -21 45q0 26 30 47l173 129q141 104 171 162q29 60 29 88q0 46 -18.5 66.5t-76.5 20.5q-59 0 -91 -20q-34 -22 -34 -67q0 -52 110 -52q-60 -78 -123 -78q-59 0 -98 33
q-39 32 -39 97q0 88 70 135.5t205 47.5q134 0 204.5 -47t70.5 -136q0 -48 -30 -101q-37 -67 -117 -139q64 -18 100 -58q47 -53 47 -114v-68q0 -150 -100 -225t-350 -75q-249 0 -350 75q-100 75 -100 225v700q0 150 100 225q101 75 350 75q250 0 350 -75t100 -175h-180
q0 50 -62 100q-64 50 -208 50q-145 0 -207 -50q-63 -49 -63 -150v-700q0 -100 63 -150q62 -50 207 -50q144 0 208 50q62 50 62 150z" />
    <glyph glyph-name="uni17B3" unicode="&#x17b3;" horiz-adv-x="1300" 
d="M860 1638q290 -77 290 -207q0 -89 -75 -89q-43 0 -72 4q-230 32 -251 214q-35 5 -75.5 8t-86.5 5q-245 0 -268 -15q-22 -22 -22 -46q0 -40 172 -142l-105 -30q-217 66 -217 140v47q0 33 65 71l66 39q100 59 228 59q42 0 88 -6q44 -7 85.5 -14t78.5 -15q50 144 339 144
q50 0 50 -45q0 -44 -50 -44q-199 0 -240 -78zM995 1459q-22 52 -131 80q32 -55 131 -80zM920 346v174h180v-570h-180v194q-9 -8 -19 -16t-21 -16q-149 -112 -330 -112q-190 0 -270 87t-80 260v178l438 167q282 107 282 261q0 123 -62 185q-64 62 -208 62q-122 0 -184 -47
q-59 -46 -79 -141q23 -3 44 -13q32 -15 50.5 -43.5t18.5 -58.5q0 -49 -40.5 -83t-94.5 -34q-66 0 -97 16q-32 15 -50 43t-18 58v56q0 175 100 260q101 87 350 87q250 0 350 -87q100 -85 100 -260q0 -219 -405 -371l-315 -126v-109q0 -123 42.5 -170t127.5 -47q105 0 238 72
q131 72 132 144z" />
    <glyph glyph-name="uni17B4" unicode="&#x17b4;" horiz-adv-x="1204" 
 />
    <glyph glyph-name="uni17B5" unicode="&#x17b5;" horiz-adv-x="1204" 
 />
    <glyph glyph-name="uni17B6" unicode="&#x17b6;" horiz-adv-x="610" 
d="M-242 1085q-23 29 -23 54q0 71 55 105q92 56 183 56q54 0 123.5 -32t134.5 -81.5t107 -105t42 -103.5v-978h-180v978q0 19 -26 47.5t-67 57t-87 47.5t-87 19q-78 0 -175 -64z" />
    <glyph glyph-name="uni17B7" unicode="&#x17b7;" 
d="M-1085 1750q0 200 320 200q200 0 375 -150l175 -150v-100h-620q-250 0 -250 200zM-965 1750q0 -70 130 -70h410q-139 150 -340 150q-200 0 -200 -80z" />
    <glyph glyph-name="uni17B8" unicode="&#x17b8;" 
d="M-390 1800l45 -39v189h130v-400h-620q-250 0 -250 200t320 200q200 0 375 -150zM-835 1680h410q-139 150 -340 150q-200 0 -200 -80q0 -70 130 -70z" />
    <glyph glyph-name="uni17B9" unicode="&#x17b9;" 
d="M-553 1905q10 29 32 51q44 44 131 44q88 0 132 -44q43 -43 43 -131t-43 -131l-4 -4l47 -40v-100h-620q-250 0 -250 200t320 200q110 0 212 -45zM-445 1839q0 -33 17 -52q19 -17 51 -17q35 0 52 17q16 17 16 52t-16 51q-17 17 -52 17q-32 0 -51 -17q-17 -17 -17 -51z
M-835 1680h410q-139 150 -340 150q-200 0 -200 -80q0 -70 130 -70z" />
    <glyph glyph-name="uni17BA" unicode="&#x17ba;" 
d="M-555 1906v94h130v-172q9 -7 18 -13.5t17 -14.5l45 -39v189h130v-400h-620q-250 0 -250 200t320 200q108 0 210 -44zM-835 1680h410q-139 150 -340 150q-200 0 -200 -80q0 -70 130 -70z" />
    <glyph glyph-name="uni17BB" unicode="&#x17bb;" 
d="M-360 -100q110 0 110 -100v-450h-150v350q-80 0 -80 100t120 100z" />
    <glyph glyph-name="uni17BC" unicode="&#x17bc;" 
d="M-450 -650q-133 0 -178 66q-32 47 -32 93q0 21 6 40l50 151q-80 0 -80 100t120 100q123 0 123 -125q0 -51 -21 -125l-41 -129q-7 -17 -7 -32q0 -39 60 -39q73 0 155 225q83 225 137 225q25 0 25 -69q0 -35 -10 -93.5t-32.5 -125.5t-59 -126.5t-90 -97.5t-125.5 -38z" />
    <glyph glyph-name="uni17BD" unicode="&#x17bd;" 
d="M-431 -503q-136 -147 -272 -147q-96 0 -96 129q0 78 130 221q21 26 21 46q0 34 -62 54q0 100 107 100q103 0 103 -67t-63 -174q-79 -133 -79 -168q0 -11 9 -11q92 0 233 182q41 -182 107 -182q44 0 78 210q35 210 73 210q39 0 39 -98q0 -95 -17 -200q-37 -252 -173 -252
q-82 0 -138 147z" />
    <glyph glyph-name="uni17BE" unicode="&#x17be;" 
d="M-390 1800l45 -39v189h130v-400h-620q-250 0 -250 200t320 200q200 0 375 -150zM-835 1680h410q-139 150 -340 150q-200 0 -200 -80q0 -70 130 -70z" />
    <glyph glyph-name="uni17BF" unicode="&#x17bf;" horiz-adv-x="610" 
d="M200 -400v1750q0 200 -120 200h-415q-250 0 -250 200t320 200q108 0 210 -44v94h130v-172q9 -7 18 -13.5t17 -14.5l45 -39v189h130v-357q95 -74 95 -243v-1750q0 -125 -95 -187q-94 -63 -285 -63q-190 0 -285 63q-95 62 -95 187v250h180v-250q0 -74 50 -112t150 -38
t150 38t50 112zM-335 1680h410q-139 150 -340 150q-200 0 -200 -80q0 -70 130 -70z" />
    <glyph glyph-name="uni17C0" unicode="&#x17c0;" horiz-adv-x="610" 
d="M200 -400v1740q0 106 -51 158t-153 52h-116q-250 0 -250 141q0 32 20 83t20 101q0 51 -94 51q0 74 137 74t137 -125q0 -62 -20 -105t-20 -79q0 -41 70 -41h116q191 0 288 -77q96 -78 96 -233v-1740q0 -125 -95 -187q-94 -63 -285 -63q-190 0 -285 63q-95 62 -95 187v250
h180v-250q0 -74 50 -112t150 -38t150 38t50 112z" />
    <glyph glyph-name="uni17C1" unicode="&#x17c1;" horiz-adv-x="610" 
d="M200 98v733q0 91 -150 119q16 116 82 234q65 116 110 116q36 0 94 -37l58 -38q25 -16 47 -16q20 0 39 14q-10 -157 -98 -168q-3 -1 -10 -1q-40 0 -103 36q-33 18 -55 18q-29 0 -41 -78q207 -51 207 -120v-477q150 0 150 -176q0 -257 -150 -257h-80q-100 0 -100 98z
M380 333v-220q50 0 50 144q0 76 -50 76z" />
    <glyph glyph-name="uni17C2" unicode="&#x17c2;" horiz-adv-x="610" 
d="M220 1536q-55 0 -55 -22q0 -23 85 -23q67 0 109 44q41 43 41 110q0 51 -30 85t-80 34q-90 0 -90 68t90 68q112 0 186 -65q74 -68 74 -190q0 -95 -72 -170q-73 -75 -228 -75q-113 0 -181 28q-69 29 -69 86t28 85q27 28 82 28q56 0 82 -22q28 -22 28 -69zM200 98v733
q0 91 -150 119q16 116 82 234q65 116 110 116q36 0 94 -37l58 -38q25 -16 47 -16q20 0 39 14q-10 -157 -98 -168q-3 -1 -10 -1q-40 0 -103 36q-33 18 -55 18q-29 0 -41 -78q207 -51 207 -120v-477q150 0 150 -176q0 -257 -150 -257h-80q-100 0 -100 98zM380 333v-220
q50 0 50 144q0 76 -50 76z" />
    <glyph glyph-name="uni17C3" unicode="&#x17c3;" horiz-adv-x="610" 
d="M125 1602q75 0 75 -64q0 -46 50 -46q100 0 100 91q0 65 -25 87.5t-75 22.5h-50q-150 0 -150 92q0 73 -100 73q0 92 100 92q78 0 114 -41q36 -40 36 -124h50q139 0 194 -46q56 -47 56 -156q0 -90 -56 -137q-55 -46 -194 -46q-200 0 -200 128q0 74 75 74zM200 98v733
q0 91 -150 119q16 116 82 234q65 116 110 116q36 0 94 -37l58 -38q25 -16 47 -16q20 0 39 14q-10 -157 -98 -168q-3 -1 -10 -1q-40 0 -103 36q-33 18 -55 18q-29 0 -41 -78q207 -51 207 -120v-477q150 0 150 -176q0 -257 -150 -257h-80q-100 0 -100 98zM380 333v-220
q50 0 50 144q0 76 -50 76z" />
    <glyph glyph-name="uni17C4" unicode="&#x17c4;" horiz-adv-x="610" 
d="M-242 1085q-23 29 -23 54q0 71 55 105q92 56 183 56q54 0 123.5 -32t134.5 -81.5t107 -105t42 -103.5v-978h-180v978q0 19 -26 47.5t-67 57t-87 47.5t-87 19q-78 0 -175 -64z" />
    <glyph glyph-name="uni17C5" unicode="&#x17c5;" horiz-adv-x="610" 
d="M370 1036l-5 5q15 -31 15 -63v-978h-180v978q0 19 -26 47.5t-67 57t-87 47.5t-87 19q-78 0 -175 -64q-23 29 -23 54q0 71 55 105q92 56 183 56q109 0 258 -113q5 -4 10 -7.5t9 -7.5v302q0 86 -100 86q0 87 125 87q155 0 155 -173v-260q0 -80 -60 -178z" />
    <glyph glyph-name="uni17C6" unicode="&#x17c6;" 
d="M-650 1950q56 0 111 -29q54 -29 84 -83t30 -113q0 -58 -30 -112q-29 -54 -82.5 -83.5t-112.5 -29.5q-58 0 -112 30q-53 29 -83 83t-30 112q0 59 30 113q31 54 84.5 83t110.5 29zM-650 1825q-40 0 -70 -29.5t-30 -70.5t30 -70.5t70 -29.5q42 0 71 29t29 71
q0 41 -29.5 70.5t-70.5 29.5z" />
    <glyph glyph-name="uni17C7" unicode="&#x17c7;" horiz-adv-x="900" 
d="M450 1290q62 0 123 -29q60 -29 93.5 -83t33.5 -113q0 -58 -33 -112t-92.5 -83.5t-124.5 -29.5t-124 30q-60 29 -93 83t-33 112q0 60 34 113q34 54 93.5 83t122.5 29zM450 1190q-46 0 -73 -34.5t-27 -90.5t26 -90.5t74 -34.5t74 34.5t26 90.5t-26.5 90.5t-73.5 34.5z
M450 460q62 0 123 -29q60 -29 93.5 -83t33.5 -113q0 -58 -33 -112t-92.5 -83.5t-124.5 -29.5t-124 30q-60 29 -93 83t-33 112q0 60 34 113q34 54 93.5 83t122.5 29zM450 360q-46 0 -73 -34.5t-27 -90.5t26 -90.5t74 -34.5t74 34.5t26 90.5t-26.5 90.5t-73.5 34.5z" />
    <glyph glyph-name="uni17C8" unicode="&#x17c8;" horiz-adv-x="625" 
d="M300 1270q33 0 62 -19t46 -55.5t17 -75.5q0 -41 -16 -74q-16 -36 -46 -56t-63 -20q-31 0 -62 20q-30 20 -46.5 55.5t-16.5 74.5q0 38 17 75q17 36 46.5 55.5t61.5 19.5zM300 330q33 0 62 -19t46 -55.5t17 -75.5q0 -41 -16 -74q-16 -36 -46 -56t-63 -20q-31 0 -62 20
q-30 20 -46.5 55.5t-16.5 74.5q0 38 17 75q17 36 46.5 55.5t61.5 19.5z" />
    <glyph glyph-name="uni17C9" unicode="&#x17c9;" 
d="M-875 1600v300h125v-300q0 -80 -62 -100q-63 20 -63 100zM-550 1600v300h125v-300q0 -80 -62 -100q-63 20 -63 100z" />
    <glyph glyph-name="uni17CA" unicode="&#x17ca;" 
d="M-1001 1391l-105 -31q-119 36 -119 86q0 34 65 73l66 39q131 80 163 80q34 0 145 -72l56 -36q27 -18 55 -18q26 0 51 18l50 36q101 72 137 72t92 -40l114 -80q33 -24 82 -24q32 0 74 11q-101 -107 -165 -107q-65 0 -102 26l-73 51q-37 27 -80 27q-44 0 -111 -52
q-68 -52 -109 -52q-67 0 -108 26l-81 51q-40 27 -84 27q-34 0 -60 -19q-27 -19 -27 -43q0 -22 74 -49z" />
    <glyph glyph-name="uni17CB" unicode="&#x17cb;" 
d="M-725 1600v350h150v-350q0 -80 -75 -100q-75 20 -75 100z" />
    <glyph glyph-name="uni17CC" unicode="&#x17cc;" 
d="M-830 1444q-62 -44 -99 -44q-33 0 -52 22q-13 16 -13 31q0 34 64 70l94 53q142 79 199 193q56 115 56 149q0 82 75 82q74 0 74 -82q-2 -60 -63 -151q-61 -92 -170 -183q64 14 118 14q39 0 73 -6q87 -17 148 -83q20 -29 20 -50q0 -31 -38 -48q-22 -11 -41 -11
q-38 0 -68 41q-43 61 -112 69q-40 3 -72 3q-62 0 -89 -10q-44 -17 -104 -59z" />
    <glyph glyph-name="uni17CD" unicode="&#x17cd;" 
d="M-855 1676q0 -38 12 -56q13 -19 48 -19q50 0 50 18q0 31 70 31t70 -31q0 -59 -44 -89q-43 -30 -141 -30q-127 0 -171 44t-44 131q0 78 45 136q45 59 175 59q127 0 175 -59q77 26 141 69t106 115l11 2q19 0 42 -29q15 -19 15 -34q0 -13 -12 -24q-46 -64 -105 -113
q-59 -48 -136 -86q-38 -11 -70 -11q-73 70 -137 70q-45 0 -72 -28q-28 -28 -28 -66z" />
    <glyph glyph-name="uni17CE" unicode="&#x17ce;" 
d="M-440 1649h-150v-149h-120v149h-150v121h150v149h120v-149h150v-121z" />
    <glyph glyph-name="uni17CF" unicode="&#x17cf;" 
d="M-430 2000q99 0 99 -63q0 -64 -99 -64q-36 0 -82 -85l-16 -42h-102q-210 0 -210 -127q0 -84 40 -84q41 0 150 115q109 -115 160 -115q30 0 30 42t-50 42q0 85 100 85t100 -127t-175 -127q-95 0 -165 85q-70 -85 -155 -85q-185 0 -185 169q0 212 360 212q73 169 200 169z
" />
    <glyph glyph-name="uni17D0" unicode="&#x17d0;" 
d="M-530 1838q130 0 130 -88q0 -80 -75 -80q-64 0 -75 42q0 -84 100 -84q175 0 238 45q62 45 62 134q0 102 -50 102t-50 42t50 42q76 0 138 -46q62 -47 62 -140q0 -132 -112 -198t-338 -66q-125 0 -188 42q-62 42 -62 127q0 126 170 126z" />
    <glyph glyph-name="uni17D1" unicode="&#x17d1;" 
d="M-275 1800v-100h-750v100h750z" />
    <glyph glyph-name="uni17D2" unicode="&#x17d2;" 
d="M-700 -200h100v-150h150v-100h-150v-150h-100v150h-150v100h150v150z" />
    <glyph glyph-name="uni17D3" unicode="&#x17d3;" 
d="M-400 1750q0 -100 -63 -150q-62 -50 -187 -50t-187 50q-63 50 -63 150q0 101 63 150q62 50 187 50t187 -50q63 -49 63 -150zM-800 1750q0 -50 37 -75t113 -25t113 25t37 75t-37 75t-113 25t-113 -25t-37 -75z" />
    <glyph glyph-name="uni17D4" unicode="&#x17d4;" horiz-adv-x="1250" 
d="M870 1206v94h180v-1122q0 -102 -48 -140q-47 -38 -142 -38q-56 0 -82 22q-28 21 -28 66q63 0 91.5 16t28.5 74v880q-158 -191 -370 -191q-300 0 -300 216q0 217 250 217q100 0 100 -65t-100 -65q-70 0 -70 -87q0 -86 120 -86q218 0 370 209z" />
    <glyph glyph-name="uni17D5" unicode="&#x17d5;" horiz-adv-x="1580" 
d="M870 1206v94h180v-1122q0 -102 -48 -140q-47 -38 -142 -38q-56 0 -82 22q-28 21 -28 66q63 0 91.5 16t28.5 74v880q-158 -191 -370 -191q-300 0 -300 216q0 217 250 217q100 0 100 -65t-100 -65q-70 0 -70 -87q0 -86 120 -86q218 0 370 209zM1200 130v1170h180v-1170
q0 -65 -62 -97q-63 -33 -218 -33q50 23 75 54q25 32 25 76z" />
    <glyph glyph-name="uni17D6" unicode="&#x17d6;" horiz-adv-x="900" 
d="M450 1300q62 0 123 -29q60 -29 93.5 -83t33.5 -113q0 -58 -33 -112t-92.5 -83.5t-124.5 -29.5t-124 30q-60 29 -93 83t-33 112q0 60 34 113q34 54 93.5 83t122.5 29zM450 1200q-46 0 -73 -34.5t-27 -90.5t26 -90.5t74 -34.5t74 34.5t26 90.5t-26.5 90.5t-73.5 34.5z
M50 600v100h800v-100h-800zM450 450q62 0 123 -29q60 -29 93.5 -83t33.5 -113q0 -58 -33 -112t-92.5 -83.5t-124.5 -29.5t-124 30q-60 29 -93 83t-33 112q0 60 34 113q34 54 93.5 83t122.5 29zM450 350q-46 0 -73 -34.5t-27 -90.5t26 -90.5t74 -34.5t74 34.5t26 90.5
t-26.5 90.5t-73.5 34.5z" />
    <glyph glyph-name="uni17D7" unicode="&#x17d7;" horiz-adv-x="1350" 
d="M734 1118l289 181h127v-996q0 -151 -104 -228q-103 -75 -312 -75q-206 0 -311 38q-104 38 -104 114q0 100 119 100q0 -82 74 -124q73 -40 222 -40q121 0 179 54q57 53 57 161v840l-234 -133l-224 150l-137 -112q0 -26 16 -38q14 -13 47 -13q28 0 44 11q15 11 15 32
q31 0 44 -18q15 -19 15 -57t-29 -58q-30 -18 -89 -18q-130 0 -184 42q-54 41 -54 117q32 62 99 125q65 62 173 127z" />
    <glyph glyph-name="uni17D8" unicode="&#x17d8;" horiz-adv-x="4450" 
d="M870 1206v94h180v-1122q0 -102 -48 -140q-47 -38 -142 -38q-56 0 -82 22q-28 21 -28 66q63 0 91.5 16t28.5 74v880q-158 -191 -370 -191q-300 0 -300 216q0 217 250 217q100 0 100 -65t-100 -65q-70 0 -70 -87q0 -86 120 -86q218 0 370 209zM1450 87v913q0 150 100 225
q101 75 345 75q245 0 345 -75t100 -225v-700q0 -100 63 -150q62 -50 177 -50q114 0 178 50q62 50 62 150v531q0 91 -130 119q17 119 78 234q62 116 105 116q35 0 90 -37l55 -38q25 -16 45 -16t37 14q-10 -157 -93 -168q-3 -1 -10 -1q-38 0 -98 36q-31 18 -53 18
q-27 0 -39 -78q193 -51 193 -120v-610q0 -150 -100 -225t-320 -75q-219 0 -320 75q-100 75 -100 225v700q0 100 -62 150q-64 50 -203 50q-140 0 -202 -50q-63 -49 -63 -150v-500q110 0 165 -46q55 -45 55 -137q0 -144 -62 -230q-63 -87 -188 -87q-150 0 -150 87zM4070 1206
v94h180v-1122q0 -102 -48 -140q-47 -38 -142 -38q-56 0 -82 22q-28 21 -28 66q63 0 91.5 16t28.5 74v880q-158 -191 -370 -191q-300 0 -300 216q0 217 250 217q100 0 100 -65t-100 -65q-70 0 -70 -87q0 -86 120 -86q218 0 370 209zM1630 400v-270q60 0 90 47t30 140
q0 43 -30 62q-30 21 -90 21z" />
    <glyph glyph-name="uni17D9" unicode="&#x17d9;" horiz-adv-x="1700" 
d="M850 0q-324 0 -487 163q-163 162 -163 487t163 488q164 162 487 162q325 0 488 -162q162 -163 162 -488t-162 -487q-163 -163 -488 -163zM850 1161q-511 0 -511 -511t511 -511t511 511t-511 511zM850 279q-187 0 -279 92q-92 94 -92 279t92 279q92 92 279 92t279 -92
q92 -94 92 -279t-92 -279q-92 -92 -279 -92zM850 882q-115 0 -174 -57q-58 -58 -58 -175q0 -116 58 -174t174 -58t174 58t58 174q0 117 -58 175q-58 57 -174 57z" />
    <glyph glyph-name="uni17DA" unicode="&#x17da;" horiz-adv-x="3850" 
d="M3156 640q44 16 87 26q116 27 262 27q95 0 95 -65t-99 -65h-120q-87 0 -152 -28q21 -38 29 -66q7 -24 7 -46q0 -53 -47 -85q-56 -37 -108 -37q-11 0 -16 1q-60 6 -110 61q-39 44 -39 86q0 12 3 25q15 51 89 104q-7 10 -15.5 20t-16.5 20q-9 10 -17 19l-16 18
q-46 -36 -102 -75q-39 -28 -72 -52t-61 -44q20 -32 32 -61q16 -39 16 -71q0 -50 -42 -77q-59 -38 -110 -38q-12 0 -18 1q-60 7 -113 66q-23 26 -23 60q0 41 35 94q15 22 41 51q-35 40 -86 98l-69 74q-49 -47 -112 -103q-75 -61 -129 -111q45 -57 67 -103q23 -49 23 -84
q0 -52 -46 -82q-72 -48 -137 -48q-9 0 -13 1q-71 5 -134 69q-31 31 -31 76q0 43 32 101q11 20 25.5 40.5t32.5 42.5q-22 21 -46.5 44.5t-52.5 49.5q-19 17 -37.5 34.5t-35.5 34.5q-34 -41 -73.5 -86t-86.5 -94q-222 -231 -418 -347q-197 -116 -363 -116q-207 0 -311 162
q-104 164 -104 488t119 487q118 163 356 163t357 -86q118 -85 118 -257q0 -176 -86 -283q-88 -108 -260 -145q-21 -6 -38 -6q-51 0 -66 47q-4 11 -4 23q0 44 69 60q117 26 176 101q59 76 59 197q0 109 -81 164q-82 55 -244 55t-243 -130q-81 -127 -81 -384v-6
q0 -259 66 -390q66 -130 199 -130q131 0 294 101q162 100 355 301q60 62 109.5 116t87.5 100q-55 69 -80 123q-25 53 -25 99q0 57 42 99q72 72 148 74h2q72 0 145 -72q37 -36 37 -92q0 -54 -38 -132q-21 -44 -59 -99q21 -22 45 -44.5t50 -46.5q23 -22 45 -42.5t41 -40.5
q25 23 52.5 48.5t58.5 51.5q81 66 138 117q-32 52 -54 109q-16 39 -16 74q0 59 49 90q68 44 127 44h16q68 -8 124 -71q26 -29 26 -68q0 -48 -37 -109q-24 -40 -56 -79q17 -20 37.5 -42t43.5 -47q22 -24 42 -46.5t37 -44.5q47 39 105 81q37 26 68.5 48.5t56.5 41.5
q-11 20 -20 38t-14 34q-9 29 -9 51q0 51 46 82q56 36 108 36q12 0 18 -1q61 -8 114 -65q24 -25 24 -60q0 -38 -35 -90q-19 -27 -48 -57q11 -11 22.5 -24.5t24.5 -27.5zM1793 848q61 82 61 115q0 11 -7 17q-24 21 -47 21q-28 0 -54 -30q-7 -7 -7 -20q0 -31 42 -87
q6 -10 12 -16zM2411 882q40 43 40 60q0 4 -2 6q-15 17 -33 17q-14 0 -30 -10q-5 -3 -5 -11q0 -18 30 -62zM2982 848q25 22 25 27q0 1 -1 1q-5 5 -11 5q-8 0 -19 -8q-2 -2 -2 -5q0 -6 8 -20zM3121 466q-16 -13 -16 -22q0 -4 1 -5q4 -7 12 -7q6 0 13 6q1 1 1 3q0 5 -11 25z
M2638 406q-21 -19 -21 -26l1 -1q7 -7 16 -7t16 4q2 2 2 4q0 6 -14 26zM2071 380q-44 -49 -44 -70q0 -6 4 -9q19 -19 41 -19q18 0 37 13q6 3 6 11q0 21 -44 74z" />
    <glyph glyph-name="uni17DB" unicode="&#x17db;" horiz-adv-x="610" 
d="M380 700h150v-100h-150v-502q0 -98 -100 -98h-80q-150 0 -150 267q0 166 150 166v167h-150v100h150v131q0 91 -150 119q16 116 82 234q65 116 110 116q36 0 94 -37l58 -38q25 -16 47 -16q20 0 39 14q-10 -157 -98 -168q-3 -1 -10 -1q-40 0 -103 36q-33 18 -55 18
q-29 0 -41 -78q207 -51 207 -120v-210zM200 113v220q-50 0 -50 -66q0 -154 50 -154z" />
    <glyph glyph-name="uni17DC" unicode="&#x17dc;" horiz-adv-x="1350" 
d="M675 -10q-237 0 -356 77.5t-119 225.5q0 70 26 108t75 52.5t128 14.5q60 0 60 -60q0 -58 -60 -58q-41 0 -41 -58q0 -146 287 -146q142 0 215 57t73 157q0 78 -34 118t-94 52.5t-160 12.5q-239 0 -357 72.5t-118 226.5q0 177 120 272.5t355 95.5q475 0 475 -300
q0 -71 -25 -108q-25 -39 -74.5 -53.5t-128.5 -14.5q-60 0 -60 59q0 58 60 58q41 0 41 59q0 69 -73 107t-215 38q-141 0 -214 -57t-73 -156q0 -78 34 -118q33 -40 93.5 -53t159.5 -13q239 0 357 -72.5t118 -226.5q0 -177 -120 -273t-355 -96z" />
    <glyph glyph-name="uni17DD" unicode="&#x17dd;" 
d="M-898 1470h-191q0 301 445 301t445 -301h-194q0 181 -252 181q-253 0 -253 -181z" />
    <glyph glyph-name="uni17E0" unicode="&#x17e0;" horiz-adv-x="1450" 
d="M1250 780v-260q0 -259 -131 -390q-130 -130 -394 -130q-263 0 -394 130q-131 131 -131 390v260q0 259 131 390q131 130 394 130q264 0 394 -130q131 -131 131 -390zM1070 520v260q0 196 -78 308q-79 112 -267 112q-187 0 -266 -112t-79 -308v-260q0 -195 79 -307
q80 -113 266 -113q187 0 267 113q78 113 78 307z" />
    <glyph glyph-name="uni17E1" unicode="&#x17e1;" horiz-adv-x="1550" 
d="M1350 780q0 -377 -203 -578q-205 -202 -547 -202v87q219 0 395 185q175 184 175 508q0 238 -118 329t-304 91q-176 0 -272 -87q-96 -88 -96 -246q0 -135 57.5 -213t165.5 -78q64 0 96 45t32 102v9q-24 -6 -43 -6q-55 0 -78 45q-15 30 -15 55q0 61 92 99q42 16 78 16
q70 0 106 -68q33 -64 33 -121q0 -41 -19 -104q-19 -64 -71 -110t-139 -57q-37 -5 -72 -5q-42 0 -90.5 5.5t-103 32t-116.5 88.5q-93 95 -93 265q0 196 147 314q149 119 401 119q264 0 433 -123q169 -124 169 -397z" />
    <glyph glyph-name="uni17E2" unicode="&#x17e2;" horiz-adv-x="1550" 
d="M200 347v973q0 116 -150 116q0 134 130 134q200 0 200 -250v-973q0 -111 97 -179t273 -68h50q176 0 273 68t97 179v693q0 56 -58 114q-2 1 -7 1q-35 0 -154 -158q-117 158 -153 158q-5 0 -7 -1q-61 -58 -61 -114v-368q82 0 119 -27q37 -28 37 -82q0 -130 -156 -130
q-180 0 -180 87v520q0 107 109 183q110 77 139 77t153 -116q124 116 152 116q29 0 138 -77q109 -76 109 -183v-693q0 -148 -140 -247q-139 -100 -410 -100h-50q-271 0 -410 100q-140 99 -140 247zM730 585v-65q56 0 56 43q0 11 -13 17q-13 5 -43 5z" />
    <glyph glyph-name="uni17E3" unicode="&#x17e3;" horiz-adv-x="1750" 
d="M380 997v-722q82 0 119 -31t37 -94q0 -150 -156 -150q-180 0 -180 100v897q0 152 94 227q94 76 281 76q207 0 300 -93q93 93 300 93q189 0 281 -76q94 -75 94 -227v-997h-180v997q0 103 -49 152q-48 51 -146 51q-104 0 -157 -51q-53 -50 -53 -152v-997h-180v997
q0 103 -52 152q-52 51 -158 51q-96 0 -146 -51q-49 -49 -49 -152zM380 175v-75q56 0 56 50q0 12 -13 19q-12 6 -43 6z" />
    <glyph glyph-name="uni17E4" unicode="&#x17e4;" horiz-adv-x="1450" 
d="M200 265v441q0 295 435 418t435 226q0 62 -108 62q0 88 100 88q188 0 188 -150q0 -185 -435 -314q-435 -130 -435 -330v-441q0 -34 38 -64.5t100 -49.5t132 -19h412q-172 194 -172 265v221q0 176 180 176q50 0 96 -21q45 -22 64.5 -61.5t19.5 -89.5q0 -32 -14.5 -63.5
t-53 -52.5t-112.5 -21v-88q0 -89 90 -188l90 -99v-110h-600q-133 0 -234.5 34.5t-158.5 94.5t-57 136zM1130 618q10 7 10 31q0 27 -70 45v-86q50 0 60 10z" />
    <glyph glyph-name="uni17E5" unicode="&#x17e5;" horiz-adv-x="1450" 
d="M765 1047l201 -23q8 -1 16 -1.5t15 -0.5q73 0 73 125v203q0 150 180 150q100 0 100 -88q-100 0 -100 -62v-203q0 -265 -225 -265l-386 58q-31 -18 -69 -36q-190 -87 -190 -278v-361q0 -34 38 -64.5t100 -49.5t132 -19h412q-162 152 -162 221v176q0 177 146 177
q74 0 120 -21q45 -22 64.5 -61.5t19.5 -89.5q0 -49 -35 -93t-135 -44v-44q0 -88 170 -243v-110h-600q-133 0 -234.5 34.5t-158.5 94.5t-57 136v361q0 247 266 360q-100 48 -100 142q0 196 212 196t212 -196q0 -43 -25 -81zM622 1069q34 30 34 59q0 77 -78 77t-78 -77
q0 -39 122 -59zM1130 529q10 9 10 31q0 29 -60 45v-85q40 0 50 9z" />
    <glyph glyph-name="uni17E6" unicode="&#x17e6;" horiz-adv-x="1450" 
d="M592 580q-21 4 -46 4q-71 0 -118 -46q-48 -46 -48 -131q0 -124 76 -200q77 -77 270 -77q180 0 262 93q82 92 82 375v95q0 265 -87 371t-252 106q-268 0 -351 -216q0 -87 -105 -87q-75 0 -75 87v346q0 101 -150 101q0 116 130 116q200 0 200 -217v-117q138 117 351 117
q239 0 368 -129q151 -151 151 -478v-95q0 -346 -140 -477q-130 -121 -384 -121q-288 0 -407 123q-119 125 -119 284q0 132 119 221q98 72 225 72q29 0 59 -3q166 -20 221 -103q29 -44 29 -93q0 -47 -26 -101q-27 -56 -81 -56q-22 0 -50 11q-65 23 -65 70q0 21 12 43
q21 44 59 53q-11 43 -110 59z" />
    <glyph glyph-name="uni17E7" unicode="&#x17e7;" horiz-adv-x="1680" 
d="M1300 173v1167q0 116 -150 116q0 134 130 134q200 0 200 -250v-1167q0 -173 -255 -173t-255 173v867q0 55 -63 110q-21 12 -45 12q-79 0 -186 -140q-107 140 -187 140q-24 0 -45 -12q-64 -55 -64 -110v-520q124 0 167 -51q43 -52 43 -109q0 -69 -40 -143
q-41 -78 -116 -147q-83 -70 -140 -70q-94 0 -94 87v953q0 106 116 183t179 77q51 0 181 -116q128 116 181 116q61 0 177 -77t116 -183v-867q0 -48 75 -48t75 48zM380 404v-212q76 77 76 145q0 35 -27 51q-26 16 -49 16z" />
    <glyph glyph-name="uni17E8" unicode="&#x17e8;" horiz-adv-x="1450" 
d="M1070 260v130q-98 0 -133 43.5t-35 90.5q0 49 20 89q20 38 65 59t99 21q164 0 164 -173v-260q0 -260 -290 -260q-164 0 -235 110q-71 -110 -235 -110q-290 0 -290 260v607q0 187 118 309q118 124 391 124q223 0 361 -117v117q0 217 200 217q130 0 130 -116
q-150 0 -150 -101v-303q0 -87 -94 -87q-71 0 -94 44q-46 108 -135 162q-88 54 -218 54q-178 0 -253 -76q-76 -76 -76 -227v-607q0 -135 110 -135q87 0 130 55t43 111t62 56t62 -56t43 -111t130 -55q110 0 110 135zM1070 511v84q-58 -18 -58 -45q0 -21 10 -30q11 -9 48 -9z
" />
    <glyph glyph-name="uni17E9" unicode="&#x17e9;" horiz-adv-x="1450" 
d="M916 155q-35 61 -35 100q0 19 8 33q25 45 75 61q49 17 93 17h9q46 -1 91 -31q43 -28 43 -119t-146 -154q-148 -62 -354 -62q-247 0 -366 90q-134 102 -134 300q0 146 74 244q74 96 224 143q-98 75 -98 220q0 162 103 237q89 66 276 66q153 0 291 -117v117q0 101 -158 101
q0 116 130 116q208 0 208 -217v-260q0 -86 -94 -86q-32 0 -54 43q-164 173 -323 173q-98 0 -148 -34q-51 -34 -51 -135q0 -91 54.5 -137t195.5 -46q195 0 364 -118q56 -44 56 -121q0 -35 -23 -35q-28 0 -92 53q-115 96 -305 96q-221 0 -335 -75q-115 -76 -115 -228
q0 -136 83 -198t237 -62q109 0 216 25zM1022 204l39 30q0 37 -19 37q-7 0 -10 -1q-22 -7 -29 -19q-1 -2 -1 -7q0 -12 20 -40z" />
    <glyph glyph-name="uni25CC" unicode="&#x25cc;" horiz-adv-x="1216" 
d="M662 1053q0 -56 -54 -56q-53 0 -53 56q0 53 53 53q54 0 54 -53zM489 1016q0 -53 -55 -53q-53 0 -53 53q0 55 53 55q55 0 55 -55zM836 1016q0 -53 -52 -53q-57 0 -57 53q0 55 57 55q52 0 52 -55zM342 918q0 -54 -55 -54q-54 0 -54 51q0 58 54 58q55 0 55 -55zM983 918
q0 -54 -51 -54q-55 0 -55 54q0 55 55 55q51 0 51 -55zM242 770q0 -55 -52 -55q-57 0 -57 55q0 53 55 53q54 0 54 -53zM1083 770q0 -55 -55 -55q-53 0 -53 55q0 53 55 53q53 0 53 -53zM207 596q0 -53 -53 -53q-56 0 -56 53t56 53q53 0 53 -53zM1118 596q0 -53 -51 -53
q-55 0 -55 53t55 53q51 0 51 -53zM242 422q0 -53 -54 -53q-55 0 -55 53q0 55 55 55q54 0 54 -55zM1083 422q0 -53 -55 -53q-53 0 -53 53q0 55 53 55q55 0 55 -55zM342 272q0 -53 -55 -53q-54 0 -54 53q0 56 54 56q55 0 55 -56zM983 272q0 -53 -51 -53q-55 0 -55 53
q0 56 55 56q51 0 51 -56zM489 178q0 -55 -55 -55q-53 0 -53 51q0 55 53 55q55 0 55 -51zM836 174q0 -51 -52 -51q-57 0 -57 51q0 55 57 55q52 0 52 -55zM662 141q0 -55 -54 -55q-53 0 -53 55q0 54 53 54q54 0 54 -54z" />
    <glyph glyph-name="uni1789.a" horiz-adv-x="1950" 
d="M1100 1000v-1000h-180v1000q0 158 -80 158q-68 0 -136 -102q-22 -34 -54 -34t-54 34q-66 102 -135 102q-81 0 -81 -158v-500q110 0 165 -46q55 -45 55 -137q0 -144 -62 -230q-63 -87 -188 -87q-150 0 -150 87v913q0 123 75 211q75 89 170 89q94 0 205 -134
q113 134 207 134t169 -89q3 -3 4 -5v1q3 3 5 4q116 89 301 89q184 0 300 -89q114 -88 114 -211v-1000h-180v1000q0 80 -68 140q-69 60 -167 60q-97 0 -166 -60t-69 -140zM380 400v-270q60 0 90 47t30 140q0 43 -30 62q-30 21 -90 21z" />
    <glyph glyph-name="uni17BF.b" horiz-adv-x="610" 
d="M380 1350v-2015q0 -117 -95 -176t-285 -59t-285 59t-95 176v115h180v-115q0 -70 50 -105q50 -36 150 -36q101 0 150 36q50 35 50 105v2015q0 200 -120 200h-415q-250 0 -250 200t320 200q108 0 210 -44v94h130v-172q9 -7 18 -13.5t17 -14.5l45 -39v189h130v-357
q95 -74 95 -243zM-335 1680h410q-139 150 -340 150q-200 0 -200 -80q0 -70 130 -70z" />
    <glyph glyph-name="uni17C0.b" horiz-adv-x="610" 
d="M200 -665v2005q0 106 -51 158t-153 52h-116q-250 0 -250 141q0 32 20 83t20 101q0 51 -94 51q0 74 137 74t137 -125q0 -62 -20 -105t-20 -79q0 -41 70 -41h116q191 0 288 -77q96 -78 96 -233v-2005q0 -117 -95 -176t-285 -59t-285 59t-95 176v115h180v-115q0 -70 50 -105
q50 -36 150 -36q101 0 150 36q50 35 50 105z" />
    <glyph glyph-name="uni17B6.space" horiz-adv-x="650" 
 />
    <glyph glyph-name="uni1780_17B6" horiz-adv-x="1300" 
d="M381 959l-108 -52q-123 68 -123 139q0 27 34.5 60.5t87.5 67.5t109 62.5t100 46t60 17.5q38 0 155 -47l174 -73q29 -13 76 -13q45 0 87 20l58 30q140 83 185 83q47 0 155 -44q319 -133 319 -298v-958h-180v898q0 109 -147 173q-146 64 -218 64q-67 0 -174 -63
q-109 -62 -155 -62q-48 0 -125 33l-133 55q-78 37 -156 37q-58 0 -107.5 -28t-49.5 -84q0 -33 76 -64zM380 650v-650h-180v650q0 150 100 225q101 75 350 75q250 0 350 -75t100 -225v-650h-180v650q0 100 -62 150q-64 50 -208 50q-145 0 -207 -50q-63 -49 -63 -150z" />
    <glyph glyph-name="uni1780_17C5" horiz-adv-x="1300" 
d="M1734 1029q16 -33 16 -71v-958h-180v898q0 109 -147 173q-146 64 -218 64q-67 0 -174 -63q-109 -62 -155 -62q-48 0 -125 33l-133 55q-78 37 -156 37q-58 0 -107.5 -28t-49.5 -84q0 -33 76 -64l-108 -52q-123 68 -123 139q0 27 34.5 60.5t87.5 67.5t109 62.5t100 46
t60 17.5q38 0 155 -47l174 -73q29 -13 76 -13q45 0 87 20l58 30q140 83 185 83q47 0 155 -44q117 -49 189 -100v318q0 86 -100 86q0 87 125 87q155 0 155 -173v-260q0 -78 -66 -185zM380 650v-650h-180v650q0 150 100 225q101 75 350 75q250 0 350 -75t100 -225v-650h-180
v650q0 100 -62 150q-64 50 -208 50q-145 0 -207 -50q-63 -49 -63 -150z" />
    <glyph glyph-name="uni1781_17B6" horiz-adv-x="1300" 
d="M1039 1172l121 72q92 56 183 56q109 0 258 -113q149 -114 149 -209v-978h-180v978q0 37 -92 105q-93 66 -175 66q-62 0 -214 -89q11 -50 11 -107q0 -219 -405 -371l-315 -126v-109q0 -123 63 -185q62 -62 207 -62q144 0 208 62q62 62 62 185v173h180v-173
q0 -173 -100 -260t-350 -87q-249 0 -350 87q-100 87 -100 260v178l438 167q282 107 282 261q0 123 -62 185q-64 62 -208 62q-122 0 -184 -47q-59 -46 -79 -141q23 -3 44 -13q32 -15 50.5 -43.5t18.5 -58.5q0 -49 -40.5 -83t-94.5 -34q-66 0 -97 16q-32 15 -50 43t-18 58v56
q0 175 100 260q101 87 350 87q250 0 350 -87q25 -21 39 -41z" />
    <glyph glyph-name="uni1781_17C5" horiz-adv-x="1300" 
d="M1738 1034q12 -28 12 -56v-978h-180v978q0 37 -92 105q-93 66 -175 66q-62 0 -214 -89q11 -50 11 -107q0 -219 -405 -371l-315 -126v-109q0 -123 63 -185q62 -62 207 -62q144 0 208 62q62 62 62 185v173h180v-173q0 -173 -100 -260t-350 -87q-249 0 -350 87
q-100 87 -100 260v178l438 167q282 107 282 261q0 123 -62 185q-64 62 -208 62q-122 0 -184 -47q-59 -46 -79 -141q23 -3 44 -13q32 -15 50.5 -43.5t18.5 -58.5q0 -49 -40.5 -83t-94.5 -34q-66 0 -97 16q-32 15 -50 43t-18 58v56q0 175 100 260q101 87 350 87q250 0 350 -87
q25 -21 39 -41l121 72q92 56 183 56q109 0 258 -113q5 -4 10 -7.5t9 -7.5v302q0 86 -100 86q0 87 125 87q155 0 155 -173v-260q0 -76 -62 -180z" />
    <glyph glyph-name="uni1782_17B6" horiz-adv-x="1300" 
d="M381 959l-108 -52q-123 68 -123 139q0 27 34.5 60.5t87.5 67.5t109 62.5t100 46t60 17.5q38 0 155 -47l174 -73q29 -13 76 -13q45 0 87 20l58 30q140 83 185 83q47 0 155 -44q319 -133 319 -298v-958h-180v898q0 109 -147 173q-146 64 -218 64q-67 0 -174 -63
q-109 -62 -155 -62q-48 0 -125 33l-133 55q-78 37 -156 37q-58 0 -107.5 -28t-49.5 -84q0 -33 76 -64zM380 650v-322q96 105 200 105q150 0 150 -108q0 -80 -110 -80q0 28 -40 28q-100 0 -150 -98l-50 -88v-87h-180v650q0 150 100 225q101 75 350 75q250 0 350 -75t100 -225
v-650h-180v650q0 100 -62 150q-64 50 -208 50q-145 0 -207 -50q-63 -49 -63 -150z" />
    <glyph glyph-name="uni1782_17C5" horiz-adv-x="1300" 
d="M1734 1029q16 -33 16 -71v-958h-180v898q0 109 -147 173q-146 64 -218 64q-67 0 -174 -63q-109 -62 -155 -62q-48 0 -125 33l-133 55q-78 37 -156 37q-58 0 -107.5 -28t-49.5 -84q0 -33 76 -64l-108 -52q-123 68 -123 139q0 27 34.5 60.5t87.5 67.5t109 62.5t100 46
t60 17.5q38 0 155 -47l174 -73q29 -13 76 -13q45 0 87 20l58 30q140 83 185 83q47 0 155 -44q117 -49 189 -100v318q0 86 -100 86q0 87 125 87q155 0 155 -173v-260q0 -78 -66 -185zM380 650v-322q96 105 200 105q150 0 150 -108q0 -80 -110 -80q0 28 -40 28
q-100 0 -150 -98l-50 -88v-87h-180v650q0 150 100 225q101 75 350 75q250 0 350 -75t100 -225v-650h-180v650q0 100 -62 150q-64 50 -208 50q-145 0 -207 -50q-63 -49 -63 -150z" />
    <glyph glyph-name="uni1783_17B6" horiz-adv-x="1950" 
d="M1750 893v-593q0 -150 -100 -225t-332 -75t-333 75q-2 2 -5 4t-5 4q-2 -2 -5 -4t-5 -4q-100 -75 -332 -75t-333 75q-100 75 -100 225v300q0 130 50 224q12 23 19 43h-19q-150 0 -150 216q0 109 45 163t135 54q84 0 128 -62q42 -61 42 -186q0 -127 -35 -243t-35 -209v-300
q0 -100 63 -150q62 -50 190 -50q126 0 190 50q62 50 62 150v531q0 91 -130 119q17 121 83 234q68 116 110 116q35 0 90 -37l55 -38q25 -16 58 -16q20 0 37 4q-7 -57 -37 -106q-31 -48 -69 -52q-3 -1 -10 -1q-38 0 -98 36q-31 18 -53 18q-27 0 -39 -78q183 -51 183 -120v-610
q0 -100 63 -150q62 -50 190 -50q126 0 190 50q62 50 62 150v542q0 95 -136 110q11 125 127 234q116 110 227 110q167 0 279 -47q333 -142 333 -336v-913h-180v863q0 144 -259 232q-87 29 -220 29q-104 0 -163 -107q172 -52 172 -124zM300 1052q0 68 -12 101q-13 34 -38 34
t-37 -26q-13 -25 -13 -78q0 -120 50 -120h42q8 50 8 89z" />
    <glyph glyph-name="uni1783_17C5" horiz-adv-x="1950" 
d="M2377 1012q23 -49 23 -99v-913h-180v863q0 144 -259 232q-87 29 -220 29q-104 0 -163 -107q172 -52 172 -124v-593q0 -150 -100 -225t-332 -75t-333 75q-2 2 -5 4t-5 4q-2 -2 -5 -4t-5 -4q-100 -75 -332 -75t-333 75q-100 75 -100 225v300q0 130 50 224q12 23 19 43h-19
q-150 0 -150 216q0 109 45 163t135 54q84 0 128 -62q42 -61 42 -186q0 -127 -35 -243t-35 -209v-300q0 -100 63 -150q62 -50 190 -50q126 0 190 50q62 50 62 150v531q0 91 -130 119q17 121 83 234q68 116 110 116q35 0 90 -37l55 -38q25 -16 58 -16q20 0 37 4
q-7 -57 -37 -106q-31 -48 -69 -52q-3 -1 -10 -1q-38 0 -98 36q-31 18 -53 18q-27 0 -39 -78q183 -51 183 -120v-610q0 -100 63 -150q62 -50 190 -50q126 0 190 50q62 50 62 150v542q0 95 -136 110q11 125 127 234q116 110 227 110q167 0 279 -47q126 -53 203 -114v339
q0 86 -100 86q0 87 125 87q155 0 155 -173v-260q0 -78 -73 -202zM300 1052q0 68 -12 101q-13 34 -38 34t-37 -26q-13 -25 -13 -78q0 -120 50 -120h42q8 50 8 89z" />
    <glyph glyph-name="uni1784_17B6" horiz-adv-x="1300" 
d="M956 1005q5 -2 9.5 -4t9.5 -4q125 -59 125 -217v-780h-150l-300 260l-300 -260h-150v520q-100 34 -100 104t40 113t110 43q130 0 130 -86v-527l270 225l270 -234v622q0 62 -13 92t-34 44t-45 28q-142 -78 -298 -78q-158 0 -241 60q-89 66 -89 200q0 67 25 129t25 131
q0 88 -100 88q0 86 100 86q180 0 180 -174q0 -83 -25 -136t-25 -124q0 -85 40 -119t110 -34q103 0 205 29q-105 77 -105 142q0 156 190 156q178 0 180 -155l160 99q92 56 183 56q109 0 258 -113q149 -114 149 -209v-978h-180v978q0 37 -92 105q-93 66 -175 66
q-66 0 -347 -144zM870 1144q0 52 -50 52q-70 0 -70 -52q0 -28 83 -78q37 37 37 78z" />
    <glyph glyph-name="uni1784_17C5" horiz-adv-x="1300" 
d="M1738 1034q12 -28 12 -56v-978h-180v978q0 37 -92 105q-93 66 -175 66q-66 0 -347 -144q5 -2 9.5 -4t9.5 -4q125 -59 125 -217v-780h-150l-300 260l-300 -260h-150v520q-100 34 -100 104t40 113t110 43q130 0 130 -86v-527l270 225l270 -234v622q0 62 -13 92t-34 44
t-45 28q-142 -78 -298 -78q-158 0 -241 60q-89 66 -89 200q0 67 25 129t25 131q0 88 -100 88q0 86 100 86q180 0 180 -174q0 -83 -25 -136t-25 -124q0 -85 40 -119t110 -34q103 0 205 29q-105 77 -105 142q0 156 190 156q178 0 180 -155l160 99q92 56 183 56q109 0 258 -113
q5 -4 10 -7.5t9 -7.5v302q0 86 -100 86q0 87 125 87q155 0 155 -173v-260q0 -76 -62 -180zM870 1144q0 52 -50 52q-70 0 -70 -52q0 -28 83 -78q37 37 37 78z" />
    <glyph glyph-name="uni1785_17B6" horiz-adv-x="1300" 
d="M245 1049q0 -39 135 -74v-675q0 -100 63 -150q62 -50 207 -50q144 0 208 50q62 50 62 150v350q-70 34 -70 104t40 113t110 43q100 0 100 -87v-523q0 -150 -100 -225t-350 -75q-249 0 -350 75q-100 75 -100 225v620q-100 34 -100 127q0 61 93 109l94 47q185 97 240 97
q52 0 169 -47l174 -73q29 -13 76 -13q45 0 87 20l58 30q140 83 185 83q47 0 155 -44q319 -133 319 -298v-958h-180v898q0 109 -147 173q-146 64 -218 64q-67 0 -174 -63q-109 -62 -155 -62q-48 0 -125 33l-133 55q-78 37 -160 37q-81 0 -147 -19t-66 -67z" />
    <glyph glyph-name="uni1785_17C5" horiz-adv-x="1300" 
d="M1734 1029q16 -33 16 -71v-958h-180v898q0 109 -147 173q-146 64 -218 64q-67 0 -174 -63q-109 -62 -155 -62q-48 0 -125 33l-133 55q-78 37 -160 37q-81 0 -147 -19t-66 -67q0 -39 135 -74v-675q0 -100 63 -150q62 -50 207 -50q144 0 208 50q62 50 62 150v350
q-70 34 -70 104t40 113t110 43q100 0 100 -87v-523q0 -150 -100 -225t-350 -75q-249 0 -350 75q-100 75 -100 225v620q-100 34 -100 127q0 61 93 109l94 47q185 97 240 97q52 0 169 -47l174 -73q29 -13 76 -13q45 0 87 20l58 30q140 83 185 83q47 0 155 -44
q117 -49 189 -100v318q0 86 -100 86q0 87 125 87q155 0 155 -173v-260q0 -78 -66 -185z" />
    <glyph glyph-name="uni1786_17B6" horiz-adv-x="1300" 
d="M200 425v495q-100 34 -100 127q0 61 93 109l94 47q185 97 240 97q52 0 169 -47l174 -73q29 -13 76 -13q45 0 87 20l58 30q140 83 185 83q47 0 155 -44q319 -133 319 -298v-958h-180v898q0 109 -147 173q-146 64 -218 64q-67 0 -174 -63q-109 -62 -155 -62q-48 0 -125 33
l-133 55q-78 37 -160 37q-81 0 -147 -19t-66 -67q0 -39 135 -74v-542q270 0 270 -216q0 -117 150 -117q120 0 120 117v320h-25q-67 0 -111 44t-44 121q0 78 50 143t130 65q81 0 130 -33q50 -32 50 -107v-553q0 -217 -300 -217t-300 217q0 116 -120 116v-160
q0 -173 -140 -173t-140 286q0 105 100 139zM895 637h25v133q0 30 -15 30t-40 -31t-25 -67q0 -35 18.5 -50t36.5 -15z" />
    <glyph glyph-name="uni1786_17C5" horiz-adv-x="1300" 
d="M1734 1029q16 -33 16 -71v-958h-180v898q0 109 -147 173q-146 64 -218 64q-67 0 -174 -63q-109 -62 -155 -62q-48 0 -125 33l-133 55q-78 37 -160 37q-81 0 -147 -19t-66 -67q0 -39 135 -74v-542q270 0 270 -216q0 -117 150 -117q120 0 120 117v320h-25q-67 0 -111 44
t-44 121q0 78 50 143t130 65q81 0 130 -33q50 -32 50 -107v-553q0 -217 -300 -217t-300 217q0 116 -120 116v-160q0 -173 -140 -173t-140 286q0 105 100 139v495q-100 34 -100 127q0 61 93 109l94 47q185 97 240 97q52 0 169 -47l174 -73q29 -13 76 -13q45 0 87 20l58 30
q140 83 185 83q47 0 155 -44q117 -49 189 -100v318q0 86 -100 86q0 87 125 87q155 0 155 -173v-260q0 -78 -66 -185zM895 637h25v133q0 30 -15 30t-40 -31t-25 -67q0 -35 18.5 -50t36.5 -15z" />
    <glyph glyph-name="uni1787_17B6" horiz-adv-x="1300" 
d="M957 1050q-55 -30 -117 -30q-252 0 -363 63q-112 62 -142 62q-32 0 -58 -19q-27 -19 -27 -45q0 -24 130 -85v-829l270 225l270 -234v752h180v-910h-150l-300 260l-300 -260h-150v941q-100 49 -100 125q0 67 65 109l66 40q130 85 163 85q59 0 165 -67q181 -106 281 -106
q120 0 120 152q0 52 -80 52t-80 95q0 65 80 65q220 0 220 -212q0 -39 -11 -78l71 43q92 56 183 56q109 0 258 -113q149 -114 149 -209v-978h-180v978q0 37 -92 105q-93 66 -175 66q-64 0 -346 -99z" />
    <glyph glyph-name="uni1787_17C5" horiz-adv-x="1300" 
d="M1738 1034q12 -28 12 -56v-978h-180v978q0 37 -92 105q-93 66 -175 66q-64 0 -346 -99q-55 -30 -117 -30q-252 0 -363 63q-112 62 -142 62q-32 0 -58 -19q-27 -19 -27 -45q0 -24 130 -85v-829l270 225l270 -234v752h180v-910h-150l-300 260l-300 -260h-150v941
q-100 49 -100 125q0 67 65 109l66 40q130 85 163 85q59 0 165 -67q181 -106 281 -106q120 0 120 152q0 52 -80 52t-80 95q0 65 80 65q220 0 220 -212q0 -39 -11 -78l71 43q92 56 183 56q109 0 258 -113q5 -4 10 -7.5t9 -7.5v302q0 86 -100 86q0 87 125 87q155 0 155 -173
v-260q0 -76 -62 -180z" />
    <glyph glyph-name="uni1788_17B6" horiz-adv-x="2500" 
d="M2300 893v-593q0 -150 -100 -225t-307 -75t-308 75q-2 2 -5 4t-5 4q-2 -2 -5 -4t-5 -4q-100 -75 -302 -75t-303 75q-100 75 -100 225v700q0 100 -62 150q-64 50 -178 50q-115 0 -177 -50q-63 -49 -63 -150v-500q110 0 165 -46q55 -45 55 -137q0 -144 -62 -230
q-63 -87 -188 -87q-150 0 -150 87v913q0 150 100 225q101 75 320 75q220 0 320 -75t100 -225v-700q0 -100 63 -150q62 -50 160 -50q96 0 160 50q62 50 62 150v531q0 91 -130 119q17 121 83 234q68 116 110 116q35 0 90 -37l55 -38q25 -16 58 -16q20 0 37 4q-7 -57 -37 -106
q-31 -48 -69 -52q-3 -1 -10 -1q-38 0 -98 36q-31 18 -53 18q-27 0 -39 -78q183 -51 183 -120v-610q0 -100 63 -150q62 -50 165 -50q101 0 165 50q62 50 62 150v542q0 95 -136 110q11 125 127 234q116 110 227 110q167 0 279 -47q333 -142 333 -336v-913h-180v863
q0 144 -259 232q-87 29 -220 29q-104 0 -163 -107q172 -52 172 -124zM380 400v-270q60 0 90 47t30 140q0 43 -30 62q-30 21 -90 21z" />
    <glyph glyph-name="uni1788_17C5" horiz-adv-x="2500" 
d="M2927 1012q23 -49 23 -99v-913h-180v863q0 144 -259 232q-87 29 -220 29q-104 0 -163 -107q172 -52 172 -124v-593q0 -150 -100 -225t-307 -75t-308 75q-2 2 -5 4t-5 4q-2 -2 -5 -4t-5 -4q-100 -75 -302 -75t-303 75q-100 75 -100 225v700q0 100 -62 150q-64 50 -178 50
q-115 0 -177 -50q-63 -49 -63 -150v-500q110 0 165 -46q55 -45 55 -137q0 -144 -62 -230q-63 -87 -188 -87q-150 0 -150 87v913q0 150 100 225q101 75 320 75q220 0 320 -75t100 -225v-700q0 -100 63 -150q62 -50 160 -50q96 0 160 50q62 50 62 150v531q0 91 -130 119
q17 121 83 234q68 116 110 116q35 0 90 -37l55 -38q25 -16 58 -16q20 0 37 4q-7 -57 -37 -106q-31 -48 -69 -52q-3 -1 -10 -1q-38 0 -98 36q-31 18 -53 18q-27 0 -39 -78q183 -51 183 -120v-610q0 -100 63 -150q62 -50 165 -50q101 0 165 50q62 50 62 150v542q0 95 -136 110
q11 125 127 234q116 110 227 110q167 0 279 -47q126 -53 203 -114v339q0 86 -100 86q0 87 125 87q155 0 155 -173v-260q0 -78 -73 -202zM380 400v-270q60 0 90 47t30 140q0 43 -30 62q-30 21 -90 21z" />
    <glyph glyph-name="uni1789_17B6" horiz-adv-x="1950" 
d="M1742 1062q8 -32 8 -62v-1000h-180v1000q0 80 -68.5 140t-166.5 60q-64 0 -117.5 -27.5t-85.5 -73t-32 -99.5v-1000h-180v1000q0 158 -80 158q-68 0 -136 -102q-22 -34 -54 -34t-54 34q-66 102 -135 102q-81 0 -81 -158v-500q110 0 165 -46q55 -45 55 -137
q0 -144 -62 -230q-63 -87 -188 -87q-150 0 -150 87v913q0 123 75 211q75 89 170 89q94 0 205 -134q113 134 207 134t169 -89q3 -3 4 -5v1q3 3 5 4q116 89 301 89q184 0 300 -89q13 -10 25 -21t22 -22l127 76q92 56 183 56q109 0 258 -113q149 -114 149 -209v-978h-180v978
q0 37 -92 105q-93 66 -175 66q-61 0 -211 -87zM380 400v-270q60 0 90 47t30 140q0 43 -30 62q-30 21 -90 21zM1570 -266q0 53 -65 53q-62 0 -62 57q0 56 62 56q245 0 245 -166q0 -139 -115 -220q-160 -114 -546 -114q-278 0 -494 98q-208 95 -354 277q-41 43 -41 84t52 41
q50 0 82 -41q144 -153 332 -231q189 -78 423 -78q317 0 399 57t82 127z" />
    <glyph glyph-name="uni1789_17C5" horiz-adv-x="1950" 
d="M2388 1034q12 -28 12 -56v-978h-180v978q0 37 -92 105q-93 66 -175 66q-61 0 -211 -87q8 -32 8 -62v-1000h-180v1000q0 80 -68 140q-69 60 -167 60q-97 0 -166 -60t-69 -140v-1000h-180v1000q0 158 -80 158q-68 0 -136 -102q-22 -34 -54 -34t-54 34q-66 102 -135 102
q-81 0 -81 -158v-500q110 0 165 -46q55 -45 55 -137q0 -144 -62 -230q-63 -87 -188 -87q-150 0 -150 87v913q0 123 75 211q75 89 170 89q94 0 205 -134q113 134 207 134t169 -89q3 -3 4 -5v1q3 3 5 4q116 89 301 89q184 0 300 -89q13 -10 25 -21t22 -22l127 76q92 56 183 56
q109 0 258 -113q5 -4 10 -7.5t9 -7.5v302q0 86 -100 86q0 87 125 87q155 0 155 -173v-260q0 -76 -62 -180zM380 400v-270q60 0 90 47t30 140q0 43 -30 62q-30 21 -90 21zM1570 -266q0 53 -65 53q-62 0 -62 57q0 56 62 56q245 0 245 -166q0 -139 -115 -220
q-160 -114 -546 -114q-278 0 -494 98q-208 95 -354 277q-41 43 -41 84t52 41q50 0 82 -41q144 -153 332 -231q189 -78 423 -78q317 0 399 57t82 127z" />
    <glyph glyph-name="uni178A_17B6" horiz-adv-x="1300" 
d="M1100 1215v-7l60 36q92 56 183 56q109 0 258 -113q149 -114 149 -209v-978h-180v978q0 37 -92 105q-93 66 -175 66q-56 0 -260 -70q-18 -21 -43 -43q-100 -87 -340 -87q-25 0 -49 0.5t-47 1.5q-364 16 -364 174q0 90 47 134q44 41 128 41q95 0 139 -47q36 -37 36 -100
q0 -60 -32 -98l28 -2t30 -2q20 -1 41 -1.5t43 -0.5q203 0 246 51q44 50 44 115q0 83 -100 83h-50q0 151 110 151q80 0 135 -58t55 -176zM377 1095h23q50 0 50 37q0 17 -11 26q-13 10 -39 10q-24 0 -38 -9q-12 -9 -12 -27q0 -22 27 -37zM350 0h-150v870h180v-703l270 225
l270 -234v712h180v-870h-150l-300 260z" />
    <glyph glyph-name="uni178A_17C5" horiz-adv-x="1300" 
d="M1100 1215v-7l60 36q92 56 183 56q109 0 258 -113q5 -4 10 -7.5t9 -7.5v302q0 86 -100 86q0 87 125 87q155 0 155 -173v-260q0 -76 -62 -180q12 -28 12 -56v-978h-180v978q0 37 -92 105q-93 66 -175 66q-56 0 -260 -70q-18 -21 -43 -43q-100 -87 -340 -87q-25 0 -49 0.5
t-47 1.5q-364 16 -364 174q0 90 47 134q44 41 128 41q95 0 139 -47q36 -37 36 -100q0 -60 -32 -98l28 -2t30 -2q20 -1 41 -1.5t43 -0.5q203 0 246 51q44 50 44 115q0 83 -100 83h-50q0 151 110 151q80 0 135 -58t55 -176zM377 1095h23q50 0 50 37q0 17 -11 26q-13 10 -39 10
q-24 0 -38 -9q-12 -9 -12 -27q0 -22 27 -37zM350 0h-150v870h180v-703l270 225l270 -234v712h180v-870h-150l-300 260z" />
    <glyph glyph-name="uni178B_17B6" horiz-adv-x="1300" 
d="M1171 1110q-2 -5 -5 -9t-5 -7q-34 -40 -73 -40t-99 36q-31 18 -53 18q-27 0 -29 -78q193 -51 193 -120v-610q0 -150 -100 -225t-350 -75q-249 0 -350 75q-100 75 -100 225v300q0 130 50 224q12 23 19 43h-19q-150 0 -150 216q0 109 45 163t135 54q84 0 128 -62
q42 -61 42 -186q0 -127 -35 -243t-35 -209v-300q0 -100 63 -150q62 -50 207 -50q144 0 208 50q62 50 62 150v531q0 91 -130 119q6 120 58 234q53 116 95 116q35 0 90 -37l26 -18q6 -2 10 -2q31 0 31 79q0 64 -100 64t-100 82q0 81 100 81q200 0 200 -227v-56q71 34 143 34
q109 0 258 -113q149 -114 149 -209v-978h-180v978q0 37 -92 105q-93 66 -175 66q-58 0 -132 -39zM300 1052q0 68 -12 101q-13 34 -38 34t-37 -26q-13 -25 -13 -78q0 -120 50 -120h42q8 50 8 89z" />
    <glyph glyph-name="uni178B_17C5" horiz-adv-x="1300" 
d="M1738 1034q12 -28 12 -56v-978h-180v978q0 37 -92 105q-93 66 -175 66q-58 0 -132 -39q-2 -5 -5 -9t-5 -7q-34 -40 -73 -40t-99 36q-31 18 -53 18q-27 0 -29 -78q193 -51 193 -120v-610q0 -150 -100 -225t-350 -75q-249 0 -350 75q-100 75 -100 225v300q0 130 50 224
q12 23 19 43h-19q-150 0 -150 216q0 109 45 163t135 54q84 0 128 -62q42 -61 42 -186q0 -127 -35 -243t-35 -209v-300q0 -100 63 -150q62 -50 207 -50q144 0 208 50q62 50 62 150v531q0 91 -130 119q6 120 58 234q53 116 95 116q35 0 90 -37l26 -18q6 -2 10 -2q31 0 31 79
q0 64 -100 64t-100 82q0 81 100 81q200 0 200 -227v-56q71 34 143 34q109 0 258 -113q5 -4 10 -7.5t9 -7.5v302q0 86 -100 86q0 87 125 87q155 0 155 -173v-260q0 -76 -62 -180zM300 1052q0 68 -12 101q-13 34 -38 34t-37 -26q-13 -25 -13 -78q0 -120 50 -120h42q8 50 8 89z
" />
    <glyph glyph-name="uni178C_17B6" horiz-adv-x="1300" 
d="M1095 1064q5 -35 5 -64v-77q0 -219 -405 -371l-315 -126v-79q0 -123 42.5 -170t127.5 -47q105 0 238 72q131 72 132 144v174h180v-570h-180v194q-9 -8 -19 -16t-21 -16q-149 -112 -330 -112q-190 0 -270 87t-80 260v148l438 167q282 107 282 261v77q0 158 -80 158
q-68 0 -136 -102q-22 -34 -54 -34t-54 34q-66 102 -135 102q-78 0 -81 -146q30 -3 51 -13q32 -15 50.5 -43.5t18.5 -58.5q0 -49 -40.5 -83t-94.5 -34q-66 0 -97 16q-32 15 -50 43t-18 58v103q0 123 75 211q75 89 170 89q94 0 205 -134q113 134 207 134t169 -89
q14 -16 24 -33l110 66q92 56 183 56q109 0 258 -113q149 -114 149 -209v-978h-180v978q0 37 -92 105q-93 66 -175 66q-62 0 -208 -85z" />
    <glyph glyph-name="uni178C_17C5" horiz-adv-x="1300" 
d="M1738 1034q12 -28 12 -56v-978h-180v978q0 37 -92 105q-93 66 -175 66q-62 0 -208 -85q5 -35 5 -64v-77q0 -219 -405 -371l-315 -126v-79q0 -123 42.5 -170t127.5 -47q105 0 238 72q131 72 132 144v174h180v-570h-180v194q-9 -8 -19 -16t-21 -16q-149 -112 -330 -112
q-190 0 -270 87t-80 260v148l438 167q282 107 282 261v77q0 158 -80 158q-68 0 -136 -102q-22 -34 -54 -34t-54 34q-66 102 -135 102q-78 0 -81 -146q30 -3 51 -13q32 -15 50.5 -43.5t18.5 -58.5q0 -49 -40.5 -83t-94.5 -34q-66 0 -97 16q-32 15 -50 43t-18 58v103
q0 123 75 211q75 89 170 89q94 0 205 -134q113 134 207 134t169 -89q14 -16 24 -33l110 66q92 56 183 56q109 0 258 -113q5 -4 10 -7.5t9 -7.5v302q0 86 -100 86q0 87 125 87q155 0 155 -173v-260q0 -76 -62 -180z" />
    <glyph glyph-name="uni178D_17B6" horiz-adv-x="1950" 
d="M1750 893v-676q0 -217 -280 -217t-280 217q0 116 -90 116v-160q0 -173 -140 -173t-140 286q0 105 100 139v575q0 158 -80 158q-68 0 -136 -102q-22 -34 -54 -34t-54 34q-66 102 -135 102q-81 0 -81 -158v-500q110 0 165 -46q55 -45 55 -137q0 -144 -62 -230
q-63 -87 -188 -87q-150 0 -150 87v913q0 123 75 211q75 89 170 89q94 0 205 -134q113 134 207 134t169 -89q74 -89 74 -211v-567q240 0 240 -216q0 -117 115 -117t115 117v625q0 95 -136 110q11 125 127 234q116 110 227 110q167 0 279 -47q333 -142 333 -336v-913h-180v863
q0 144 -259 232q-87 29 -220 29q-104 0 -163 -107q172 -52 172 -124zM380 400v-270q60 0 90 47t30 140q0 43 -30 62q-30 21 -90 21z" />
    <glyph glyph-name="uni178D_17C5" horiz-adv-x="1950" 
d="M1750 893v-676q0 -217 -280 -217t-280 217q0 116 -90 116v-160q0 -173 -140 -173t-140 286q0 105 100 139v575q0 158 -80 158q-68 0 -136 -102q-22 -34 -54 -34t-54 34q-66 102 -135 102q-81 0 -81 -158v-500q110 0 165 -46q55 -45 55 -137q0 -144 -62 -230
q-63 -87 -188 -87q-150 0 -150 87v913q0 123 75 211q75 89 170 89q94 0 205 -134q113 134 207 134t169 -89q74 -89 74 -211v-567q240 0 240 -216q0 -117 115 -117t115 117v625q0 95 -136 110q11 125 127 234q116 110 227 110q167 0 279 -47q126 -53 203 -114v339
q0 86 -100 86q0 87 125 87q155 0 155 -173v-260q0 -78 -73 -202q23 -49 23 -99v-913h-180v863q0 144 -259 232q-87 29 -220 29q-104 0 -163 -107q172 -52 172 -124zM380 400v-270q60 0 90 47t30 140q0 43 -30 62q-30 21 -90 21z" />
    <glyph glyph-name="uni178E_17B6" horiz-adv-x="2500" 
d="M2295 1064q5 -33 5 -64v-1000h-180v1000q0 100 -62 150q-64 50 -168 50q-105 0 -167 -50q-63 -49 -63 -150v-1000h-180l-230 200l-230 -200h-180v1000q0 100 -62 150q-64 50 -168 50q-105 0 -167 -50q-63 -49 -63 -150v-500q110 0 165 -46q55 -45 55 -137
q0 -144 -62 -230q-63 -87 -188 -87q-150 0 -150 87v913q0 150 100 225q101 75 310 75q210 0 310 -75t100 -225v-868l230 200l230 -199v867q0 150 100 225q101 75 310 75q210 0 310 -75q29 -21 48 -48l112 67q92 56 183 56q109 0 258 -113q149 -114 149 -209v-978h-180v978
q0 37 -92 105q-93 66 -175 66q-62 0 -208 -85zM380 400v-270q60 0 90 47t30 140q0 43 -30 62q-30 21 -90 21z" />
    <glyph glyph-name="uni178E_17C5" horiz-adv-x="2500" 
d="M2938 1034q12 -28 12 -56v-978h-180v978q0 37 -92 105q-93 66 -175 66q-62 0 -208 -85q5 -33 5 -64v-1000h-180v1000q0 100 -62 150q-64 50 -168 50q-105 0 -167 -50q-63 -49 -63 -150v-1000h-180l-230 200l-230 -200h-180v1000q0 100 -62 150q-64 50 -168 50
q-105 0 -167 -50q-63 -49 -63 -150v-500q110 0 165 -46q55 -45 55 -137q0 -144 -62 -230q-63 -87 -188 -87q-150 0 -150 87v913q0 150 100 225q101 75 310 75q210 0 310 -75t100 -225v-868l230 200l230 -199v867q0 150 100 225q101 75 310 75q210 0 310 -75q29 -21 48 -48
l112 67q92 56 183 56q109 0 258 -113q5 -4 10 -7.5t9 -7.5v302q0 86 -100 86q0 87 125 87q155 0 155 -173v-260q0 -76 -62 -180zM380 400v-270q60 0 90 47t30 140q0 43 -30 62q-30 21 -90 21z" />
    <glyph glyph-name="uni178F_17B6" horiz-adv-x="1300" 
d="M381 959l-108 -52q-123 68 -123 139q0 27 34.5 60.5t87.5 67.5t109 62.5t100 46t60 17.5q38 0 155 -47l174 -73q29 -13 76 -13q45 0 87 20l58 30q140 83 185 83q47 0 155 -44q319 -133 319 -298v-958h-180v898q0 109 -147 173q-146 64 -218 64q-67 0 -174 -63
q-109 -62 -155 -62q-48 0 -125 33l-133 55q-78 37 -156 37q-58 0 -107.5 -28t-49.5 -84q0 -33 76 -64zM380 650v-217h45q88 0 131 -43q44 -44 44 -130q0 -130 -50 -195t-150 -65t-150 33q-50 32 -50 97v520q0 150 100 225q101 75 350 75q250 0 350 -75t100 -225v-650h-180
v650q0 100 -62 150q-64 50 -208 50q-145 0 -207 -50q-63 -49 -63 -150zM425 333h-45v-203q0 -20 35 -20q34 0 60 32q25 31 25 118q0 43 -18.5 58t-56.5 15z" />
    <glyph glyph-name="uni178F_17C5" horiz-adv-x="1300" 
d="M1734 1029q16 -33 16 -71v-958h-180v898q0 109 -147 173q-146 64 -218 64q-67 0 -174 -63q-109 -62 -155 -62q-48 0 -125 33l-133 55q-78 37 -156 37q-58 0 -107.5 -28t-49.5 -84q0 -33 76 -64l-108 -52q-123 68 -123 139q0 27 34.5 60.5t87.5 67.5t109 62.5t100 46
t60 17.5q38 0 155 -47l174 -73q29 -13 76 -13q45 0 87 20l58 30q140 83 185 83q47 0 155 -44q117 -49 189 -100v318q0 86 -100 86q0 87 125 87q155 0 155 -173v-260q0 -78 -66 -185zM380 650v-217h45q88 0 131 -43q44 -44 44 -130q0 -130 -50 -195t-150 -65t-150 33
q-50 32 -50 97v520q0 150 100 225q101 75 350 75q250 0 350 -75t100 -225v-650h-180v650q0 100 -62 150q-64 50 -208 50q-145 0 -207 -50q-63 -49 -63 -150zM425 333h-45v-203q0 -20 35 -20q34 0 60 32q25 31 25 118q0 43 -18.5 58t-56.5 15z" />
    <glyph glyph-name="uni1790_17B6" horiz-adv-x="1300" 
d="M957 1050q-55 -30 -117 -30q-252 0 -363 63q-112 62 -142 62q-32 0 -58 -19q-27 -19 -27 -45q0 -24 130 -85v-696q0 -100 63 -150q62 -50 207 -50q144 0 208 50q62 50 62 150v350q-70 34 -70 104t40 113t110 43q100 0 100 -87v-523q0 -150 -100 -225t-350 -75
q-249 0 -350 75q-100 75 -100 225v641q-100 49 -100 125q0 67 65 109l66 40q130 85 163 85q59 0 165 -67q181 -106 281 -106q120 0 120 152q0 52 -80 52t-80 95q0 65 80 65q220 0 220 -212q0 -39 -11 -78l71 43q92 56 183 56q109 0 258 -113q149 -114 149 -209v-978h-180
v978q0 37 -92 105q-93 66 -175 66q-64 0 -346 -99z" />
    <glyph glyph-name="uni1790_17C5" horiz-adv-x="1300" 
d="M1738 1034q12 -28 12 -56v-978h-180v978q0 37 -92 105q-93 66 -175 66q-64 0 -346 -99q-55 -30 -117 -30q-252 0 -363 63q-112 62 -142 62q-32 0 -58 -19q-27 -19 -27 -45q0 -24 130 -85v-696q0 -100 63 -150q62 -50 207 -50q144 0 208 50q62 50 62 150v350
q-70 34 -70 104t40 113t110 43q100 0 100 -87v-523q0 -150 -100 -225t-350 -75q-249 0 -350 75q-100 75 -100 225v641q-100 49 -100 125q0 67 65 109l66 40q130 85 163 85q59 0 165 -67q181 -106 281 -106q120 0 120 152q0 52 -80 52t-80 95q0 65 80 65q220 0 220 -212
q0 -39 -11 -78l71 43q92 56 183 56q109 0 258 -113q5 -4 10 -7.5t9 -7.5v302q0 86 -100 86q0 87 125 87q155 0 155 -173v-260q0 -76 -62 -180z" />
    <glyph glyph-name="uni1791_17B6" horiz-adv-x="1300" 
d="M1093 1063q7 -31 7 -70v-36q0 -29 -18 -58q-18 -28 -50 -43.5t-97 -15.5q-54 0 -94.5 34t-40.5 83q0 30 18.5 58.5t50.5 43.5q7 3 13.5 5.5t13.5 4.5q-23 54 -62 84q-62 47 -184 47q-144 0 -208 -62q-62 -62 -62 -185v-73q0 -150 98 -227q97 -76 292 -76q0 160 205 160
q125 0 125 -126q0 -134 -150 -134v-217q0 -130 -75 -195q-76 -65 -225 -65q-164 0 -247 65t-83 195v147h180v-147q0 -79 38 -120q37 -40 112 -40q60 0 90 40q30 41 30 120v217q-284 0 -427 101t-143 302v73q0 175 100 260q101 87 350 87q250 0 350 -87q23 -20 40 -41l120 72
q92 56 183 56q109 0 258 -113q149 -114 149 -209v-978h-180v978q0 37 -92 105q-93 66 -175 66q-61 0 -210 -86zM950 577q50 0 50 34q0 22 -25 22t-25 -56z" />
    <glyph glyph-name="uni1791_17C5" horiz-adv-x="1300" 
d="M1738 1034q12 -28 12 -56v-978h-180v978q0 37 -92 105q-93 66 -175 66q-61 0 -210 -86q7 -31 7 -70v-36q0 -29 -18 -58q-18 -28 -50 -43.5t-97 -15.5q-54 0 -94.5 34t-40.5 83q0 30 18.5 58.5t50.5 43.5q7 3 13.5 5.5t13.5 4.5q-23 54 -62 84q-62 47 -184 47
q-144 0 -208 -62q-62 -62 -62 -185v-73q0 -150 98 -227q97 -76 292 -76q0 160 205 160q125 0 125 -126q0 -134 -150 -134v-217q0 -130 -75 -195q-76 -65 -225 -65q-164 0 -247 65t-83 195v147h180v-147q0 -79 38 -120q37 -40 112 -40q60 0 90 40q30 41 30 120v217
q-284 0 -427 101t-143 302v73q0 175 100 260q101 87 350 87q250 0 350 -87q23 -20 40 -41l120 72q92 56 183 56q109 0 258 -113q5 -4 10 -7.5t9 -7.5v302q0 86 -100 86q0 87 125 87q155 0 155 -173v-260q0 -76 -62 -180zM950 577q50 0 50 34q0 22 -25 22t-25 -56z" />
    <glyph glyph-name="uni1792_17B6" horiz-adv-x="1300" 
d="M650 260l-300 -260h-150v920q-100 34 -100 127q0 61 93 109l94 47q185 97 240 97q52 0 169 -47l174 -73q29 -13 76 -13q45 0 87 20l58 30q140 83 185 83q47 0 155 -44q319 -133 319 -298v-958h-180v898q0 109 -147 173q-146 64 -218 64q-67 0 -174 -63q-109 -62 -155 -62
q-48 0 -125 33l-133 55q-78 37 -160 37q-81 0 -147 -19t-66 -67q0 -39 135 -74v-808l270 225l270 -234v492q-70 34 -70 104t40 113t110 43q100 0 100 -87v-823h-150z" />
    <glyph glyph-name="uni1792_17C5" horiz-adv-x="1300" 
d="M1734 1029q16 -33 16 -71v-958h-180v898q0 109 -147 173q-146 64 -218 64q-67 0 -174 -63q-109 -62 -155 -62q-48 0 -125 33l-133 55q-78 37 -160 37q-81 0 -147 -19t-66 -67q0 -39 135 -74v-808l270 225l270 -234v492q-70 34 -70 104t40 113t110 43q100 0 100 -87v-823
h-150l-300 260l-300 -260h-150v920q-100 34 -100 127q0 61 93 109l94 47q185 97 240 97q52 0 169 -47l174 -73q29 -13 76 -13q45 0 87 20l58 30q140 83 185 83q47 0 155 -44q117 -49 189 -100v318q0 86 -100 86q0 87 125 87q155 0 155 -173v-260q0 -78 -66 -185z" />
    <glyph glyph-name="uni1793_17B6" horiz-adv-x="1300" 
d="M1089 1061q11 -52 11 -108v-56q0 -29 -18 -58q-18 -28 -50 -43.5t-97 -15.5q-54 0 -94.5 34t-40.5 83q0 30 18.5 58.5t50.5 43.5q21 10 44 13q-20 95 -79 141q-62 47 -184 47q-144 0 -208 -62q-62 -62 -62 -185q0 -93 90 -171t270 -141l360 -126v-255q0 -260 -285 -260
q-132 0 -235 124q-103 123 -200 123v-247h-180v520h180v-173q125 0 240 -123q114 -124 195 -124q105 0 105 160v194l-360 124q-180 62 -270 156q-90 95 -90 219q0 175 100 260q101 87 350 87q250 0 350 -87q25 -21 39 -41l121 72q92 56 183 56q109 0 258 -113
q149 -114 149 -209v-978h-180v978q0 37 -92 105q-93 66 -175 66q-63 0 -214 -88z" />
    <glyph glyph-name="uni1793_17C5" horiz-adv-x="1300" 
d="M1738 1034q12 -28 12 -56v-978h-180v978q0 37 -92 105q-93 66 -175 66q-63 0 -214 -88q11 -52 11 -108v-56q0 -29 -18 -58q-18 -28 -50 -43.5t-97 -15.5q-54 0 -94.5 34t-40.5 83q0 30 18.5 58.5t50.5 43.5q21 10 44 13q-20 95 -79 141q-62 47 -184 47q-144 0 -208 -62
q-62 -62 -62 -185q0 -93 90 -171t270 -141l360 -126v-255q0 -260 -285 -260q-132 0 -235 124q-103 123 -200 123v-247h-180v520h180v-173q125 0 240 -123q114 -124 195 -124q105 0 105 160v194l-360 124q-180 62 -270 156q-90 95 -90 219q0 175 100 260q101 87 350 87
q250 0 350 -87q25 -21 39 -41l121 72q92 56 183 56q109 0 258 -113q5 -4 10 -7.5t9 -7.5v302q0 86 -100 86q0 87 125 87q155 0 155 -173v-260q0 -76 -62 -180z" />
    <glyph glyph-name="uni1794_17B6" horiz-adv-x="1300" 
d="M920 350v560h180v-960h-180v170l-5 -5q-115 -115 -315 -115q-199 0 -300 75q-100 75 -100 225v620q-100 34 -100 127q0 61 93 109l94 47q185 97 240 97q52 0 169 -47l174 -73q29 -13 76 -13q45 0 87 20l58 30q140 83 185 83q47 0 155 -44q319 -133 319 -298v-958h-180
v898q0 109 -147 173q-146 64 -218 64q-67 0 -174 -63q-109 -62 -155 -62q-48 0 -125 33l-133 55q-78 37 -160 37q-81 0 -147 -19t-66 -67q0 -39 135 -74v-675q0 -100 63 -150q62 -50 157 -50q115 0 218 90q102 90 102 160z" />
    <glyph glyph-name="uni1794_17C5" horiz-adv-x="1300" 
d="M1734 1029q16 -33 16 -71v-958h-180v898q0 109 -147 173q-146 64 -218 64q-67 0 -174 -63q-109 -62 -155 -62q-48 0 -125 33l-133 55q-78 37 -160 37q-81 0 -147 -19t-66 -67q0 -39 135 -74v-675q0 -100 63 -150q62 -50 157 -50q115 0 218 90q102 90 102 160v560h180
v-960h-180v170l-5 -5q-115 -115 -315 -115q-199 0 -300 75q-100 75 -100 225v620q-100 34 -100 127q0 61 93 109l94 47q185 97 240 97q52 0 169 -47l174 -73q29 -13 76 -13q45 0 87 20l58 30q140 83 185 83q47 0 155 -44q117 -49 189 -100v318q0 86 -100 86q0 87 125 87
q155 0 155 -173v-260q0 -78 -66 -185z" />
    <glyph glyph-name="uni1795_17B6" horiz-adv-x="1300" 
d="M957 1050q-55 -30 -117 -30q-252 0 -363 63q-112 62 -142 62q-32 0 -58 -19q-27 -19 -27 -45q0 -24 130 -85v-829l270 225l270 -234v379h-25q-67 0 -111 44t-44 121q0 78 50 143t130 65q81 0 130 -33q50 -32 50 -107v-770h-150l-300 260l-300 -260h-150v941
q-100 49 -100 125q0 67 65 109l66 40q130 85 163 85q59 0 165 -67q181 -106 281 -106q120 0 120 152q0 52 -80 52t-80 95q0 65 80 65q220 0 220 -212q0 -39 -11 -78l71 43q92 56 183 56q109 0 258 -113q149 -114 149 -209v-978h-180v978q0 37 -92 105q-93 66 -175 66
q-64 0 -346 -99zM895 637h25v133q0 30 -15 30t-40 -31t-25 -67q0 -35 18.5 -50t36.5 -15z" />
    <glyph glyph-name="uni1795_17C5" horiz-adv-x="1300" 
d="M1738 1034q12 -28 12 -56v-978h-180v978q0 37 -92 105q-93 66 -175 66q-64 0 -346 -99q-55 -30 -117 -30q-252 0 -363 63q-112 62 -142 62q-32 0 -58 -19q-27 -19 -27 -45q0 -24 130 -85v-829l270 225l270 -234v379h-25q-67 0 -111 44t-44 121q0 78 50 143t130 65
q81 0 130 -33q50 -32 50 -107v-770h-150l-300 260l-300 -260h-150v941q-100 49 -100 125q0 67 65 109l66 40q130 85 163 85q59 0 165 -67q181 -106 281 -106q120 0 120 152q0 52 -80 52t-80 95q0 65 80 65q220 0 220 -212q0 -39 -11 -78l71 43q92 56 183 56q109 0 258 -113
q5 -4 10 -7.5t9 -7.5v302q0 86 -100 86q0 87 125 87q155 0 155 -173v-260q0 -76 -62 -180zM895 637h25v133q0 30 -15 30t-40 -31t-25 -67q0 -35 18.5 -50t36.5 -15z" />
    <glyph glyph-name="uni1796_17B6" horiz-adv-x="1300" 
d="M1095 1064q5 -35 5 -64v-1000h-180v1000q0 158 -80 158q-68 0 -136 -102q-22 -34 -54 -34t-54 34q-66 102 -135 102q-81 0 -81 -158v-500q110 0 165 -46q55 -45 55 -137q0 -144 -62 -230q-63 -87 -188 -87q-150 0 -150 87v913q0 123 75 211q75 89 170 89q94 0 205 -134
q113 134 207 134t169 -89q14 -16 24 -33l110 66q92 56 183 56q109 0 258 -113q149 -114 149 -209v-978h-180v978q0 37 -92 105q-93 66 -175 66q-62 0 -208 -85zM380 400v-270q60 0 90 47t30 140q0 43 -30 62q-30 21 -90 21z" />
    <glyph glyph-name="uni1796_17C5" horiz-adv-x="1300" 
d="M1738 1034q12 -28 12 -56v-978h-180v978q0 37 -92 105q-93 66 -175 66q-62 0 -208 -85q5 -35 5 -64v-1000h-180v1000q0 158 -80 158q-68 0 -136 -102q-22 -34 -54 -34t-54 34q-66 102 -135 102q-81 0 -81 -158v-500q110 0 165 -46q55 -45 55 -137q0 -144 -62 -230
q-63 -87 -188 -87q-150 0 -150 87v913q0 123 75 211q75 89 170 89q94 0 205 -134q113 134 207 134t169 -89q14 -16 24 -33l110 66q92 56 183 56q109 0 258 -113q5 -4 10 -7.5t9 -7.5v302q0 86 -100 86q0 87 125 87q155 0 155 -173v-260q0 -76 -62 -180zM380 400v-270
q60 0 90 47t30 140q0 43 -30 62q-30 21 -90 21z" />
    <glyph glyph-name="uni1797_17B6" horiz-adv-x="1300" 
d="M381 959l-108 -52q-123 68 -123 139q0 27 34.5 60.5t87.5 67.5t109 62.5t100 46t60 17.5q38 0 155 -47l174 -73q29 -13 76 -13q45 0 87 20l58 30q140 83 185 83q47 0 155 -44q319 -133 319 -298v-958h-180v898q0 109 -147 173q-146 64 -218 64q-67 0 -174 -63
q-109 -62 -155 -62q-48 0 -125 33l-133 55q-78 37 -156 37q-58 0 -107.5 -28t-49.5 -84q0 -33 76 -64zM200 650q0 150 100 225q101 75 350 75q250 0 350 -75t100 -225v-650h-180v650q0 100 -62 150q-64 50 -208 50q-145 0 -207 -50q-63 -49 -63 -150q0 -44 50 -159t50 -243
q0 -248 -200 -248q-180 0 -180 217q0 216 150 216h19q-7 20 -19 43q-50 94 -50 174zM292 333h-42q-50 0 -50 -116q0 -104 50 -104t50 135q0 51 -8 85z" />
    <glyph glyph-name="uni1797_17C5" horiz-adv-x="1300" 
d="M1734 1029q16 -33 16 -71v-958h-180v898q0 109 -147 173q-146 64 -218 64q-67 0 -174 -63q-109 -62 -155 -62q-48 0 -125 33l-133 55q-78 37 -156 37q-58 0 -107.5 -28t-49.5 -84q0 -33 76 -64l-108 -52q-123 68 -123 139q0 27 34.5 60.5t87.5 67.5t109 62.5t100 46
t60 17.5q38 0 155 -47l174 -73q29 -13 76 -13q45 0 87 20l58 30q140 83 185 83q47 0 155 -44q117 -49 189 -100v318q0 86 -100 86q0 87 125 87q155 0 155 -173v-260q0 -78 -66 -185zM300 875q101 75 350 75q250 0 350 -75t100 -225v-650h-180v650q0 100 -62 150
q-64 50 -208 50q-145 0 -207 -50q-63 -49 -63 -150q0 -44 50 -159t50 -243q0 -248 -200 -248q-180 0 -180 217q0 216 150 216h19q-7 20 -19 43q-50 94 -50 174q0 150 100 225zM292 333h-42q-50 0 -50 -116q0 -104 50 -104t50 135q0 51 -8 85z" />
    <glyph glyph-name="uni1798_17B6" horiz-adv-x="1300" 
d="M1100 893v-593q0 -150 -100 -225t-350 -75q-249 0 -350 75q-100 75 -100 225v531q0 91 -130 119q17 121 83 234q68 116 110 116q35 0 90 -37l55 -38q25 -16 58 -16q20 0 37 4q-7 -57 -37 -106q-31 -48 -69 -52q-3 -1 -10 -1q-38 0 -98 36q-31 18 -53 18q-27 0 -39 -78
q183 -51 183 -120v-258h540v190q0 95 -136 110q11 125 127 234q116 110 227 110q167 0 279 -47q333 -142 333 -336v-913h-180v863q0 144 -259 232q-87 29 -220 29q-104 0 -163 -107q172 -52 172 -124zM920 300v252h-540v-252q0 -100 63 -150q62 -50 207 -50q144 0 208 50
q62 50 62 150z" />
    <glyph glyph-name="uni1798_17C5" horiz-adv-x="1300" 
d="M1727 1012q23 -49 23 -99v-913h-180v863q0 144 -259 232q-87 29 -220 29q-104 0 -163 -107q172 -52 172 -124v-593q0 -150 -100 -225t-350 -75q-249 0 -350 75q-100 75 -100 225v531q0 91 -130 119q17 121 83 234q68 116 110 116q35 0 90 -37l55 -38q25 -16 58 -16
q20 0 37 4q-7 -57 -37 -106q-31 -48 -69 -52q-3 -1 -10 -1q-38 0 -98 36q-31 18 -53 18q-27 0 -39 -78q183 -51 183 -120v-258h540v190q0 95 -136 110q11 125 127 234q116 110 227 110q167 0 279 -47q126 -53 203 -114v339q0 86 -100 86q0 87 125 87q155 0 155 -173v-260
q0 -78 -73 -202zM920 300v252h-540v-252q0 -100 63 -150q62 -50 207 -50q144 0 208 50q62 50 62 150z" />
    <glyph glyph-name="uni1799_17B6" horiz-adv-x="1950" 
d="M1750 893v-593q0 -150 -100 -225t-332 -75t-333 75q-2 2 -5 4t-5 4q-2 -2 -5 -4t-5 -4q-100 -75 -332 -75t-333 75q-100 75 -100 225v822q0 55 42 116q44 62 148 62q90 0 135 -54t45 -163q0 -216 -150 -216h-40v-567q0 -100 63 -150q62 -50 190 -50q126 0 190 50
q62 50 62 150v531q0 91 -130 119q17 121 83 234q68 116 110 116q35 0 90 -37l55 -38q25 -16 58 -16q20 0 37 4q-7 -57 -37 -106q-31 -48 -69 -52q-3 -1 -10 -1q-38 0 -98 36q-31 18 -53 18q-27 0 -39 -78q183 -51 183 -120v-610q0 -100 63 -150q62 -50 190 -50q126 0 190 50
q62 50 62 150v542q0 95 -136 110q11 125 127 234q116 110 227 110q167 0 279 -47q333 -142 333 -336v-913h-180v863q0 144 -259 232q-87 29 -220 29q-104 0 -163 -107q172 -52 172 -124zM380 1122v-159h40q50 0 50 120q0 53 -13 78q-12 26 -44 26q-33 0 -33 -65z" />
    <glyph glyph-name="uni1799_17C5" horiz-adv-x="1950" 
d="M2377 1012q23 -49 23 -99v-913h-180v863q0 144 -259 232q-87 29 -220 29q-104 0 -163 -107q172 -52 172 -124v-593q0 -150 -100 -225t-332 -75t-333 75q-2 2 -5 4t-5 4q-2 -2 -5 -4t-5 -4q-100 -75 -332 -75t-333 75q-100 75 -100 225v822q0 55 42 116q44 62 148 62
q90 0 135 -54t45 -163q0 -216 -150 -216h-40v-567q0 -100 63 -150q62 -50 190 -50q126 0 190 50q62 50 62 150v531q0 91 -130 119q17 121 83 234q68 116 110 116q35 0 90 -37l55 -38q25 -16 58 -16q20 0 37 4q-7 -57 -37 -106q-31 -48 -69 -52q-3 -1 -10 -1q-38 0 -98 36
q-31 18 -53 18q-27 0 -39 -78q183 -51 183 -120v-610q0 -100 63 -150q62 -50 190 -50q126 0 190 50q62 50 62 150v542q0 95 -136 110q11 125 127 234q116 110 227 110q167 0 279 -47q126 -53 203 -114v339q0 86 -100 86q0 87 125 87q155 0 155 -173v-260q0 -78 -73 -202z
M380 1122v-159h40q50 0 50 120q0 53 -13 78q-12 26 -44 26q-33 0 -33 -65z" />
    <glyph glyph-name="uni179A_17B6" horiz-adv-x="580" 
d="M532 1218l38 26q83 56 133 56q119 0 223 -110q104 -112 104 -212v-978h-180v978q0 58 -74 120q-74 61 -113 61q-40 0 -103 -29q-52 -25 -102 -54q-19 -18 -46 -21q-3 -1 -10 -1q-40 0 -103 36q-33 18 -75 18q-39 0 -51 -78q207 -51 207 -120v-812q0 -98 -100 -98h-80
q-150 0 -150 267q0 166 150 166v398q0 91 -150 119q16 116 82 234q65 116 140 116q36 0 94 -37l58 -38q25 -16 47 -16q42 0 61 9zM200 113v220q-50 0 -50 -66q0 -154 50 -154z" />
    <glyph glyph-name="uni179A_17C5" horiz-adv-x="580" 
d="M1021 1039q9 -31 9 -61v-978h-180v978q0 58 -74 120q-74 61 -113 61q-40 0 -103 -29q-52 -25 -102 -54q-19 -18 -46 -21q-3 -1 -10 -1q-40 0 -103 36q-33 18 -75 18q-39 0 -51 -78q207 -51 207 -120v-812q0 -98 -100 -98h-80q-150 0 -150 267q0 166 150 166v398
q0 91 -150 119q16 116 82 234q65 116 140 116q36 0 94 -37l58 -38q25 -16 47 -16q42 0 61 9l38 26q83 56 133 56q104 0 197 -84v258q0 86 -100 86q0 87 125 87q155 0 155 -173v-260q0 -74 -59 -175zM200 113v220q-50 0 -50 -66q0 -154 50 -154z" />
    <glyph glyph-name="uni179B_17B6" horiz-adv-x="1950" 
d="M1750 893v-593q0 -150 -100 -225t-320 -75q-219 0 -320 75q-100 75 -100 225v700q0 100 -62 150q-64 50 -203 50q-140 0 -202 -50q-63 -49 -63 -150v-500q110 0 165 -46q55 -45 55 -137q0 -144 -62 -230q-63 -87 -188 -87q-150 0 -150 87v913q0 150 100 225
q101 75 345 75q245 0 345 -75t100 -225v-700q0 -100 63 -150q62 -50 177 -50q114 0 178 50q62 50 62 150v542q0 95 -136 110q11 125 127 234q116 110 227 110q167 0 279 -47q333 -142 333 -336v-913h-180v863q0 144 -259 232q-87 29 -220 29q-104 0 -163 -107
q172 -52 172 -124zM380 400v-270q60 0 90 47t30 140q0 43 -30 62q-30 21 -90 21z" />
    <glyph glyph-name="uni179B_17C5" horiz-adv-x="1950" 
d="M2377 1012q23 -49 23 -99v-913h-180v863q0 144 -259 232q-87 29 -220 29q-104 0 -163 -107q172 -52 172 -124v-593q0 -150 -100 -225t-320 -75q-219 0 -320 75q-100 75 -100 225v700q0 100 -62 150q-64 50 -203 50q-140 0 -202 -50q-63 -49 -63 -150v-500q110 0 165 -46
q55 -45 55 -137q0 -144 -62 -230q-63 -87 -188 -87q-150 0 -150 87v913q0 150 100 225q101 75 345 75q245 0 345 -75t100 -225v-700q0 -100 63 -150q62 -50 177 -50q114 0 178 50q62 50 62 150v542q0 95 -136 110q11 125 127 234q116 110 227 110q167 0 279 -47
q126 -53 203 -114v339q0 86 -100 86q0 87 125 87q155 0 155 -173v-260q0 -78 -73 -202zM380 400v-270q60 0 90 47t30 140q0 43 -30 62q-30 21 -90 21z" />
    <glyph glyph-name="uni179C_17B6" horiz-adv-x="580" 
d="M428 1081q-28 -27 -60 -27q-39 0 -99 36q-31 18 -53 18q-37 0 -49 -78q213 -51 213 -120v-812q0 -98 -100 -98h-80q-150 0 -150 267q0 166 150 166v398q0 91 -150 119q3 59 22 120.5t46 113.5t55.5 84t49.5 32q35 0 90 -37l26 -18q6 -2 10 -2q31 0 31 79q0 64 -100 64
t-100 82q0 81 100 81q200 0 200 -227v-49q-1 -16 -1.5 -30.5t-2.5 -28.5q125 86 197 86q119 0 238 -110q119 -111 119 -212v-978h-180v978q0 58 -89 120q-89 61 -128 61q-40 0 -115 -35l-52.5 -24.5t-37.5 -18.5zM200 113v220q-50 0 -50 -66q0 -154 50 -154z" />
    <glyph glyph-name="uni179C_17C5" horiz-adv-x="580" 
d="M1020 1038q10 -29 10 -60v-978h-180v978q0 58 -89 120q-89 61 -128 61q-40 0 -115 -35l-52.5 -24.5t-37.5 -18.5q-28 -27 -60 -27q-39 0 -99 36q-31 18 -53 18q-37 0 -49 -78q213 -51 213 -120v-812q0 -98 -100 -98h-80q-150 0 -150 267q0 166 150 166v398q0 91 -150 119
q3 59 22 120.5t46 113.5t55.5 84t49.5 32q35 0 90 -37l26 -18q6 -2 10 -2q31 0 31 79q0 64 -100 64t-100 82q0 81 100 81q200 0 200 -227v-49q-1 -16 -1.5 -30.5t-2.5 -28.5q125 86 197 86q114 0 227 -100v274q0 86 -100 86q0 87 125 87q155 0 155 -173v-260q0 -75 -60 -176
zM200 113v220q-50 0 -50 -66q0 -154 50 -154z" />
    <glyph glyph-name="uni179F_17B6" horiz-adv-x="1950" 
d="M1750 893v-593q0 -150 -100 -225t-320 -75q-219 0 -320 75q-100 75 -100 225v350q0 100 -62 150q-64 50 -203 50q-140 0 -202 -50q-63 -49 -63 -150v-217h45q88 0 131 -43q44 -44 44 -130q0 -130 -50 -195t-150 -65t-150 33q-50 32 -50 97v520q0 150 100 225
q41 30 102 48q-32 42 -123 77q42 112 142 211q91 89 143 89q8 0 11 -1q42 -7 120 -56q77 -49 102 -54q5 -1 15 -1q18 0 34 6q-43 -157 -134 -157q-44 0 -108 44q-62 43 -98 43q-34 0 -75 -74q140 -56 194 -100h20q245 0 345 -75t100 -225v-350q0 -100 63 -150
q62 -50 177 -50q114 0 178 50q62 50 62 150v542q0 95 -136 110q11 125 127 234q116 110 227 110q167 0 279 -47q333 -142 333 -336v-913h-180v863q0 144 -259 232q-87 29 -220 29q-104 0 -163 -107q172 -52 172 -124zM425 333h-45v-203q0 -20 35 -20q34 0 60 32
q25 31 25 118q0 43 -18.5 58t-56.5 15z" />
    <glyph glyph-name="uni179F_17C5" horiz-adv-x="1950" 
d="M2377 1012q23 -49 23 -99v-913h-180v863q0 144 -259 232q-87 29 -220 29q-104 0 -163 -107q172 -52 172 -124v-593q0 -150 -100 -225t-320 -75q-219 0 -320 75q-100 75 -100 225v350q0 100 -62 150q-64 50 -203 50q-140 0 -202 -50q-63 -49 -63 -150v-217h45
q88 0 131 -43q44 -44 44 -130q0 -130 -50 -195t-150 -65t-150 33q-50 32 -50 97v520q0 150 100 225q41 30 102 48q-32 42 -123 77q42 112 142 211q91 89 143 89q8 0 11 -1q42 -7 120 -56q77 -49 102 -54q5 -1 15 -1q18 0 34 6q-43 -157 -134 -157q-44 0 -108 44
q-62 43 -98 43q-34 0 -75 -74q140 -56 194 -100h20q245 0 345 -75t100 -225v-350q0 -100 63 -150q62 -50 177 -50q114 0 178 50q62 50 62 150v542q0 95 -136 110q11 125 127 234q116 110 227 110q167 0 279 -47q126 -53 203 -114v339q0 86 -100 86q0 87 125 87
q155 0 155 -173v-260q0 -78 -73 -202zM425 333h-45v-203q0 -20 35 -20q34 0 60 32q25 31 25 118q0 43 -18.5 58t-56.5 15z" />
    <glyph glyph-name="uni17A0_17B6" horiz-adv-x="1950" 
d="M1745 1064q5 -33 5 -64v-1000h-180v1000q0 100 -62 150q-64 50 -190 50q-128 0 -190 -50q-63 -49 -63 -150v-700q0 -150 -100 -225t-332 -75t-333 75q-100 75 -100 225v531q0 91 -130 119q17 121 83 234q68 116 110 116q35 0 90 -37l55 -38q25 -16 58 -16q20 0 37 4
q-7 -57 -37 -106q-31 -48 -69 -52q-3 -1 -10 -1q-38 0 -98 36q-31 18 -53 18q-27 0 -39 -78q183 -51 183 -120v-610q0 -100 63 -150q62 -50 190 -50q126 0 190 50q62 50 62 150v700q0 150 100 225q101 75 333 75t332 -75q29 -21 48 -48l112 67q92 56 183 56q109 0 258 -113
q149 -114 149 -209v-978h-180v978q0 37 -92 105q-93 66 -175 66q-62 0 -208 -85z" />
    <glyph glyph-name="uni17A0_17C5" horiz-adv-x="1950" 
d="M2388 1034q12 -28 12 -56v-978h-180v978q0 37 -92 105q-93 66 -175 66q-62 0 -208 -85q5 -33 5 -64v-1000h-180v1000q0 100 -62 150q-64 50 -190 50q-128 0 -190 -50q-63 -49 -63 -150v-700q0 -150 -100 -225t-332 -75t-333 75q-100 75 -100 225v531q0 91 -130 119
q17 121 83 234q68 116 110 116q35 0 90 -37l55 -38q25 -16 58 -16q20 0 37 4q-7 -57 -37 -106q-31 -48 -69 -52q-3 -1 -10 -1q-38 0 -98 36q-31 18 -53 18q-27 0 -39 -78q183 -51 183 -120v-610q0 -100 63 -150q62 -50 190 -50q126 0 190 50q62 50 62 150v700q0 150 100 225
q101 75 333 75t332 -75q29 -21 48 -48l112 67q92 56 183 56q109 0 258 -113q5 -4 10 -7.5t9 -7.5v302q0 86 -100 86q0 87 125 87q155 0 155 -173v-260q0 -76 -62 -180z" />
    <glyph glyph-name="uni17A1_17B6" horiz-adv-x="1850" 
d="M1100 993v-36q0 -29 -18 -58q-18 -28 -50 -43.5t-97 -15.5q-54 0 -94.5 34t-40.5 83q0 30 18.5 58.5t50.5 43.5q7 3 13.5 5.5t13.5 4.5q-23 54 -62 84q-62 47 -184 47q-144 0 -208 -62q-62 -62 -62 -185v-73q0 -150 98 -227q97 -76 292 -76q0 160 205 160q125 0 125 -126
q0 -134 -150 -134v-217q0 -130 -75 -195q-76 -65 -225 -65q-164 0 -247 65t-83 195v147h180v-147q0 -79 38 -120q37 -40 112 -40q60 0 90 40q30 41 30 120v217q-284 0 -427 101t-143 302v73q0 175 100 260q101 87 350 87q250 0 350 -87q100 -85 100 -220zM1650 893v-1543
h-150l-275 177l-275 -177h-150v250q-150 0 -150 150t150 150q180 0 180 -100v-312l245 158l245 -158v1354q0 95 -136 110q11 125 127 234q116 110 227 110q167 0 279 -47q333 -142 333 -336v-913h-180v863q0 144 -259 232q-87 29 -220 29q-104 0 -163 -107q172 -52 172 -124
zM950 577q50 0 50 34q0 22 -25 22t-25 -56zM800 -300v100q-50 0 -50 -50t50 -50z" />
    <glyph glyph-name="uni17A1_17C5" horiz-adv-x="1850" 
d="M2277 1012q23 -49 23 -99v-913h-180v863q0 144 -259 232q-87 29 -220 29q-104 0 -163 -107q172 -52 172 -124v-1543h-150l-275 177l-275 -177h-150v250q-150 0 -150 150t150 150q180 0 180 -100v-312l245 158l245 -158v1354q0 95 -136 110q11 125 127 234
q116 110 227 110q167 0 279 -47q126 -53 203 -114v339q0 86 -100 86q0 87 125 87q155 0 155 -173v-260q0 -78 -73 -202zM1100 993v-36q0 -29 -18 -58q-18 -28 -50 -43.5t-97 -15.5q-54 0 -94.5 34t-40.5 83q0 30 18.5 58.5t50.5 43.5q7 3 13.5 5.5t13.5 4.5q-23 54 -62 84
q-62 47 -184 47q-144 0 -208 -62q-62 -62 -62 -185v-73q0 -150 98 -227q97 -76 292 -76q0 160 205 160q125 0 125 -126q0 -134 -150 -134v-217q0 -130 -75 -195q-76 -65 -225 -65q-164 0 -247 65t-83 195v147h180v-147q0 -79 38 -120q37 -40 112 -40q60 0 90 40
q30 41 30 120v217q-284 0 -427 101t-143 302v73q0 175 100 260q101 87 350 87q250 0 350 -87q100 -85 100 -220zM950 577q50 0 50 34q0 22 -25 22t-25 -56zM800 -300v100q-50 0 -50 -50t50 -50z" />
    <glyph glyph-name="uni17A2_17B6" horiz-adv-x="1300" 
d="M1100 893v-795q0 -98 -100 -98h-80q-150 0 -150 267q0 166 150 166v119h-540v-454q0 -98 -100 -98h-80q-150 0 -150 267q0 166 150 166v398q0 91 -130 119q17 121 83 234q68 116 110 116q35 0 90 -37l55 -38q25 -16 58 -16q20 0 37 4q-7 -57 -37 -106q-31 -48 -69 -52
q-3 -1 -10 -1q-38 0 -98 36q-31 18 -53 18q-27 0 -39 -78q183 -51 183 -120v-258h540v190q0 95 -136 110q11 125 127 234q116 110 227 110q167 0 279 -47q333 -142 333 -336v-913h-180v863q0 144 -259 232q-87 29 -220 29q-104 0 -163 -107q172 -52 172 -124zM200 113v220
q-50 0 -50 -66q0 -154 50 -154zM920 113v220q-50 0 -50 -66q0 -154 50 -154z" />
    <glyph glyph-name="uni17A2_17C5" horiz-adv-x="1300" 
d="M1727 1012q23 -49 23 -99v-913h-180v863q0 144 -259 232q-87 29 -220 29q-104 0 -163 -107q172 -52 172 -124v-795q0 -98 -100 -98h-80q-150 0 -150 267q0 166 150 166v119h-540v-454q0 -98 -100 -98h-80q-150 0 -150 267q0 166 150 166v398q0 91 -130 119q17 121 83 234
q68 116 110 116q35 0 90 -37l55 -38q25 -16 58 -16q20 0 37 4q-7 -57 -37 -106q-31 -48 -69 -52q-3 -1 -10 -1q-38 0 -98 36q-31 18 -53 18q-27 0 -39 -78q183 -51 183 -120v-258h540v190q0 95 -136 110q11 125 127 234q116 110 227 110q167 0 279 -47q126 -53 203 -114v339
q0 86 -100 86q0 87 125 87q155 0 155 -173v-260q0 -78 -73 -202zM200 113v220q-50 0 -50 -66q0 -154 50 -154zM920 113v220q-50 0 -50 -66q0 -154 50 -154z" />
    <glyph glyph-name="uni17D2_1783_17B6" horiz-adv-x="1230" 
d="M380 893v-1343q0 -100 -81 -150q-83 -50 -274 -50q-117 0 -190 14q-69 13 -87 41q-17 -27 -71 -41q-56 -14 -152 -14q-149 0 -225 50q-75 50 -75 150v50h-25q-62 0 -94 30q-31 30 -31 90q0 40 38 84q37 46 74.5 71t112.5 25t75 -100v-251q0 -48 38 -74q37 -25 112 -25
t112 25q38 26 38 75v200q0 50 -80 50q0 100 100 100q130 0 130 -150v-200q0 -49 50 -75q49 -25 150 -25q76 0 125 25q50 26 50 75v1292q0 95 -136 110q11 125 127 234q116 110 227 110q167 0 279 -47q333 -142 333 -336v-913h-180v863q0 144 -259 232q-87 29 -220 29
q-104 0 -163 -107q172 -52 172 -124zM-795 -300h20v100q-45 -49 -45 -80q0 -20 25 -20z" />
    <glyph glyph-name="uni17D2_1788_17B6" horiz-adv-x="1230" 
d="M380 893v-1343q0 -100 -86 -150q-88 -50 -289 -50q-90 0 -153 15q-64 15 -101 45q-38 -30 -94 -45q-55 -15 -132 -15q-149 0 -225 50q-75 50 -75 150v150q0 49 -38 75q-37 25 -112 25t-112 -25q-38 -26 -38 -75v-100h25q75 0 75 -50q0 -48 -50 -125q-49 -75 -125 -75
q-75 0 -75 100v251q0 100 75 149q76 50 225 50t225 -50q75 -49 75 -150v-151q0 -48 38 -74q37 -25 112 -25t112 25q38 26 38 76v199q0 50 -80 50q0 100 100 100q130 0 130 -150v-207q0 -36 38 -65q38 -28 142 -28q85 0 140 25t55 75v1292q0 95 -136 110q11 125 127 234
q116 110 227 110q167 0 279 -47q333 -142 333 -336v-913h-180v863q0 144 -259 232q-87 29 -220 29q-104 0 -163 -107q172 -52 172 -124z" />
    <glyph glyph-name="uni17D2_178D_17B6" horiz-adv-x="1230" 
d="M380 893v-1342q0 -101 -71 -151q-73 -50 -204 -50q-81 0 -123 27q-42 24 -65 79q-23 54 -49 69q-28 15 -53 15h-70v-90q0 -100 -75 -100q-50 0 -89.5 31t-62.5 75t-23 84q0 100 100 100v98l-55 43l-195 -109l-192 109l-58 -44v-87h50q49 0 75 -50q13 -25 13 -57
q0 -29 -19 -61q-12 -21 -39 -52.5t-66 -55.5t-89 -24q-75 0 -75 100v300l200 150l200 -113l200 113l200 -150v-110h70q52 0 95 -25q42 -25 67 -79q24 -53 49 -69q25 -17 79 -17q35 0 65 25t30 75v1292q0 95 -136 110q11 125 127 234q116 110 227 110q167 0 279 -47
q333 -142 333 -336v-913h-180v863q0 144 -259 232q-87 29 -220 29q-104 0 -163 -107q172 -52 172 -124zM-858 -464q0 14 -27 14h-20v-60q47 16 47 46z" />
    <glyph glyph-name="uni17D2_1794_17B6" horiz-adv-x="1230" 
d="M380 893v-1543h-180l-225 145l-225 -145h-150v450q0 100 150 100t150 -150t-150 -150v-131l225 145l225 -145v1373q0 95 -136 110q11 125 127 234q116 110 227 110q167 0 279 -47q333 -142 333 -336v-913h-180v863q0 144 -259 232q-87 29 -220 29q-104 0 -163 -107
q172 -52 172 -124zM-250 -200v-100q50 0 50 50t-50 50z" />
    <glyph glyph-name="uni17D2_1799_17B6" horiz-adv-x="1230" 
d="M380 893v-1343q0 -100 -101 -150q-102 -50 -304 -50q-186 0 -281 50q-94 49 -94 150v250q0 100 150 100t150 -150t-150 -150v-50q0 -49 56 -75q56 -25 169 -25q115 0 169 25q56 26 56 75v1292q0 95 -136 110q11 125 127 234q116 110 227 110q167 0 279 -47
q333 -142 333 -336v-913h-180v863q0 144 -259 232q-87 29 -220 29q-104 0 -163 -107q172 -52 172 -124zM-250 -200v-100q50 0 50 50t-50 50z" />
    <glyph glyph-name="uni17D2_179F_17B6" horiz-adv-x="1230" 
d="M380 893v-793q18 0 49 12q31 13 31 38q25 0 38 -12q12 -13 12 -38q0 -49 -44 -75q-43 -25 -86 -25v-450q0 -200 -380 -200q-350 0 -350 200v50q-150 0 -150 150t150 150t150 -100v-250q0 -100 200 -100t200 100v449l-150 1v100h150v742q0 95 -136 110q11 125 127 234
q116 110 227 110q167 0 279 -47q333 -142 333 -336v-913h-180v863q0 144 -259 232q-87 29 -220 29q-104 0 -163 -107q172 -52 172 -124zM-350 -300v100q-50 0 -50 -50t50 -50z" />
    <glyph glyph-name="uni17D2_1783_17C5" horiz-adv-x="1230" 
d="M1007 1012q23 -49 23 -99v-913h-180v863q0 144 -259 232q-87 29 -220 29q-104 0 -163 -107q172 -52 172 -124v-1343q0 -100 -81 -150q-83 -50 -274 -50q-117 0 -190 14q-69 13 -87 41q-17 -27 -71 -41q-56 -14 -152 -14q-149 0 -225 50q-75 50 -75 150v50h-25
q-62 0 -94 30q-31 30 -31 90q0 40 38 84q37 46 74.5 71t112.5 25t75 -100v-251q0 -48 38 -74q37 -25 112 -25t112 25q38 26 38 75v200q0 50 -80 50q0 100 100 100q130 0 130 -150v-200q0 -49 50 -75q49 -25 150 -25q76 0 125 25q50 26 50 75v1292q0 95 -136 110
q11 125 127 234q116 110 227 110q167 0 279 -47q126 -53 203 -114v339q0 86 -100 86q0 87 125 87q155 0 155 -173v-260q0 -78 -73 -202zM-795 -300h20v100q-45 -49 -45 -80q0 -20 25 -20z" />
    <glyph glyph-name="uni17D2_1788_17C5" horiz-adv-x="1230" 
d="M1007 1012q23 -49 23 -99v-913h-180v863q0 144 -259 232q-87 29 -220 29q-104 0 -163 -107q172 -52 172 -124v-1343q0 -100 -86 -150q-88 -50 -289 -50q-90 0 -153 15q-64 15 -101 45q-38 -30 -94 -45q-55 -15 -132 -15q-149 0 -225 50q-75 50 -75 150v150q0 49 -38 75
q-37 25 -112 25t-112 -25q-38 -26 -38 -75v-100h25q75 0 75 -50q0 -48 -50 -125q-49 -75 -125 -75q-75 0 -75 100v251q0 100 75 149q76 50 225 50t225 -50q75 -49 75 -150v-151q0 -48 38 -74q37 -25 112 -25t112 25q38 26 38 76v199q0 50 -80 50q0 100 100 100
q130 0 130 -150v-207q0 -36 38 -65q38 -28 142 -28q85 0 140 25t55 75v1292q0 95 -136 110q11 125 127 234q116 110 227 110q167 0 279 -47q126 -53 203 -114v339q0 86 -100 86q0 87 125 87q155 0 155 -173v-260q0 -78 -73 -202z" />
    <glyph glyph-name="uni17D2_178D_17C5" horiz-adv-x="1230" 
d="M1007 1012q23 -49 23 -99v-913h-180v863q0 144 -259 232q-87 29 -220 29q-104 0 -163 -107q172 -52 172 -124v-1342q0 -101 -71 -151q-73 -50 -204 -50q-81 0 -123 27q-42 24 -65 79q-23 54 -49 69q-28 15 -53 15h-70v-90q0 -100 -75 -100q-50 0 -89.5 31t-62.5 75
t-23 84q0 100 100 100v98l-55 43l-195 -109l-192 109l-58 -44v-87h50q49 0 75 -50q13 -25 13 -57q0 -29 -19 -61q-12 -21 -39 -52.5t-66 -55.5t-89 -24q-75 0 -75 100v300l200 150l200 -113l200 113l200 -150v-110h70q52 0 95 -25q42 -25 67 -79q24 -53 49 -69
q25 -17 79 -17q35 0 65 25t30 75v1292q0 95 -136 110q11 125 127 234q116 110 227 110q167 0 279 -47q126 -53 203 -114v339q0 86 -100 86q0 87 125 87q155 0 155 -173v-260q0 -78 -73 -202zM-858 -464q0 14 -27 14h-20v-60q47 16 47 46z" />
    <glyph glyph-name="uni17D2_1794_17C5" horiz-adv-x="1230" 
d="M1007 1012q23 -49 23 -99v-913h-180v863q0 144 -259 232q-87 29 -220 29q-104 0 -163 -107q172 -52 172 -124v-1543h-180l-225 145l-225 -145h-150v450q0 100 150 100t150 -150t-150 -150v-131l225 145l225 -145v1373q0 95 -136 110q11 125 127 234q116 110 227 110
q167 0 279 -47q126 -53 203 -114v339q0 86 -100 86q0 87 125 87q155 0 155 -173v-260q0 -78 -73 -202zM-250 -200v-100q50 0 50 50t-50 50z" />
    <glyph glyph-name="uni17D2_1799_17C5" horiz-adv-x="1230" 
d="M1007 1012q23 -49 23 -99v-913h-180v863q0 144 -259 232q-87 29 -220 29q-104 0 -163 -107q172 -52 172 -124v-1343q0 -100 -101 -150q-102 -50 -304 -50q-186 0 -281 50q-94 49 -94 150v250q0 100 150 100t150 -150t-150 -150v-50q0 -49 56 -75q56 -25 169 -25
q115 0 169 25q56 26 56 75v1292q0 95 -136 110q11 125 127 234q116 110 227 110q167 0 279 -47q126 -53 203 -114v339q0 86 -100 86q0 87 125 87q155 0 155 -173v-260q0 -78 -73 -202zM-250 -200v-100q50 0 50 50t-50 50z" />
    <glyph glyph-name="uni17D2_179F_17C5" horiz-adv-x="1230" 
d="M1007 1012q23 -49 23 -99v-913h-180v863q0 144 -259 232q-87 29 -220 29q-104 0 -163 -107q172 -52 172 -124v-793q18 0 49 12q31 13 31 38q25 0 38 -12q12 -13 12 -38q0 -49 -44 -75q-43 -25 -86 -25v-450q0 -200 -380 -200q-350 0 -350 200v50q-150 0 -150 150t150 150
t150 -100v-250q0 -100 200 -100t200 100v449l-150 1v100h150v742q0 95 -136 110q11 125 127 234q116 110 227 110q167 0 279 -47q126 -53 203 -114v339q0 86 -100 86q0 87 125 87q155 0 155 -173v-260q0 -78 -73 -202zM-350 -300v100q-50 0 -50 -50t50 -50z" />
    <glyph glyph-name="uni17D21783" horiz-adv-x="610" 
d="M380 910v-1178q0 -232 -280 -232q-111 0 -199 50q-79 -50 -191 -50q-270 0 -270 232v49q0 49 -50 49q0 100 105 100q115 0 115 -99v-99q0 -120 100 -120q110 0 110 120v198h160v-198q0 -120 120 -120q100 0 100 120v1099q0 91 -150 119q16 116 82 234q65 116 110 116
q36 0 94 -37l58 -38q25 -16 47 -16q20 0 39 14q-10 -157 -98 -168q-3 -1 -10 -1q-40 0 -103 36q-33 18 -55 18q-29 0 -41 -78q207 -51 207 -120z" />
    <glyph glyph-name="uni17D21788" horiz-adv-x="610" 
d="M380 910v-1178q0 -232 -280 -232q-102 0 -179 50q-79 -50 -171 -50q-250 0 -250 232q0 99 -80 99t-80 -99v-66q0 -66 80 -66q0 -100 -130 -100t-130 116v116q0 198 260 198t260 -198q0 -99 75 -99t75 99v198h180v-198q0 -99 95 -99t95 99v1099q0 91 -150 119
q16 116 82 234q65 116 110 116q36 0 94 -37l58 -38q25 -16 47 -16q20 0 39 14q-10 -157 -98 -168q-3 -1 -10 -1q-40 0 -103 36q-33 18 -55 18q-29 0 -41 -78q207 -51 207 -120z" />
    <glyph glyph-name="uni17D2178D" horiz-adv-x="610" 
d="M380 910v-1410h-180q0 34 -45.5 55t-112.5 31.5t-131 10.5h-130v-97h-179v222q0 43 -68 72q-62 0 -189 -92q-119 92 -172 92q-38 0 -62 -33v-131h183v-130h-362v244q0 32 27 64.5t67.5 60t81.5 44.5t69 17q57 0 192 -90q111 90 184 90q45 0 98 -27t91.5 -74t38.5 -107
v-36h130q144 0 289 -35v1180q0 91 -150 119q16 116 82 234q65 116 110 116q36 0 94 -37l58 -38q25 -16 47 -16q20 0 39 14q-10 -157 -98 -168q-3 -1 -10 -1q-40 0 -103 36q-33 18 -55 18q-29 0 -41 -78q207 -51 207 -120z" />
    <glyph glyph-name="uni17D21794" horiz-adv-x="610" 
d="M380 910v-1410h-259l-140 192l-156 -192h-204v327q0 103 101 103h152v-76l-74 -60v-152l151 174h106l143 -165v1180q0 91 -150 119q16 116 82 234q65 116 110 116q36 0 94 -37l58 -38q25 -16 47 -16q20 0 39 14q-10 -157 -98 -168q-3 -1 -10 -1q-40 0 -103 36
q-33 18 -55 18q-29 0 -41 -78q207 -51 207 -120z" />
    <glyph glyph-name="uni17D21799" horiz-adv-x="610" 
d="M380 910v-1163q0 -247 -380 -247q-379 0 -379 247v183h179v-183q0 -135 200 -135t200 135v1084q0 91 -150 119q16 116 82 234q65 116 110 116q36 0 94 -37l58 -38q25 -16 47 -16q20 0 39 14q-10 -157 -98 -168q-3 -1 -10 -1q-40 0 -103 36q-33 18 -55 18q-29 0 -41 -78
q207 -51 207 -120z" />
    <glyph glyph-name="uni17D2179A" horiz-adv-x="610" 
d="M200 -253v1084q0 91 -150 119q16 116 82 234q65 116 110 116q36 0 94 -37l58 -38q25 -16 47 -16q20 0 39 14q-10 -157 -98 -168q-3 -1 -10 -1q-40 0 -103 36q-33 18 -55 18q-29 0 -41 -78q207 -51 207 -120v-1163q0 -135 200 -135t200 135v183h179v-183q0 -247 -379 -247
q-380 0 -380 247z" />
    <glyph glyph-name="uni17D2179F" horiz-adv-x="610" 
d="M-379 -253v68h-111v115h290v-183q0 -135 200 -135t200 135v253h-158v122h158v709q0 91 -150 119q16 116 82 234q65 116 110 116q36 0 94 -37l58 -38q25 -16 47 -16q20 0 39 14q-10 -157 -98 -168q-3 -1 -10 -1q-40 0 -103 36q-33 18 -55 18q-29 0 -41 -78
q207 -51 207 -120v-788h139v-122h-139v-253q0 -247 -380 -247q-379 0 -379 247z" />
    <glyph glyph-name="uni17D2179A.b" horiz-adv-x="610" 
d="M200 -650v1481q0 91 -150 119q16 116 82 234q65 116 110 116q36 0 94 -37l58 -38q25 -16 47 -16q20 0 39 14q-10 -157 -98 -168q-3 -1 -10 -1q-40 0 -103 36q-33 18 -55 18q-29 0 -41 -78q207 -51 207 -120v-1560q0 -50 34 -83.5t85 -50t101 -16.5q88 0 144 38t56 112
v100h150v-100q0 -126 -94 -187q-94 -63 -256 -63t-281 62q-119 63 -119 188z" />
    <glyph glyph-name="nyo_17B6khmer.a" horiz-adv-x="1950" 
d="M1742 1062q8 -32 8 -62v-1000h-180v1000q0 80 -68 140q-69 60 -167 60q-97 0 -166 -60t-69 -140v-1000h-180v1000q0 158 -80 158q-68 0 -136 -102q-22 -34 -54 -34t-54 34q-66 102 -135 102q-81 0 -81 -158v-500q110 0 165 -46q55 -45 55 -137q0 -144 -62 -230
q-63 -87 -188 -87q-150 0 -150 87v913q0 123 75 211q75 89 170 89q94 0 205 -134q113 134 207 134t169 -89q3 -3 4 -5v1q3 3 5 4q116 89 301 89q184 0 300 -89q13 -10 25 -21t22 -22l127 76q92 56 183 56q109 0 258 -113q149 -114 149 -209v-978h-180v978q0 37 -92 105
q-93 66 -175 66q-61 0 -211 -87zM380 400v-270q60 0 90 47t30 140q0 43 -30 62q-30 21 -90 21z" />
    <glyph glyph-name="nyo_17C5khmer.a" horiz-adv-x="1950" 
d="M2388 1034q12 -28 12 -56v-978h-180v978q0 37 -92 105q-93 66 -175 66q-61 0 -211 -87q8 -32 8 -62v-1000h-180v1000q0 80 -68 140q-69 60 -167 60q-97 0 -166 -60t-69 -140v-1000h-180v1000q0 158 -80 158q-68 0 -136 -102q-22 -34 -54 -34t-54 34q-66 102 -135 102
q-81 0 -81 -158v-500q110 0 165 -46q55 -45 55 -137q0 -144 -62 -230q-63 -87 -188 -87q-150 0 -150 87v913q0 123 75 211q75 89 170 89q94 0 205 -134q113 134 207 134t169 -89q3 -3 4 -5v1q3 3 5 4q116 89 301 89q184 0 300 -89q13 -10 25 -21t22 -22l127 76q92 56 183 56
q109 0 258 -113q5 -4 10 -7.5t9 -7.5v302q0 86 -100 86q0 87 125 87q155 0 155 -173v-260q0 -76 -62 -180zM380 400v-270q60 0 90 47t30 140q0 43 -30 62q-30 21 -90 21z" />
    <glyph glyph-name="uni17B7_17CD" 
d="M-50 2004l55 -64q-14 -14 -30 -28t-33 -27q-58 -43 -128 -74q-33 -10 -66 -10q-70 43 -130 43q-22 0 -36 -15q-11 -17 -11 -48t11 -48l21 -14q8 -3 15 -3q48 0 48 16q0 26 47 26t47 -26q0 -51 -42 -77q-14 -9 -30 -14q63 -64 63 -98q0 -43 -95 -43h-567q-189 0 -189 129
q0 215 284 215q137 0 247 -37q7 53 46 86q46 37 141 37q92 0 147 -42q71 22 127 63q33 24 58 53zM-552 1696q-97 36 -264 36q-142 0 -142 -103q0 -43 127 -43h440q-11 21 -42 44q-62 6 -96 37q-12 13 -23 29z" />
    <glyph glyph-name="uni17D2_1780" 
d="M-895 -500h-179v178q0 252 424 252q425 0 425 -252v-178h-179v178q0 143 -246 143q-245 0 -245 -143v-178z" />
    <glyph glyph-name="uni17D2_1781" 
d="M-895 -219h-179q0 149 424 149q425 0 425 -119q0 -86 -335 -125t-335 -66q0 -39 245 -39q246 0 246 70h179q0 -151 -425 -151q-424 0 -424 120q0 85 335 117t335 74q0 38 -246 38q-245 0 -245 -68z" />
    <glyph glyph-name="uni17D2_1782" 
d="M-895 -322v-35q66 82 239 82v-108q-205 0 -239 -103v-14h-179v178q0 252 424 252q425 0 425 -252v-178h-179v178q0 143 -246 143q-245 0 -245 -143z" />
    <glyph glyph-name="uni17D2_1784" 
d="M-689 -500q-385 0 -385 236q0 194 243 194q151 0 151 -117q0 -110 -105 -110q-119 0 -125 99q-42 -27 -42 -66q0 -124 224 -124q346 0 346 318h157q0 -430 -464 -430z" />
    <glyph glyph-name="uni17D2_1785" 
d="M-179 -409l-114 -84l-135 136q-200 -143 -429 -143q-212 0 -212 164v73q190 52 190 95q0 30 -80 38v40q60 20 119 20q119 0 119 -98q0 -108 -180 -168q0 -52 44 -52q198 0 358 108q-22 40 -22 83q0 127 153 127q133 0 133 -89q0 -30 -84 -108z" />
    <glyph glyph-name="uni17D2_1786" 
d="M-1038 -253v183h179v-193q53 0 182 -60q130 -59 206 -59q63 2 63 62v72q0 71 -79 71q0 107 134 107q124 0 124 -125v-125q0 -180 -245 -180q-64 0 -190 61t-195 61q0 -122 -138 -122q-145 0 -145 119q0 128 104 128z" />
    <glyph glyph-name="uni17D2_1787" 
d="M-209 -187h142v-136h-151q-13 -68 -60 -121.5t-136 -53.5q-114 0 -218 84q-65 -86 -204 -86q-245 0 -245 230q0 200 303 200v-124q-161 0 -161 -76q0 -118 103 -118q69 0 198 132q137 -132 224 -132q63 0 70 84q-115 8 -149.5 46t-34.5 94v3q0 91 121 91q192 0 198 -117z
" />
    <glyph glyph-name="uni17D2_1789" 
d="M-536 -500q-206 0 -335 129t-211 129q-58 0 -97 -19q51 80 109.5 99t122.5 19q72 0 205 -131q134 -131 286 -131q77 0 77 137q0 112 -222 112q59 86 193 86q188 0 188 -198q0 -232 -316 -232z" />
    <glyph glyph-name="uni17D2_178A" 
d="M-871 -240q121 -7 121 -130q0 -130 -157 -130q-167 0 -167 140v52q0 238 425 238q424 0 424 -238v-192h-179v192q0 129 -245 129q-170 0 -222 -61z" />
    <glyph glyph-name="uni17D2_178B" 
d="M-1078 -384v147q0 110 129 110h541v77h179v-77h82v-110h-82v-147q0 -116 -179 -116l-246 106l-245 -106q-179 0 -179 116zM-899 -237v-137l245 94l246 -94v137h-491z" />
    <glyph glyph-name="uni17D2_178C" 
d="M-1074 -211q0 36 27 63t67.5 44t81.5 25.5t69 8.5q56 0 192 -50q112 50 184 50q45 0 98 -14.5t91.5 -42t38.5 -67.5q0 -120 -335 -152t-335 -55q0 -32 45 -32q346 0 446 58h179v-125h-179v57q-139 -57 -446 -57q-224 0 -224 99q0 71 335 97t335 87q0 60 -68 68
q-62 0 -189 -68q-119 68 -172 68q-62 0 -62 -31t57 -31v-74q-236 0 -236 74z" />
    <glyph glyph-name="uni17D2_178E" 
d="M-2299 -348v59q0 219 411 219q412 0 412 -212v-81l227 140l227 -140v81q0 212 411 212q412 0 412 -219v-211h-184v211q0 112 -228 112q-227 0 -227 -112v-211h-184l-227 135l-227 -135h-184v211q0 112 -228 112q-227 0 -227 -112v-59q0 -24 35 -24h80v-128h-135
q-164 0 -164 152z" />
    <glyph glyph-name="uni17D2_178F" 
d="M-871 -240q121 -7 121 -130q0 -130 -157 -130q-167 0 -167 140v52q0 238 425 238q424 0 424 -238v-192h-179v192q0 129 -245 129q-170 0 -222 -61z" />
    <glyph glyph-name="uni17D2_1790" 
d="M-743 -70q314 0 544 -350l-137 -80q-199 318 -446 318q-164 0 -164 -124q0 -39 42 -66q6 99 125 99q105 0 105 -110q0 -117 -151 -117q-243 0 -243 194q0 236 325 236z" />
    <glyph glyph-name="uni17D2_1791" 
d="M-1075 -327v71q305 45 305 72q0 26 -60 26q0 88 119 88t119 -88q0 -118 -315 -169q0 -64 109 -64q194 0 399 280h174v-262q0 -127 -209 -127q30 114 30 208q-160 -208 -394 -208q-277 0 -277 173z" />
    <glyph glyph-name="uni17D2_1792" 
d="M-404 -102v32h179v-177q0 -153 -216 -153q-55 0 -155 31q-44 -131 -232 -131q-246 0 -246 154q0 85 160 125zM-630 -257q117 -38 189 -38q37 0 37 48v48zM-702 -275l-193 -48v-19q0 -58 70 -58q123 0 123 71v54z" />
    <glyph glyph-name="uni17D2_1793" 
d="M-850 -445q-240 0 -240 160t220 160h391v55h179v-55h150v-97h-150v-96q100 0 100 -91t-125 -91q-154 0 -154 86zM-911 -286q0 -63 81 -63l351 31v96h-341q-91 0 -91 -64z" />
    <glyph glyph-name="uni17D2_1795" 
d="M-588 -184l184 -165v143l-108 60v76h156q131 0 131 -103v-327h-253l-173 172l-180 -172h-243v430h179v-288l192 174h115z" />
    <glyph glyph-name="uni17D2_1796" 
d="M-1074 -318v62q0 32 27 64.5t67.5 60t81.5 44.5t69 17q58 0 192 -100q110 100 184 100q45 0 98 -27t91.5 -74t38.5 -107v-222h-179v222q0 63 -68 72q-64 0 -189 -112q-118 112 -172 112q-27 0 -62 -33v-79q0 -42 57 -42h106v-140h-166q-176 0 -176 182z" />
    <glyph glyph-name="uni17D2_1797" 
d="M-1167 -500v126h99v52q0 252 424 252q425 0 425 -252v-178h-179v178q0 143 -246 143q-245 0 -245 -143v-178h-278z" />
    <glyph glyph-name="uni17D2_1798" 
d="M-989 -358q-169 3 -169 177q0 91 179 91v-71q0 -82 109 -82l470 17v155h181v-155q119 0 119 -137q0 -138 -125 -138q-88 0 -131 46q-44 47 -44 137q-253 -20 -400.5 -30t-188.5 -10z" />
    <glyph glyph-name="uni17D2_179B" 
d="M-552 -500q-130 328 -286 328q-114 0 -114 -134q0 -39 42 -66q6 79 115 79q95 0 95 -100q0 -107 -131 -107q-243 0 -243 194q0 236 265 236q214 0 356 -259q49 80 49 259h179q0 -430 -327 -430z" />
    <glyph glyph-name="uni17D2_179C" 
d="M-793 -500q-281 0 -281 179q0 72 75 94l595 157h179v-55q0 -375 -568 -375zM-895 -326q0 -62 102 -62q389 0 389 192z" />
    <glyph glyph-name="uni17D2_17A0" 
d="M-825 -388q90 0 90 67v72q0 179 260 179q250 0 250 -179v-251h-179v251q0 67 -71 67q-90 0 -90 -67v-72q0 -179 -260 -179q-249 0 -249 179v251h179v-251q0 -67 70 -67z" />
    <glyph glyph-name="uni17D2_17A2" 
d="M-489 -395h100v105h-500v-210h-280v105h101v325h179v-115h500v115h170v-430h-270v105z" />
    <glyph glyph-name="uni17B7.a" 
d="M-1085 1900q0 200 320 200q200 0 375 -150l175 -150v-100h-620q-250 0 -250 200zM-965 1900q0 -70 130 -70h410q-139 150 -340 150q-200 0 -200 -80z" />
    <glyph glyph-name="uni17B8.a" 
d="M-390 1950l45 -39v189h130v-400h-620q-250 0 -250 200t320 200q200 0 375 -150zM-835 1830h410q-139 150 -340 150q-200 0 -200 -80q0 -70 130 -70z" />
    <glyph glyph-name="uni17B9.a" 
d="M-553 2055q10 29 32 51q44 44 131 44q88 0 132 -44q43 -43 43 -131t-43 -131l-4 -4l47 -40v-100h-620q-250 0 -250 200t320 200q110 0 212 -45zM-445 1989q0 -33 17 -52q19 -17 51 -17q35 0 52 17q16 17 16 52t-16 51q-17 17 -52 17q-32 0 -51 -17q-17 -17 -17 -51z
M-835 1830h410q-139 150 -340 150q-200 0 -200 -80q0 -70 130 -70z" />
    <glyph glyph-name="uni17BA.a" 
d="M-555 2056v94h130v-172q9 -7 18 -13.5t17 -14.5l45 -39v189h130v-400h-620q-250 0 -250 200t320 200q108 0 210 -44zM-835 1830h410q-139 150 -340 150q-200 0 -200 -80q0 -70 130 -70z" />
    <glyph glyph-name="uni17C6.a" 
d="M-650 2150q56 0 111 -29q54 -29 84 -83t30 -113q0 -58 -30 -112q-29 -54 -82.5 -83.5t-112.5 -29.5q-58 0 -112 30q-53 29 -83 83t-30 112q0 59 30 113q31 54 84.5 83t110.5 29zM-650 2025q-40 0 -70 -29.5t-30 -70.5t30 -70.5t70 -29.5q42 0 71 29t29 71
q0 41 -29.5 70.5t-70.5 29.5z" />
    <glyph glyph-name="uni17CE.a" 
d="M-440 1849h-150v-149h-120v149h-150v121h150v149h120v-149h150v-121z" />
    <glyph glyph-name="uni17D0.a" 
d="M-530 1995q130 0 130 -88q0 -80 -75 -80q-64 0 -75 42q0 -84 100 -84q175 0 238 45q62 45 62 134q0 102 -50 102t-50 42t50 42q76 0 138 -46q62 -47 62 -140q0 -132 -112 -198t-338 -66q-125 0 -188 42q-62 42 -62 127q0 126 170 126z" />
    <glyph glyph-name="uni17BB.b" 
d="M-360 -552q110 0 110 -87v-261h-150v174q-80 0 -80 87t120 87z" />
    <glyph glyph-name="uni17BC.b" 
d="M-450 -900q-132 0 -178 41q-32 29 -32 58q0 12 6 25l50 94q-80 0 -80 62t120 62q123 0 123 -78q0 -32 -21 -77l-41 -81q-7 -10 -7 -20q0 -24 60 -24q72 0 155 140t137 140q25 0 25 -43q0 -27 -16 -76t-52.5 -100.5t-97.5 -87t-151 -35.5z" />
    <glyph glyph-name="uni17BD.b" 
d="M-431 -807q-136 -93 -272 -93q-96 0 -96 82q0 48 130 139q21 17 21 30q0 20 -62 34q0 63 107 63q103 0 103 -42t-63 -110q-79 -85 -79 -107q0 -7 9 -7q93 0 233 115q40 -115 107 -115q44 0 78 133t73 133t39 -62q0 -61 -17 -127q-37 -159 -173 -159q-82 0 -138 93z" />
    <glyph glyph-name="uni17BB.n" 
d="M-950 -100q110 0 110 -100v-450h-150v350q-80 0 -80 100t120 100z" />
    <glyph glyph-name="uni17BC.n" 
d="M-1156 -650q-133 0 -178 66q-32 47 -32 93q0 21 6 40l50 151q-80 0 -80 100t120 100q123 0 123 -125q0 -51 -21 -125l-41 -129q-7 -17 -7 -32q0 -39 60 -39q73 0 155 225q83 225 137 225q25 0 25 -69q0 -35 -10 -93.5t-32.5 -125.5t-59 -126.5t-90 -97.5t-125.5 -38z" />
    <glyph glyph-name="uni17BD.n" 
d="M-1162 -503q-136 -147 -272 -147q-96 0 -96 129q0 78 130 221q21 26 21 46q0 34 -62 54q0 100 107 100q103 0 103 -67t-63 -174q-79 -133 -79 -168q0 -11 9 -11q92 0 233 182q41 -182 107 -182q44 0 78 210q35 210 73 210q39 0 39 -98q0 -95 -17 -200q-37 -252 -173 -252
q-82 0 -138 147z" />
    <glyph glyph-name="uni17BB.n2" 
d="M-960 -552q110 0 110 -87v-261h-150v174q-80 0 -80 87t120 87z" />
    <glyph glyph-name="uni17BC.n2" 
d="M-1156 -900q-132 0 -178 41q-32 29 -32 58q0 12 6 25l50 94q-80 0 -80 62t120 62q123 0 123 -78q0 -32 -21 -77l-41 -81q-7 -10 -7 -20q0 -24 60 -24q72 0 155 140t137 140q25 0 25 -43q0 -27 -16 -76t-52.5 -100.5t-97.5 -87t-151 -35.5z" />
    <glyph glyph-name="uni17BD.n2" 
d="M-1152 -807q-136 -93 -272 -93q-96 0 -96 82q0 48 130 139q21 17 21 30q0 20 -62 34q0 63 107 63q103 0 103 -42t-63 -110q-79 -85 -79 -107q0 -7 9 -7q93 0 233 115q40 -115 107 -115q44 0 78 133t73 133t39 -62q0 -61 -17 -127q-37 -159 -173 -159q-82 0 -138 93z" />
    <glyph glyph-name="uni17B7.r" 
d="M-750 1750q0 200 276 200q172 0 323 -150l151 -150v-100h-534q-216 0 -216 200zM-647 1750q0 -70 113 -70h353q-120 150 -293 150t-173 -80z" />
    <glyph glyph-name="uni17B8.r" 
d="M-151 1800l39 -39v189h112v-400h-534q-216 0 -216 200t276 200q172 0 323 -150zM-534 1680h353q-120 150 -293 150t-173 -80q0 -70 113 -70z" />
    <glyph glyph-name="uni17B9.r" 
d="M-291 1905q9 30 27 51q38 44 113 44q76 0 114 -44q37 -43 37 -131t-37 -131l-4 -4l41 -40v-100h-534q-216 0 -216 200t276 200q95 0 183 -45zM-198 1839q0 -33 14 -52q17 -17 44 -17q31 0 45 17q14 19 14 52q0 34 -14 51t-45 17q-27 0 -44 -17q-14 -17 -14 -51z
M-534 1680h353q-120 150 -293 150t-173 -80q0 -70 113 -70z" />
    <glyph glyph-name="uni17BA.r" 
d="M-293 1906v94h112v-172q8 -7 15.5 -13.5t14.5 -14.5l39 -39v189h112v-400h-534q-216 0 -216 200t276 200q93 0 181 -44zM-534 1680h353q-120 150 -293 150t-173 -80q0 -70 113 -70z" />
    <glyph glyph-name="uni17C6.r" 
d="M-330 1950q56 0 111 -29q54 -29 84 -83t30 -113q0 -58 -30 -112q-29 -54 -82.5 -83.5t-112.5 -29.5q-58 0 -112 30q-53 29 -83 83t-30 112q0 59 30 113q31 54 84.5 83t110.5 29zM-330 1825q-40 0 -70 -29.5t-30 -70.5t30 -70.5t70 -29.5q42 0 71 29t29 71
q0 41 -29.5 70.5t-70.5 29.5z" />
    <glyph glyph-name="uni17C9.r" 
d="M-555 1600v300h125v-300q0 -80 -62 -100q-63 20 -63 100zM-230 1600v300h125v-300q0 -80 -62 -100q-63 20 -63 100z" />
    <glyph glyph-name="uni17CD.r" 
d="M-445 1676q0 -38 12 -56q13 -19 48 -19q50 0 50 18q0 31 70 31t70 -31q0 -59 -44 -89q-43 -30 -141 -30q-127 0 -171 44t-44 131q0 78 45 136q45 59 175 59q127 0 175 -59q77 26 141 69t106 115l11 2q19 0 42 -29q15 -19 15 -34q0 -13 -12 -24q-46 -64 -105 -113
q-59 -48 -136 -86q-38 -11 -70 -11q-73 70 -137 70q-45 0 -72 -28q-28 -28 -28 -66z" />
    <glyph glyph-name="coeng_1789khmer.a" 
d="M-200 -267h-176v37q0 8 -35 20t-86 24.5t-102 21t-83 8.5q-66 0 -174 -41q2 -8 2 -14v-56h-166v56q0 23 -102 39q-66 0 -198 -50q-145 50 -230 50q-24 0 -24 -18v-77h-176v132q87 32 147 48.5t119 16.5q60 0 199 -48q117 48 193 48q70 0 160 -31q8 -4 16.5 -7t15.5 -7
q43 15 85 24q95 21 209 21q57 0 127 -10t133.5 -27.5t104.5 -41.5t41 -51v-67zM-657 -500q-249 0 -570 62t-398 62q-84 0 -125 -11q126 90 306 90q121 0 418 -63t447 -63q193 0 193 40t-227 40q56 52 199 52q214 0 214 -104q0 -105 -457 -105z" />
    <glyph glyph-name="iMark_17CDkhmer.r" 
d="M177 2004l48 -64q-13 -14 -26.5 -28t-28.5 -27q-51 -43 -111 -74q-29 -10 -58 -10q-61 43 -113 43q-20 0 -32 -15q-9 -16 -9 -48q0 -31 9 -48q5 -4 10 -7t9 -7q6 -3 13 -3q42 0 42 16q0 26 41 26q40 0 40 -26q0 -51 -36 -77q-11 -8 -26 -14q55 -64 55 -98q0 -43 -83 -43
h-494q-165 0 -165 129q0 215 248 215q119 0 215 -37q7 55 40 86q40 37 123 37q80 0 128 -42q63 23 111 63q27 23 50 53zM-260 1696q-85 36 -230 36q-124 0 -124 -103q0 -43 110 -43h384q-9 19 -37 44q-54 6 -83 37q-14 16 -20 29z" />
    <glyph glyph-name="coeng_178Akhmer.n" 
d="M-1475 -240q121 -7 121 -130q0 -130 -157 -130q-167 0 -167 140v52q0 238 425 238q424 0 424 -238v-192h-179v192q0 129 -245 129q-170 0 -222 -61z" />
    <glyph glyph-name="coeng_178Bkhmer.n" 
d="M-1678 -384v147q0 110 129 110h541v77h179v-77h82v-110h-82v-147q0 -116 -179 -116l-246 106l-245 -106q-179 0 -179 116zM-1499 -237v-137l245 94l246 -94v137h-491z" />
    <glyph glyph-name="coeng_178Ckhmer.n" 
d="M-1678 -211q0 36 27 63t67.5 44t81.5 25.5t69 8.5q56 0 192 -50q112 50 184 50q45 0 98 -14.5t91.5 -42t38.5 -67.5q0 -120 -335 -152t-335 -55q0 -32 45 -32q346 0 446 58h179v-125h-179v57q-139 -57 -446 -57q-224 0 -224 99q0 71 335 97t335 87q0 60 -68 68
q-62 0 -189 -68q-119 68 -172 68q-62 0 -62 -31t57 -31v-74q-236 0 -236 74z" />
    <glyph glyph-name="coeng_17A0khmer.n" 
d="M-1429 -388q90 0 90 67v72q0 179 260 179q250 0 250 -179v-251h-179v251q0 67 -71 67q-90 0 -90 -67v-72q0 -179 -260 -179q-249 0 -249 179v251h179v-251q0 -67 70 -67z" />
    <glyph glyph-name="coeng_178Akhmer.r" 
d="M-595 -240q121 -7 121 -130q0 -130 -157 -130q-167 0 -167 140v52q0 238 425 238q424 0 424 -238v-192h-179v192q0 129 -245 129q-170 0 -222 -61z" />
    <glyph glyph-name="coeng_1797khmer.r" 
d="M-937 -500v126h99v52q0 252 424 252q425 0 425 -252v-178h-179v178q0 143 -246 143q-245 0 -245 -143v-178h-278z" />
    <glyph glyph-name="coeng_1798khmer.r" 
d="M-711 -358q-169 3 -169 177q0 91 179 91v-71q0 -82 109 -82l470 17v155h181v-155q119 0 119 -137q0 -138 -125 -138q-88 0 -131 46q-44 47 -44 137q-253 -20 -400.5 -30t-188.5 -10z" />
    <glyph glyph-name="coeng_1798khmer.b" 
d="M-989 -772q-169 1 -169 159q0 82 179 82v-64q0 -74 109 -74l470 16v139h181v-139q119 0 119 -124t-125 -124q-87 0 -131 41q-44 44 -44 124q-505 -36 -589 -36z" />
    <glyph glyph-name="coeng_17A0khmer.b" 
d="M-1045 -748v199h150v-199q0 -38 25 -57t75 -19t75 19t25 57v46q0 76 62 115q64 38 188 38t188 -38q62 -39 62 -115v-199h-150v199q0 38 -25 57t-75 19t-75 -19t-25 -57v-46q0 -76 -62 -115q-64 -38 -188 -38t-188 38q-62 39 -62 115z" />
    </font>
</defs>
</svg>
