<?xml version="1.0" encoding="UTF-8" standalone="no" ?>
<!DOCTYPE svg PUBLIC "-//W3C//DTD SVG 1.1//EN" "http://www.w3.org/Graphics/SVG/1.1/DTD/svg11.dtd">
<svg xmlns="http://www.w3.org/2000/svg" xmlns:xlink="http://www.w3.org/1999/xlink" version="1.1" width="32" height="32" viewBox="0 0 32 32" xml:space="preserve">
<desc>Created with Fabric.js 4.6.0</desc>
<defs>
</defs>
<g transform="matrix(0.08 0 0 0.07 16 16)" id="tGYgXBnmFPmOZ9FpVpywE"  >
<g style="" vector-effect="non-scaling-stroke"   >
		<g transform="matrix(1 0 0 1 114.52 -115.05)" id="Uervw311Mxaw0lVShlxvi"  >
<path style="stroke: none; stroke-width: 1; stroke-dasharray: none; stroke-linecap: butt; stroke-dashoffset: 0; stroke-linejoin: miter; stroke-miterlimit: 4; fill: rgb(255,255,255); fill-rule: nonzero; opacity: 1;" vector-effect="non-scaling-stroke"  transform=" translate(-357.8, -133.4)" d="M 352.1 142.9 L 348.40000000000003 139.20000000000002 C 345.00000000000006 135.8 345.00000000000006 130.4 348.3 127.00000000000001 L 351.3 124.00000000000001 C 354.7 120.60000000000001 360.1 120.60000000000001 363.5 123.90000000000002 L 367.2 127.60000000000002 C 370.59999999999997 131.00000000000003 370.59999999999997 136.40000000000003 367.3 139.8 L 364.3 142.8 C 360.9 146.2 355.5 146.2 352.1 142.9 z" stroke-linecap="round" />
</g>
		<g transform="matrix(1 0 0 1 -125.73 127.1)" id="sg9AjJZcRp166kQO0MLUg"  >
<path style="stroke: none; stroke-width: 1; stroke-dasharray: none; stroke-linecap: butt; stroke-dashoffset: 0; stroke-linejoin: miter; stroke-miterlimit: 4; fill: rgb(255,255,255); fill-rule: nonzero; opacity: 1;" vector-effect="non-scaling-stroke"  transform=" translate(-117.55, -375.55)" d="M 136.7 317.4 C 140.79999999999998 317.4 144.5 319 147.29999999999998 321.79999999999995 L 170.79999999999998 344.99999999999994 C 176.7 350.8999999999999 176.79999999999998 360.59999999999997 170.89999999999998 366.49999999999994 L 109.19999999999997 429.19999999999993 C 106.39999999999998 432.0999999999999 102.49999999999997 433.69999999999993 98.49999999999997 433.69999999999993 L 98.39999999999998 433.69999999999993 C 94.29999999999998 433.69999999999993 90.59999999999998 432.0999999999999 87.79999999999998 429.29999999999995 L 64.29999999999998 406.09999999999997 C 58.399999999999984 400.2 58.29999999999998 390.49999999999994 64.19999999999999 384.59999999999997 L 126.1 321.9 C 128.8 319 132.6 317.4 136.7 317.4 L 136.7 317.4 z M 98.4 419.6 C 98.60000000000001 419.6 98.9 419.5 99.2 419.3 L 161.1 356.6 C 161.5 356.1 161.5 355.5 161.1 355.1 L 137.6 331.90000000000003 C 137.29999999999998 331.6 137 331.6 136.79999999999998 331.6 C 136.6 331.6 136.29999999999998 331.70000000000005 135.99999999999997 331.90000000000003 L 74.09999999999997 394.6 C 73.69999999999996 395.1 73.69999999999996 395.70000000000005 74.09999999999997 396.1 L 97.59999999999997 419.3 L 97.59999999999997 419.3 C 97.8 419.5 98.2 419.6 98.4 419.6 z" stroke-linecap="round" />
</g>
		<g transform="matrix(1 0 0 1 -79.68 80.47)" id="zhL5UArYcFUgTMhWzG-6y"  >
<path style="stroke: none; stroke-width: 1; stroke-dasharray: none; stroke-linecap: butt; stroke-dashoffset: 0; stroke-linejoin: miter; stroke-miterlimit: 4; fill: rgb(255,255,255); fill-rule: nonzero; opacity: 1;" vector-effect="non-scaling-stroke"  transform=" translate(-163.6, -328.92)" d="M 122.1 264.5 C 126.3 264.5 130.29999999999998 266.1 133.2 269 L 178.6 313.8 C 181.5 316.7 181.6 321.5 178.7 324.40000000000003 C 175.79999999999998 327.3 171 327.40000000000003 168.1 324.50000000000006 L 122.69999999999999 279.70000000000005 C 122.49999999999999 279.50000000000006 122.19999999999999 279.50000000000006 121.99999999999999 279.50000000000006 C 121.49999999999999 279.50000000000006 120.99999999999999 279.80000000000007 120.59999999999998 280.20000000000005 L 114.29999999999998 286.50000000000006 C 113.49999999999999 287.30000000000007 113.49999999999999 288.30000000000007 113.79999999999998 288.6000000000001 L 204.5 378.20000000000005 C 204.8 378.50000000000006 205.8 378.50000000000006 206.6 377.70000000000005 L 212.9 371.40000000000003 C 213.70000000000002 370.6 213.70000000000002 369.6 213.4 369.3 L 187.7 344 C 184.79999999999998 341.1 184.7 336.3 187.6 333.4 C 190.5 330.49999999999994 195.29999999999998 330.4 198.2 333.29999999999995 L 223.89999999999998 358.59999999999997 C 230.2 364.9 230.09999999999997 375.29999999999995 223.59999999999997 381.9 L 217.29999999999995 388.2 C 210.79999999999995 394.8 200.29999999999995 395.09999999999997 193.99999999999994 388.8 L 103.29999999999994 299.20000000000005 C 96.99999999999994 292.90000000000003 97.09999999999994 282.50000000000006 103.59999999999994 275.90000000000003 L 109.89999999999993 269.6 C 112.99999999999993 266.5 116.99999999999993 264.70000000000005 121.29999999999994 264.5 C 121.6 264.6 121.8 264.5 122.1 264.5 z" stroke-linecap="round" />
</g>
		<g transform="matrix(1 0 0 1 -170.48 172.45)" id="CtFbrF-5aCY7XF9g9gpG7"  >
<path style="stroke: none; stroke-width: 1; stroke-dasharray: none; stroke-linecap: butt; stroke-dashoffset: 0; stroke-linejoin: miter; stroke-miterlimit: 4; fill: rgb(255,255,255); fill-rule: nonzero; opacity: 1;" vector-effect="non-scaling-stroke"  transform=" translate(-72.8, -420.9)" d="M 103.4 451.1 C 99.2 455.3 93.10000000000001 456 89.7 452.6 L 79.8 442.8 L 70.7 433.8 L 61.2 424.5 L 40.800000000000004 404.4 C 37.400000000000006 401 38.00000000000001 394.9 42.2 390.7 L 42.2 390.7 C 46.400000000000006 386.5 52.5 385.8 55.900000000000006 389.2 L 104.80000000000001 437.5 C 108.2 440.8 107.6 446.9 103.4 451.1 L 103.4 451.1 z" stroke-linecap="round" />
</g>
		<g transform="matrix(1 0 0 1 -170.52 172.45)" id="f3VIE8zj_aFn9HDzuaDfO"  >
<path style="stroke: none; stroke-width: 0; stroke-dasharray: none; stroke-linecap: butt; stroke-dashoffset: 0; stroke-linejoin: miter; stroke-miterlimit: 4; fill: none; fill-rule: nonzero; opacity: 1;" vector-effect="non-scaling-stroke"  transform=" translate(-72.76, -420.9)" d="M 50.4 379.5 C 54.5 379.5 58.4 381 61.2 383.8 L 110 432.1 C 113.2 435.3 114.8 439.90000000000003 114.3 444.70000000000005 C 113.89999999999999 449.00000000000006 111.89999999999999 453.1 108.7 456.40000000000003 C 105.5 459.70000000000005 101.4 461.70000000000005 97.10000000000001 462.20000000000005 C 92.30000000000001 462.70000000000005 87.7 461.20000000000005 84.4 458.00000000000006 L 35.50000000000001 409.70000000000005 C 29.200000000000006 403.40000000000003 29.800000000000008 392.50000000000006 36.800000000000004 385.40000000000003 C 40.00000000000001 382.1 44.1 380.1 48.400000000000006 379.6 C 49.2 379.5 49.8 379.5 50.4 379.5 z M 95 447.2 C 95.4 447.3 96.8 447.2 98.1 445.8 C 99.5 444.40000000000003 99.6 443 99.5 442.7 L 50.7 394.5 C 50.300000000000004 394.4 49 394.5 47.6 395.9 C 46.2 397.29999999999995 46.1 398.7 46.2 399 M 94.9 447.2 L 94.9 447.2 L 94.9 447.2 z" stroke-linecap="round" />
</g>
		<g transform="matrix(1 0 0 1 96.52 -97.78)" id="Ylt9Zz886JSNNYCh8qNMb"  >
<path style="stroke: none; stroke-width: 1; stroke-dasharray: none; stroke-linecap: butt; stroke-dashoffset: 0; stroke-linejoin: miter; stroke-miterlimit: 4; fill: rgb(255,255,255); fill-rule: nonzero; opacity: 1;" vector-effect="non-scaling-stroke"  transform=" translate(-339.8, -150.67)" d="M 337.6 168.3 L 322.20000000000005 153.10000000000002 C 318.80000000000007 149.70000000000002 318.80000000000007 144.3 322.1 140.90000000000003 L 329.8 133.10000000000002 C 333.2 129.70000000000002 338.6 129.70000000000002 342 133.00000000000003 L 357.4 148.20000000000002 C 360.79999999999995 151.60000000000002 360.79999999999995 157.00000000000003 357.5 160.4 L 349.8 168.20000000000002 C 346.5 171.6 341 171.7 337.6 168.3 z" stroke-linecap="round" />
</g>
		<g transform="matrix(1 0 0 1 96.52 -97.78)" id="kEEq__82LHYeNKlqVvD5M"  >
<path style="stroke: none; stroke-width: 0; stroke-dasharray: none; stroke-linecap: butt; stroke-dashoffset: 0; stroke-linejoin: miter; stroke-miterlimit: 4; fill: none; fill-rule: nonzero; opacity: 1;" vector-effect="non-scaling-stroke"  transform=" translate(-339.79, -150.64)" d="M 336 123 C 340.3 123 344.3 124.7 347.3 127.7 L 362.7 142.9 C 369 149.20000000000002 369.09999999999997 159.4 362.8 165.70000000000002 L 355.1 173.50000000000003 C 348.8 179.80000000000004 338.6 179.90000000000003 332.3 173.60000000000002 L 332.3 173.60000000000002 L 316.90000000000003 158.40000000000003 C 313.8 155.40000000000003 312.1 151.30000000000004 312.1 147.00000000000003 C 312.1 142.70000000000002 313.70000000000005 138.60000000000002 316.8 135.60000000000002 L 324.5 127.80000000000003 C 327.5 124.7 331.6 123 336 123 C 335.9 123 336 123 336 123 z M 343.7 163.3 C 344 163.3 344.3 163.20000000000002 344.5 163 L 352.2 155.2 C 352.59999999999997 154.7 352.59999999999997 154 352.2 153.6 L 336.8 138.4 C 336.5 138.1 336.2 138.1 336 138.1 C 335.8 138.1 335.5 138.2 335.2 138.4 L 327.5 146.20000000000002 C 327.2 146.50000000000003 327.2 146.8 327.2 147.00000000000003 C 327.2 147.20000000000002 327.3 147.50000000000003 327.5 147.80000000000004 L 342.9 163.00000000000003 C 343.1 163.2 343.4 163.3 343.7 163.3 z" stroke-linecap="round" />
</g>
		<g transform="matrix(1 0 0 1 163.47 -164.69)" id="EN7Qm_AoeWqI7J-LC2ubo"  >
<path style="stroke: none; stroke-width: 1; stroke-dasharray: none; stroke-linecap: butt; stroke-dashoffset: 0; stroke-linejoin: miter; stroke-miterlimit: 4; fill: rgb(255,255,255); fill-rule: nonzero; opacity: 1;" vector-effect="non-scaling-stroke"  transform=" translate(-406.75, -83.76)" d="M 447.4 35.1 C 449.29999999999995 35.1 451.2 35.800000000000004 452.7 37.300000000000004 C 455.59999999999997 40.2 455.7 45.00000000000001 452.8 47.900000000000006 L 371.4 130.2 C 368.5 133.1 363.7 133.2 360.79999999999995 130.29999999999998 C 357.9 127.39999999999998 357.79999999999995 122.59999999999998 360.69999999999993 119.69999999999999 L 442.0999999999999 37.29999999999998 C 443.5 35.9 445.5 35.1 447.4 35.1 z" stroke-linecap="round" />
</g>
		<g transform="matrix(1 0 0 1 58.72 -68.26)" id="rBgiOe41EM2aWHlvQamke"  >
<path style="stroke: none; stroke-width: 1; stroke-dasharray: none; stroke-linecap: butt; stroke-dashoffset: 0; stroke-linejoin: miter; stroke-miterlimit: 4; fill: rgb(255,255,255); fill-rule: nonzero; opacity: 1;" vector-effect="non-scaling-stroke"  transform=" translate(-302, -180.19)" d="M 291.5 162.2 C 293.4 162.2 295.3 162.89999999999998 296.8 164.39999999999998 L 317.8 185.39999999999998 C 320.7 188.29999999999998 320.7 193.09999999999997 317.8 195.99999999999997 C 314.90000000000003 198.89999999999998 310.1 198.89999999999998 307.2 195.99999999999997 L 286.2 174.99999999999997 C 283.3 172.09999999999997 283.3 167.29999999999998 286.2 164.39999999999998 C 287.6 162.9 289.5 162.2 291.5 162.2 z" stroke-linecap="round" />
</g>
		<g transform="matrix(1 0 0 1 38.02 -47.56)" id="wfSEVBqWYXHkACB59uB6u"  >
<path style="stroke: none; stroke-width: 1; stroke-dasharray: none; stroke-linecap: butt; stroke-dashoffset: 0; stroke-linejoin: miter; stroke-miterlimit: 4; fill: rgb(255,255,255); fill-rule: nonzero; opacity: 1;" vector-effect="non-scaling-stroke"  transform=" translate(-281.3, -200.89)" d="M 270.8 182.9 C 272.7 182.9 274.6 183.6 276.1 185.1 L 297.1 206.1 C 300 209 300 213.79999999999998 297.1 216.7 C 294.20000000000005 219.6 289.40000000000003 219.6 286.5 216.7 L 265.5 195.7 C 262.6 192.79999999999998 262.6 188 265.5 185.1 C 266.9 183.6 268.9 182.9 270.8 182.9 z" stroke-linecap="round" />
</g>
		<g transform="matrix(1 0 0 1 15.02 -24.56)" id="_bgoZhZRjxy0t4ZfV0BTn"  >
<path style="stroke: none; stroke-width: 1; stroke-dasharray: none; stroke-linecap: butt; stroke-dashoffset: 0; stroke-linejoin: miter; stroke-miterlimit: 4; fill: rgb(255,255,255); fill-rule: nonzero; opacity: 1;" vector-effect="non-scaling-stroke"  transform=" translate(-258.3, -223.89)" d="M 247.8 205.9 C 249.70000000000002 205.9 251.60000000000002 206.6 253.10000000000002 208.1 L 274.1 229.1 C 277 232 277 236.79999999999998 274.1 239.7 C 271.20000000000005 242.6 266.40000000000003 242.6 263.5 239.7 L 242.5 218.7 C 239.6 215.79999999999998 239.6 211 242.5 208.1 C 244 206.6 245.9 205.9 247.8 205.9 z" stroke-linecap="round" />
</g>
		<g transform="matrix(1 0 0 1 -5.68 -3.96)" id="_npWroLa8Xp9TokRjh_sh"  >
<path style="stroke: none; stroke-width: 1; stroke-dasharray: none; stroke-linecap: butt; stroke-dashoffset: 0; stroke-linejoin: miter; stroke-miterlimit: 4; fill: rgb(255,255,255); fill-rule: nonzero; opacity: 1;" vector-effect="non-scaling-stroke"  transform=" translate(-237.6, -244.49)" d="M 227.1 226.5 C 229 226.5 230.9 227.2 232.4 228.7 L 253.4 249.7 C 256.3 252.6 256.3 257.4 253.4 260.3 C 250.5 263.2 245.70000000000002 263.2 242.8 260.3 L 221.8 239.3 C 218.9 236.4 218.9 231.60000000000002 221.8 228.70000000000002 C 223.3 227.3 225.2 226.5 227.1 226.5 z" stroke-linecap="round" />
</g>
		<g transform="matrix(1 0 0 1 7.77 -8.05)" id="-o9Qkb4uuVPZbFA9ZrYiv"  >
<path style="stroke: none; stroke-width: 1; stroke-dasharray: none; stroke-linecap: butt; stroke-dashoffset: 0; stroke-linejoin: miter; stroke-miterlimit: 4; fill: rgb(255,255,255); fill-rule: nonzero; opacity: 1;" vector-effect="non-scaling-stroke"  transform=" translate(-251.05, -240.4)" d="M 140.2 280 L 151.1 290.7 C 151 290.5 151 290.3 151 290.2 C 151 290 151 289.7 151.3 289.4 L 292.6 145.89999999999998 C 295.5 142.79999999999998 300.5 142.7 303.5 145.7 L 345.1 186.89999999999998 C 346.6 188.39999999999998 347.40000000000003 190.29999999999998 347.40000000000003 192.39999999999998 C 347.40000000000003 194.49999999999997 346.6 196.39999999999998 345.1 197.89999999999998 L 203.8 341.4 C 203.60000000000002 341.59999999999997 203.3 341.7 203 341.7 C 202.9 341.7 202.7 341.7 202.6 341.59999999999997 L 213.4 352.2 C 213.6 352 213.9 351.8 214.1 351.5 L 355.4 208 C 359.59999999999997 203.7 361.9 198 361.9 192 C 361.9 186 359.59999999999997 180.4 355.4 176.2 L 313.79999999999995 135 C 309.49999999999994 130.7 303.79999999999995 128.6 298.19999999999993 128.6 C 292.3999999999999 128.6 286.5999999999999 130.79999999999998 282.19999999999993 135.4 L 141.1 279 C 140.8 279.3 140.5 279.7 140.2 280 z" stroke-linecap="round" />
</g>
</g>
</g>
</svg>