<?xml version="1.0" encoding="UTF-8" standalone="no" ?>
<!DOCTYPE svg PUBLIC "-//W3C//DTD SVG 1.1//EN" "http://www.w3.org/Graphics/SVG/1.1/DTD/svg11.dtd">
<svg xmlns="http://www.w3.org/2000/svg" xmlns:xlink="http://www.w3.org/1999/xlink" version="1.1" width="31.9999" height="31.9999" viewBox="0 0 31.9999 31.9999" xml:space="preserve">
<desc>Created with Fabric.js 4.6.0</desc>
<defs>
</defs>
<g transform="matrix(1 0 0 1 16 16)" id="8QDYOOQu8gGC6C2hHx4-9"  >
<path style="stroke: none; stroke-width: 1; stroke-dasharray: none; stroke-linecap: butt; stroke-dashoffset: 0; stroke-linejoin: miter; stroke-miterlimit: 4; fill: rgb(255,255,255); fill-rule: nonzero; opacity: 1;" vector-effect="non-scaling-stroke"  transform=" translate(-10.57, -16)" d="M 20.82773 5.92794 L 5.5923099999999994 0.16197000000000017 C 3.5996699999999997 -0.25487999999999983 2.2996099999999995 0.19386000000000017 1.4673999999999996 0.8158400000000001 C 1.4425499999999996 0.8319500000000001 1.4193999999999996 0.8506100000000001 1.3982799999999995 0.8713100000000001 C 0.8199299999999995 1.3213400000000002 0.37950999999999957 1.9245400000000004 0.12712999999999952 2.61254 C -0.034260000000000485 3.15505 -0.04215000000000049 3.73179 0.10440999999999952 4.27867 L 0.10440999999999952 23.22907 C 0.09224999999999951 23.3415 -0.1598000000000005 26.00155 2.0225999999999997 26.87408 C 4.8194 27.9896 14.528849999999998 31.84731 14.82656 31.96571 C 14.847890000000001 31.974140000000002 14.869760000000001 31.9816 14.89184 31.98779 L 14.89184 31.98779 C 14.91541 31.99312 14.938880000000001 31.99686 14.96245 31.999950000000002 L 14.96245 31.999950000000002 L 15.00725 31.999950000000002 C 15.10485 32.000060000000005 15.20021 31.96976 15.279890000000002 31.91334 L 20.92747 27.953870000000002 C 21.0544 27.86502 21.130029999999998 27.71995 21.13024 27.565070000000002 L 21.13024 6.372970000000002 C 21.1312 6.176380000000003 21.01109 5.999530000000002 20.82805 5.927960000000002 z M 18.44106 28.54085 L 17.64821 29.09669 L 17.64821 9.404319999999998 C 17.64821 9.20624 17.52533 9.028959999999998 17.33994 8.959309999999999 L 1.0527799999999985 2.8394199999999987 C 1.2139499999999985 2.4107299999999987 1.4772099999999986 2.027899999999999 1.8197099999999984 1.7238999999999987 L 18.441059999999997 7.9698699999999985 z M 14.5362 30.82511 C 12.277 29.926759999999998 4.778969999999999 26.94692 2.377789999999999 25.98863 C 0.8673899999999992 25.385640000000002 1.0443499999999992 23.4105 1.0550199999999992 23.27844 L 1.0550199999999992 5.76474 C 1.344189999999999 6.004099999999999 1.6671799999999992 6.1996199999999995 2.0133099999999993 6.3449 C 3.0642999999999994 6.80058 5.135869999999999 7.6305499999999995 7.312299999999999 8.49317 L 7.312299999999999 14.65477 C 7.312089999999999 14.84165 7.421419999999999 15.01136 7.591769999999999 15.08837 C 7.762439999999999 15.16432 7.961579999999999 15.13477 8.102809999999998 15.012419999999999 L 9.754439999999999 13.55365 L 11.542069999999999 16.542559999999998 C 11.627939999999999 16.68592 11.78271 16.773919999999997 11.94986 16.77413 C 11.99263 16.77381 12.03519 16.768259999999998 12.07669 16.75749 C 12.2816 16.70053 12.42389 16.51461 12.425279999999999 16.30181 L 12.425279999999999 10.50469 L 14.53643 11.32784 z M 8.26302 8.86906 C 9.38238 9.311829999999999 10.491819999999999 9.746929999999999 11.47444 10.13199 L 11.47444 14.57594 L 10.27689 12.57338 C 10.20446 12.45135 10.081479999999999 12.36783 9.94132 12.345650000000001 C 9.80191 12.32581 9.660789999999999 12.366980000000002 9.55401 12.458720000000001 L 8.26302 13.59781 z M 15.18399 10.55941 C 15.08372 10.52069 5.16009 6.66458 2.3892100000000003 5.47152 C 1.5767300000000004 5.12144 1.2060600000000004 4.61339 1.0511800000000002 4.14032 C 1.0449900000000003 4.09339 1.0319800000000001 4.0475200000000005 1.0124600000000001 4.00443 C 0.9972100000000002 3.94363 0.9958200000000001 3.88816 0.9866500000000001 3.8297100000000004 L 16.69674 9.733920000000001 L 16.69674 29.763460000000002 L 15.487779999999999 30.610930000000003 L 15.487779999999999 11.002830000000003 C 15.48767 10.806560000000003 15.36703 10.630460000000003 15.18399 10.559420000000003 z M 20.18378 27.31909 L 19.391779999999997 27.87418 L 19.391779999999997 7.63888 C 19.391989999999996 7.4408 19.269109999999998 7.263310000000001 19.083509999999997 7.19387 L 2.9025899999999965 1.1165400000000005 C 3.5100599999999966 0.9229400000000005 4.296079999999996 0.8599000000000006 5.326589999999996 1.0747300000000006 L 20.183879999999995 6.704060000000001 z" stroke-linecap="round" />
</g>
</svg>