<?xml version="1.0" encoding="UTF-8" standalone="no" ?>
<!DOCTYPE svg PUBLIC "-//W3C//DTD SVG 1.1//EN" "http://www.w3.org/Graphics/SVG/1.1/DTD/svg11.dtd">
<svg xmlns="http://www.w3.org/2000/svg" xmlns:xlink="http://www.w3.org/1999/xlink" version="1.1" width="31.72" height="31.72" viewBox="0 0 31.72 31.72" xml:space="preserve">
<desc>Created with Fabric.js 4.6.0</desc>
<defs>
</defs>
<g transform="matrix(1 0 0 1 15.71 16)" id="IL44AzFjHLBGBd8SJ_Yuv"  >
<path style="stroke: rgb(0,0,0); stroke-width: 0; stroke-dasharray: none; stroke-linecap: butt; stroke-dashoffset: 0; stroke-linejoin: miter; stroke-miterlimit: 4; fill: rgb(255,255,255); fill-rule: nonzero; opacity: 1;" vector-effect="non-scaling-stroke"  transform=" translate(-14.71, -16)" d="M 1.9072 28.8 L 1.9072 19.200000000000003 C 1.9072 12.130770000000002 7.6378699999999995 6.400000000000002 14.7072 6.400000000000002 C 21.77643 6.400000000000002 27.5072 12.130770000000002 27.5072 19.200000000000003 L 27.5072 28.800000000000004 L 29.107200000000002 28.800000000000004 L 29.107200000000002 32.00000000000001 L 0.3072000000000017 32.00000000000001 L 0.3072000000000017 28.800000000000008 z M 5.1072 28.8 L 24.307199999999998 28.8 L 24.307199999999998 19.200000000000003 C 24.307199999999998 13.898030000000002 20.009169999999997 9.600000000000003 14.707199999999998 9.600000000000003 C 9.40523 9.600000000000003 5.107199999999999 13.898030000000002 5.107199999999999 19.200000000000003 z M 13.1072 0 L 16.3072 0 L 16.3072 4.8 L 13.107200000000002 4.8 z M 27.152 4.4928 L 29.4144 6.7552 L 26.0224 10.148800000000001 L 23.7584 7.886400000000002 z M 0 6.7552 L 2.2624 4.492800000000001 L 5.656000000000001 7.8848 L 3.3952000000000004 10.150400000000001 z M 6.7072 19.2 C 6.7072 14.781759999999998 10.28885 11.2 14.7072 11.2 L 14.7072 14.399999999999999 C 12.05632 14.399999999999999 9.9072 16.54901 9.9072 19.2 z" stroke-linecap="round" />
</g>
</svg>